<?xml version="1.0" encoding="iso-8859-1"?>
<!-- Generator: Adobe Illustrator 23.0.3, SVG Export Plug-In . SVG Version: 6.00 Build 0)  -->
<svg version="1.1" id="Capa_1" xmlns="http://www.w3.org/2000/svg" xmlns:xlink="http://www.w3.org/1999/xlink" x="0px" y="0px"
	 viewBox="0 0 512 512" style="enable-background:new 0 0 512 512;" xml:space="preserve">
<g>
	<g>
		<path style="fill-rule:evenodd;clip-rule:evenodd;fill:#8EBFE8;" d="M43.068,97.833h-7.405c-15.444,0-28.092,12.53-28.092,27.858
			v243.67c0,19.409,14.205,37.791,39.963,37.819l192.237,0.228l170.138-0.2L472,355.774V125.691
			c0-15.327-12.649-27.858-28.121-27.858h-7.376H43.068z"/>
	</g>
	<g>
		<path style="fill-rule:evenodd;clip-rule:evenodd;fill:#90A4AE;" d="M57.618,372.072h182.153l9.162-10.218l-9.162-8.42
			c-35.583-42.443-153.455-52.091-196.703,0v3.853C43.068,365.421,49.608,372.072,57.618,372.072L57.618,372.072z"/>
	</g>
	<g>
		<path style="fill-rule:evenodd;clip-rule:evenodd;fill:#90A4AE;" d="M436.503,353.434c-54.023-42.443-168.38-35.536-196.732,0
			v18.638h182.181c7.981,0,14.55-6.65,14.55-14.785V353.434z"/>
	</g>
	<g>
		<path style="fill-rule:evenodd;clip-rule:evenodd;fill:#ECEFF1;" d="M239.771,353.434l36.304-129.441L239.771,79.023
			c-27.487-15.784-112.398-25.66-174.344-8.22c-16.711,4.681-22.358,6.194-22.358,20.151v6.879v255.601
			C104.842,325.319,208.769,335.623,239.771,353.434L239.771,353.434z"/>
	</g>
	<g>
		<path style="fill-rule:evenodd;clip-rule:evenodd;fill:#ECEFF1;" d="M239.771,79.023v274.41
			c31.002-17.811,134.929-28.115,196.732,0V97.833v-6.879c0-13.957-5.676-15.47-22.387-20.151
			C352.169,53.363,267.287,63.239,239.771,79.023L239.771,79.023z"/>
	</g>
	<g>
		<path style="fill-rule:evenodd;clip-rule:evenodd;fill:#FFD54F;" d="M383.949,372.072l0.836,20.979
			c0.202,5.109,1.556,10.133,3.947,14.186l0,0c5.244,8.962,15.415,13.358,28.64,4.196l7.779-6.023l33.307,42.272
			c2.478,3.111,7.088,3.682,10.257,1.227l32.904-25.46c3.169-2.455,3.746-7.022,1.268-10.161l-33.336-42.243l7.779-6.023
			c15.876-13.701,7.923-27.915-5.33-34.023c-1.527-0.685-3.141-1.284-4.783-1.77l-30.714-8.848l-24.203-6.964
			c-19.852-6.65-28.294,0.942-29.648,16.07c-0.115,1.484-0.202,3.026-0.173,4.652l0.173,4.738l0,0L383.949,372.072z"/>
	</g>
	<g>
		<path style="fill-rule:evenodd;clip-rule:evenodd;fill:#E69B56;" d="M474.708,377.552c-6.742,18.724-19.132,34.765-35.122,46.182
			l18.872,23.947c2.478,3.111,7.088,3.682,10.257,1.227l32.904-25.46c3.169-2.455,3.746-7.022,1.268-10.161L474.708,377.552z"/>
	</g>
	<g>
		<path style="fill-rule:evenodd;clip-rule:evenodd;fill:#519AD6;" d="M383.949,372.072h-31.924v35.222l36.707-0.057
			c-2.391-4.053-3.746-9.077-3.947-14.186L383.949,372.072z"/>
	</g>
	<g>
		<path style="fill-rule:evenodd;clip-rule:evenodd;fill:#519AD6;" d="M436.503,225.619v94.762l30.714,8.848
			c1.642,0.485,3.256,1.085,4.783,1.77V125.691c0-15.327-12.649-27.858-28.121-27.858h-7.376v92.079V225.619z"/>
	</g>
	<g>
		<path style="fill-rule:evenodd;clip-rule:evenodd;fill:#C4CCCF;" d="M436.503,320.381v-94.762v-35.707V97.833v-6.879
			c0-13.957-5.676-15.47-22.387-20.151c-19.276-5.452-40.77-8.22-62.091-8.991v36.021v25.375v51.377v51.406v51.377v47.495v11.389
			c10.257,0.371,20.543,1.227,30.628,2.626l-0.173-4.738c-0.029-1.627,0.058-3.168,0.173-4.652
			c1.354-15.128,9.796-22.72,29.648-16.07L436.503,320.381z"/>
	</g>
	<g>
		<path style="fill-rule:evenodd;clip-rule:evenodd;fill:#546E7A;" d="M383.949,372.072l-1.297-33.195l0,0
			c-10.084-1.399-20.37-2.255-30.628-2.626l0,0v35.821H383.949z"/>
	</g>
	<g>
		<path d="M205.628,226.677c-11.141-6.407-33.213-10.91-57.602-11.75c-16.262-0.559-47.223,0.18-71.882,11.424
			c-3.805,1.735-5.482,6.225-3.747,10.03c1.271,2.786,4.019,4.431,6.893,4.431c1.051,0,2.119-0.22,3.137-0.684
			c36.798-16.781,98.698-10.076,115.651-0.326c3.623,2.085,8.253,0.837,10.338-2.788
			C210.501,233.39,209.253,228.762,205.628,226.677z"/>
		<path d="M205.636,278.087c-11.139-6.423-33.214-10.935-57.61-11.776c-16.256-0.561-47.223,0.183-71.886,11.448
			c-3.804,1.737-5.478,6.229-3.741,10.032c1.272,2.783,4.018,4.427,6.891,4.427c1.052,0,2.122-0.221,3.141-0.686
			c36.811-16.814,98.698-10.097,115.64-0.328c3.621,2.089,8.251,0.846,10.341-2.776
			C210.501,284.806,209.258,280.176,205.636,278.087z"/>
		<path d="M79.29,189.435c1.051,0,2.119-0.22,3.137-0.684c36.84-16.801,98.718-10.091,115.644-0.33
			c3.621,2.088,8.251,0.846,10.341-2.776c2.089-3.622,0.846-8.251-2.777-10.34c-11.134-6.421-33.209-10.929-57.611-11.765
			c-16.256-0.554-47.215,0.187-71.881,11.435c-3.805,1.735-5.482,6.225-3.747,10.03C73.668,187.79,76.416,189.435,79.29,189.435z"/>
		<path d="M205.636,123.928c-11.139-6.423-33.214-10.935-57.61-11.776c-16.259-0.56-47.224,0.183-71.886,11.448
			c-3.804,1.737-5.478,6.229-3.741,10.032c1.272,2.784,4.018,4.427,6.891,4.427c1.052,0,2.122-0.221,3.141-0.686
			c36.812-16.813,98.699-10.097,115.64-0.328c3.621,2.088,8.251,0.847,10.341-2.776
			C210.501,130.646,209.258,126.016,205.636,123.928z"/>
		<path d="M403.399,229.605c-39.668-18.088-106.726-12.745-129.481,0.323c-3.626,2.082-4.877,6.71-2.795,10.336
			c2.083,3.626,6.709,4.876,10.336,2.794c16.968-9.745,78.882-16.447,115.656,0.323c1.019,0.465,2.086,0.684,3.137,0.684
			c2.874,0,5.622-1.645,6.893-4.431C408.88,235.831,407.203,231.34,403.399,229.605z"/>
		<path d="M403.399,281.011c-39.712-18.109-106.763-12.757-129.488,0.328c-3.623,2.086-4.87,6.715-2.783,10.339
			c2.086,3.623,6.716,4.868,10.339,2.783c16.94-9.755,78.833-16.461,115.649,0.328c1.019,0.465,2.086,0.684,3.137,0.684
			c2.874,0,5.622-1.645,6.893-4.431C408.88,287.236,407.203,282.746,403.399,281.011z"/>
		<path d="M281.459,191.682c16.968-9.745,78.882-16.447,115.656,0.323c1.019,0.465,2.086,0.684,3.137,0.684
			c2.874,0,5.622-1.645,6.893-4.431c1.735-3.804,0.057-8.295-3.747-10.03c-39.668-18.088-106.726-12.745-129.481,0.323
			c-3.626,2.082-4.877,6.71-2.795,10.336C273.206,192.513,277.832,193.764,281.459,191.682z"/>
		<path d="M281.467,140.3c16.956-9.763,78.857-16.477,115.645,0.326c1.02,0.466,2.089,0.686,3.141,0.686
			c2.873,0,5.62-1.643,6.892-4.427c1.737-3.803,0.063-8.294-3.741-10.032c-39.686-18.127-106.747-12.771-129.492,0.326
			c-3.623,2.086-4.87,6.715-2.783,10.339C273.214,141.141,277.844,142.387,281.467,140.3z"/>
		<path d="M508.83,408.598l-28.603-36.245l1.737-1.345c0.106-0.082,0.21-0.167,0.312-0.255c12.208-10.538,12.07-21.07,10.901-26.411
			c-1.531-6.999-6.548-13.381-13.607-17.814V125.691c0-19.474-15.913-35.325-35.509-35.423
			c-0.26-18.997-11.183-22.071-27.628-26.677l-0.266-0.075c-28.964-8.154-65.425-11.211-102.663-8.614
			c-30.84,2.153-57.873,7.905-73.73,15.579c-17.826-8.643-49.551-14.765-84.551-16.176c-4.18-0.177-7.701,3.081-7.87,7.259
			c-0.168,4.178,3.082,7.701,7.26,7.869c31.526,1.272,61.728,6.874,77.587,14.213v258.049c-18.981-7.063-48.185-11.994-78.982-13.05
			c-23.369-0.798-65.93,0.087-102.579,13.524V90.954c0-7.995,0-8.147,16.583-12.792l0.259-0.073
			c16.697-4.708,35.823-7.592,56.846-8.573c4.177-0.195,7.405-3.738,7.21-7.915c-0.194-4.176-3.729-7.413-7.916-7.209
			c-22.173,1.034-42.444,4.104-60.237,9.121l-0.247,0.069c-16.445,4.606-27.368,7.68-27.628,26.684
			C15.916,90.35,0,106.207,0,125.691v243.67c0,22.529,16.325,45.355,47.525,45.39l337.256,0.062c2.348,2.891,5.162,5.238,8.37,6.84
			c4.936,2.466,15.206,5.227,28.528-3.995c0.111-0.077,0.22-0.156,0.326-0.239l1.844-1.427l28.686,36.407
			c2.93,3.679,7.296,5.602,11.701,5.602c3.196,0,6.412-1.013,9.113-3.104l32.906-25.462c3.149-2.439,5.149-5.957,5.633-9.908
			C512.37,415.588,511.284,411.707,508.83,408.598z M412.073,78.093l0.275,0.077c16.583,4.645,16.583,4.798,16.583,12.784v98.958
			c0,4.181,3.39,7.57,7.571,7.57s7.571-3.389,7.571-7.57v-84.499c11.241,0.105,20.355,9.156,20.355,20.277v194.858l-20.355-5.861
			v-89.068c0-4.181-3.39-7.57-7.571-7.57s-7.571,3.389-7.571,7.57v84.708l-14.388-4.143c-12.344-4.093-22.167-3.596-29.2,1.477
			c-6.214,4.482-9.67,12.099-10.316,22.655c-48.29-5.205-99.69,1.035-127.686,11.402V83.634
			C276.716,69.937,354.278,61.822,412.073,78.093z M247.342,358.048c23.505-10.925,78.188-18.167,128.008-12.46l0.74,18.913H247.342
			V358.048z M232.2,358.058v6.443H57.619c-3.489,0-6.379-2.663-6.891-6.124C108.908,334.483,200.688,343.522,232.2,358.058z
			 M15.142,369.36v-243.67c0-11.131,9.117-20.189,20.355-20.279v251.875c0,12.327,9.923,22.356,22.122,22.356H232.2v20.186
			l-184.658-0.219C25.281,399.584,15.142,383.912,15.142,369.36z M247.342,399.829v-20.187h129.34l0.536,13.701
			c0.084,2.177,0.343,4.292,0.74,6.335L247.342,399.829z M464.246,442.795l-33.148-42.07c-1.493-1.895-3.711-2.886-5.952-2.886
			c-1.62,0-3.251,0.517-4.63,1.585l-7.612,5.892c-3.616,2.471-8.749,4.907-12.985,2.791c-4.189-2.093-7.302-8.405-7.57-15.352
			l-2.299-58.765c0.007-7.136,1.481-12.123,4.153-14.05c2.803-2.022,8.378-1.79,15.698,0.656c0.101,0.034,0.203,0.065,0.305,0.094
			l54.91,15.812c6.817,1.97,12.275,6.524,13.271,11.076c0.979,4.474-2.608,8.749-5.858,11.588l-7.612,5.892
			c-1.597,1.236-2.634,3.06-2.88,5.065c-0.246,2.005,0.32,4.025,1.571,5.611l33.1,41.944L464.246,442.795z"/>
	</g>
</g>
<g>
</g>
<g>
</g>
<g>
</g>
<g>
</g>
<g>
</g>
<g>
</g>
<g>
</g>
<g>
</g>
<g>
</g>
<g>
</g>
<g>
</g>
<g>
</g>
<g>
</g>
<g>
</g>
<g>
</g>
</svg>
