<?xml version="1.0" encoding="iso-8859-1"?>
<!-- Generator: Adobe Illustrator 23.0.3, SVG Export Plug-In . SVG Version: 6.00 Build 0)  -->
<svg version="1.1" id="Capa_1" xmlns="http://www.w3.org/2000/svg" xmlns:xlink="http://www.w3.org/1999/xlink" x="0px" y="0px"
	 viewBox="0 0 512 512" style="enable-background:new 0 0 512 512;" xml:space="preserve">
<g>
	<g>
		<path style="fill-rule:evenodd;clip-rule:evenodd;fill:#8EBFE8;" d="M245.498,446.784c99.255,0,180.201-80.832,180.201-179.949
			S344.753,86.885,245.498,86.885S65.297,167.718,65.297,266.835S146.243,446.784,245.498,446.784L245.498,446.784z"/>
	</g>
	<g>
		<path style="fill-rule:evenodd;clip-rule:evenodd;fill:#8BC34A;" d="M174.605,334.851c-50.062,17.561-57.363-36.713-91.984,9.084
			c24.683,51.931,73.529,90.148,132.051,100.216C251.785,408.913,223.248,317.753,174.605,334.851L174.605,334.851z"/>
	</g>
	<g>
		<path style="fill-rule:evenodd;clip-rule:evenodd;fill:#8BC34A;" d="M384.965,380.793c0,0-57.218-7.319-35.866-63.04
			c21.352-55.692-21.439-76.753-67.445-88.441c-35.866-9.113-42.443-60.494-29.985-82.192
			c17.296-30.146,66.895-42.152,120.607-8.187c32.998,32.634,53.423,77.882,53.423,127.903
			C425.699,310.086,410.431,349.779,384.965,380.793L384.965,380.793z"/>
	</g>
	<g>
		<path style="fill-rule:evenodd;clip-rule:evenodd;fill:#8BC34A;" d="M155.253,205.125c39.604-8.043,45.89-86.734-7.446-89.541
			c-49.657,32.055-82.51,87.805-82.51,151.25c0,5.497,0.232,10.907,0.724,16.288C126.948,289.111,70.888,222.223,155.253,205.125
			L155.253,205.125z"/>
	</g>
	<g>
		<path style="fill-rule:evenodd;clip-rule:evenodd;fill:#FFD54F;" d="M73.148,399.193c0-13.974-11.328-25.285-25.292-25.285
			c-4.751,0-9.184,1.302-12.979,3.587c-7.388,4.397-12.342,12.469-12.342,21.698c0,13.945,11.328,25.257,25.321,25.257
			c5.707,0,10.951-1.88,15.181-5.063C69.179,414.757,73.148,407.438,73.148,399.193L73.148,399.193z"/>
	</g>
	<g>
		<path style="fill-rule:evenodd;clip-rule:evenodd;fill:#FFD54F;" d="M203.982,58.07c13.993,0,25.321-11.312,25.321-25.257
			c0-1.042-0.058-2.054-0.203-3.038c-1.507-12.527-12.168-22.219-25.118-22.219c-13.964,0-25.292,11.312-25.292,25.257
			c0,1.967,0.232,3.877,0.637,5.699C181.935,49.738,191.988,58.07,203.982,58.07L203.982,58.07z"/>
	</g>
	<g>
		<path style="fill-rule:evenodd;clip-rule:evenodd;fill:#519AD6;" d="M229.013,87.609c31.666,2.893,60.955,13.916,85.755,31.014
			c17.586,1.244,37.257,7.522,57.508,20.309c-32.564-32.171-77.353-52.046-126.778-52.046
			C239.935,86.885,234.431,87.117,229.013,87.609L229.013,87.609z"/>
	</g>
	<g>
		<path style="fill-rule:evenodd;clip-rule:evenodd;fill:#689F38;" d="M314.768,118.622c47.107,32.46,77.962,86.734,77.962,148.212
			c0,38.68-12.226,74.526-32.998,103.861c2.028,1.475,4.143,2.748,6.229,3.848c22.655,2.922,29.261-6.365,31.144-10.386
			c18.107-28.063,28.595-61.478,28.595-97.323c0-50.021-20.425-95.269-53.423-127.903
			C352.025,126.144,332.354,119.866,314.768,118.622L314.768,118.622z"/>
	</g>
	<g>
		<path style="fill-rule:evenodd;clip-rule:evenodd;fill:#519AD6;" d="M359.731,370.696
			c-29.667,41.834-76.745,70.475-130.718,75.336c5.418,0.492,10.922,0.752,16.485,0.752c46.702,0,89.26-17.735,121.274-46.839
			l-1.449-14.147c-0.29-4.224-0.087-8.014,0.637-11.254C363.874,373.444,361.759,372.171,359.731,370.696L359.731,370.696z"/>
	</g>
	<g>
		<path style="fill-rule:evenodd;clip-rule:evenodd;fill:#C4CCCF;" d="M489.059,456.967l-35.519-39.924l7.272-6.452
			c16.485-16.288,3.737-31.39-12.226-34.948l-55.161-12.325c-21.931-5.873-29.29,4.397-28.102,22.479l5.968,58.411
			c1.68,16.259,15.181,30.667,33.317,16.23l7.272-6.452l35.548,39.924c2.636,2.951,7.214,3.24,10.169,0.608l30.854-27.368
			C491.435,464.518,491.695,459.918,489.059,456.967L489.059,456.967z"/>
	</g>
	<g>
		<path style="fill-rule:evenodd;clip-rule:evenodd;fill:#90A4AE;" d="M457.77,423.928c0,21.553-9.445,40.908-24.423,54.187
			l14.08,15.796c2.636,2.951,7.214,3.24,10.169,0.608l30.854-27.368c2.984-2.633,3.245-7.233,0.608-10.184l-31.318-35.209
			C457.77,422.482,457.77,423.205,457.77,423.928L457.77,423.928z"/>
	</g>
	<g>
		<path style="fill-rule:evenodd;clip-rule:evenodd;fill:#FFD54F;" d="M453.83,221.558c0,13.974,11.328,25.285,25.321,25.285
			c1.159,0,2.318-0.087,3.448-0.231c12.342-1.707,21.844-12.267,21.844-25.054c0-13.945-11.328-25.257-25.292-25.257
			c-2.115,0-4.172,0.26-6.113,0.752C462,199.773,453.83,209.725,453.83,221.558L453.83,221.558z"/>
	</g>
	<g>
		<path style="fill-rule:evenodd;clip-rule:evenodd;fill:#E69B56;" d="M466.49,243.459c3.737,2.141,8.054,3.385,12.66,3.385
			c1.159,0,2.318-0.087,3.448-0.231c12.342-1.707,21.844-12.267,21.844-25.054c0-13.945-11.328-25.257-25.292-25.257
			c-2.115,0-4.172,0.26-6.113,0.752c-2.318,0.579-4.52,1.475-6.547,2.633c7.561,4.369,12.66,12.527,12.66,21.872
			C479.151,230.932,474.052,239.09,466.49,243.459L466.49,243.459z"/>
	</g>
	<g>
		<path style="fill-rule:evenodd;clip-rule:evenodd;fill:#E69B56;" d="M193.379,55.756c3.216,1.504,6.808,2.314,10.603,2.314
			c1.188,0,2.347-0.058,3.477-0.231c12.342-1.678,21.844-12.238,21.844-25.025c0-13.945-11.328-25.257-25.321-25.257
			c-2.086,0-4.143,0.26-6.113,0.723c-1.564,0.405-3.071,0.926-4.491,1.591c8.662,4.021,14.659,12.787,14.659,22.942
			S202.041,51.735,193.379,55.756L193.379,55.756z"/>
	</g>
	<g>
		<path style="fill-rule:evenodd;clip-rule:evenodd;fill:#E69B56;" d="M37.224,422.135c3.245,1.475,6.837,2.314,10.632,2.314
			c1.159,0,2.318-0.087,3.448-0.231c12.342-1.678,21.844-12.238,21.844-25.025c0-13.974-11.328-25.285-25.292-25.285
			c-2.115,0-4.172,0.26-6.113,0.752c-1.564,0.376-3.071,0.926-4.52,1.591c8.662,3.992,14.688,12.758,14.688,22.942
			C51.912,409.347,45.886,418.113,37.224,422.135L37.224,422.135z"/>
	</g>
	<path d="M512,221.558c0-18.093-14.736-32.814-32.849-32.814c-0.296,0-0.588,0.015-0.882,0.022
		c-15.711-46.652-45.887-88.416-85.506-118.129C350.019,38.583,299.096,21.64,245.498,21.64c-3.453,0-6.975,0.088-10.52,0.243
		C230.456,9.149,218.272,0,203.982,0c-18.113,0-32.849,14.72-32.849,32.814c0,0.109,0.007,0.215,0.008,0.324
		C123.488,48.269,80.737,78.293,50.228,118.21C17.369,161.203,0,212.596,0,266.834c0,37.594,8.733,74.965,25.296,108.5
		c-6.346,5.991-10.318,14.467-10.318,23.858c0,18.094,14.749,32.814,32.878,32.814c4.841,0,9.436-1.06,13.577-2.946
		C108.092,481.849,174.81,512,245.498,512c48.261,0,94.793-13.922,134.902-40.307c0.339,0.162,0.673,0.334,1.02,0.479
		c5.032,2.113,15.345,4.169,27.894-5.82c0.105-0.084,0.208-0.17,0.309-0.26l1.629-1.445l30.54,34.299
		c2.92,3.269,6.976,4.936,11.044,4.936c3.487,0,6.984-1.224,9.781-3.715l30.833-27.35c2.961-2.612,4.72-6.23,4.955-10.186
		c0.235-3.957-1.083-7.757-3.701-10.687l-30.489-34.27l1.611-1.429c0.101-0.09,0.2-0.182,0.296-0.277
		c11.406-11.269,10.579-21.747,9.071-26.99c-1.482-5.151-4.891-9.826-9.563-13.513c16.629-33.574,25.393-70.977,25.393-108.629
		c0-4.744-0.153-9.534-0.449-14.486C503.073,247.698,512,235.652,512,221.558z M203.982,15.115c9.104,0,16.621,6.862,17.637,15.667
		c0.014,0.101,0.021,0.205,0.039,0.304c0.056,0.569,0.088,1.145,0.088,1.728c0,9.759-7.969,17.7-17.763,17.7
		c-9.779,0-17.735-7.94-17.735-17.7S194.203,15.115,203.982,15.115z M30.093,399.193c0-9.775,7.969-17.728,17.763-17.728
		c9.779,0,17.735,7.953,17.735,17.728c0,9.759-7.956,17.7-17.735,17.7C38.062,416.892,30.093,408.952,30.093,399.193z
		 M483.178,461.726l-30.333,26.905l-35.321-39.67c-1.493-1.676-3.565-2.532-5.647-2.532c-1.783,0-3.574,0.628-5.013,1.904
		l-7.113,6.311c-3.377,2.656-8.233,5.378-12.477,3.592c-4.27-1.794-7.751-7.882-8.465-14.796l-5.954-58.271
		c-0.45-7.121,0.692-12.18,3.219-14.255c2.617-2.149,8.084-2.255,15.395-0.297c0.102,0.027,0.204,0.052,0.307,0.075l55.165,12.326
		c6.802,1.516,12.447,5.684,13.727,10.135c1.268,4.41-2.001,8.894-5.032,11.925l-7.112,6.31c-1.501,1.331-2.411,3.205-2.529,5.207
		c-0.118,2.002,0.564,3.97,1.898,5.469L483.178,461.726z M452.092,368.738c-0.614-0.167-1.23-0.33-1.858-0.47l-41.219-9.21
		c0.002-0.003,0.004-0.007,0.006-0.01c15.883-28.035,24.235-59.693,24.235-92.213c0-47.78-17.998-91.435-47.566-124.582
		c-2.56-2.967-8.743-9.262-9.094-9.508c-33.864-33.027-80.138-53.416-131.098-53.416c-37.046,0-71.618,10.774-100.747,29.344
		c-0.752,0.333-1.442,0.781-2.043,1.331C91.576,143.54,57.74,201.311,57.74,266.834c0,5.542,0.256,11.024,0.73,16.445
		c0.007,0.332,0.039,0.658,0.087,0.979c2.035,21.945,7.88,42.802,16.853,61.914c0.213,0.689,0.526,1.349,0.934,1.96
		c25.86,53.453,76.381,92.863,136.726,103.4c0.122,0.026,0.245,0.046,0.368,0.067c10.421,1.798,21.132,2.742,32.06,2.742
		c13.113,0,26.128-1.343,38.689-3.992c4.082-0.861,6.991-4.737,6.233-8.84c-0.776-4.2-4.856-6.91-9.008-6.023
		c-11.643,2.481-23.726,3.739-35.914,3.739c-5.604,0-11.144-0.273-16.613-0.797c6.33-10.281,9.914-23.052,10.269-37.201
		c0.448-17.886-4.286-36.307-12.989-50.541c-13.225-21.632-33.437-30.218-54.062-22.968c-19.546,6.856-31.049,1.374-42.174-3.927
		c-7.588-3.616-15.432-7.354-24.57-5.991c-6.915,1.031-13.603,4.91-20.568,11.977c-4.85-12.304-8.33-25.291-10.233-38.778
		c26.719-0.727,30.673-18.535,33.895-33.128c4.04-18.297,8.217-37.217,48.303-45.342c11.926-2.422,22.237-10.308,29.031-22.204
		c5.999-10.502,8.908-23.718,7.98-36.256c-1.419-19.161-11.089-33.891-25.989-41.144c23.373-11.816,49.779-18.485,77.719-18.485
		c26.844,0,52.275,6.151,74.958,17.113c-11.58-1.388-22.841-0.814-33.439,1.814c-18.567,4.603-33.449,15.254-41.899,29.982
		c-4.843,8.421-7.236,20.067-6.737,32.792c0.164,4.17,3.684,7.414,7.848,7.255c4.17-0.164,7.419-3.677,7.255-7.848
		c-0.383-9.775,1.343-18.765,4.74-24.671c6.384-11.127,17.901-19.238,32.43-22.84c22.974-5.695,50.106,0.208,76.522,16.619
		c30.373,30.163,49.598,71.504,50.89,117.249c0.005,0.172,0.015,0.344,0.019,0.516c0.037,1.466,0.056,2.936,0.056,4.411
		c0,31.44-8.483,61.998-24.579,88.722c-0.17-0.041-0.329-0.074-0.493-0.111c-0.105-0.024-0.21-0.047-0.314-0.071
		c-0.1-0.021-0.198-0.042-0.297-0.062c-11.097-2.433-19.829-1.124-25.975,3.92c-1.449,1.19-2.71,2.568-3.805,4.11
		c-0.021,0.026-0.055,0.044-0.074,0.071c-11.77-9.464-13.867-23.598-6.45-42.956c8.077-21.067,8.176-39.465,0.293-54.681
		c-13.506-26.074-48.093-37.479-72.932-43.79c-7.084-1.802-13.158-5.725-18.05-11.659c-2.654-3.22-7.417-3.678-10.639-1.024
		c-3.22,2.655-3.679,7.418-1.024,10.639c6.98,8.466,15.723,14.082,25.989,16.693c34.991,8.89,55.084,20.359,63.235,36.093
		c5.893,11.376,5.57,25.218-0.986,42.32c-13.8,36.017,2.06,54.617,15.752,63.467c-0.182,2.427-0.194,5.014-0.012,7.777
		c0.006,0.091,0.014,0.182,0.023,0.272l1.052,10.302c-12.871,11.187-27.236,20.376-42.751,27.342
		c-4.094,1.838-5.753,6.871-3.355,10.837c2.006,3.317,6.299,4.416,9.833,2.822c13.587-6.127,26.357-13.825,38.116-22.961
		l3.073,30.079c0.622,6.023,2.472,11.513,5.246,16.066c-36.93,23.468-79.456,35.834-123.521,35.834
		c-66.012,0-128.332-28.017-172.089-77.103c4.559-5.635,7.297-12.797,7.297-20.589c0-18.11-14.736-32.843-32.849-32.843
		c-3.287,0-6.459,0.49-9.456,1.391c-15.252-31.229-23.285-65.963-23.285-100.906c0-99.587,65.319-188.645,159.679-218.997
		c5.467,10.555,16.495,17.79,29.189,17.79c16.728,0,30.568-12.535,32.609-28.687c3.002-0.12,5.982-0.186,8.907-0.186
		c99.574,0,186.359,62.355,218.13,155.886c-10.322,5.541-17.356,16.424-17.356,28.917c0,16.893,12.835,30.843,29.275,32.642
		c0.241,4.315,0.363,8.496,0.363,12.635C475.91,302.16,467.689,337.246,452.092,368.738z M149.932,123.336
		c24.649,2.705,28.249,24.92,28.762,31.851c1.343,18.144-7.62,39.013-24.942,42.532c-49.72,10.076-55.695,37.137-60.057,56.896
		c-3.225,14.606-4.776,21.56-20.597,21.361c-0.159-3.028-0.243-6.075-0.243-9.141C72.854,207.041,103.503,154.268,149.932,123.336z
		 M212.028,435.963c-52.662-10.374-96.791-44.735-120.469-91.174c13.274-16.206,19.407-13.291,31.868-7.353
		c11.924,5.683,28.256,13.464,53.684,4.544c18.63-6.548,30.652,7.585,36.159,16.592
		C226.623,380.412,228.932,416.471,212.028,435.963z M481.173,239.162c-0.15,0.016-0.3,0.031-0.447,0.044
		c-0.52,0.046-1.044,0.08-1.575,0.08c-9.795,0-17.763-7.953-17.763-17.728c0-9.759,7.968-17.699,17.763-17.699
		c9.779,0,17.735,7.94,17.735,17.699C496.885,230.649,490.002,238.155,481.173,239.162z"/>
</g>
<g>
</g>
<g>
</g>
<g>
</g>
<g>
</g>
<g>
</g>
<g>
</g>
<g>
</g>
<g>
</g>
<g>
</g>
<g>
</g>
<g>
</g>
<g>
</g>
<g>
</g>
<g>
</g>
<g>
</g>
</svg>
