<?xml version="1.0" encoding="iso-8859-1"?>
<!-- Generator: Adobe Illustrator 23.0.3, SVG Export Plug-In . SVG Version: 6.00 Build 0)  -->
<svg version="1.1" id="Capa_1" xmlns="http://www.w3.org/2000/svg" xmlns:xlink="http://www.w3.org/1999/xlink" x="0px" y="0px"
	 viewBox="0 0 512 512" style="enable-background:new 0 0 512 512;" xml:space="preserve">
<g>
	<g>
		<path style="fill-rule:evenodd;clip-rule:evenodd;fill:#546E7A;" d="M33.747,23.496c-14.429,0-26.249,11.79-26.249,26.243v306.444
			h497.004V49.739c0-14.425-11.821-26.045-26.249-26.243C464.052,23.269,101.241,23.496,33.747,23.496L33.747,23.496z"/>
	</g>
	<g>
		<path style="fill-rule:evenodd;clip-rule:evenodd;fill:#8EBFE8;" d="M51.124,321.608H460.65c3.09,0,5.613-2.522,5.613-5.611
			V186.935V67.31c0-3.061-2.523-5.583-5.613-5.583c-10.233,0-398.556,0-409.526,0c-3.061,0-5.584,2.522-5.584,5.583v248.686
			C45.539,319.086,48.062,321.608,51.124,321.608L51.124,321.608z"/>
	</g>
	<g>
		<path style="fill-rule:evenodd;clip-rule:evenodd;fill:#ECEFF1;" d="M504.502,356.183H7.498v20.405
			c0,14.425,11.821,26.243,26.249,26.243h155.596h144.37h144.54c14.428,0,26.249-11.818,26.249-26.243V356.183z"/>
	</g>
	<g>
		<polygon style="fill-rule:evenodd;clip-rule:evenodd;fill:#C4CCCF;" points="333.713,402.831 189.343,402.831 178.543,444.18 
			344.485,444.18 		"/>
	</g>
	<g>
		<path style="fill-rule:evenodd;clip-rule:evenodd;fill:#ECEFF1;" d="M344.485,444.18H178.543h-23.755
			c-12.189,0-22.167,9.976-22.167,22.162V478.5c0,5.498,4.507,10.004,10.006,10.004H380.4c5.499,0,10.006-4.506,10.006-10.004
			v-12.158c0-12.186-9.978-22.162-22.167-22.162H344.485z"/>
	</g>
	<g>
		<path style="fill-rule:evenodd;clip-rule:evenodd;fill:#35505C;" d="M466.263,67.31v119.625v129.062
			c0,3.089-2.523,5.611-5.613,5.611h-30.53v34.575h74.382V49.739c0-14.425-11.821-25.931-26.249-26.243
			c-2.976-0.057-21.005-0.085-48.331-0.085v26.243c0.113,0.992,0.198,2.012,0.198,3.061v9.012h30.53
			C463.74,61.727,466.263,64.249,466.263,67.31L466.263,67.31z"/>
	</g>
	<g>
		<path style="fill-rule:evenodd;clip-rule:evenodd;fill:#C4CCCF;" d="M504.502,356.183H430.12v46.648h48.133
			c14.428,0,26.249-11.818,26.249-26.243V356.183z"/>
	</g>
	<g>
		<path style="fill-rule:evenodd;clip-rule:evenodd;fill:#C4CCCF;" d="M329.603,444.18c12.189,0,22.167,9.976,22.167,22.162V478.5
			c0,5.498-4.507,10.004-10.006,10.004H380.4c5.499,0,10.006-4.506,10.006-10.004v-12.158c0-12.186-9.978-22.162-22.167-22.162
			h-23.755H329.603z"/>
	</g>
	<g>
		<path style="fill-rule:evenodd;clip-rule:evenodd;fill:#90A4AE;" d="M295.076,402.831H189.343l-5.868,22.502h95.387
			c11.792,0,23.103-0.482,25.229,7.567l1.758,11.279h23.755h14.882l-10.772-41.349H295.076z"/>
	</g>
	<g>
		<path style="fill-rule:evenodd;clip-rule:evenodd;fill:#519AD6;" d="M429.922,61.727v259.881h0.198h30.53
			c3.09,0,5.613-2.522,5.613-5.611V186.935v-14.595V67.31c0-3.061-2.523-5.583-5.613-5.583h-30.53H429.922z"/>
	</g>
	<g>
		<path style="fill-rule:evenodd;clip-rule:evenodd;fill:#546E7A;" d="M234.159,266.458h38.722h61.966h7.767
			c12.473,0,22.706-10.203,22.706-22.701V181.55l-92.581,21.624c-10.715,2.664-16.611,3.996-22.479,3.996
			c-5.896,0-11.764-1.332-22.507-3.996l-92.581-21.624v62.207c0,12.13,9.666,22.134,21.685,22.672
			c8.561,0.397,17.717,0.283,26.759,0.17v-0.142H198.3H234.159z"/>
	</g>
	<g>
		<path style="fill-rule:evenodd;clip-rule:evenodd;fill:#7C8C94;" d="M227.753,203.174c10.743,2.664,16.611,3.996,22.507,3.996
			c5.868,0,11.764-1.332,22.479-3.996l92.581-21.624l38.183-8.927c0.624-0.142,1.219-0.312,1.786-0.51
			c5.896-2.012,8.277-6.518,7.965-10.939c0.34-4.875-2.551-9.777-9.751-11.478l-130.764-30.523
			c-10.715-2.664-16.611-3.996-22.479-3.996c-5.896,0-11.764,1.332-22.507,3.996L97.017,149.695
			c-7.228,1.7-10.091,6.603-9.751,11.478c-0.34,4.846,2.523,9.777,9.751,11.45l38.155,8.927L227.753,203.174z"/>
	</g>
	<g>
		<path style="fill-rule:evenodd;clip-rule:evenodd;fill:#546E7A;" d="M403.503,149.695l-99.356-23.182
			c18.284,15.871,30.983,37.183,35.065,61.13l26.107-6.093l38.183-8.927c0.624-0.142,1.219-0.312,1.786-0.51
			c5.896-2.012,8.277-6.518,7.965-10.939C413.594,156.299,410.703,151.396,403.503,149.695L403.503,149.695z"/>
	</g>
	<g>
		<path style="fill-rule:evenodd;clip-rule:evenodd;fill:#37474F;" d="M339.212,234.518v31.94h3.402
			c12.473,0,22.706-10.203,22.706-22.701V201.53v-19.98l-92.581,21.624c-10.715,2.664-16.611,3.996-22.479,3.996
			c-5.896,0-11.764-1.332-22.507-3.996l-92.581-21.624v19.98l92.581,21.624c10.743,2.664,16.611,3.996,22.507,3.996
			c5.868,0,11.764-1.332,22.479-3.996l56.183-13.122C341.849,207.028,339.212,220.603,339.212,234.518L339.212,234.518z"/>
	</g>
	<g>
		<path style="fill-rule:evenodd;clip-rule:evenodd;fill:#FFD54F;" d="M391.455,227.433v21.737c0,7.595,6.208,13.83,13.833,13.83
			c7.597,0,13.833-6.235,13.833-13.83v-21.737c0-7.595-6.236-13.83-13.833-13.83C397.663,213.603,391.455,219.838,391.455,227.433
			L391.455,227.433z"/>
	</g>
	<g>
		<path style="fill-rule:evenodd;clip-rule:evenodd;fill:#E69B56;" d="M400.271,214.538c5.159,2.041,6.293,7.057,6.293,12.895
			v21.737c0,5.838-1.134,10.883-6.293,12.895c1.559,0.595,3.26,0.935,5.017,0.935c7.597,0,13.833-6.235,13.833-13.83v-21.737
			c0-7.595-6.236-13.83-13.833-13.83C403.531,213.603,401.83,213.943,400.271,214.538L400.271,214.538z"/>
	</g>
	<g>
		<path d="M51.124,329.104H460.65c7.229,0,13.11-5.88,13.11-13.108V67.31c0-7.212-5.881-13.079-13.11-13.079H275.205
			c-4.141,0-7.498,3.356-7.498,7.496c0,4.14,3.356,7.496,7.498,7.496h183.56v244.889H53.037V69.223H240.31
			c4.141,0,7.498-3.356,7.498-7.496c0-4.14-3.357-7.496-7.498-7.496H51.124c-7.214,0-13.082,5.867-13.082,13.079v248.686
			C38.041,323.224,43.91,329.104,51.124,329.104z"/>
		<path d="M478.415,16.002C478.361,16,478.308,16,478.253,16H33.747C15.139,16,0,31.136,0,49.739v326.849
			c0,18.603,15.139,33.739,33.747,33.739h145.888l-6.884,26.357h-17.963c-16.357,0-29.665,13.305-29.665,29.658V478.5
			c0,9.649,7.853,17.5,17.504,17.5H380.4c9.652,0,17.504-7.851,17.504-17.5v-12.158c0-16.353-13.308-29.658-29.665-29.658h-17.964
			l-6.884-26.357h134.862c18.608,0,33.747-15.136,33.747-33.739V49.739C512,31.536,496.934,16.401,478.415,16.002z M33.747,30.992
			h444.418c10.395,0.263,18.84,8.658,18.84,18.747v298.948H14.996V49.739C14.996,39.402,23.407,30.992,33.747,30.992z
			 M382.909,466.342V478.5c0,1.359-1.149,2.508-2.509,2.508H142.627c-1.36,0-2.508-1.149-2.508-2.508v-12.158
			c0-8.087,6.581-14.666,14.669-14.666h23.729c0.01,0,0.02,0.002,0.03,0.002c0.008,0,0.015-0.002,0.023-0.002h165.886
			c0.008,0,0.015,0.002,0.023,0.002c0.01,0,0.02-0.002,0.03-0.002h23.729C376.328,451.676,382.909,458.255,382.909,466.342z
			 M334.778,436.684H188.25l6.884-26.357h132.76L334.778,436.684z M478.253,395.335H33.747c-10.34,0-18.751-8.41-18.751-18.747
			v-12.909h482.009v12.909C497.005,386.925,488.593,395.335,478.253,395.335z"/>
		<path d="M420.764,161.184c0.399-9.107-5.649-16.449-15.556-18.788l-130.713-30.511c-10.487-2.607-17.275-4.204-24.235-4.204
			c-6.943,0-13.748,1.597-24.261,4.204L95.3,142.399c-9.893,2.327-15.942,9.671-15.543,18.786
			c-0.293,7.556,4.352,16.145,15.553,18.737l32.363,7.563v56.272c0,16.188,12.671,29.436,28.831,30.16
			c4.695,0.22,9.553,0.292,14.448,0.292c4.679,0,9.394-0.066,14.03-0.131c4.629-0.064,9.002-0.125,13.317-0.125h35.859
			c4.141,0,7.498-3.356,7.498-7.496s-3.357-7.496-7.498-7.496H198.3c-4.421,0-9.05,0.065-13.527,0.127
			c-9.261,0.129-18.84,0.263-27.581-0.148c-8.008-0.359-14.523-7.17-14.523-15.184v-52.768l83.327,19.472
			c10.516,2.607,17.32,4.204,24.263,4.204c6.96,0,13.749-1.597,24.238-4.205l83.324-19.467v52.764
			c0,8.384-6.822,15.204-15.208,15.204H272.88c-4.141,0-7.498,3.356-7.498,7.496s3.356,7.496,7.498,7.496h69.734
			c16.654,0,30.203-13.546,30.203-30.196V187.49l24.974-5.835v25.838c-8.069,3.043-13.834,10.821-13.834,19.94v21.737
			c0,11.759,9.569,21.326,21.331,21.326c11.762,0,21.33-9.567,21.33-21.326v-21.737c0-9.118-5.764-16.896-13.833-19.94v-30.806
			C418.524,172.804,420.977,166.72,420.764,161.184z M271.033,195.874c-0.035,0.008-0.069,0.016-0.104,0.025
			c-10.319,2.565-15.723,3.774-20.67,3.774c-4.957,0-10.115-1.15-20.702-3.775c-0.032-0.008-0.065-0.016-0.098-0.023L98.708,165.32
			c-2.753-0.637-4.086-1.856-3.962-3.622c0.024-0.348,0.025-0.698,0-1.046c-0.046-0.662-0.186-2.677,3.977-3.657l130.735-30.522
			c0.033-0.008,0.067-0.015,0.1-0.024c10.587-2.625,15.744-3.776,20.702-3.776c4.947,0,10.35,1.209,20.67,3.774
			c0.035,0.009,0.07,0.017,0.105,0.025l130.745,30.518c2.775,0.656,4.12,1.887,3.996,3.661c-0.024,0.348-0.024,0.698,0.001,1.046
			c0.083,1.187-0.511,2.121-1.741,2.805c-0.877,0.148-1.702,0.445-2.448,0.87L271.033,195.874z M411.624,249.17
			c0,3.434-2.901,6.334-6.335,6.334c-3.493,0-6.336-2.841-6.336-6.334v-21.737c0-3.493,2.843-6.334,6.336-6.334
			c3.434,0,6.335,2.9,6.335,6.334V249.17z"/>
	</g>
</g>
<g>
</g>
<g>
</g>
<g>
</g>
<g>
</g>
<g>
</g>
<g>
</g>
<g>
</g>
<g>
</g>
<g>
</g>
<g>
</g>
<g>
</g>
<g>
</g>
<g>
</g>
<g>
</g>
<g>
</g>
</svg>
