<?xml version="1.0" encoding="iso-8859-1"?>
<!-- Generator: Adobe Illustrator 23.0.3, SVG Export Plug-In . SVG Version: 6.00 Build 0)  -->
<svg version="1.1" id="Capa_1" xmlns="http://www.w3.org/2000/svg" xmlns:xlink="http://www.w3.org/1999/xlink" x="0px" y="0px"
	 viewBox="0 0 512 512" style="enable-background:new 0 0 512 512;" xml:space="preserve">
<g>
	<g>
		<path style="fill-rule:evenodd;clip-rule:evenodd;fill:#ECEFF1;" d="M424.439,393.577H112.622
			c-75.64,0-72.271,57.275-73.036,74.421v3.174l0,0c0.764,16.919,13.616,33.271,39.009,33.271h75.244H419.06h13.277
			c22.279,0,40-18.251,40-40.583l-0.028-70.283H424.439z"/>
	</g>
	<g>
		<path style="fill-rule:evenodd;clip-rule:evenodd;fill:#FCD968;" d="M112.622,434.131l48.153-220.542L112.622,7.982
			c-32.498,0-69.978-3.939-73.036,42.595v417.42c0.764-17.146,13.899-33.866,39.009-33.866H112.622z"/>
	</g>
	<g>
		<path style="fill-rule:evenodd;clip-rule:evenodd;fill:#C4CCCF;" d="M78.709,463.775h353.232
			c21.231,0,38.782-16.607,40.396-37.494l-0.028-32.704c0,22.105-17.919,40.243-39.971,40.555c-0.17,0-0.34,0-0.538,0H112.622
			H78.596c-25.11,0-38.245,16.721-39.009,33.866v3.174l0,0c0.198,4.591,1.302,9.125,3.284,13.32
			C48.221,472.844,60.223,463.775,78.709,463.775L78.709,463.775z"/>
	</g>
	<g>
		<path style="fill-rule:evenodd;clip-rule:evenodd;fill:#F55A8E;" d="M112.622,7.982v426.149h319.177
			c22.279,0,40.509-18.251,40.509-40.555l0.142-345.465c0.028-22.304-18.231-40.555-40.509-40.555L112.622,7.982z"/>
	</g>
	<g>
		<path style="fill-rule:evenodd;clip-rule:evenodd;fill:#BA4583;" d="M432.337,7.557v426.574
			c22.052-0.312,39.971-18.449,39.971-40.555l0.142-345.465C472.478,25.95,454.446,7.756,432.337,7.557L432.337,7.557z"/>
	</g>
	<g>
		<path style="fill-rule:evenodd;clip-rule:evenodd;fill:#FCD968;" d="M246.577,306.006l30.516,18.138l30.516-18.138h2.35
			c0-52.882,51.097-59.712,51.04-116.562c-0.057-54.214-41.981-80.882-83.906-80.287c-41.925-0.595-83.849,26.073-83.906,80.287
			c-0.057,56.85,51.068,63.68,51.068,116.562H246.577z"/>
	</g>
	<g>
		<path style="fill-rule:evenodd;clip-rule:evenodd;fill:#C4CCCF;" d="M277.094,306.006h-30.516
			c-13.192,0-23.977,10.798-23.977,24.004s10.785,24.004,23.977,24.004h61.033c13.192,0,23.977-10.798,23.977-24.004
			s-10.786-24.004-23.977-24.004H277.094z"/>
	</g>
	<g>
		<path style="fill-rule:evenodd;clip-rule:evenodd;fill:#E69B56;" d="M338.297,189.443c0.085,56.85-49.172,63.68-49.172,116.562
			h18.485h2.35c0-52.882,51.097-59.712,51.04-116.562c-0.057-54.214-41.981-80.882-83.906-80.287
			c-5.294-0.057-10.616,0.283-15.824,1.105C306.789,113.464,338.268,142.087,338.297,189.443L338.297,189.443z"/>
	</g>
	<g>
		<path style="fill-rule:evenodd;clip-rule:evenodd;fill:#90A4AE;" d="M331.588,330.01c0-13.206-10.786-24.004-23.977-24.004
			c-9.766,0-6.369,0-16.136,0c-0.396,0-0.793,0-1.161,0c-0.396,0-0.793,0-1.189,0c7.134,0,13.56,3.174,17.976,8.162
			c3.737,4.223,6.001,9.777,6.001,15.842c0,13.206-10.785,24.004-23.977,24.004h18.485
			C320.802,354.014,331.588,343.216,331.588,330.01L331.588,330.01z"/>
	</g>
	<g>
		<path d="M480.007,48.122c0.017-12.8-4.987-24.868-14.09-33.982C456.81,5.022,444.745,0,431.941,0c-0.003,0-0.007,0-0.01,0
			L112.62,0.425c-2.319,0-4.665-0.02-7.021-0.041C89.531,0.247,72.914,0.102,59.15,6.025C42.619,13.14,33.5,27.962,32.046,50.082
			c-0.011,0.165-0.016,0.33-0.016,0.495v417.424c-0.02,0.529-0.037,1.058-0.037,1.587c0,0.521,0.018,1.043,0.037,1.564v0.019
			c0,0.006,0.001,0.011,0.001,0.017C32.82,491.73,48.775,512,78.596,512h353.742c26.222,0,47.556-21.596,47.556-48.143
			l-0.028-70.277L480.007,48.122z M302.033,441.689h129.766c12.749,0,24.354-4.993,32.966-13.129l0.015,35.3
			c0,18.211-14.554,33.026-32.443,33.026H78.596c-21.005,0-30.804-12.785-31.452-25.898v-2.78
			c0.653-13.028,10.557-26.518,31.452-26.518h31.546c0.778,0.271,1.61,0.425,2.481,0.425c0.87,0,1.703-0.155,2.481-0.425h152.366
			c4.174,0,7.557-3.384,7.557-7.557c0-4.174-3.383-7.557-7.557-7.557h-147.29V236.998c0-4.174-3.383-7.557-7.557-7.557
			c-4.174,0-7.557,3.383-7.557,7.557v189.576H78.596c-13.267,0-23.787,4.073-31.452,10.425V50.832
			c2.331-33.945,23.548-35.618,57.921-35.336v186.871c0,4.174,3.383,7.557,7.557,7.557c4.174,0,7.557-3.383,7.557-7.557V15.53
			l311.763-0.415c8.762,0,17.031,3.447,23.281,9.706c6.247,6.255,9.681,14.523,9.671,23.289l-0.142,345.468
			c0,18.195-14.783,32.997-32.952,32.997H302.033c-4.174,0-7.557,3.383-7.557,7.557
			C294.476,438.305,297.859,441.689,302.033,441.689z"/>
		<path d="M277.15,77.916c4.174,0,7.557-3.383,7.557-7.557V44.654c0-4.174-3.383-7.557-7.557-7.557
			c-4.174,0-7.557,3.383-7.557,7.557v25.705C269.594,74.533,272.977,77.916,277.15,77.916z"/>
		<path d="M194.008,100.786c1.93,0,3.861-0.735,5.337-2.207c2.955-2.947,2.961-7.732,0.015-10.687l-18.145-18.194
			c-2.947-2.954-7.732-2.963-10.688-0.014c-2.955,2.947-2.961,7.732-0.015,10.687l18.145,18.194
			C190.133,100.046,192.07,100.786,194.008,100.786z"/>
		<path d="M360.264,100.786c1.937,0,3.875-0.741,5.351-2.221l18.145-18.194c2.947-2.955,2.941-7.74-0.015-10.687
			c-2.955-2.947-7.74-2.941-10.688,0.014l-18.145,18.194c-2.947,2.955-2.941,7.74,0.015,10.687
			C356.403,100.051,358.333,100.786,360.264,100.786z"/>
		<path d="M339.144,330.01c0-13.848-8.962-25.633-21.382-29.873c1.648-19.637,11.546-31.597,22.855-45.253
			c13.111-15.83,27.972-33.772,27.94-65.448c-0.025-25.066-8.51-46.658-24.535-62.441c-16.44-16.191-40.261-25.406-65.554-25.406
			c-0.457,0-0.917,0.003-1.374,0.009c-0.459-0.006-0.915-0.009-1.374-0.009c-25.291,0-49.115,9.216-65.553,25.405
			c-16.026,15.783-24.51,37.375-24.535,62.442c-0.032,31.676,14.836,49.618,27.955,65.449
			c11.314,13.653,21.216,25.612,22.867,45.242c-12.435,4.232-21.41,16.024-21.41,29.883c0,17.403,14.146,31.562,31.534,31.562
			h61.033C324.998,361.571,339.144,347.413,339.144,330.01z M200.745,189.451c0.022-20.933,6.948-38.806,20.028-51.688
			c13.899-13.688,34.381-21.349,56.214-21.05c0.072,0.001,0.143,0.001,0.215,0c21.833-0.306,42.316,7.363,56.215,21.051
			c13.08,12.882,20.005,30.756,20.028,51.687c0.025,26.221-11.871,40.584-24.466,55.792c-11.872,14.334-24.111,29.109-26.247,53.206
			h-18.08v-72.258h17.553c4.174,0,7.557-3.383,7.557-7.557s-3.383-7.557-7.557-7.557h-51.182c-4.174,0-7.557,3.383-7.557,7.557
			s3.383,7.557,7.557,7.557h18.515v72.258h-18.051c-2.137-24.098-14.383-38.874-26.262-53.208
			C212.622,230.034,200.72,215.67,200.745,189.451z M230.157,330.01c0-9.069,7.366-16.446,16.42-16.446h61.033
			c9.054,0,16.42,7.378,16.42,16.446c0,9.069-7.366,16.447-16.42,16.447h-61.033C237.524,346.457,230.157,339.078,230.157,330.01z"
			/>
	</g>
</g>
<g>
</g>
<g>
</g>
<g>
</g>
<g>
</g>
<g>
</g>
<g>
</g>
<g>
</g>
<g>
</g>
<g>
</g>
<g>
</g>
<g>
</g>
<g>
</g>
<g>
</g>
<g>
</g>
<g>
</g>
</svg>
