<?xml version="1.0" encoding="iso-8859-1"?>
<!-- Generator: Adobe Illustrator 23.0.3, SVG Export Plug-In . SVG Version: 6.00 Build 0)  -->
<svg version="1.1" id="Capa_1" xmlns="http://www.w3.org/2000/svg" xmlns:xlink="http://www.w3.org/1999/xlink" x="0px" y="0px"
	 viewBox="0 0 512 512" style="enable-background:new 0 0 512 512;" xml:space="preserve">
<g>
	<g>
		<polygon style="fill-rule:evenodd;clip-rule:evenodd;fill:#C4CCCF;" points="325.771,410.285 255.905,387.516 184.945,410.285 
			174.42,450.656 255.358,472.3 336.295,450.656 		"/>
	</g>
	<g>
		<path style="fill-rule:evenodd;clip-rule:evenodd;fill:#ECEFF1;" d="M336.295,450.656H174.42h-23.183
			c-11.88,0-21.597,9.754-21.597,21.643v11.889c0,5.367,4.383,9.754,9.746,9.754h231.942c5.363,0,9.746-4.386,9.746-9.754V472.3
			c0-11.889-9.717-21.643-21.626-21.643H336.295z"/>
	</g>
	<g>
		<path style="fill-rule:evenodd;clip-rule:evenodd;fill:#C4CCCF;" d="M381.075,472.3c0-11.889-9.717-21.643-21.626-21.643h-23.154
			h-2.912c0.807,0.029,1.586,0.058,2.364,0.144c10.755,1.241,19.146,10.446,19.146,21.499v11.889c0,5.339-4.325,9.725-9.659,9.754
			h26.095c5.363,0,9.746-4.386,9.746-9.754V472.3z"/>
	</g>
	<g>
		<path style="fill-rule:evenodd;clip-rule:evenodd;fill:#90A4AE;" d="M180.331,427.974l102.275,0.029
			c21.626,0,20.184,1.818,24.596,12.957l2.537,9.696h23.644h2.912l-10.524-40.372H184.945L180.331,427.974z"/>
	</g>
	<g>
		<path style="fill-rule:evenodd;clip-rule:evenodd;fill:#ECEFF1;" d="M492.375,364.747l-234.941-33.763L7.557,364.747v19.912
			c0,14.083,11.505,25.626,25.605,25.626h151.783h140.826H466.77c14.1,0,25.605-11.543,25.605-25.626V364.747z"/>
	</g>
	<g>
		<path style="fill-rule:evenodd;clip-rule:evenodd;fill:#C4CCCF;" d="M492.375,364.747h-69.779v9.032v36.505h44.174
			c14.1,0,25.605-11.543,25.605-25.626V364.747z"/>
	</g>
	<g>
		<path style="fill-rule:evenodd;clip-rule:evenodd;fill:#546E7A;" d="M438.887,39.782L33.161,39.84
			c-14.1,0-25.605,11.543-25.605,25.654v299.253h415.039h69.779V74.757L438.887,39.782z"/>
	</g>
	<g>
		<path style="fill-rule:evenodd;clip-rule:evenodd;fill:#8EBFE8;" d="M403.306,77.181H50.116c-2.999,0-5.45,2.453-5.45,5.483
			v242.837c0,3.001,2.451,5.483,5.45,5.483h44.462h24.077h308.209V114.379L403.306,77.181z"/>
	</g>
	<g>
		<path style="fill-rule:evenodd;clip-rule:evenodd;fill:#8EBFE8;" d="M381.075,191.746v139.238h68.135
			c2.999,0,5.45-2.482,5.45-5.483c0-58.985,0-117.999,0-177.012v-34.11l-33.073,34.773L381.075,191.746z"/>
	</g>
	<g>
		<path style="fill-rule:evenodd;clip-rule:evenodd;fill:#ECEFF1;" d="M118.655,134.608v196.376h131.426h130.994V134.608
			c0-5.31-4.325-9.638-9.631-9.638H128.285C122.98,124.97,118.655,129.298,118.655,134.608L118.655,134.608z"/>
	</g>
	<g>
		<polygon style="fill-rule:evenodd;clip-rule:evenodd;fill:#C4CCCF;" points="344.196,230.502 344.196,330.984 381.075,330.984 
			381.075,191.746 370.983,202.366 		"/>
	</g>
	<g>
		<path style="fill-rule:evenodd;clip-rule:evenodd;fill:#546E7A;" d="M260.807,247.095l-6.603,15.121
			c-4.844,11.197,4.988,21.903,17.156,16.362l14.792-7.33l-3.374-21.557L260.807,247.095z"/>
	</g>
	<g>
		<polygon style="fill-rule:evenodd;clip-rule:evenodd;fill:#FFD54F;" points="322.599,253.213 310.892,222.652 277.099,209.84 
			260.807,247.095 286.153,271.249 		"/>
	</g>
	<g>
		<polygon style="fill-rule:evenodd;clip-rule:evenodd;fill:#E69B56;" points="303.684,235.177 275.83,264.467 286.153,271.249 
			322.599,253.213 		"/>
	</g>
	<g>
		<polygon style="fill-rule:evenodd;clip-rule:evenodd;fill:#8BC34A;" points="428.334,50.863 285.547,200.952 277.099,209.84 
			322.599,253.213 370.983,202.366 487.732,79.634 487.732,79.605 477.294,46.563 442.232,36.261 		"/>
	</g>
	<g>
		<polygon style="fill-rule:evenodd;clip-rule:evenodd;fill:#689F38;" points="303.684,235.177 322.599,253.213 370.983,202.366 
			487.732,79.634 487.732,79.605 468.846,61.598 468.817,61.627 352.067,184.33 		"/>
	</g>
	<g>
		<path style="fill-rule:evenodd;clip-rule:evenodd;fill:#F0417B;" d="M494.739,26.709c-12.514-11.947-32.496-11.456-44.433,1.068
			l-8.074,8.484l45.5,43.344l8.074-8.455C507.599,58.741,507.34,38.743,494.739,26.709L494.739,26.709z"/>
	</g>
	<g>
		<path style="fill-rule:evenodd;clip-rule:evenodd;fill:#A3316E;" d="M483.292,19.755c4.094,10.302,2.537,22.336-4.585,31.282
			c-0.577,0.721-1.182,1.414-1.817,2.107l-8.045,8.455l18.886,18.007l8.074-8.455c11.793-12.409,11.534-32.407-1.067-44.441
			C491.365,23.477,487.444,21.169,483.292,19.755L483.292,19.755z"/>
	</g>
	<g>
		<polygon style="fill-rule:evenodd;clip-rule:evenodd;fill:#35505C;" points="422.596,56.923 428.334,50.863 438.887,39.782 
			422.596,39.782 		"/>
	</g>
	<g>
		<path style="fill-rule:evenodd;clip-rule:evenodd;fill:#35505C;" d="M454.66,114.379v34.11v91.652v85.361
			c0,3.001-2.451,5.483-5.45,5.483h-22.346h-4.267v23.721v10.042h69.779V74.757l-4.642,4.848v0.029L454.66,114.379z"/>
	</g>
	<path d="M499.957,21.244c-7.513-7.173-17.367-10.978-27.835-10.732c-10.43,0.252-20.121,4.533-27.292,12.056l-8.069,8.48
		c-0.002,0.002-0.004,0.003-0.005,0.005l-1.116,1.173l-402.48,0.057C14.876,32.282,0,47.181,0,65.494v319.165
		c0,18.297,14.876,33.183,33.161,33.183h142.004l-6.584,25.257h-17.343c-16.076,0-29.154,13.099-29.154,29.2v11.889
		c0,9.546,7.762,17.311,17.302,17.311h231.942c9.54,0,17.302-7.766,17.302-17.311v-11.889c0-16.101-13.09-29.2-29.182-29.2h-17.315
		l-6.584-25.257h131.22c18.285,0,33.161-14.886,33.161-33.183V77.778l1.353-1.422C516.075,60.792,515.481,36.069,499.957,21.244z
		 M455.775,32.991c4.383-4.598,10.318-7.215,16.713-7.37c6.387-0.145,12.442,2.173,17.031,6.553
		c9.51,9.083,9.873,24.231,0.812,33.766l-2.847,2.992l-34.571-32.933L455.775,32.991z M416.111,143.944L416.111,143.944
		l-93.773,98.579l-34.56-32.944L442.495,46.949l34.557,32.92L416.111,143.944z M126.211,323.427v-89.375
		c0-4.174-3.383-7.557-7.557-7.557s-7.557,3.383-7.557,7.557v89.375H52.223V84.738h333.46l-31.084,32.674H128.286
		c-9.478,0-17.188,7.714-17.188,17.196v65.218c0,4.174,3.383,7.557,7.557,7.557s7.557-3.383,7.557-7.557v-65.218
		c0-1.128,0.95-2.081,2.075-2.081h211.934l-41.132,43.236H162.511c-4.174,0-7.557,3.383-7.557,7.557s3.383,7.557,7.557,7.557
		h122.197l-13.085,13.754c-0.625,0.657-1.1,1.399-1.443,2.185c-0.002-0.001-0.004-0.001-0.006-0.002l-7.392,16.91H162.511
		c-4.174,0-7.557,3.383-7.557,7.557s3.383,7.557,7.557,7.557h93.664l-2.142,4.9c-0.043,0.087-0.076,0.177-0.116,0.265l-6.65,15.212
		c-1.778,4.111-2.261,8.442-1.545,12.47h-83.212c-4.174,0-7.557,3.383-7.557,7.557s3.383,7.557,7.557,7.557h96.548
		c6.357,0.367,15.06-0.739,16.278-1.757l50.615-25.057c-0.001-0.003-0.002-0.005-0.004-0.008c0.786-0.389,1.51-0.908,2.126-1.556
		l45.443-47.772v112.777H126.211z M268.251,271.685c-4.126,1.481-6.346-0.198-6.467-0.317c-1.122-1.101-1.88-3.295-0.656-6.125
		l2.284-5.226l9.712,9.256C273.125,269.273,269.531,271.226,268.251,271.685z M287.543,262.135l-17.688-16.856l9.843-22.519
		l29.869,28.472L287.543,262.135z M33.162,47.397l388.098-0.055l-21.198,22.282H50.116c-7.172,0-13.006,5.85-13.006,13.04v242.837
		c0,7.191,5.834,13.04,13.006,13.04H449.21c7.172,0,13.006-5.85,13.006-13.04V240.14c0-4.174-3.383-7.557-7.557-7.557
		c-4.174,0-7.557,3.383-7.557,7.557v83.287h-58.472V194.762l38.431-40.401l0.001,0l20.04-21.07v73.664
		c0,4.174,3.383,7.557,7.557,7.557c4.174,0,7.557-3.383,7.557-7.557V117.4l22.602-23.764V357.19H15.113V65.494
		C15.113,55.515,23.21,47.397,33.162,47.397z M373.518,472.299v11.889c0,1.191-1.003,2.197-2.189,2.197H139.386
		c-1.186,0-2.189-1.006-2.189-2.197v-11.889c0-7.767,6.299-14.086,14.04-14.086h23.157c0.01,0,0.021,0.002,0.031,0.002
		c0.008,0,0.016-0.002,0.023-0.002h161.818c0.008,0,0.016,0.002,0.023,0.002c0.01,0,0.021-0.002,0.03-0.002h23.129
		C367.206,458.214,373.518,464.532,373.518,472.299z M326.515,443.099H184.2l6.584-25.257h129.147L326.515,443.099z M466.77,402.727
		H33.161c-9.951,0-18.048-8.105-18.048-18.068v-12.354h469.704v12.354C484.818,394.622,476.721,402.727,466.77,402.727z"/>
</g>
<g>
</g>
<g>
</g>
<g>
</g>
<g>
</g>
<g>
</g>
<g>
</g>
<g>
</g>
<g>
</g>
<g>
</g>
<g>
</g>
<g>
</g>
<g>
</g>
<g>
</g>
<g>
</g>
<g>
</g>
</svg>
