<?xml version="1.0" encoding="iso-8859-1"?>
<!-- Generator: Adobe Illustrator 23.0.3, SVG Export Plug-In . SVG Version: 6.00 Build 0)  -->
<svg version="1.1" id="Capa_1" xmlns="http://www.w3.org/2000/svg" xmlns:xlink="http://www.w3.org/1999/xlink" x="0px" y="0px"
	 viewBox="0 0 512 512" style="enable-background:new 0 0 512 512;" xml:space="preserve">
<g>
	<g>
		<path style="fill-rule:evenodd;clip-rule:evenodd;fill:#ECEFF1;" d="M410.861,394.398H91.254H57.153
			c-25.115,0-38.296,56.453-39.062,73.599c0,0.794,0.085,2.494,0,3.174c0.765,16.919,13.635,33.271,39.062,33.271h75.345h265.579
			h13.295c22.309,0,40.054-18.251,40.054-40.555V353.816C451.425,376.147,433.17,394.398,410.861,394.398L410.861,394.398z"/>
	</g>
	<g>
		<path style="fill-rule:evenodd;clip-rule:evenodd;fill:#F55A8E;" d="M91.226,7.982v426.149h319.607
			c22.309,0,40.564-18.251,40.564-40.555l0.142-345.465c0.028-22.304-18.255-40.555-40.564-40.555L91.226,7.982z"/>
	</g>
	<g>
		<path style="fill-rule:evenodd;clip-rule:evenodd;fill:#FCD968;" d="M91.226,434.131V7.982c-32.542,0-70.073-3.939-73.134,42.595
			v417.42c0.765-17.146,13.918-33.866,39.062-33.866H91.226z"/>
	</g>
	<g>
		<path style="fill-rule:evenodd;clip-rule:evenodd;fill:#BA4583;" d="M411.372,7.557v426.574
			c22.082-0.312,40.025-18.449,40.025-40.555l0.142-345.465C451.567,25.95,433.51,7.784,411.372,7.557L411.372,7.557z"/>
	</g>
	<g>
		<path style="fill-rule:evenodd;clip-rule:evenodd;fill:#C4CCCF;" d="M57.267,463.775h353.708c21.26,0,38.835-16.607,40.451-37.494
			l-0.028-32.704c0,22.105-17.943,40.243-40.025,40.555c-0.17,0-0.34,0-0.539,0H91.226H57.153
			c-25.143,0-38.296,16.721-39.062,33.866v3.174l0,0c0.198,4.591,1.304,9.125,3.288,13.32
			C26.737,472.844,38.756,463.775,57.267,463.775L57.267,463.775z"/>
	</g>
	<g>
		<path style="fill-rule:evenodd;clip-rule:evenodd;fill:#ECEFF1;" d="M170.426,64.918H469.51c13.436,0,24.435,10.996,24.435,24.429
			v117.073c0,13.433-10.999,24.429-24.435,24.429H170.426c-13.436,0-24.435-10.996-24.435-24.429V89.347
			C145.991,75.913,156.99,64.918,170.426,64.918L170.426,64.918z"/>
	</g>
	<g>
		<path style="fill-rule:evenodd;clip-rule:evenodd;fill:#C4CCCF;" d="M461.828,89.347v117.073c0,13.433-10.97,24.429-24.435,24.429
			h32.117c13.436,0,24.435-10.996,24.435-24.429V89.347c0-13.433-10.999-24.429-24.435-24.429h-32.117
			C450.858,64.918,461.828,75.913,461.828,89.347L461.828,89.347z"/>
	</g>
	<g>
		<path style="fill-rule:evenodd;clip-rule:evenodd;" d="M469.51,57.36h-10.414v-9.239c0.016-12.789-4.987-24.851-14.087-33.962
			C435.89,5.029,423.803,0,410.975,0c-0.003,0-0.007,0-0.01,0L91.224,0.425c-2.323,0-4.671-0.02-7.031-0.041
			C68.106,0.247,51.468,0.102,37.688,6.024C21.136,13.138,12.006,27.96,10.551,50.082c-0.011,0.165-0.017,0.33-0.017,0.496v417.447
			c-0.019,0.521-0.037,1.042-0.037,1.564c0,0.514,0.018,1.028,0.037,1.542v0.042c0,0.013,0.002,0.025,0.002,0.037
			C11.336,491.744,27.309,512,57.153,512h354.218c26.253,0,47.611-21.596,47.611-48.143l-0.028-70.276l0.081-155.175h10.475
			c17.64,0,31.992-14.349,31.992-31.986V89.347C501.502,71.71,487.151,57.36,469.51,57.36z M83.668,15.496v411.078H57.153
			c-13.292,0-23.829,4.079-31.504,10.439V50.832C27.983,16.882,49.227,15.21,83.668,15.496z M486.388,206.419
			c0,9.303-7.571,16.872-16.877,16.872h-18.025h-0.004H319.982c-4.174,0-7.557,3.383-7.557,7.557c0,4.174,3.384,7.557,7.557,7.557
			H443.92l-0.081,155.171c0,18.195-14.807,32.997-33.007,32.997H251.837c-4.174,0-7.557,3.383-7.557,7.557
			c0,4.174,3.383,7.557,7.557,7.557h158.996c12.771,0,24.397-5,33.021-13.145l0.014,35.316c0,18.211-14.578,33.026-32.496,33.026
			H57.153c-21.044,0-30.858-12.79-31.504-25.906v-2.765c0.65-13.031,10.57-26.526,31.504-26.526h31.591
			c0.778,0.271,1.61,0.425,2.481,0.425c0.87,0,1.703-0.155,2.481-0.425h123.52c4.174,0,7.557-3.384,7.557-7.557
			c0-4.174-3.383-7.557-7.557-7.557H98.783V15.53l312.193-0.415c8.787,0,17.076,3.454,23.339,9.725
			c6.245,6.253,9.678,14.514,9.667,23.272v9.248H170.426c-17.64,0-31.992,14.349-31.992,31.986v117.073
			c0,17.637,14.352,31.986,31.992,31.986h114.917c4.174,0,7.557-3.383,7.557-7.557c0-4.174-3.383-7.557-7.557-7.557H170.426
			c-9.306,0-16.877-7.569-16.877-16.872V89.347c0-9.303,7.571-16.872,16.877-16.872H469.51c9.306,0,16.877,7.569,16.877,16.872
			V206.419z"/>
		<path style="fill-rule:evenodd;clip-rule:evenodd;" d="M331.633,118.367c-7.313,0-13.691,2.381-18.737,7.709
			c-5.187,5.47-7.313,12.243-7.313,19.668c0,7.538,2.126,14.397,7.342,19.895c5.017,5.328,11.339,7.793,18.652,7.793
			c7.342,0,13.663-2.466,18.68-7.879c5.102-5.47,7.285-12.186,7.285-19.64c0-7.482-2.126-14.255-7.285-19.753
			C345.239,120.832,338.946,118.367,331.633,118.367z M340.193,157.108c-2.211,2.777-5.074,4.109-8.617,4.109
			c-3.572,0-6.463-1.304-8.674-4.081c-2.523-3.202-3.317-7.312-3.317-11.308c0-3.968,0.85-7.907,3.43-11.052
			c2.211-2.692,5.046-4.053,8.561-4.053c3.543,0,6.435,1.304,8.646,4.081c2.523,3.174,3.345,7.198,3.345,11.166
			C343.567,149.966,342.716,153.905,340.193,157.108z"/>
		<path style="fill-rule:evenodd;clip-rule:evenodd;" d="M206.71,162.662c-1.276-1.219-2.75-1.87-4.479-1.87h-12.047v-8.134h10.403
			c1.757,0,3.345-0.567,4.592-1.842c1.191-1.19,1.814-2.664,1.814-4.336c0-1.701-0.652-3.146-1.843-4.336
			c-1.247-1.247-2.806-1.87-4.564-1.87h-10.488v-7.793h11.792c1.672,0,3.118-0.652,4.309-1.842l0.028-0.028l0.028-0.028
			c1.106-1.247,1.729-2.721,1.729-4.421c0-1.672-0.595-3.146-1.786-4.336c-1.162-1.219-2.636-1.842-4.309-1.842h-18.482
			c-1.899,0-3.515,0.709-4.819,2.097c-1.304,1.332-1.984,2.947-1.984,4.79v39.478c0,1.87,0.652,3.543,2.013,4.846
			c1.332,1.332,3.005,1.955,4.876,1.955h18.737c1.729,0,3.26-0.567,4.507-1.757c1.191-1.19,1.814-2.664,1.814-4.336
			c0-0.85-0.142-1.701-0.51-2.494C207.702,163.852,207.248,163.201,206.71,162.662z"/>
		<path style="fill-rule:evenodd;clip-rule:evenodd;" d="M449.243,144.921l14.23-13.943c1.247-1.36,1.984-2.976,1.984-4.818
			c0-1.814-0.68-3.401-1.956-4.704c-1.304-1.304-2.891-1.955-4.734-1.955c-2.041,0-3.742,1.049-5.131,2.494l-15.591,16.494V126.16
			c0-1.842-0.68-3.429-1.984-4.733c-1.304-1.304-2.92-2.012-4.762-2.012c-1.871,0-3.487,0.68-4.819,2.012
			c-1.304,1.275-2.013,2.834-2.013,4.676v40.81c0,1.899,0.709,3.571,2.098,4.903c1.304,1.275,2.891,1.984,4.734,1.984
			c1.899,0,3.515-0.708,4.819-2.097c1.247-1.332,1.928-2.947,1.928-4.79v-15.02l17.66,19.328c1.446,1.502,3.231,2.494,5.329,2.494
			c1.871,0,3.487-0.624,4.762-1.955c1.304-1.332,1.928-3.004,1.928-4.846c0-1.757-0.709-3.287-1.899-4.591L449.243,144.921z"/>
		<path style="fill-rule:evenodd;clip-rule:evenodd;" d="M389.715,119.075c-7.342,0-13.72,2.381-18.765,7.708
			c-5.159,5.47-7.313,12.243-7.313,19.696c0,7.51,2.154,14.368,7.342,19.866c5.046,5.328,11.339,7.794,18.652,7.794
			c7.342,0,13.691-2.466,18.68-7.879c5.131-5.47,7.313-12.186,7.313-19.64c0-7.482-2.154-14.255-7.313-19.753
			C403.321,121.541,397,119.075,389.715,119.075z M398.247,157.816c-2.211,2.777-5.074,4.109-8.617,4.109
			c-3.543,0-6.435-1.304-8.646-4.081c-2.551-3.202-3.345-7.312-3.345-11.308c0-3.968,0.85-7.907,3.43-11.024
			c2.239-2.721,5.046-4.081,8.561-4.081c3.543,0,6.435,1.304,8.674,4.081c2.494,3.174,3.317,7.198,3.317,11.166
			C401.62,150.674,400.77,154.614,398.247,157.816z"/>
		<path style="fill-rule:evenodd;clip-rule:evenodd;" d="M290.956,144.071c0.68-0.425,1.304-0.935,1.814-1.474
			c0.907-0.964,1.531-2.211,1.984-3.457c0.539-1.53,0.765-3.117,0.765-4.733c0-4.166-1.417-7.765-4.564-10.514
			c-3.373-2.919-7.625-3.911-11.991-3.911h-12.217c-1.871,0-3.515,0.624-4.876,1.927c-1.389,1.304-2.013,3.004-2.013,4.903v39.393
			c0,1.927,0.624,3.656,2.013,4.988c1.389,1.36,3.118,1.955,5.017,1.955h15.761c4.649,0,8.901-1.332,12.302-4.563
			c3.288-3.146,4.819-7.085,4.819-11.619C299.771,150.363,296.681,146.112,290.956,144.071z M273.437,132.14h4.535
			c1.191,0,2.183,0.369,3.033,1.19c0.794,0.794,1.219,1.672,1.219,2.777c0,1.105-0.454,1.984-1.276,2.721
			c-0.907,0.794-1.928,1.162-3.118,1.162h-4.394V132.14z M284.634,159.687c-0.964,0.907-2.069,1.332-3.402,1.332h-7.88v-9.069h7.965
			c1.304,0,2.381,0.453,3.288,1.36c0.935,0.935,1.389,2.012,1.389,3.316C285.995,157.844,285.513,158.836,284.634,159.687z"/>
		<path style="fill-rule:evenodd;clip-rule:evenodd;" d="M238.628,141.691h-9.156c-3.345,0-6.094,2.749-6.094,6.122
			c0,3.344,2.75,6.093,6.094,6.093h9.156c3.345,0,6.095-2.749,6.095-6.093C244.722,144.44,241.973,141.691,238.628,141.691z"/>
	</g>
</g>
<g>
</g>
<g>
</g>
<g>
</g>
<g>
</g>
<g>
</g>
<g>
</g>
<g>
</g>
<g>
</g>
<g>
</g>
<g>
</g>
<g>
</g>
<g>
</g>
<g>
</g>
<g>
</g>
<g>
</g>
</svg>
