<?xml version="1.0" encoding="iso-8859-1"?>
<!-- Generator: Adobe Illustrator 23.0.3, SVG Export Plug-In . SVG Version: 6.00 Build 0)  -->
<svg version="1.1" id="Capa_1" xmlns="http://www.w3.org/2000/svg" xmlns:xlink="http://www.w3.org/1999/xlink" x="0px" y="0px"
	 viewBox="0 0 512 512" style="enable-background:new 0 0 512 512;" xml:space="preserve">
<g>
	<g>
		<polygon style="fill-rule:evenodd;clip-rule:evenodd;fill:#C4CCCF;" points="333.051,419.443 258.877,392.551 189.89,419.443 
			179.204,460.477 261.484,482.439 343.764,460.477 		"/>
	</g>
	<g>
		<path style="fill-rule:evenodd;clip-rule:evenodd;fill:#ECEFF1;" d="M502.429,373.196l-241.823-19.383L9.571,373.196v20.233
			c0,14.311,11.706,26.014,26.019,26.014h154.3h143.161H476.41c14.313,0,26.019-11.704,26.019-26.014V373.196z"/>
	</g>
	<g>
		<path style="fill-rule:evenodd;clip-rule:evenodd;fill:#546E7A;" d="M35.59,43.257c-14.313,0-26.019,11.704-26.019,26.014v303.925
			h492.858V69.271c0-14.311-11.706-25.816-26.019-26.014C462.323,43.03,102.536,43.257,35.59,43.257L35.59,43.257z"/>
	</g>
	<g>
		<path style="fill-rule:evenodd;clip-rule:evenodd;fill:#8EBFE8;" d="M52.851,338.907h406.1c3.061,0,5.555-2.494,5.555-5.554
			V205.322V86.727c0-3.06-2.494-5.554-5.555-5.554c-10.147,0-395.244,0-406.1,0c-3.061,0-5.555,2.494-5.555,5.554v246.625
			C47.296,336.413,49.79,338.907,52.851,338.907L52.851,338.907z"/>
	</g>
	<g>
		<path style="fill-rule:evenodd;clip-rule:evenodd;fill:#90A4AE;" d="M98.172,280.786h158.806h158.835
			c6.972,0,12.669-5.866,12.669-13.007v-3.401c-49.119-59.821-140.95-49.365-171.504,0c-29.732-45.511-120.118-63.619-171.504,0
			v3.401C85.474,274.92,91.171,280.786,98.172,280.786L98.172,280.786z"/>
	</g>
	<g>
		<path style="fill-rule:evenodd;clip-rule:evenodd;fill:#ECEFF1;" d="M343.764,460.477h-164.56h-23.553
			c-12.103,0-21.994,9.89-21.994,21.962v12.072c0,5.441,4.478,9.918,9.92,9.918h235.786c5.47,0,9.92-4.477,9.92-9.918v-12.072
			c0-12.072-9.892-21.962-21.966-21.962H343.764z"/>
	</g>
	<g>
		<path style="fill-rule:evenodd;clip-rule:evenodd;fill:#ECEFF1;" d="M256.978,264.378l26.784-126.699l-26.784-114.74
			c-7.851-4.534-21.031-8.53-37.101-11.307c-27.975-4.817-64.736-5.979-97.387,0c-6.009,1.105-11.876,2.437-17.516,4.052
			c-14.568,4.137-19.5,5.441-19.5,17.74v9.833v37.916v183.205C139.354,239.639,229.939,248.707,256.978,264.378L256.978,264.378z"/>
	</g>
	<g>
		<path style="fill-rule:evenodd;clip-rule:evenodd;fill:#35505C;" d="M464.506,86.727v118.594v128.031
			c0,3.061-2.494,5.554-5.555,5.554h-68.817v34.289h112.295V69.271c0-14.311-11.706-25.731-26.019-26.014
			c-2.948-0.057-20.832-0.085-47.928-0.085v26.014c0.113,0.992,0.198,2.012,0.198,3.061v8.926h30.27
			C462.012,81.173,464.506,83.667,464.506,86.727L464.506,86.727z"/>
	</g>
	<g>
		<path style="fill-rule:evenodd;clip-rule:evenodd;fill:#C4CCCF;" d="M502.429,373.196H390.134v46.248h86.276
			c14.313,0,26.019-11.704,26.019-26.014V373.196z"/>
	</g>
	<g>
		<path style="fill-rule:evenodd;clip-rule:evenodd;fill:#C4CCCF;" d="M328.998,460.477c12.103,0,21.994,9.89,21.994,21.962v12.072
			c0,5.441-4.478,9.918-9.92,9.918h38.292c5.47,0,9.92-4.477,9.92-9.918v-12.072c0-12.072-9.892-21.962-21.966-21.962h-23.553
			H328.998z"/>
	</g>
	<g>
		<path style="fill-rule:evenodd;clip-rule:evenodd;fill:#90A4AE;" d="M294.759,419.443H189.89l-5.81,22.33h94.609
			c11.706,0,22.901-0.482,24.999,7.51l1.757,11.194h23.553h14.767l-10.714-41.033H294.759z"/>
	</g>
	<g>
		<path style="fill-rule:evenodd;clip-rule:evenodd;fill:#ECEFF1;" d="M256.978,264.378c27.039-15.671,117.624-24.739,171.504,0
			V81.173V42.208v-8.785c0-12.299-4.932-13.602-19.5-17.74c-5.64-1.615-11.507-2.947-17.516-4.052
			c-32.651-5.979-69.412-4.817-97.387,0c-16.071,2.777-29.25,6.773-37.101,11.307V264.378z"/>
	</g>
	<g>
		<path style="fill-rule:evenodd;clip-rule:evenodd;fill:#C4CCCF;" d="M390.134,252.929c13.803,2.465,26.898,6.206,38.348,11.449
			V81.173V69.186V43.172v-0.964v-8.785c0-12.299-4.932-13.602-19.5-17.74c-5.64-1.615-11.507-2.947-17.516-4.052
			c-0.453-0.085-0.907-0.17-1.332-0.227v31.739v22.33v15.699v29.5V155.9v45.199v33.269V252.929z"/>
	</g>
	<g>
		<path style="fill-rule:evenodd;clip-rule:evenodd;fill:#546E7A;" d="M428.482,264.378c-11.451-5.243-24.545-8.983-38.348-11.449
			v27.856h25.679c6.972,0,12.669-5.866,12.669-13.007V264.378z"/>
	</g>
	<g>
		<path style="fill-rule:evenodd;clip-rule:evenodd;fill:#519AD6;" d="M428.482,267.778c0,7.141-5.697,13.007-12.669,13.007h-25.679
			v58.121h68.817c3.061,0,5.555-2.494,5.555-5.554V205.322V174.49V86.727c0-3.06-2.494-5.554-5.555-5.554h-30.27h-0.198v183.205
			V267.778z"/>
	</g>
	<g>
		<path d="M476.576,35.687l-40.522-0.886v-1.378c0-17.923-10.345-20.861-24.663-24.926l-0.338-0.096
			c-51.26-14.574-123.671-8.64-154.076,5.993c-14.261-6.843-38.233-11.891-65.512-13.689c-4.169-0.267-7.778,2.885-8.053,7.057
			c-0.275,4.172,2.884,7.778,7.057,8.053c24.149,1.592,46.497,6.099,58.938,11.751v225.16c-16.687-5.996-41.621-10.16-67.853-11.067
			c-20.175-0.7-56.686,0.062-88.508,11.485V33.423c0-6.482,0-6.482,13.656-10.36l0.345-0.098c13.51-3.844,28.879-6.297,45.679-7.29
			c4.175-0.247,7.358-3.83,7.111-8.005c-0.247-4.174-3.826-7.355-8.005-7.111C133.933,1.618,117.47,4.256,102.905,8.4l-0.34,0.097
			C88.248,12.563,77.903,15.5,77.903,33.423v2.262H35.59C17.068,35.685,2,50.752,2,69.271v324.158
			c0,18.519,15.068,33.585,33.59,33.585h144.504l-6.742,25.891h-17.7c-16.302,0-29.566,13.248-29.566,29.533v12.072
			c0,9.644,7.847,17.489,17.492,17.489h235.786c9.645,0,17.491-7.845,17.491-17.489v-12.072c0-16.285-13.25-29.533-29.537-29.533
			h-17.705l-6.76-25.891H476.41c18.522,0,33.59-15.066,33.59-33.585V69.271C510,51.118,494.999,36.052,476.576,35.687z
			 M264.549,269.007c27.632-12.514,105.963-20.168,156.155,0.259c-0.624,2.25-2.61,3.949-4.892,3.949H264.549V269.007z
			 M406.914,22.967l0.341,0.097c13.657,3.878,13.657,3.878,13.657,10.36v219.72c-31.824-11.424-68.339-12.185-88.508-11.485
			c-26.232,0.908-51.167,5.072-67.854,11.067V27.572c12.215-5.53,34.08-10.005,57.699-11.676
			C353.129,13.712,383.195,16.223,406.914,22.967z M249.407,269.007v4.208H98.143c-2.282,0-4.267-1.699-4.891-3.949
			C143.444,248.838,221.774,256.493,249.407,269.007z M35.59,50.828h42.313v22.774H52.851c-7.238,0-13.127,5.888-13.127,13.125
			v246.625c0,7.238,5.888,13.126,13.127,13.126h406.1c7.238,0,13.126-5.888,13.126-13.126V207.22c0-4.181-3.39-7.571-7.571-7.571
			c-4.181,0-7.571,3.39-7.571,7.571v124.116H54.867V88.744h23.036v179.034c0,11.347,9.08,20.578,20.24,20.578h158.835h158.835
			c11.161,0,20.241-9.231,20.241-20.578V88.744h20.882v85.745c0,4.181,3.39,7.571,7.571,7.571c4.181,0,7.571-3.39,7.571-7.571
			V86.727c0-7.237-5.888-13.125-13.126-13.125h-22.898V49.946l40.207,0.88c10.255,0.203,18.598,8.478,18.598,18.445v296.353H17.142
			V69.271C17.142,59.101,25.418,50.828,35.59,50.828z M381.712,482.438v12.072c0,1.272-1.076,2.347-2.349,2.347H143.577
			c-1.252,0-2.349-1.097-2.349-2.347v-12.072c0-7.935,6.47-14.391,14.424-14.391h23.527c0.01,0,0.021,0.002,0.031,0.002
			c0.008,0,0.016-0.002,0.023-0.002h164.503c0.008,0,0.016,0.002,0.023,0.002c0.01,0,0.021-0.002,0.031-0.002h23.528
			C375.255,468.048,381.712,474.504,381.712,482.438z M333.963,452.906H189l6.742-25.891h131.46L333.963,452.906z M476.41,411.872
			H35.59c-10.172,0-18.448-8.274-18.448-18.443v-12.662h477.716v12.662C494.858,403.599,486.582,411.872,476.41,411.872z"/>
		<path d="M259.132,384.979h-0.255c-4.181,0-7.571,3.39-7.571,7.571c0,4.181,3.39,7.571,7.571,7.571h0.255
			c4.181,0,7.571-3.39,7.571-7.571C266.703,388.369,263.313,384.979,259.132,384.979z"/>
		<path d="M227.703,152.073c-19.988-11.608-78.932-16.373-113.819-0.331c-3.799,1.747-5.462,6.243-3.716,10.042
			c1.276,2.775,4.017,4.41,6.884,4.41c1.058,0,2.134-0.223,3.158-0.694c31.827-14.635,85.272-8.819,99.888-0.331
			c3.615,2.098,8.249,0.87,10.35-2.745C232.548,158.807,231.319,154.173,227.703,152.073z"/>
		<path d="M227.703,197.301c-19.988-11.608-78.932-16.373-113.819-0.331c-3.799,1.747-5.462,6.243-3.716,10.042
			c1.276,2.775,4.017,4.41,6.884,4.41c1.058,0,2.134-0.223,3.158-0.694c31.827-14.635,85.272-8.819,99.888-0.331
			c3.615,2.099,8.249,0.871,10.35-2.745C232.548,204.034,231.319,199.401,227.703,197.301z"/>
		<path d="M227.703,106.874c-20.008-11.618-78.961-16.388-113.823-0.329c-3.798,1.75-5.458,6.246-3.709,10.044
			c1.277,2.772,4.017,4.406,6.881,4.406c1.06,0,2.137-0.224,3.163-0.697c31.799-14.648,85.252-8.826,99.884-0.329
			c3.618,2.1,8.25,0.87,10.35-2.745C232.548,113.607,231.319,108.974,227.703,106.874z"/>
		<path d="M227.703,61.647c-19.989-11.608-78.933-16.374-113.819-0.331c-3.799,1.747-5.462,6.243-3.716,10.042
			c1.276,2.775,4.017,4.41,6.884,4.41c1.058,0,2.134-0.223,3.158-0.694c31.827-14.635,85.272-8.819,99.888-0.331
			c3.618,2.099,8.25,0.87,10.35-2.745C232.548,68.38,231.319,63.747,227.703,61.647z"/>
		<path d="M293.856,165.168c14.623-8.492,68.072-14.311,99.886,0.33c1.025,0.472,2.101,0.695,3.16,0.695
			c2.865,0,5.606-1.635,6.883-4.408c1.748-3.798,0.086-8.295-3.713-10.043c-34.874-16.05-93.822-11.282-113.821,0.33
			c-3.616,2.1-4.845,6.733-2.745,10.35C285.606,166.037,290.24,167.268,293.856,165.168z"/>
		<path d="M400.073,196.97c-34.874-16.05-93.822-11.282-113.821,0.33c-3.616,2.1-4.845,6.733-2.745,10.35
			c2.099,3.615,6.733,4.845,10.35,2.745c14.623-8.492,68.072-14.311,99.886,0.33c1.025,0.472,2.101,0.695,3.16,0.695
			c2.865,0,5.606-1.635,6.883-4.408C405.534,203.215,403.871,198.719,400.073,196.97z"/>
		<path d="M293.856,119.969c14.638-8.502,68.096-14.328,99.881,0.328c1.027,0.474,2.104,0.698,3.165,0.698
			c2.863,0,5.603-1.632,6.88-4.403c1.751-3.797,0.092-8.295-3.705-10.046c-34.85-16.067-93.808-11.297-113.826,0.328
			c-3.616,2.1-4.845,6.733-2.745,10.35C285.606,120.839,290.24,122.069,293.856,119.969z"/>
		<path d="M293.856,74.742c14.623-8.492,68.072-14.311,99.886,0.33c1.025,0.472,2.101,0.695,3.16,0.695
			c2.865,0,5.606-1.635,6.883-4.408c1.748-3.798,0.086-8.295-3.713-10.043c-34.874-16.05-93.822-11.282-113.821,0.33
			c-3.616,2.1-4.845,6.733-2.745,10.35C285.606,75.611,290.24,76.842,293.856,74.742z"/>
	</g>
</g>
<g>
</g>
<g>
</g>
<g>
</g>
<g>
</g>
<g>
</g>
<g>
</g>
<g>
</g>
<g>
</g>
<g>
</g>
<g>
</g>
<g>
</g>
<g>
</g>
<g>
</g>
<g>
</g>
<g>
</g>
</svg>
