<?xml version="1.0" encoding="iso-8859-1"?>
<!-- Generator: Adobe Illustrator 23.0.3, SVG Export Plug-In . SVG Version: 6.00 Build 0)  -->
<svg version="1.1" id="Capa_1" xmlns="http://www.w3.org/2000/svg" xmlns:xlink="http://www.w3.org/1999/xlink" x="0px" y="0px"
	 viewBox="0 0 512 512" style="enable-background:new 0 0 512 512;" xml:space="preserve">
<g>
	<g>
		<path style="fill-rule:evenodd;clip-rule:evenodd;fill:#546E7A;" d="M114.099,317.374H175h83.204h134.385
			c18.817,0,34.234-15.431,34.234-34.295V123.404L249.107,70.103l-169.27,52.138v160.838
			C79.836,301.942,95.253,317.374,114.099,317.374L114.099,317.374z"/>
	</g>
	<g>
		<path style="fill-rule:evenodd;clip-rule:evenodd;fill:#37474F;" d="M219.435,176.364l-139.599-32.65v30.04l139.599,32.621
			c16.182,4.028,25.052,6.042,33.894,6.042c8.87,0,17.74-2.014,33.922-6.042l80.54-18.835c26.1-6.099,23.011,11.233,23.011,36.876
			v46.067l11.789-3.092c8.19-2.156,16.55-1.674,24.23,0.993v-94.63v-30.04l-18.902,4.425l-45.711,10.694l-74.957,17.53
			c-16.182,4-25.052,6.014-33.922,6.014C244.487,182.378,235.617,180.364,219.435,176.364L219.435,176.364z"/>
	</g>
	<g>
		<path style="fill-rule:evenodd;clip-rule:evenodd;fill:#FFD54F;" d="M483.585,180.761c-11.477,0-20.858,9.389-20.858,20.878
			v32.792c0,11.488,9.38,20.878,20.858,20.878s20.858-9.389,20.858-20.878v-32.792C504.443,190.15,495.063,180.761,483.585,180.761
			L483.585,180.761z"/>
	</g>
	<g>
		<path style="fill-rule:evenodd;clip-rule:evenodd;fill:#7C8C94;" d="M253.329,43.552c-8.842,0-17.712,1.986-33.894,6.014
			L22.279,95.661c-10.854,2.553-15.19,9.957-14.68,17.304c-0.51,7.347,3.826,14.751,14.68,17.304l197.156,46.095
			c16.182,4,25.052,6.014,33.894,6.014c8.87,0,17.74-2.014,33.922-6.014l197.128-46.095c10.882-2.553,15.218-9.957,14.708-17.304
			c0.51-7.347-3.826-14.751-14.708-17.304L287.251,49.566C271.07,45.538,262.199,43.552,253.329,43.552L253.329,43.552z"/>
	</g>
	<g>
		<path style="fill-rule:evenodd;clip-rule:evenodd;fill:#546E7A;" d="M323.469,58.019c28.481,18.183,46.051,43.145,46.051,70.661
			c0,2.638-0.17,5.248-0.482,7.801c-0.935,7.744-3.259,15.204-6.83,22.353l45.711-10.694l76.459-17.871
			c0.964-0.227,1.842-0.482,2.692-0.766c8.899-3.064,12.469-9.843,12.016-16.538c0.51-7.347-3.826-14.751-14.708-17.304
			L323.469,58.019z"/>
	</g>
	<g>
		<path style="fill-rule:evenodd;clip-rule:evenodd;fill:#ECEFF1;" d="M283.114,298.822c37.379,12.737,44.549,83.284,18.647,98.545
			l126.251-33.189c24.032-6.326,37.833-33.132,30.805-59.853c-7-26.721-32.193-43.259-56.225-36.933L283.114,298.822z"/>
	</g>
	<g>
		<path style="fill-rule:evenodd;clip-rule:evenodd;fill:#E69B56;" d="M324.857,391.297l-0.057,0.028
			C324.829,391.325,324.829,391.297,324.857,391.297L324.857,391.297z M278.749,403.437l-6.405,26.579
			c-6.858,29.274,9.38,41.585,28.793,37.756L331.971,460c27.234-7.177,28.424-28.054,14.935-44.422L329.42,395.75l-4.166-4.539
			l-0.397,0.085l-0.057,0.028L278.749,403.437z"/>
	</g>
	<g>
		<path style="fill-rule:evenodd;clip-rule:evenodd;fill:#E69B56;" d="M283.114,298.822l16.408-4.34l1.559-6.638l5.498-25.87
			c3.712-20.878-7.595-38.493-34.829-31.317l-30.521,8.964c-18.761,6.241-26.894,24.962-6.518,47.06l18.591,19.97l23.068-6.07
			L283.114,298.822z"/>
	</g>
	<g>
		<path style="fill-rule:evenodd;clip-rule:evenodd;fill:#ECEFF1;" d="M301.761,397.367c27.942-15.46,17.825-90.432-25.392-96.786
			l-141.356,37.188l-51.181,13.474l25.59,96.73l0,0l51.011-13.417L301.761,397.367z"/>
	</g>
	<g>
		<path style="fill-rule:evenodd;clip-rule:evenodd;fill:#FFD54F;" d="M251.062,307.247c43.246,6.354,53.334,81.327,25.42,96.786
			l2.267-0.596l46.051-12.112l0.057-0.028l0.397-0.085l0.255-0.085c25.902-15.261,18.732-85.809-18.647-98.545l-53.561,14.07
			L251.062,307.247z"/>
	</g>
	<g>
		<path style="fill-rule:evenodd;clip-rule:evenodd;fill:#90A4AE;" d="M140.057,388.176c-7.028-26.721-32.193-43.259-56.225-36.933
			c-24.06,6.326-37.861,33.132-30.833,59.853s32.193,43.259,56.225,36.933C133.284,441.704,147.085,414.897,140.057,388.176
			L140.057,388.176z"/>
	</g>
	<g>
		<path style="fill-rule:evenodd;clip-rule:evenodd;fill:#546E7A;" d="M140.057,388.176c-7.028-26.721-32.193-43.259-56.225-36.933
			c-2.891,0.766-5.611,1.815-8.162,3.12c19.101,1.702,36.501,16.594,42.14,38.096c6.178,23.544-3.769,47.145-22.671,56.761
			c4.648,0.397,9.38,0.057,14.085-1.191C133.284,441.704,147.085,414.897,140.057,388.176L140.057,388.176z"/>
	</g>
	<g>
		<path style="fill-rule:evenodd;clip-rule:evenodd;fill:#C4CCCF;" d="M291.842,374.39l-152.153,42.918
			c-4.421,14.807-15.36,26.664-30.266,30.664l51.011-13.417l116.049-30.522C285.579,398.984,290.652,387.637,291.842,374.39
			L291.842,374.39z"/>
	</g>
	<g>
		<path style="fill-rule:evenodd;clip-rule:evenodd;fill:#E69B56;" d="M291.842,374.39c-1.19,13.247-6.263,24.594-15.36,29.643
			l2.267-0.596l23.011-6.07l23.04-6.042c9.947-2.61,14.963-21.729,15.785-30.693C324.347,365.199,308.081,369.795,291.842,374.39
			L291.842,374.39z"/>
	</g>
	<g>
		<path style="fill-rule:evenodd;clip-rule:evenodd;fill:#C4CCCF;" d="M432.943,311.133c6.405,24.338-14.991,27.657-34.149,33.075
			l-58.209,16.424c-1.247,13.616-6.235,25.275-15.076,30.494l76.658-20.169l25.817-6.78c24.06-6.326,37.861-33.132,30.833-59.853
			c-2.607-9.985-7.765-18.552-14.453-25.019c-11.222-10.864-26.724-15.885-41.772-11.914l-25.817,6.78
			c22.161-5.787,45.314,7.858,54.241,31.005C431.753,307.105,432.405,309.091,432.943,311.133L432.943,311.133z"/>
	</g>
	<path d="M487.729,173.509v-38.192c10.019-4.104,15.906-12.642,15.407-22.887c0.578-11.853-7.38-21.434-20.416-24.491
		L287.016,42.176c-16.882-4.202-25.891-6.181-35.448-6.181c-9.532,0-18.537,1.98-35.417,6.18l-54.658,12.777
		c-4.036,0.944-6.543,4.98-5.599,9.016c0.944,4.036,4.981,6.544,9.016,5.599l54.708-12.789c0.035-0.008,0.07-0.016,0.104-0.025
		c15.702-3.908,23.962-5.749,31.846-5.749c7.909,0,16.171,1.841,31.873,5.749c0.035,0.009,0.07,0.017,0.105,0.025l195.752,45.774
		c6.018,1.411,9.155,4.734,8.833,9.356c-0.024,0.346-0.024,0.694,0,1.04c0.273,3.919-1.95,6.899-6.294,8.576
		c-0.52-0.114-1.058-0.178-1.612-0.178c-1.917,0-3.661,0.725-4.988,1.908l-191.783,44.846c-16.183,4-24.089,5.753-31.885,5.753
		c-7.771,0-15.675-1.753-31.95-5.775L23.843,122.307c-6.002-1.411-9.13-4.735-8.809-9.358c0.024-0.346,0.024-0.693,0-1.039
		c-0.321-4.623,2.807-7.947,8.8-9.356l105.899-24.761c4.036-0.943,6.542-4.98,5.599-9.016c-0.943-4.035-4.978-6.541-9.016-5.599
		L20.406,87.941C7.398,91.001-0.548,100.582,0.029,112.43c-0.577,11.848,7.368,21.429,20.387,24.49l51.863,12.126v134.033
		c0,22.416,17.522,40.772,39.879,41.787c7.087,0.331,14.438,0.439,21.853,0.439c6.455,0,12.951-0.083,19.367-0.17l-71.459,18.798
		c-0.003,0.001-0.005,0.001-0.008,0.002c-28.043,7.373-44.292,38.363-36.221,69.084c3.875,14.732,12.716,27.251,24.896,35.253
		c8.725,5.732,18.418,8.677,28.166,8.677c4.145,0,8.3-0.533,12.394-1.61c0.001,0,0.002-0.001,0.004-0.001l89.266-23.487
		c4.037-1.062,6.448-5.195,5.385-9.231s-5.194-6.448-9.231-5.385l-54.903,14.446c0.468-0.807,0.918-1.629,1.35-2.468
		c6.68-12.969,8.224-28.224,4.349-42.958c-3.875-14.732-12.716-27.251-24.896-35.253c-0.786-0.517-1.581-1.01-2.382-1.481
		l131.31-34.542c18.82,3.679,28.995,23.942,32.007,40.522c3.365,18.52-0.788,35.742-9.885,41.5l-44.247,11.638
		c-4.037,1.062-6.448,5.195-5.386,9.231c0.892,3.392,3.954,5.637,7.304,5.637c0.636,0,1.283-0.081,1.927-0.25l35.315-9.289
		l-3.446,14.326c-4.922,21.006,1.064,32.688,6.953,38.788c5.63,5.833,13.573,8.924,22.511,8.924c2.64,0,5.368-0.27,8.148-0.818
		c0.129-0.025,0.258-0.054,0.385-0.086l30.912-7.793c18.425-4.855,25.19-14.86,27.621-22.398c3.459-10.728,0.259-23.171-8.78-34.138
		c-0.054-0.065-0.107-0.129-0.163-0.192l-13.417-15.215l90.779-23.878c28.033-7.379,44.268-38.369,36.193-69.077
		c-4.092-15.617-14.062-29.026-27.355-36.79c-1.441-0.842-2.908-1.607-4.394-2.302V148.225l38.342-8.966v36.11
		c-10.292,4.279-17.55,14.44-17.55,26.27v32.792c0,15.679,12.747,28.435,28.415,28.435S512,250.109,512,234.43v-32.792
		C512,187.368,501.44,175.522,487.729,173.509z M94.255,357.45c6.845,0,13.703,2.101,19.917,6.183
		c9.056,5.949,15.654,15.348,18.577,26.465c2.924,11.116,1.799,22.548-3.168,32.192c-4.83,9.377-12.742,15.923-22.28,18.43
		c-9.52,2.507-19.613,0.702-28.416-5.082c-9.055-5.949-15.653-15.348-18.576-26.464c-5.953-22.659,5.46-45.368,25.445-50.624
		l0.001,0l0.005-0.001C88.558,357.814,91.404,357.45,94.255,357.45z M211.61,309.816h-36.61c-6.6,0-13.525,0.094-20.221,0.186
		c-14.061,0.191-28.6,0.389-41.924-0.235c-14.277-0.648-25.461-12.372-25.461-26.689V152.58l128.716,30.094
		c15.531,3.838,25.552,6.191,35.459,6.191c9.934,0,19.956-2.353,35.394-6.169l132.302-30.937v107.148
		c-6.202-0.8-12.491-0.43-18.595,1.176l-91.054,23.952l4.354-20.491c0.018-0.083,0.034-0.165,0.049-0.248
		c2.49-13.998-0.841-26.411-9.136-34.055c-5.826-5.368-16.642-10.746-35.059-5.893c-0.068,0.018-0.137,0.037-0.204,0.057
		l-30.521,8.964c-0.086,0.025-0.171,0.052-0.256,0.08c-11.805,3.927-20.083,12.022-22.71,22.208
		c-2.117,8.208-1.576,21.315,13.044,37.171l9.99,10.738L211.61,309.816z M255.753,298.204l-15.487-16.646
		c-7.791-8.45-11.164-16.662-9.497-23.125c1.313-5.092,5.948-9.316,12.725-11.601l30.281-8.893
		c6.508-1.702,15.372-2.645,20.866,2.418c4.341,4,6.027,11.536,4.518,20.174l-5.454,25.663l-0.507,2.159L255.753,298.204z
		 M273.987,309.037l26.61-7c18.505,3.571,28.426,22.844,31.55,40.014c3.313,18.203-0.495,35.179-9.079,41.639
		c-0.631,0.169-1.244,0.422-1.824,0.758l-25.414,6.685c4.299-11.599,4.734-25.751,2.447-38.334
		C295.388,336.899,287.641,319.558,273.987,309.037z M341.15,420.478c5.556,6.785,7.792,14.177,5.981,19.794
		c-2.306,7.152-10.564,10.702-17.008,12.4l-30.633,7.722c-7.076,1.355-12.996,0.003-16.676-3.81
		c-4.636-4.802-5.741-13.625-3.122-24.8l5.336-22.182l37.733-9.925l1.045,1.134L341.15,420.478z M451.508,306.248
		c5.959,22.655-5.445,45.365-25.419,50.622l-81.555,21.452c4.375-11.78,4.812-26.176,2.483-38.977
		c-2.856-15.695-10.479-32.807-23.896-43.233l81.394-21.411c8.816-2.32,18.276-0.911,26.635,3.972
		C441.005,284.427,448.424,294.475,451.508,306.248z M496.886,234.43c0,7.345-5.966,13.32-13.301,13.32s-13.302-5.975-13.302-13.32
		v-32.792c0-7.345,5.967-13.321,13.302-13.321s13.301,5.976,13.301,13.321V234.43z"/>
</g>
<g>
</g>
<g>
</g>
<g>
</g>
<g>
</g>
<g>
</g>
<g>
</g>
<g>
</g>
<g>
</g>
<g>
</g>
<g>
</g>
<g>
</g>
<g>
</g>
<g>
</g>
<g>
</g>
<g>
</g>
</svg>
