<?xml version="1.0" encoding="iso-8859-1"?>
<!-- Generator: Adobe Illustrator 23.0.3, SVG Export Plug-In . SVG Version: 6.00 Build 0)  -->
<svg version="1.1" id="Capa_1" xmlns="http://www.w3.org/2000/svg" xmlns:xlink="http://www.w3.org/1999/xlink" x="0px" y="0px"
	 viewBox="0 0 512 512" style="enable-background:new 0 0 512 512;" xml:space="preserve">
<g>
	<g>
		<polygon style="fill-rule:evenodd;clip-rule:evenodd;fill:#C4CCCF;" points="333.675,403.185 261.509,379.855 189.342,403.185 
			178.552,444.588 261.509,466.767 344.465,444.588 		"/>
	</g>
	<g>
		<path style="fill-rule:evenodd;clip-rule:evenodd;fill:#ECEFF1;" d="M504.443,356.524l-240.464-19.543L7.557,356.524v20.403
			c0,14.436,11.812,26.257,26.237,26.257h155.548h144.332h144.531c14.425,0,26.237-11.821,26.237-26.257V356.524z"/>
	</g>
	<g>
		<path style="fill-rule:evenodd;clip-rule:evenodd;fill:#546E7A;" d="M33.794,23.565c-14.425,0-26.237,11.821-26.237,26.257
			v306.702h496.886V49.822c0-14.436-11.812-26.03-26.237-26.257C464.008,23.337,101.289,23.565,33.794,23.565L33.794,23.565z"/>
	</g>
	<g>
		<path style="fill-rule:evenodd;clip-rule:evenodd;fill:#8EBFE8;" d="M51.172,321.913h409.429c3.095,0,5.594-2.529,5.594-5.598
			V187.132V67.44c0-3.097-2.499-5.627-5.594-5.627c-10.222,0-398.469,0-409.429,0c-3.067,0-5.594,2.529-5.594,5.627v248.874
			C45.578,319.384,48.105,321.913,51.172,321.913L51.172,321.913z"/>
	</g>
	<g>
		<path style="fill-rule:evenodd;clip-rule:evenodd;fill:#ECEFF1;" d="M344.465,444.588H178.552h-23.738
			c-12.182,0-22.148,9.974-22.148,22.165v12.162c0,5.513,4.486,10.031,9.995,10.031h237.724c5.48,0,9.995-4.518,9.995-10.031
			v-12.162c0-12.191-9.995-22.165-22.177-22.165H344.465z"/>
	</g>
	<g>
		<path style="fill-rule:evenodd;clip-rule:evenodd;fill:#35505C;" d="M466.195,67.44v119.692v129.183
			c0,3.069-2.499,5.598-5.594,5.598h-30.525v34.612h74.367V49.822c0-14.436-11.812-25.945-26.237-26.257
			c-2.953-0.057-21.012-0.085-48.328-0.085v26.257c0.142,1.023,0.199,2.046,0.199,3.069v9.008h30.525
			C463.696,61.814,466.195,64.343,466.195,67.44L466.195,67.44z"/>
	</g>
	<g>
		<path style="fill-rule:evenodd;clip-rule:evenodd;fill:#C4CCCF;" d="M504.443,356.524h-74.367v46.66h48.13
			c14.425,0,26.237-11.821,26.237-26.257V356.524z"/>
	</g>
	<g>
		<path style="fill-rule:evenodd;clip-rule:evenodd;fill:#C4CCCF;" d="M329.586,444.588c12.21,0,22.177,9.974,22.177,22.165v12.162
			c0,5.513-4.515,10.031-9.995,10.031h38.617c5.48,0,9.995-4.518,9.995-10.031v-12.162c0-12.191-9.995-22.165-22.177-22.165h-23.738
			H329.586z"/>
	</g>
	<g>
		<path style="fill-rule:evenodd;clip-rule:evenodd;fill:#90A4AE;" d="M295.057,403.185H189.342l-5.849,22.535h95.351
			c11.812,0,23.114-0.483,25.243,7.559l1.76,11.31h23.738h14.879l-10.79-41.403H295.057z"/>
	</g>
	<g>
		<path style="fill-rule:evenodd;clip-rule:evenodd;fill:#519AD6;" d="M429.878,61.814v260.099h0.199h30.525
			c3.095,0,5.594-2.529,5.594-5.598V187.132v-14.606V67.44c0-3.097-2.499-5.627-5.594-5.627h-30.525H429.878z"/>
	</g>
	<g>
		<path style="fill-rule:evenodd;clip-rule:evenodd;fill:#ECEFF1;" d="M322.487,232.911l12.437-11.736
			c11.301-11.48,12.551-9.775,28.878-9.775h34.812c6.559,0,11.898-5.371,11.898-11.907v-73.202c0-6.564-5.338-11.935-11.898-11.935
			H281.399c-6.531,0-11.898,5.371-11.898,11.935v73.202c0,6.536,5.367,11.907,11.898,11.907h13.885c7.184,0,7.184,0,7.184,8.411
			v8.042C302.469,235.213,312.151,242.687,322.487,232.911L322.487,232.911z"/>
	</g>
	<g>
		<path style="fill-rule:evenodd;clip-rule:evenodd;fill:#C4CCCF;" d="M389.67,126.292v73.202c0,6.536-5.338,11.907-11.898,11.907
			h20.842c6.559,0,11.898-5.371,11.898-11.907v-73.202c0-6.564-5.338-11.935-11.898-11.935h-20.842
			C384.332,114.356,389.67,119.727,389.67,126.292L389.67,126.292z"/>
	</g>
	<g>
		<path style="fill-rule:evenodd;clip-rule:evenodd;fill:#F55A8E;" d="M191.586,321.913h89.104
			c-2.925-51.065-44.524-76.498-83.652-81.585c-9.768-4.206-26.947-4.291-34.67-0.057c-37.396,4.831-84.362,32.168-84.362,81.641
			h89.217H191.586z"/>
	</g>
	<g>
		<path style="fill-rule:evenodd;clip-rule:evenodd;fill:#FED8B3;" d="M235.485,162.125h-31.973
			c-21.751,0-30.837-5.399-38.419-10.003c-10.421-6.309-12.806-11.083-21.807,1.876c-4.004,5.769-7.184,8.127-12.636,8.127h-6.985
			v30.264c0,22.023,17.463,40.92,38.703,47.882c5.991,1.762,10.932,2.842,17.207,2.87c5.935,0.057,11.841-0.966,17.463-2.813
			c5.168-1.705,10.109-4.149,14.623-7.161c13.914-9.292,23.824-24.154,23.824-40.778V162.125z"/>
	</g>
	<g>
		<path style="fill-rule:evenodd;clip-rule:evenodd;fill:#546E7A;" d="M235.485,171.361c0.256-2.785,0.028-6.65,0-9.235
			c-0.426-76.867-111.82-66.581-111.82-3.552v12.788h6.985c5.452,0,8.632-2.359,12.636-8.127
			c9.001-12.958,11.386-8.184,21.807-1.875c7.582,4.604,16.668,10.003,38.419,10.003H235.485z"/>
	</g>
	<g>
		<path style="fill-rule:evenodd;clip-rule:evenodd;fill:#37474F;" d="M216.005,162.125c0,2.586,0.227,6.451,0,9.235h19.479
			c0.256-2.785,0.028-6.65,0-9.235c-0.227-42.028-33.648-57.999-63.889-53.537C195.135,112.168,215.807,129.076,216.005,162.125
			L216.005,162.125z"/>
	</g>
	<g>
		<path style="fill-rule:evenodd;clip-rule:evenodd;fill:#FCC172;" d="M216.005,192.531c0,16.595-9.91,31.457-23.824,40.75
			c-2.328,1.563-4.742,2.955-7.241,4.177c-2.414,1.165-4.884,2.16-7.411,2.984c-2.3,0.767-4.657,1.392-7.042,1.847
			c1.193,0.227,2.385,0.398,3.606,0.54c1.732,0.199,3.521,0.313,5.452,0.313h0.028c5.764,0.057,11.5-0.909,16.952-2.643
			c0.17-0.057,0.341-0.114,0.511-0.171c5.168-1.705,10.109-4.149,14.623-7.161c13.914-9.292,23.824-24.154,23.824-40.778v-21.028
			h-19.479V192.531z"/>
	</g>
	<g>
		<path style="fill-rule:evenodd;clip-rule:evenodd;fill:#BA4583;" d="M242.924,321.913h37.766
			c-2.925-51.065-44.524-76.498-83.652-81.585l0,0c-5.622,1.847-11.528,2.87-17.463,2.813c-1.505,0-2.925-0.057-4.288-0.199
			C212.541,254.821,240.539,280.652,242.924,321.913L242.924,321.913z"/>
	</g>
	<g>
		<path d="M281.399,218.957h13.512c0.001,0.286,0.001,0.573,0.001,0.854v8.042c0,6.752,4.273,13.128,10.634,15.867
			c1.453,0.626,3.915,1.424,7.016,1.424c4.182,0,9.524-1.452,15.111-6.737l12.438-11.737c0.068-0.063,0.134-0.128,0.199-0.195
			c7.605-7.725,7.607-7.726,17.858-7.572c1.667,0.025,3.527,0.053,5.634,0.053h34.812c10.727,0,19.455-8.731,19.455-19.464v-73.202
			c0-10.748-8.727-19.492-19.455-19.492H281.399c-10.727,0-19.455,8.744-19.455,19.492v73.202
			C261.945,210.226,270.672,218.957,281.399,218.957z M277.059,126.291c0-2.373,1.988-4.377,4.341-4.377h117.215
			c2.393,0,4.341,1.963,4.341,4.377v73.202c0,2.357-1.988,4.349-4.341,4.349h-34.812c-2.023,0-3.809-0.027-5.409-0.051
			c-12.942-0.195-17.208,0.272-28.756,11.981l-12.344,11.648c-2.23,2.109-4.387,3.012-5.769,2.417
			c-0.977-0.421-1.499-1.423-1.499-1.985v-8.042c0-5.478,0-9.097-2.708-12.268c-3.16-3.701-7.47-3.701-12.032-3.701h-13.885
			c-2.353,0-4.341-1.992-4.341-4.349V126.291z"/>
		<path d="M309.227,170.45h0.227c4.174,0,7.557-3.383,7.557-7.557c0-4.174-3.383-7.557-7.557-7.557h-0.227
			c-4.174,0-7.557,3.383-7.557,7.557C301.67,167.066,305.053,170.45,309.227,170.45z"/>
		<path d="M339.269,170.45h0.227c4.174,0,7.557-3.383,7.557-7.557c0-4.174-3.383-7.557-7.557-7.557h-0.227
			c-4.174,0-7.557,3.383-7.557,7.557C331.712,167.066,335.095,170.45,339.269,170.45z"/>
		<path d="M369.339,170.45h0.198c4.174,0,7.557-3.383,7.557-7.557c0-4.174-3.383-7.557-7.557-7.557h-0.198
			c-4.174,0-7.557,3.383-7.557,7.557C361.782,167.066,365.165,170.45,369.339,170.45z"/>
		<path d="M180.057,289.462h-0.199c-4.174,0-7.557,3.384-7.557,7.557c0,4.174,3.383,7.557,7.557,7.557h0.199
			c4.174,0,7.557-3.384,7.557-7.557C187.614,292.846,184.231,289.462,180.057,289.462z"/>
		<path d="M179.148,278.263h0.199c4.174,0,7.557-3.384,7.557-7.557c0-4.174-3.383-7.557-7.557-7.557h-0.199
			c-4.174,0-7.557,3.384-7.557,7.557C171.592,274.879,174.975,278.263,179.148,278.263z"/>
		<path d="M478.37,16.01c-0.049-0.001-0.098-0.002-0.146-0.002l-221.227-0.512c-0.012,0-0.023,0-0.035,0L33.794,16.008
			C15.16,16.008,0,31.177,0,49.822v327.106c0,18.645,15.16,33.814,33.794,33.814h145.769l-6.851,26.289h-17.898
			c-16.38,0-29.705,13.333-29.705,29.722v12.163c0,9.698,7.873,17.588,17.552,17.588h237.724c9.678,0,17.553-7.89,17.553-17.588
			v-12.163c0-16.389-13.338-29.722-29.733-29.722h-17.899l-6.851-26.289h134.752c18.634,0,33.794-15.169,33.794-33.814V49.822
			C512,31.579,496.914,16.411,478.37,16.01z M382.824,466.753v12.163c0,1.341-1.117,2.474-2.439,2.474H142.661
			c-1.321,0-2.438-1.133-2.438-2.474v-12.163c0-8.055,6.546-14.607,14.591-14.607h23.712c0.01,0,0.021,0.002,0.031,0.002
			c0.008,0,0.015-0.002,0.023-0.002h165.857c0.008,0,0.016,0.002,0.023,0.002c0.01,0,0.02-0.002,0.03-0.002h23.713
			C376.264,452.146,382.824,458.698,382.824,466.753z M334.686,437.031H188.331l6.851-26.289h132.652L334.686,437.031z
			 M478.206,395.627H33.794c-10.3,0-18.68-8.389-18.68-18.699v-12.846h224.233c4.174,0,7.557-3.383,7.557-7.557
			s-3.383-7.557-7.557-7.557H15.114V49.822c0-10.311,8.38-18.7,18.698-18.7l223.168-0.512l221.13,0.511
			c10.36,0.26,18.777,8.635,18.777,18.7v299.145h-222.87c-4.174,0-7.557,3.383-7.557,7.557s3.383,7.557,7.557,7.557h222.87v12.846
			C496.886,387.239,488.506,395.627,478.206,395.627z"/>
		<path d="M460.601,329.47c7.252,0,13.151-5.901,13.151-13.155V67.44c0-7.269-5.899-13.184-13.151-13.184H275.209
			c-4.174,0-7.557,3.384-7.557,7.557s3.383,7.557,7.557,7.557h183.429v244.984H287.573c-5.467-42.914-36.778-66.992-68.793-76.969
			c15.255-11.37,24.262-27.958,24.262-44.998v-20.842c0.178-2.372,0.115-5.001,0.05-7.348c-0.022-0.776-0.043-1.509-0.05-2.116
			c-0.236-42.702-31.084-61.783-61.62-61.783c-0.067,0-0.136,0-0.203,0c-16.21,0.045-32.309,5.498-44.168,14.962
			c-13.506,10.778-20.943,26.159-20.943,43.31v12.788v21.028c0,17.682,9.741,34.168,24.407,45.07
			c-14.452,4.611-28.097,11.881-39.178,21.076c-18.12,15.037-28.573,34.214-30.54,55.82H53.134V69.371h187.177
			c4.174,0,7.557-3.384,7.557-7.557s-3.383-7.557-7.557-7.557H51.172c-7.252,0-13.151,5.914-13.151,13.184v248.875
			c0,7.254,5.899,13.155,13.151,13.155H460.601z M131.221,158.573c0-27.942,25.782-43.091,50.039-43.158c0.053,0,0.103,0,0.155,0
			c21.373,0,46.32,12.234,46.512,46.793c0.006,0.493,0.018,1.03,0.032,1.596h-24.448c-19.831,0-27.623-4.731-34.506-8.91
			c-1.391-0.843-2.634-1.66-3.836-2.451c-3.879-2.55-7.564-4.974-12.122-4.974c-0.537,0-1.086,0.034-1.648,0.104
			c-6.202,0.782-10.547,5.917-14.323,11.351c-3.023,4.355-4.312,4.823-5.856,4.873V158.573z M131.221,192.389v-13.492
			c9.248-0.216,14.256-5.567,18.271-11.353c1.955-2.814,3.168-4.112,3.811-4.694c0.924,0.486,2.356,1.427,3.563,2.221
			c1.257,0.826,2.68,1.763,4.306,2.746c7.714,4.685,18.28,11.1,42.341,11.1h24.415v13.471c0,13.041-7.651,25.936-20.474,34.5
			c-3.789,2.54-7.864,4.557-12.058,6.009c-0.577,0.117-1.131,0.301-1.657,0.544c-4.662,1.438-9.443,2.177-14.119,2.142
			c-4.896-0.03-9.704-0.83-14.281-2.253c-0.41-0.176-0.837-0.315-1.277-0.417C145.572,226.636,131.221,210.096,131.221,192.389z
			 M161.58,248.013c5.739,1.7,11.767,2.648,17.938,2.686c0.143,0.001,0.286,0.002,0.43,0.002c5.89,0,11.87-0.919,17.691-2.658
			c31.573,4.604,68.207,24.562,74.651,66.313h-24.591V301.85c0-4.174-3.383-7.557-7.557-7.557c-4.174,0-7.557,3.383-7.557,7.557
			v12.505H126.139V301.85c0-4.174-3.383-7.557-7.557-7.557c-4.174,0-7.557,3.383-7.557,7.557v12.505H85.984
			C90.561,273.224,132.117,252.409,161.58,248.013z"/>
	</g>
</g>
<g>
</g>
<g>
</g>
<g>
</g>
<g>
</g>
<g>
</g>
<g>
</g>
<g>
</g>
<g>
</g>
<g>
</g>
<g>
</g>
<g>
</g>
<g>
</g>
<g>
</g>
<g>
</g>
<g>
</g>
</svg>
