<?xml version="1.0" encoding="iso-8859-1"?>
<!-- Generator: Adobe Illustrator 23.0.3, SVG Export Plug-In . SVG Version: 6.00 Build 0)  -->
<svg version="1.1" id="Capa_1" xmlns="http://www.w3.org/2000/svg" xmlns:xlink="http://www.w3.org/1999/xlink" x="0px" y="0px"
	 viewBox="0 0 512 512" style="enable-background:new 0 0 512 512;" xml:space="preserve">
<g>
	<g>
		<path style="fill-rule:evenodd;clip-rule:evenodd;fill:#546E7A;" d="M255.515,286.597l-120.841,29.148
			C61.221,347.11,34.389,417.566,29.108,464.726c-0.767,20.796,6.019,39.717,43.64,39.717h48.893h134.357h131.659h51.619
			c37.621,0,44.407-18.921,43.612-39.717c-5.281-47.245-31.886-117.645-105.538-148.867L255.515,286.597z"/>
	</g>
	<g>
		<path style="fill-rule:evenodd;clip-rule:evenodd;fill:#FED8B3;" d="M390.298,161.424l-129.729-17.5l-138.445,17.529v46.393
			c0,66.621,66.696,121.253,134.101,121.679c27.087,0.199,54.259-8.779,76.946-23.949c33.362-22.273,57.127-57.927,57.127-97.729
			V161.424z"/>
	</g>
	<g>
		<path style="fill-rule:evenodd;clip-rule:evenodd;fill:#35505C;" d="M377.35,315.859c0.852,10.654-0.653,21.023-4.06,30.768
			c56.275,34.83,77.769,95.03,82.454,136.935c0.284,7.074-0.341,13.921-2.726,19.887c25.582-4.205,30.551-20.767,29.87-38.722
			C477.607,417.481,451.002,347.081,377.35,315.859L377.35,315.859z"/>
	</g>
	<g>
		<path style="fill-rule:evenodd;clip-rule:evenodd;fill:#ECEFF1;" d="M257.503,360.008l34.441,51.478
			c47.502-7.841,89.069-48.694,85.407-95.627c-12.408-5.284-26.179-9.432-41.397-12.159c-0.909,0.625-1.846,1.278-2.783,1.875
			c-12.834,8.608-27.116,15.199-42.022,19.262L257.503,360.008z"/>
	</g>
	<g>
		<path style="fill-rule:evenodd;clip-rule:evenodd;fill:#ECEFF1;" d="M220.081,411.486l37.422-51.478l-35.378-35.2
			c-16.298-4.432-31.857-11.79-45.628-21.421c-15.389,2.784-29.302,6.989-41.823,12.358
			C130.954,362.735,172.522,403.617,220.081,411.486L220.081,411.486z"/>
	</g>
	<g>
		<path style="fill-rule:evenodd;clip-rule:evenodd;fill:#C4CCCF;" d="M222.125,324.808c-15.361-4.176-30.04-10.938-43.186-19.745
			c-0.823-0.54-1.647-1.108-2.442-1.676c-11.3,2.046-21.806,4.858-31.545,8.324c0.284,0.455,0.596,0.881,0.88,1.335
			c14.537,21.25,51.25,42.813,92.874,46.961L222.125,324.808z"/>
	</g>
	<g>
		<path style="fill-rule:evenodd;clip-rule:evenodd;fill:#C4CCCF;" d="M333.171,305.575c-12.834,8.608-27.116,15.199-42.022,19.262
			l-17.831,35.171c24.986-2.159,50.114-13.836,67.405-23.097c5.082-2.727,5.906-2.756,11.442-1.364
			c8.262,3.494,13.998,6.676,21.125,11.08c3.407-9.745,4.912-20.114,4.06-30.768c-2.584-1.108-5.253-2.159-7.978-3.182
			c-10.278-3.779-21.38-6.818-33.419-8.977C335.045,304.325,334.108,304.978,333.171,305.575L333.171,305.575z"/>
	</g>
	<g>
		<path style="fill-rule:evenodd;clip-rule:evenodd;fill:#8EBFE8;" d="M273.318,360.008l-15.815-9.29l-18.796,9.29l-18.626,51.478
			c25.242,4.148,46.678,3.551,71.863,0L273.318,360.008z"/>
	</g>
	<g>
		<path style="fill-rule:evenodd;clip-rule:evenodd;fill:#519AD6;" d="M235.129,327.678c-4.373-0.767-8.717-1.705-13.004-2.869
			l16.582,35.2h34.611l17.831-35.171c-11.414,3.125-23.169,4.773-34.924,4.688C249.155,329.496,242.114,328.842,235.129,327.678
			L235.129,327.678z"/>
	</g>
	<g>
		<path style="fill-rule:evenodd;clip-rule:evenodd;fill:#FFD54F;" d="M441.008,122.332c-8.887,0-16.127,7.273-16.127,16.137v25.341
			c0,8.864,7.24,16.108,16.127,16.108c8.859,0,16.099-7.244,16.099-16.108v-25.341C457.107,129.605,449.867,122.332,441.008,122.332
			L441.008,122.332z"/>
	</g>
	<g>
		<path style="fill-rule:evenodd;clip-rule:evenodd;fill:#FCC172;" d="M346.97,161.424v46.421c0,39.802-23.793,75.456-57.127,97.729
			c-16.468,10.995-35.293,18.75-54.714,22.103c6.985,1.165,14.026,1.818,21.096,1.847c27.087,0.199,54.259-8.779,76.946-23.949
			c33.362-22.273,57.127-57.927,57.127-97.729v-46.421C375.533,161.424,361.081,161.424,346.97,161.424L346.97,161.424z"/>
	</g>
	<g>
		<path style="fill-rule:evenodd;clip-rule:evenodd;fill:#E69B56;" d="M432.916,124.52c4.827,2.813,8.092,8.012,8.092,13.949v25.341
			c0,5.938-3.265,11.165-8.064,13.949c2.385,1.392,5.139,2.159,8.064,2.159c8.859,0,16.099-7.244,16.099-16.108v-25.341
			c0-8.864-7.24-16.137-16.099-16.137C438.055,122.332,435.301,123.128,432.916,124.52L432.916,124.52z"/>
	</g>
	<g>
		<path style="fill-rule:evenodd;clip-rule:evenodd;fill:#546E7A;" d="M122.124,161.453c81.716-0.114,166.895-0.028,268.174-0.028
			v-4.034l0,0V85.911l-268.174-1.932v73.411V161.453z"/>
	</g>
	<g>
		<path style="fill-rule:evenodd;clip-rule:evenodd;fill:#37474F;" d="M390.298,110.088V85.911l-10.477,2.443L344.5,96.622
			l-57.951,13.551c-12.493,3.097-19.364,4.631-26.207,4.631c-6.843,0-13.686-1.534-26.207-4.631L122.124,83.979v22.103
			l116.469,27.216c12.493,3.097,19.364,4.659,26.207,4.659c6.843,0,13.686-1.563,26.207-4.659l40.659-9.489
			c17.717-4.148,15.304,15.853,15.304,33.58v4.034h43.328C390.298,144.322,390.298,127.19,390.298,110.088L390.298,110.088z"/>
	</g>
	<g>
		<path style="fill-rule:evenodd;clip-rule:evenodd;fill:#7C8C94;" d="M260.342,7.557c-6.843,0-13.686,1.534-26.207,4.631
			L81.777,47.814c-8.404,1.96-11.755,7.699-11.357,13.381c-0.397,5.654,2.953,11.392,11.357,13.353l152.358,35.626
			c12.521,3.097,19.364,4.631,26.207,4.631c6.843,0,13.714-1.534,26.207-4.631l152.358-35.626
			c8.404-1.96,11.755-7.699,11.357-13.353c0.397-5.682-2.953-11.421-11.357-13.381L286.549,12.188
			C274.056,9.091,267.185,7.557,260.342,7.557L260.342,7.557z"/>
	</g>
	<g>
		<path style="fill-rule:evenodd;clip-rule:evenodd;fill:#546E7A;" d="M314.545,18.751c22.005,14.034,35.605,33.325,35.605,54.575
			c0,2.045-0.142,4.034-0.369,6.023c-0.738,5.966-2.527,11.762-5.281,17.273l35.321-8.267l59.115-13.807
			c0.71-0.17,1.42-0.369,2.073-0.597c6.871-2.358,9.625-7.585,9.256-12.756c0.397-5.682-2.953-11.421-11.329-13.381L314.545,18.751z
			"/>
	</g>
	<g>
		<path d="M185.32,215.894c1.408,1.16,3.11,1.725,4.802,1.725c2.179,0,4.343-0.938,5.837-2.752c0.871-1.057,4.519-2.818,10.6-3.042
			c6.851-0.253,12.41,1.594,14.192,3.458c2.884,3.018,7.666,3.127,10.685,0.243c3.017-2.884,3.126-7.667,0.242-10.685
			c-5.24-5.484-14.833-8.527-25.676-8.12c-9.619,0.354-17.532,3.466-21.709,8.536C181.639,208.478,182.099,213.24,185.32,215.894z"
			/>
		<path d="M285.491,215.894c1.408,1.16,3.11,1.725,4.802,1.725c2.179,0,4.343-0.938,5.836-2.752c0.871-1.057,4.52-2.818,10.6-3.042
			c6.85-0.253,12.41,1.594,14.192,3.458c2.885,3.018,7.667,3.127,10.685,0.243c3.017-2.884,3.126-7.667,0.242-10.685
			c-5.24-5.484-14.835-8.527-25.676-8.12c-9.619,0.354-17.532,3.466-21.709,8.536C281.81,208.478,282.27,213.24,285.491,215.894z"/>
		<path d="M490.44,464.437c-0.007-0.184-0.021-0.367-0.041-0.55c-2.288-20.488-10.221-60.429-37.659-97.745
			c-18.776-25.535-42.747-44.569-71.562-56.911c-0.552-0.323-1.147-0.574-1.775-0.751c-8.342-3.469-17.086-6.381-26.22-8.737
			c28.262-24.734,44.672-57.964,44.672-91.898V157.39V91.907l35.596-8.323v32.435c-9.364,3.163-16.127,12.028-16.127,22.45v25.342
			c0,13.049,10.625,23.666,23.684,23.666c13.044,0,23.656-10.616,23.656-23.666v-25.342c0-10.418-6.751-19.281-16.099-22.447V78.644
			c6.134-3.864,9.605-10.132,9.269-17.45c0.458-10.073-6.244-18.182-17.207-20.739L288.319,4.841C275.04,1.55,267.945,0,260.342,0
			c-7.573,0-14.684,1.554-27.927,4.829L80.061,40.454c-10.967,2.558-17.669,10.667-17.211,20.74
			c-0.461,10.057,6.242,18.155,17.207,20.712l34.51,8.069v67.415v50.456c0,33.793,15.748,66.232,44.344,91.341
			c0.106,0.094,0.215,0.184,0.322,0.277c-32.818,8.499-60.796,24.351-83.328,47.263c-2.926,2.976-2.886,7.76,0.09,10.687
			c1.471,1.448,3.385,2.169,5.299,2.169c1.955,0,3.909-0.754,5.388-2.259c11.836-12.036,25.353-21.943,40.438-29.68
			c1.489,19.995,10.296,39.437,25.493,55.787c17.136,18.439,41.278,31.382,66.234,35.511c0.001,0,0.002,0,0.003,0
			c0.002,0,0.004,0.001,0.005,0.001c12.217,2.008,23.703,3.011,35.684,3.011c11.929,0,24.35-0.995,38.46-2.985
			c0.039-0.005,0.076-0.016,0.114-0.022c0.021-0.003,0.043-0.002,0.064-0.005c24.956-4.129,49.098-17.073,66.234-35.511
			c15.178-16.33,23.982-35.745,25.487-55.714c74.786,38.132,88.284,118.58,90.447,137.571c0.375,10.8-1.63,18.098-6.302,22.952
			c-5.522,5.737-15.537,8.646-29.768,8.646h-44.062v-45.711c0-4.174-3.383-7.557-7.557-7.557s-7.557,3.383-7.557,7.557v45.711
			H129.198v-43.978c0-4.174-3.383-7.557-7.557-7.557s-7.557,3.384-7.557,7.557v43.978H72.748c-14.225,0-24.24-2.907-29.768-8.641
			c-4.676-4.851-6.69-12.152-6.331-22.96c1.898-16.632,8.136-49.005,28.608-81.004c2.25-3.516,1.222-8.19-2.293-10.439
			c-3.513-2.249-8.189-1.223-10.438,2.293c-22.239,34.761-28.923,69.897-30.928,87.748c-0.021,0.188-0.035,0.376-0.042,0.565
			c-0.557,15.132,2.891,26.346,10.543,34.286C40.703,507.66,54,512,72.748,512h366.528c18.758,0,32.058-4.344,40.658-13.279
			C487.581,490.776,491.018,479.562,490.44,464.437z M449.55,138.469v25.342c0,4.715-3.832,8.551-8.542,8.551
			c-4.725,0-8.57-3.836-8.57-8.551v-25.342c0-4.73,3.845-8.579,8.57-8.579C445.718,129.89,449.55,133.739,449.55,138.469z
			 M123.631,76.573l-40.137-9.385c-2.657-0.62-5.774-2.07-5.536-5.463c0.025-0.352,0.025-0.705,0.001-1.057
			c-0.239-3.418,2.878-4.875,5.539-5.495l152.451-35.648c12.122-2.997,18.48-4.41,24.393-4.41c5.951,0,12.298,1.412,24.39,4.409
			c0.032,0.008,0.064,0.016,0.098,0.023l152.361,35.627c2.656,0.62,5.774,2.076,5.535,5.494c-0.024,0.352-0.024,0.705,0.001,1.057
			c0.157,2.247-1.159,3.638-2.837,4.505c-0.981,0.146-1.898,0.478-2.718,0.963l-48.38,11.313c-0.024,0.005-0.047,0.011-0.071,0.017
			l-103.89,24.293c-0.033,0.007-0.065,0.015-0.098,0.023c-12.092,2.997-18.439,4.409-24.39,4.409
			c-5.913,0-12.271-1.412-24.487-4.432L123.703,76.59C123.679,76.585,123.655,76.578,123.631,76.573z M129.68,207.846v-38.838
			l115.786-0.027c4.174-0.001,7.556-3.385,7.555-7.559c-0.001-4.173-3.385-7.556-7.559-7.555l-115.782,0.027V93.509l102.64,24
			c13.337,3.298,20.448,4.852,28.021,4.852c7.605,0,14.701-1.55,27.981-4.842l94.418-22.078v58.423l-107.235-0.026
			c-0.001,0-0.001,0-0.002,0c-4.173,0-7.556,3.383-7.557,7.555c-0.001,4.174,3.381,7.558,7.555,7.559l107.239,0.026v38.866
			c0,34.783-20.1,68.968-53.772,91.447c-22.136,14.804-47.934,22.866-72.696,22.675c-10.713-0.068-21.268-1.554-31.442-4.237
			c-0.511-0.196-1.041-0.341-1.584-0.424C171.24,302.898,129.68,257.066,129.68,207.846z M277.267,335.506l-8.59,16.944h-25.175
			l-8.048-17.099c6.89,1.094,13.819,1.686,20.716,1.729c0.309,0.002,0.617,0.003,0.927,0.003
			C263.785,337.084,270.533,336.544,277.267,335.506z M142.027,320.933c10.325-4.075,21.284-7.245,32.852-9.497
			c12.969,8.663,27.173,15.313,41.872,19.67l13.782,29.28l-15.354,42.435C173.15,393.201,141.724,358.083,142.027,320.933z
			 M230.346,405.326l13.663-37.761h24.007l13.611,37.618C262.78,407.323,246.945,407.369,230.346,405.326z M296.846,402.822
			l-15.309-42.312l14.879-29.349c14.288-4.27,28.188-10.766,40.951-19.301c0.071-0.047,0.138-0.096,0.209-0.144
			c11.774,2.294,22.563,5.445,32.422,9.303C370.25,358.138,338.842,393.209,296.846,402.822z"/>
	</g>
</g>
<g>
</g>
<g>
</g>
<g>
</g>
<g>
</g>
<g>
</g>
<g>
</g>
<g>
</g>
<g>
</g>
<g>
</g>
<g>
</g>
<g>
</g>
<g>
</g>
<g>
</g>
<g>
</g>
<g>
</g>
</svg>
