<?xml version="1.0" encoding="iso-8859-1"?>
<!-- Generator: Adobe Illustrator 23.0.3, SVG Export Plug-In . SVG Version: 6.00 Build 0)  -->
<svg version="1.1" id="Capa_1" xmlns="http://www.w3.org/2000/svg" xmlns:xlink="http://www.w3.org/1999/xlink" x="0px" y="0px"
	 viewBox="0 0 512 512" style="enable-background:new 0 0 512 512;" xml:space="preserve">
<g>
	<g>
		<path style="fill-rule:evenodd;clip-rule:evenodd;fill:#ECEFF1;" d="M12.559,410.765h486.854c2.749,0,5.016,2.238,5.016,4.985
			v28.24c0,2.747-2.267,4.985-5.016,4.985H12.559c-2.749,0-4.988-2.238-4.988-4.985v-28.24
			C7.571,413.003,9.81,410.765,12.559,410.765L12.559,410.765z"/>
	</g>
	<g>
		<path style="fill-rule:evenodd;clip-rule:evenodd;fill:#F0417B;" d="M119.451,430.224c0-7.308-2.437-14.077-6.546-19.459
			c-5.894-7.761-15.189-12.746-25.675-12.746c-10.457,0-19.78,4.985-25.675,12.746c-4.109,5.382-6.546,12.151-6.546,19.459
			c0,6.996,2.239,13.454,6.036,18.751c5.838,8.129,15.388,13.454,26.185,13.454s20.347-5.325,26.213-13.454
			C117.212,443.678,119.451,437.221,119.451,430.224L119.451,430.224z"/>
	</g>
	<g>
		<path style="fill-rule:evenodd;clip-rule:evenodd;fill:#A3316E;" d="M95.562,410.765c3.939,5.325,6.263,11.953,6.263,19.091
			c0,6.996-2.21,13.483-6.008,18.751c-0.085,0.142-0.17,0.255-0.255,0.368c-4.307,5.835-10.542,10.14-17.768,12.038
			c3.004,0.906,6.149,1.416,9.437,1.416c10.797,0,20.347-5.325,26.213-13.454c3.769-5.297,6.008-11.755,6.008-18.751
			c0-7.308-2.437-14.077-6.546-19.459c-5.894-7.761-15.189-12.746-25.675-12.746c-2.834,0-5.554,0.368-8.19,1.048
			c6.546,1.983,12.214,6.005,16.238,11.33C95.364,410.51,95.449,410.624,95.562,410.765L95.562,410.765z"/>
	</g>
	<g>
		<path style="fill-rule:evenodd;clip-rule:evenodd;fill:#C2C7CC;" d="M474.192,415.75v28.24c0,2.747-2.239,4.985-4.988,4.985
			h30.209c2.749,0,5.016-2.238,5.016-4.985v-28.24c0-2.747-2.267-4.985-5.016-4.985h-30.209
			C471.953,410.765,474.192,413.003,474.192,415.75L474.192,415.75z"/>
	</g>
	<g>
		<path style="fill-rule:evenodd;clip-rule:evenodd;fill:#8EBFE8;" d="M262.617,49.571H111.063H14.457
			c-3.797,0-6.886,3.087-6.886,6.883v306.5c0,3.795,3.089,6.911,6.886,6.911h483.057c3.797,0,6.915-3.116,6.915-6.911V185.897
			V56.454c0-3.796-3.117-6.883-6.915-6.883h-12.639H297.247H262.617z"/>
	</g>
	<g>
		<path style="fill-rule:evenodd;clip-rule:evenodd;fill:#FFD54F;" d="M357.494,289.763l22.784,13.511l22.784-13.511h1.757
			c0-39.456,38.172-44.555,38.115-86.928c-0.028-40.419-31.342-60.303-62.656-59.878c-31.314-0.425-62.628,19.459-62.685,59.878
			c-0.028,42.374,38.144,47.472,38.144,86.928H357.494z"/>
	</g>
	<g>
		<path style="fill-rule:evenodd;clip-rule:evenodd;fill:#C4CCCF;" d="M380.278,289.763h-22.784c-9.862,0-17.91,8.044-17.91,17.901
			c0,9.829,8.048,17.901,17.91,17.901h45.568c9.862,0,17.91-8.072,17.91-17.901c0-9.857-8.048-17.901-17.91-17.901H380.278z"/>
	</g>
	<g>
		<path style="fill-rule:evenodd;clip-rule:evenodd;fill:#E69B56;" d="M419.272,202.835c0.057,42.374-38.115,47.472-38.115,86.928
			h21.906h1.757c0-39.456,38.172-44.555,38.115-86.928c-0.028-40.419-31.342-60.303-62.656-59.878
			c-3.967-0.057-7.935,0.227-11.845,0.821C395.354,147.885,419.244,167.514,419.272,202.835L419.272,202.835z"/>
	</g>
	<g>
		<path style="fill-rule:evenodd;clip-rule:evenodd;fill:#90A4AE;" d="M420.972,307.664c0-9.857-8.048-17.901-17.91-17.901h-21.906
			h-0.878H379.4c5.328,0,10.117,2.351,13.404,6.061c2.806,3.172,4.506,7.308,4.506,11.84c0,9.829-8.048,17.901-17.91,17.901h23.663
			C412.924,325.565,420.972,317.493,420.972,307.664L420.972,307.664z"/>
	</g>
	<g>
		<path style="fill-rule:evenodd;clip-rule:evenodd;fill:#F55A8E;" d="M187.18,369.865h110.067
			c-3.627-62.994-55.005-94.349-103.35-100.637c-12.044-5.183-33.269-5.297-42.791-0.057c-46.192,5.948-104.2,39.683-104.2,100.694
			h110.208H187.18z"/>
	</g>
	<g>
		<path style="fill-rule:evenodd;clip-rule:evenodd;fill:#FED8B3;" d="M241.42,172.754h-39.532c-26.837,0-38.059-6.656-47.41-12.321
			c-12.894-7.789-15.841-13.652-26.95,2.323c-4.931,7.109-8.87,9.999-15.586,9.999h-8.643v37.36
			c0,27.163,21.566,50.446,47.807,59.057c7.368,2.181,13.489,3.484,21.254,3.541c7.311,0.057,14.594-1.19,21.537-3.484
			c6.404-2.096,12.497-5.098,18.108-8.837c17.173-11.443,29.415-29.797,29.415-50.276V172.754z"/>
	</g>
	<g>
		<path style="fill-rule:evenodd;clip-rule:evenodd;fill:#546E7A;" d="M241.42,184.141c0.283-3.427,0-8.186,0-11.386
			c-0.538-94.802-138.122-82.113-138.122-4.39v15.777h8.643c6.716,0,10.655-2.889,15.586-9.999
			c11.109-16.003,14.056-10.112,26.95-2.323c9.352,5.665,20.574,12.321,47.41,12.321H241.42z"/>
	</g>
	<g>
		<path style="fill-rule:evenodd;clip-rule:evenodd;fill:#37474F;" d="M217.332,172.754c0.028,3.201,0.312,7.959,0,11.386h24.088
			c0.283-3.427,0-8.186,0-11.386c-0.312-51.834-41.572-71.548-78.923-66.025C191.544,111.12,217.105,132.023,217.332,172.754
			L217.332,172.754z"/>
	</g>
	<g>
		<path style="fill-rule:evenodd;clip-rule:evenodd;fill:#FCC172;" d="M217.332,210.256c0,20.479-12.242,38.833-29.415,50.304
			c-2.862,1.898-5.866,3.626-8.955,5.127c-2.976,1.416-6.008,2.663-9.125,3.711c-2.862,0.935-5.781,1.699-8.728,2.266
			c1.474,0.255,2.976,0.482,4.477,0.651c2.154,0.255,4.364,0.397,6.716,0.397c0.028,0,0.028,0,0.057,0
			c7.113,0.057,14.169-1.133,20.942-3.286c0.198-0.057,0.397-0.142,0.595-0.198c6.404-2.096,12.497-5.098,18.108-8.837
			c17.173-11.443,29.415-29.797,29.415-50.276v-25.974h-24.088V210.256z"/>
	</g>
	<g>
		<path style="fill-rule:evenodd;clip-rule:evenodd;fill:#BA4583;" d="M250.573,369.865h46.673
			c-3.627-62.994-55.005-94.349-103.35-100.637l0,0c-6.943,2.294-14.226,3.541-21.537,3.484c-1.87,0-3.627-0.085-5.328-0.227
			C213.081,287.1,247.654,318.994,250.573,369.865L250.573,369.865z"/>
	</g>
	<g>
		<path style="fill-rule:evenodd;clip-rule:evenodd;fill:#519AD6;" d="M471.84,56.454v129.443v177.057
			c0,3.795-3.089,6.911-6.886,6.911h32.561c3.797,0,6.915-3.116,6.915-6.911V185.897V56.454c0-3.796-3.117-6.883-6.915-6.883
			h-12.639h-19.922C468.751,49.571,471.84,52.658,471.84,56.454L471.84,56.454z"/>
	</g>
	<g>
		<path d="M499.413,403.195H343.098c-4.181,0-7.571,3.389-7.571,7.571s3.39,7.571,7.571,7.571h153.76v23.068H125.411
			c1.042-3.549,1.611-7.298,1.611-11.18c0-4.14-0.638-8.133-1.817-11.889h183.292c4.181,0,7.571-3.389,7.571-7.571
			s-3.39-7.571-7.571-7.571h-192.11c-7.272-7.832-17.649-12.746-29.157-12.746s-21.885,4.914-29.157,12.746H12.558
			C5.634,403.195,0,408.827,0,415.75v28.239c0,6.923,5.634,12.556,12.558,12.556h44.875C64.729,464.789,75.38,470,87.23,470
			s22.501-5.211,29.797-13.454h382.385c6.941,0,12.587-5.632,12.587-12.556V415.75C512,408.827,506.354,403.195,499.413,403.195z
			 M15.142,441.404v-23.068h34.113c-1.179,3.756-1.817,7.749-1.817,11.889c0,3.882,0.569,7.631,1.611,11.18H15.142z M87.23,454.859
			c-13.592,0-24.65-11.051-24.65-24.634c0-5.472,1.797-10.532,4.829-14.625c0.074-0.089,0.14-0.184,0.21-0.276
			c4.507-5.91,11.619-9.733,19.611-9.733c13.592,0,24.65,11.051,24.65,24.635C111.88,443.808,100.822,454.859,87.23,454.859z"/>
		<path d="M387.878,114.037V94.862c0-4.181-3.39-7.571-7.571-7.571c-4.181,0-7.571,3.389-7.571,7.571v19.176
			c0,4.181,3.39,7.571,7.571,7.571C384.488,121.608,387.878,118.219,387.878,114.037z"/>
		<path d="M310.024,112.166c-2.958-2.957-7.751-2.955-10.707,0.002c-2.956,2.957-2.955,7.751,0.002,10.707l13.546,13.539
			c1.479,1.478,3.416,2.216,5.352,2.216c1.938,0,3.876-0.74,5.355-2.218c2.956-2.957,2.955-7.751-0.002-10.707L310.024,112.166z"/>
		<path d="M447.748,136.415l13.546-13.539c2.957-2.956,2.958-7.75,0.002-10.707c-2.956-2.957-7.75-2.958-10.707-0.002
			l-13.546,13.539c-2.957,2.956-2.958,7.75-0.002,10.707c1.479,1.479,3.417,2.218,5.355,2.218
			C444.333,138.631,446.27,137.892,447.748,136.415z"/>
		<path d="M310.023,202.83c-0.016,24.303,11.32,37.966,21.322,50.019c7.947,9.578,14.934,18.012,16.492,31.249
			c-9.274,3.812-15.824,12.937-15.824,23.566c0,14.045,11.431,25.472,25.481,25.472h45.569c14.05,0,25.481-11.427,25.481-25.472
			c0-10.629-6.549-19.754-15.824-23.566c1.558-13.234,8.541-21.666,16.484-31.243c10-12.056,21.334-25.721,21.302-50.026
			c-0.013-19.191-6.528-35.75-18.841-47.887c-12.858-12.675-31.559-19.812-51.386-19.557c-19.787-0.273-38.521,6.879-51.383,19.548
			C316.575,167.07,310.049,183.63,310.023,202.83z M403.062,317.994h-45.569c-5.701,0-10.339-4.634-10.339-10.33
			c0-5.696,4.638-10.33,10.339-10.33h45.569c5.701,0,10.339,4.634,10.339,10.33C413.401,313.36,408.763,317.994,403.062,317.994z
			 M380.176,150.527c0.068,0.001,0.137,0.001,0.205,0c15.843-0.245,30.637,5.325,40.653,15.198
			c9.364,9.231,14.319,22.065,14.329,37.12c0.025,18.836-8.242,28.803-17.814,40.344c-8.375,10.096-17.732,21.379-19.857,39.004
			h-9.843v-50.034h11.16c4.181,0,7.571-3.389,7.571-7.571c0-4.181-3.39-7.571-7.571-7.571h-38.228c-4.181,0-7.571,3.389-7.571,7.571
			c0,4.181,3.39,7.571,7.571,7.571h11.926v50.034h-9.844c-2.124-17.63-11.487-28.913-19.866-39.012
			c-9.575-11.54-17.845-21.507-17.833-40.335c0.021-15.055,4.986-27.893,14.357-37.125
			C349.542,155.851,364.359,150.3,380.176,150.527z"/>
		<path d="M172.954,331.59h-0.255c-4.181,0-7.571,3.389-7.571,7.571s3.39,7.571,7.571,7.571h0.255c4.181,0,7.571-3.389,7.571-7.571
			S177.136,331.59,172.954,331.59z"/>
		<path d="M171.82,314.272h0.255c4.181,0,7.571-3.389,7.571-7.571s-3.39-7.571-7.571-7.571h-0.255c-4.181,0-7.571,3.389-7.571,7.571
			S167.639,314.272,171.82,314.272z"/>
		<path d="M497.514,42H297.246c-4.181,0-7.571,3.389-7.571,7.571s3.39,7.571,7.571,7.571h199.611v305.153H304.183
			c-6.282-54.573-46.838-84.441-87.363-96.027c20.156-13.691,32.171-34.628,32.171-56.153v-25.816
			c0.185-2.646,0.12-5.651,0.056-8.331c-0.028-1.161-0.056-2.26-0.056-3.257c-0.292-51.463-37.513-74.457-74.358-74.457
			c-0.083,0-0.168,0-0.252,0c-19.628,0.056-39.109,6.641-53.449,18.067c-16.254,12.952-25.206,31.435-25.206,52.042v15.777v25.974
			c0,18.461,8.556,36.132,24.091,49.757c2.651,2.325,5.452,4.467,8.368,6.426c-18.936,5.523-36.916,14.794-51.334,26.742
			c-22.453,18.608-35.216,42.427-37.229,69.254H15.142V57.141h247.475c4.181,0,7.571-3.389,7.571-7.571S266.799,42,262.617,42
			H14.457C6.485,42,0,48.484,0,56.454v306.5c0,7.986,6.485,14.482,14.457,14.482H297.23c0.003,0,0.007,0,0.01,0
			c0.005,0,0.011,0,0.016,0h200.258c7.987,0,14.486-6.496,14.486-14.482v-306.5C512,48.484,505.502,42,497.514,42z M110.869,168.364
			c0-35.586,32.745-54.881,63.555-54.968c0.068,0,0.135,0,0.203,0c27.211,0,58.972,15.544,59.221,59.359
			c0,1.062,0.029,2.287,0.06,3.58c0.002,0.079,0.004,0.157,0.006,0.236h-32.027c-24.956,0-34.801-5.964-43.495-11.231
			c-1.751-1.058-3.304-2.076-4.804-3.061c-4.565-2.995-8.901-5.841-14.052-5.841c-0.58,0-1.172,0.036-1.774,0.113
			c-6.974,0.882-12.03,6.902-16.456,13.279c-4.45,6.417-6.458,6.742-9.365,6.742h-1.072V168.364z M110.869,210.114v-18.403h1.072
			c11.086,0,17.033-6.37,21.806-13.252c3.569-5.142,5.339-6.495,5.907-6.831c1.1,0.338,3.595,1.975,5.626,3.308
			c1.542,1.012,3.289,2.159,5.274,3.358c9.347,5.662,22.148,13.417,51.333,13.417h31.961v18.403c0,16.671-9.735,33.11-26.049,43.981
			c-4.883,3.261-10.136,5.841-15.54,7.691c-0.595,0.121-1.167,0.311-1.707,0.564c-5.876,1.831-11.904,2.792-17.812,2.792
			c-0.11,0-0.222,0-0.332-0.001c-6.309-0.041-12.504-1.093-18.393-2.953c-0.363-0.152-0.738-0.274-1.125-0.368
			C129.254,253.882,110.869,232.745,110.869,210.114z M150.506,276.895c7.14,2.164,14.504,3.34,21.807,3.388
			c0.141,0.001,0.28,0.001,0.421,0.001c7.258,0,14.636-1.151,21.812-3.334c40.209,5.757,87.146,31.387,94.376,85.345h-34.178
			v-17.185c0-4.181-3.39-7.571-7.571-7.571c-4.181,0-7.571,3.389-7.571,7.571v17.185H104.578v-17.185
			c0-4.181-3.39-7.571-7.571-7.571s-7.571,3.389-7.571,7.571v17.185H54.81C59.477,308.982,113.042,282.257,150.506,276.895z"/>
	</g>
</g>
<g>
</g>
<g>
</g>
<g>
</g>
<g>
</g>
<g>
</g>
<g>
</g>
<g>
</g>
<g>
</g>
<g>
</g>
<g>
</g>
<g>
</g>
<g>
</g>
<g>
</g>
<g>
</g>
<g>
</g>
</svg>
