<?xml version="1.0" encoding="iso-8859-1"?>
<!-- Generator: Adobe Illustrator 23.0.3, SVG Export Plug-In . SVG Version: 6.00 Build 0)  -->
<svg version="1.1" id="Capa_1" xmlns="http://www.w3.org/2000/svg" xmlns:xlink="http://www.w3.org/1999/xlink" x="0px" y="0px"
	 viewBox="0 0 512 512" style="enable-background:new 0 0 512 512;" xml:space="preserve">
<g>
	<g>
		<path style="fill-rule:evenodd;clip-rule:evenodd;fill:#8EBFE8;" d="M390.926,415.733c36.955-9.134,61.001-8.874,81.735,3.064
			l-32.757-62.608c-18.62-35.64-33.271-57.29-71.997-59.371c-8.739-0.491-16.107-1.561-22.79-3.96l-176.722,2.891
			c-0.6-0.896-1.428-1.821-1.942-2.717c-6.569,2.283-13.794,3.324-22.361,3.787c-38.726,2.081-53.348,23.731-71.997,59.371
			l-32.757,62.608c20.734-11.938,44.78-12.198,81.764-3.064H390.926z"/>
	</g>
	<g>
		<path style="fill-rule:evenodd;clip-rule:evenodd;fill:#F55A8E;" d="M188.159,176.197l-33.328-30.35h-13.794
			c-3.855,0-7.454,1.069-10.538,2.919c-6.083,3.671-10.167,10.377-10.167,18.037v13.846c0,11.504,9.31,20.956,20.705,20.956h15.222
			L188.159,176.197z"/>
	</g>
	<g>
		<path style="fill-rule:evenodd;clip-rule:evenodd;fill:#F55A8E;" d="M350.458,145.846l-27.702,27.922l26.274,27.807h15.222
			c11.395,0,20.705-9.423,20.705-20.956v-13.846c0-7.631-4.084-14.337-10.167-18.008c-3.084-1.879-6.683-2.948-10.538-2.948
			L350.458,145.846z"/>
	</g>
	<g>
		<path style="fill-rule:evenodd;clip-rule:evenodd;fill:#546E7A;" d="M294.483,166.224h55.975v-36.709
			c-0.771-135.97-195.627-117.788-195.627-6.301v43.04h12.223c9.539-0.029,15.108-4.162,22.104-14.366
			c15.736-22.922,19.905-14.481,38.154-3.324C240.593,156.686,256.471,166.224,294.483,166.224L294.483,166.224z"/>
	</g>
	<g>
		<path style="fill-rule:evenodd;clip-rule:evenodd;fill:#FCC172;" d="M168.396,295.748c33.414,51.249,148.42,46.682,176.722-2.891
			c-8.739-3.122-16.279-8.498-24.161-17.69c-2.742-3.208-10.395-10.782-10.795-11.36l-50.063-15.58l-61.23,18.702
			c-2.542,2.601-6.112,6.243-7.825,8.238c-7.996,9.336-15.65,14.742-24.589,17.863C166.968,293.927,167.796,294.852,168.396,295.748
			L168.396,295.748z"/>
	</g>
	<g>
		<path style="fill-rule:evenodd;clip-rule:evenodd;fill:#FED8B3;" d="M121.103,415.733c-36.984-9.134-61.03-8.874-81.764,3.064
			c-24.732,47.289,21.876,59.487,79.193,59.487h8.796l35.898-38.213L121.103,415.733z"/>
	</g>
	<g>
		<path style="fill-rule:evenodd;clip-rule:evenodd;fill:#FED8B3;" d="M390.926,415.733l-31.615,29.917l25.36,32.634h8.825
			c57.289,0,103.897-12.198,79.165-59.487C451.927,406.859,427.881,406.599,390.926,415.733L390.926,415.733z"/>
	</g>
	<g>
		<path style="fill-rule:evenodd;clip-rule:evenodd;fill:#FED8B3;" d="M350.458,145.846h-55.975c-38.012,0-53.89-9.568-67.17-17.661
			c-18.249-11.186-22.419-19.627-38.154,3.324c-6.997,10.203-12.566,14.337-22.104,14.337h-12.223v42.317
			c0,4.365,0.486,8.874,1.428,13.441c4.741,23.182,20.991,48.011,42.61,65.325c8.054,6.475,16.878,11.88,26.16,15.782
			c1.057,0.434,2.142,0.867,3.227,1.272c17.764,6.677,31.129,6.648,48.893-0.029c11.852-4.48,23.075-11.533,33.014-20.147
			c19.734-17.083,34.385-40.409,38.868-62.233c0.942-4.567,1.428-9.047,1.428-13.412V145.846z"/>
	</g>
	<g>
		<path style="fill-rule:evenodd;clip-rule:evenodd;fill:#FCC172;" d="M322.47,188.163c0,4.365-0.486,8.845-1.428,13.412
			c-3.913,19.164-15.707,39.455-31.872,55.7c-2.256,2.255-4.569,4.451-6.997,6.533c-9.938,8.614-21.162,15.667-33.014,20.147
			c-3.656,1.359-7.14,2.457-10.51,3.295c12.994,3.122,24.361,2.023,38.497-3.295c11.852-4.48,23.075-11.533,33.014-20.147
			c19.734-17.083,34.385-40.409,38.868-62.233c0.942-4.567,1.428-9.047,1.428-13.412v-21.939v-20.378H322.47v20.378V188.163z"/>
	</g>
	<g>
		<path style="fill-rule:evenodd;clip-rule:evenodd;fill:#E69B56;" d="M320.414,274.561c-3.084-3.469-9.853-10.204-10.253-10.753
			c-9.938,8.614-21.162,15.667-33.014,20.147c-17.764,6.677-31.129,6.706-48.893,0.029c-1.085-0.405-2.17-0.838-3.227-1.272
			c-9.282-3.902-18.106-9.307-26.16-15.782c-2.542,2.601-6.112,6.243-7.825,8.238c-0.914,1.041-1.799,2.052-2.685,3.006
			c3.313,3.324,6.826,6.475,10.51,9.423c8.054,6.475,16.878,11.88,26.16,15.753c1.057,0.462,2.142,0.896,3.227,1.301
			c17.764,6.677,31.129,6.648,48.893-0.058c17.564-6.359,18.82-12.487,31.129-1.243c6.169,5.665,9.681,8.007,14.679,11.504
			c9.482-5.897,17.164-13.239,22.162-21.997c-8.739-3.122-16.279-8.498-24.161-17.69c-0.171-0.202-0.4-0.376-0.657-0.491
			L320.414,274.561z"/>
	</g>
	<g>
		<path style="fill-rule:evenodd;clip-rule:evenodd;fill:#546E7A;" d="M224.6,37.799c48.75-1.387,97.5,28.067,97.871,95.936v12.111
			h27.988v-16.331C350.001,48.494,280.603,22.219,224.6,37.799L224.6,37.799z"/>
	</g>
	<g>
		<path style="fill-rule:evenodd;clip-rule:evenodd;fill:#FCC172;" d="M127.329,478.284l-2.513-25.176h-7.939
			c-38.154,0-71.568-5.405-82.335-22.98c-11.909,37.952,31.557,48.156,83.991,48.156H127.329z"/>
	</g>
	<g>
		<path style="fill-rule:evenodd;clip-rule:evenodd;fill:#FCC172;" d="M387.185,453.107l-2.513,25.176h8.825
			c54.147,0,98.756-10.897,82.592-52.029c-8.025,20.667-43.438,26.853-84.248,26.853H387.185z"/>
	</g>
	<g>
		<path style="fill-rule:evenodd;clip-rule:evenodd;fill:#ECEFF1;" d="M238.765,356.275H137.438h-9.053
			c-6.626,0-12.68,5.521-12.023,12.169l4.741,47.289l6.226,62.551l1.399,14.019c0.657,6.648,5.426,12.14,12.023,12.14h115.263
			h115.235c6.626,0,11.366-5.492,12.023-12.14l1.399-14.019l6.254-62.551l4.712-47.289c0.657-6.648-5.398-12.169-12.023-12.169
			h-52.52h-54.204H238.765z"/>
	</g>
	<g>
		<path style="fill-rule:evenodd;clip-rule:evenodd;fill:#519AD6;" d="M350.058,321.965c38.726,2.11,53.919,18.586,71.997,59.371
			l14.622,27.98c13.765,0.289,25.303,3.324,35.984,9.481l-32.757-62.608c-18.62-35.64-33.271-57.29-71.997-59.371
			c-8.739-0.491-16.107-1.561-22.79-3.96c-4.998,8.758-12.68,16.1-22.162,21.997C320.7,316.242,345.489,321.734,350.058,321.965
			L350.058,321.965z"/>
	</g>
	<g>
		<path style="fill-rule:evenodd;clip-rule:evenodd;fill:#BA4583;" d="M156.259,201.604c-0.942-4.567-1.428-9.076-1.428-13.441
			v-3.469l-13.594-0.029c-11.366,0-20.705-9.423-20.705-20.956c-0.143,1.012-0.2,2.052-0.2,3.093v13.846
			c0,11.504,9.31,20.956,20.705,20.956H156.259z"/>
	</g>
	<g>
		<path style="fill-rule:evenodd;clip-rule:evenodd;fill:#BA4583;" d="M350.458,188.163c0,4.365-0.486,8.845-1.428,13.412h15.222
			c11.395,0,20.705-9.423,20.705-20.956v-13.846c-1.485,10.088-10.11,17.892-20.477,17.892h-14.022V188.163z"/>
	</g>
	<g>
		<path style="fill-rule:evenodd;clip-rule:evenodd;fill:#FFD54F;" d="M256.014,408.449c-13.822,0-24.989,9.828-24.989,21.91
			c0,12.111,11.166,21.91,24.989,21.91c13.794,0,24.989-9.799,24.989-21.91C281.003,418.277,269.808,408.449,256.014,408.449
			L256.014,408.449z"/>
	</g>
	<g>
		<path style="fill-rule:evenodd;clip-rule:evenodd;fill:#C2C7CC;" d="M383.986,485.279H128.042l0.685,7.024
			c0.657,6.648,5.426,12.14,12.023,12.14h115.263h115.235c6.626,0,11.366-5.492,12.023-12.14L383.986,485.279z"/>
	</g>
	<g>
		<path d="M479.462,415.504c-0.011-0.023-0.023-0.046-0.034-0.069c-0.025-0.048-0.046-0.094-0.071-0.142l-32.755-62.605
			c-18.636-35.67-35.161-61.1-78.285-63.418c-17.608-0.956-28.881-4.161-41.615-19.013c-1.344-1.573-3.562-3.895-5.743-6.141
			c16.193-15.754,28.563-35.448,34.003-54.985h9.289c15.584,0,28.263-12.791,28.263-28.513v-13.845
			c0-8.781-3.957-16.645-10.167-21.88V117.49c0-36.261-14.04-66.778-40.6-88.252C318.425,10.384,287.138,0,253.649,0
			c-33.971,0-65.716,10.666-89.388,30.032c-27.031,22.115-41.32,53.627-41.32,91.13v23.76c-0.601,0.508-1.188,1.038-1.752,1.601
			c-5.426,5.413-8.415,12.615-8.415,20.28v13.845c0,15.722,12.679,28.514,28.263,28.514h9.293
			c5.831,20.938,19.613,42.042,37.53,58.283c-0.99,1.05-1.879,2.019-2.554,2.805c-12.768,14.895-24.031,18.092-41.621,19.022
			c-36.073,1.95-53.325,19.536-69.467,47.277c-2.099,3.608-0.877,8.233,2.731,10.333c1.196,0.696,2.503,1.027,3.794,1.027
			c2.603,0,5.136-1.346,6.539-3.757c14.297-24.57,27.65-38.187,57.21-39.786c6.732-0.356,12.968-1.084,18.885-2.571
			c16.705,23.658,51.054,37.93,91.116,37.93c1.667,0,3.344-0.025,5.03-0.075c39.443-1.164,72.742-15.522,88.825-37.882
			c5.924,1.489,12.228,2.222,19.155,2.599c34.128,1.834,46.779,19.101,65.706,55.328l23.299,44.532
			c-15.496-3.805-33.577-3.167-57.025,1.791l3.677-36.827c0.499-5.052-1.169-9.979-4.698-13.873
			c-3.798-4.192-9.209-6.597-14.846-6.597H276.891c-4.174,0-7.557,3.383-7.557,7.557c0,4.174,3.384,7.557,7.557,7.557h106.724
			c1.337,0,2.734,0.625,3.645,1.63c0.646,0.712,0.934,1.465,0.859,2.23l-10.963,109.805c-0.001,0.009-0.002,0.018-0.003,0.027
			l-1.401,14.035c-0.253,2.565-1.77,5.325-4.502,5.325H140.751c-2.611,0-4.241-2.68-4.504-5.334l-1.399-14.015
			c-0.002-0.017-0.003-0.034-0.005-0.05l-6.193-62.035c-0.012-0.331-0.043-0.659-0.098-0.981l-4.669-46.769
			c-0.077-0.773,0.212-1.526,0.858-2.239c0.911-1.006,2.308-1.63,3.644-1.63h110.38c4.174,0,7.557-3.384,7.557-7.557
			c0-4.174-3.383-7.557-7.557-7.557h-110.38c-5.636,0-11.046,2.404-14.845,6.596c-3.529,3.895-5.198,8.822-4.698,13.881
			l3.675,36.815c-23.449-4.953-41.53-5.589-57.023-1.785l17.843-34.097c1.935-3.698,0.506-8.265-3.192-10.2
			c-3.697-1.936-8.265-0.506-10.2,3.192l-27.303,52.175c-0.025,0.047-0.045,0.093-0.07,0.141c-0.011,0.023-0.023,0.046-0.034,0.069
			c-8.976,17.267-9.953,31.936-2.89,43.599c10.894,17.992,39.969,26.738,88.885,26.738h1.955l0.719,7.205
			c1.086,10.983,9.305,18.954,19.544,18.954h230.498c10.24,0,18.459-7.972,19.543-18.947l0.72-7.212h1.984
			c48.897,0,77.962-8.746,88.856-26.737C489.415,447.441,488.438,432.771,479.462,415.504z M342.901,138.289h-48.418
			c-36.07,0-50.503-8.796-63.221-16.547c-2.524-1.547-4.742-3.024-6.887-4.451c-6.304-4.196-11.831-7.875-18.21-7.875
			c-0.696,0-1.402,0.044-2.12,0.135c-8.182,1.045-14.36,7.825-21.12,17.684c-6.486,9.458-10.138,11.054-15.872,11.054h-4.666
			v-15.075c0-53.181,48.002-82.013,93.167-82.141c0.1,0,0.193,0,0.294,0c39.995,0,86.681,23.156,87.052,88.443V138.289z
			 M377.4,180.619c0,7.388-5.898,13.399-13.148,13.399h-6.512c0.166-1.965,0.276-3.92,0.276-5.855v-34.775l6.236-0.013
			c2.266,0,4.4,0.587,6.263,1.62c0.183,0.126,0.373,0.242,0.568,0.352c3.781,2.356,6.317,6.59,6.317,11.427V180.619z
			 M138.056,121.161c0-72.862,59.92-106.047,115.592-106.047c30.042,0,57.955,9.19,78.596,25.878
			c22.89,18.506,34.988,44.959,34.988,76.498v20.931c-0.985-0.105-1.984-0.161-2.996-0.161l-6.221,0.013v-8.801
			c-0.406-71.549-51.543-103.515-102.162-103.515c-0.111,0-0.229,0-0.341,0c-27.115,0.077-54.004,9.27-73.771,25.221
			c-22.227,17.937-34.469,43.52-34.469,72.035v15.075h-6.217c-0.024,0-0.048,0-0.072,0c-0.985,0-1.961,0.055-2.928,0.156V121.161z
			 M141.037,194.047c-7.25,0-13.148-6.011-13.148-13.399v-13.845c0-3.621,1.411-7.022,3.975-9.579
			c2.47-2.464,5.708-3.819,9.14-3.819c0.011,0,0.022,0,0.033,0h6.236v34.76c0,1.944,0.11,3.91,0.278,5.884H141.037z
			 M163.711,200.399c-0.027-0.17-0.058-0.339-0.097-0.505c-0.791-3.977-1.226-7.907-1.226-11.731v-34.76h4.666
			c13.49,0,21.084-7.044,28.337-17.621c6.707-9.782,9.626-11.118,10.569-11.239c1.716-0.229,5.943,2.602,10.04,5.329
			c2.155,1.435,4.598,3.06,7.38,4.766c13.718,8.36,30.79,18.765,71.103,18.765h48.418v34.76c0,3.794-0.43,7.692-1.21,11.638
			c-0.053,0.221-0.096,0.446-0.129,0.675c-6.392,30.713-34.997,64.287-67.073,76.404c-16.113,6.058-27.516,6.065-43.575,0.029
			C198.745,264.821,170.072,231.184,163.711,200.399z M259.076,324.539c-35.328,1.045-65.695-9.754-81.088-28.504
			c6.409-3.603,12.581-8.703,18.786-15.941c0.671-0.78,1.716-1.9,2.874-3.114c8.163,5.856,16.903,10.679,25.948,14.078
			c9.726,3.656,18.383,5.484,27.049,5.484c8.689,0,17.388-1.839,27.173-5.517c10.459-3.951,20.513-9.8,29.732-16.959
			c2.105,2.163,4.496,4.648,5.67,6.022c6.171,7.197,12.215,12.269,18.497,15.859C319.563,312.602,291.44,323.584,259.076,324.539z
			 M118.532,470.726c-53.043,0-70.582-10.578-75.956-19.452c-3.938-6.503-3.103-15.579,2.461-26.989
			c16.933-8.971,37.407-9.709,69.06-2.448l4.881,48.89H118.532z M469.423,451.276c-5.373,8.873-22.907,19.451-75.927,19.451h-0.475
			l4.881-48.884c31.65-7.269,52.122-6.533,69.061,2.442C472.527,435.697,473.361,444.772,469.423,451.276z"/>
		<path d="M223.468,430.359c0,16.248,14.6,29.467,32.546,29.467s32.546-13.219,32.546-29.467c0-16.249-14.6-29.468-32.546-29.468
			S223.468,414.11,223.468,430.359z M256.014,416.006c9.612,0,17.432,6.439,17.432,14.353c0,7.914-7.819,14.353-17.432,14.353
			c-9.612,0-17.432-6.438-17.432-14.353C238.583,422.445,246.402,416.006,256.014,416.006z"/>
		<path d="M219.602,203.785c4.174,0,7.557-3.383,7.557-7.557v-9.336c0-4.174-3.383-7.557-7.557-7.557s-7.557,3.383-7.557,7.557
			v9.336C212.044,200.402,215.428,203.785,219.602,203.785z"/>
		<path d="M284.944,203.785c4.174,0,7.557-3.383,7.557-7.557v-9.336c0-4.174-3.383-7.557-7.557-7.557
			c-4.174,0-7.557,3.383-7.557,7.557v9.336C277.387,200.402,280.77,203.785,284.944,203.785z"/>
	</g>
</g>
<g>
</g>
<g>
</g>
<g>
</g>
<g>
</g>
<g>
</g>
<g>
</g>
<g>
</g>
<g>
</g>
<g>
</g>
<g>
</g>
<g>
</g>
<g>
</g>
<g>
</g>
<g>
</g>
<g>
</g>
</svg>
