<?xml version="1.0" encoding="iso-8859-1"?>
<!-- Generator: Adobe Illustrator 23.0.3, SVG Export Plug-In . SVG Version: 6.00 Build 0)  -->
<svg version="1.1" id="Capa_1" xmlns="http://www.w3.org/2000/svg" xmlns:xlink="http://www.w3.org/1999/xlink" x="0px" y="0px"
	 viewBox="0 0 512.12 512.12" style="enable-background:new 0 0 512.12 512.12;" xml:space="preserve">
<g>
	<g>
		<path style="fill-rule:evenodd;clip-rule:evenodd;fill:#8EBFE8;" d="M253.008,472.06c-99.148,0-179.487-80.345-179.487-179.438
			c0-23.251,4.419-45.454,12.464-65.845l167.023-54.885l167.023,54.885c8.045,20.391,12.464,42.594,12.464,65.845
			C432.495,391.715,352.128,472.06,253.008,472.06L253.008,472.06z"/>
	</g>
	<g>
		<path style="fill-rule:evenodd;clip-rule:evenodd;fill:#8BC34A;" d="M352.043,226.777c16.855,55.282,19.206,82.328-63.03,103.256
			c-35.722,9.091-42.266,60.323-29.886,81.931c17.252,30.105,66.656,42.056,120.139,8.185
			c32.861-32.54,53.229-77.655,53.229-127.527c0-23.251-4.419-45.454-12.464-65.845H352.043z"/>
	</g>
	<g>
		<path style="fill-rule:evenodd;clip-rule:evenodd;fill:#8BC34A;" d="M163.123,354.162c39.433,7.986,45.693,86.462-7.422,89.266
			c-49.461-31.945-82.18-87.567-82.18-150.806c0-5.494,0.227-10.903,0.708-16.256C134.908,270.418,79.073,337.113,163.123,354.162
			L163.123,354.162z"/>
	</g>
	<g>
		<path style="fill-rule:evenodd;clip-rule:evenodd;fill:#546E7A;" d="M85.985,226.777h266.058l0,0h35.127h32.832v-92.948
			L286.86,165.718c-16.175,4.106-25.014,6.174-33.852,6.174c-8.867,0-17.705-2.067-33.88-6.174L85.985,133.829V226.777z"/>
	</g>
	<g>
		<path style="fill-rule:evenodd;clip-rule:evenodd;fill:#FFD54F;" d="M483.712,193.189c-11.445,0-20.821,9.601-20.821,21.354v33.56
			c0,11.753,9.377,21.354,20.821,21.354c11.473,0,20.85-9.601,20.85-21.354v-33.56C504.561,202.789,495.185,193.189,483.712,193.189
			L483.712,193.189z"/>
	</g>
	<g>
		<path style="fill-rule:evenodd;clip-rule:evenodd;fill:#E69B56;" d="M473.287,196.077c6.232,3.71,10.425,10.62,10.425,18.493
			v33.531c0,7.873-4.193,14.783-10.396,18.465c3.088,1.841,6.629,2.889,10.396,2.889c11.473,0,20.85-9.601,20.85-21.354v-33.56
			c0-11.753-9.377-21.354-20.85-21.354C479.944,193.189,476.375,194.236,473.287,196.077L473.287,196.077z"/>
	</g>
	<g>
		<path style="fill-rule:evenodd;clip-rule:evenodd;fill:#37474F;" d="M420.002,133.829L286.86,165.718
			c-16.175,4.106-25.014,6.174-33.852,6.174c-8.867,0-17.705-2.067-33.88-6.174L85.985,133.829v34.211l5.722,1.388l133.17,31.889
			c16.147,4.106,25.014,6.146,33.852,6.146c8.867,0,17.705-2.039,33.88-6.146l68.129-16.313
			c20.425-4.899,18.442,10.422,18.442,30.218v11.555h40.849L420.002,133.829z"/>
	</g>
	<g>
		<path style="fill-rule:evenodd;clip-rule:evenodd;fill:#7C8C94;" d="M85.985,144.024l133.142,31.889
			c16.175,4.135,25.014,6.174,33.88,6.174c8.838,0,17.677-2.039,33.852-6.174l133.142-31.889l63.71-15.265
			c10.878-2.577,15.184-10.167,14.674-17.7c0.51-7.505-3.796-15.095-14.674-17.7L286.86,46.206
			c-16.175-4.106-25.014-6.146-33.852-6.146c-8.867,0-17.705,2.039-33.88,6.146L22.275,93.359
			c-10.85,2.605-15.184,10.195-14.674,17.7c-0.51,7.533,3.824,15.123,14.674,17.7L85.985,144.024z"/>
	</g>
	<g>
		<path style="fill-rule:evenodd;clip-rule:evenodd;fill:#546E7A;" d="M483.712,93.359L349.663,61.244
			c10.906,16.822,17.054,35.769,17.054,55.848c0,10.592-1.7,20.872-4.929,30.671c-1.246,3.852-2.72,7.59-4.419,11.272l62.633-15.01
			l63.71-15.265c10.878-2.577,15.184-10.167,14.674-17.7C498.896,103.554,494.59,95.965,483.712,93.359L483.712,93.359z"/>
	</g>
	<g>
		<path style="fill-rule:evenodd;clip-rule:evenodd;fill:#519AD6;" d="M379.266,420.149c-37.025,23.449-72.123,24.922-95.919,13.622
			c-38.385,18.805-83.37,24.327-127.646,9.657c28.045,18.125,61.444,28.632,97.307,28.632
			C302.242,472.06,346.859,452.236,379.266,420.149L379.266,420.149z"/>
	</g>
	<g>
		<path style="fill-rule:evenodd;clip-rule:evenodd;fill:#689F38;" d="M283.347,433.771c23.796,11.3,58.894,9.827,95.919-13.622
			c32.861-32.54,53.229-77.655,53.229-127.527c0-6.372-0.34-12.659-0.991-18.861c-1.7-16.426-5.637-32.172-11.501-46.984H387.17
			h-7.989C406.518,312.248,357.17,397.606,283.347,433.771L283.347,433.771z"/>
	</g>
	<path d="M491.27,186.676v-52.544c9.581-4.306,15.179-12.85,14.687-23.072c0.586-12.117-7.403-21.919-20.484-25.052L288.667,38.865
		c-17.044-4.326-26.125-6.364-35.659-6.364c-9.561,0-18.646,2.039-35.688,6.365L20.51,86.009C7.432,89.15-0.555,98.952,0.03,111.06
		c-0.585,12.143,7.409,21.944,20.484,25.05l57.912,13.872v75.404c-6.19,16.06-10.102,32.775-11.671,49.898
		c-0.05,0.344-0.084,0.692-0.085,1.047c-0.464,5.394-0.708,10.825-0.708,16.29c0,65.387,33.751,123.033,84.743,156.469
		c0.543,0.479,1.154,0.88,1.817,1.188c29.043,18.567,63.529,29.34,100.486,29.34c50.81,0,96.943-20.368,130.686-53.355
		c0.624-0.451,1.16-0.981,1.603-1.569c33.816-33.853,54.756-80.564,54.756-132.073c0-23.21-4.21-45.846-12.493-67.31v-75.329
		l48.593-11.64v48.336c-11.99,3.38-20.821,14.588-20.821,27.864v33.56c0,15.942,12.73,28.913,28.38,28.913
		c15.665,0,28.408-12.97,28.408-28.913v-33.56C512.12,201.263,503.276,190.054,491.27,186.676z M81.08,292.622
		c0-3.047,0.087-6.081,0.244-9.105c15.683-0.177,17.227,6.758,20.434,21.294c4.349,19.711,10.305,46.708,59.865,56.76
		c17.224,3.488,26.138,24.271,24.807,42.347c-0.509,6.911-4.087,29.06-28.618,31.758C111.59,404.833,81.08,352.225,81.08,292.622z
		 M374.256,414.362c-26.317,16.398-53.356,22.311-76.243,16.64c-14.479-3.588-25.961-11.684-32.328-22.795
		c-5.613-9.798-7.05-30.251,0.264-47.516c3.679-8.686,10.99-19.784,24.932-23.332c7.197-1.836,13.523-3.638,19.342-5.51
		c3.975-1.278,6.16-5.536,4.882-9.511c-1.278-3.974-5.539-6.162-9.511-4.881c-5.521,1.776-11.556,3.494-18.445,5.251
		c-15.561,3.96-28.033,15.355-35.12,32.086c-8.465,19.983-8.238,45.607,0.54,60.929c8.438,14.726,23.286,25.363,41.809,29.953
		c6.855,1.699,13.988,2.539,21.307,2.539c3.908,0,7.87-0.249,11.87-0.724c-22.563,10.898-47.853,17.012-74.545,17.012
		c-27.814,0-54.102-6.645-77.372-18.418c14.837-7.244,24.462-21.942,25.87-41.055c0.921-12.503-1.978-25.678-7.953-36.146
		c-6.771-11.863-17.046-19.722-28.928-22.128c-39.919-8.097-44.08-26.959-48.104-45.201c-3.212-14.559-7.137-32.334-33.764-33.072
		c1.634-11.647,4.467-23.06,8.464-34.146h102.015c4.175,0,7.559-3.384,7.559-7.559s-3.384-7.559-7.559-7.559H93.544v-65.614
		l123.765,29.646c17.01,4.348,26.083,6.396,35.698,6.396c9.589,0,18.661-2.048,35.669-6.395l123.767-29.647v65.614h-60.334
		c-0.018,0-0.036,0-0.055,0h-124.23c-4.175,0-7.559,3.384-7.559,7.559s3.384,7.559,7.559,7.559h118.598
		c11.084,37.386,12.437,55.996-12.907,71.172c-3.582,2.145-4.747,6.787-2.603,10.369c1.417,2.366,3.922,3.677,6.492,3.677
		c1.321,0,2.66-0.347,3.876-1.075c33.661-20.155,31.254-47.834,20.888-84.143h52.627c6.726,18.653,10.141,38.233,10.141,58.286
		C424.936,340.143,405.543,383.218,374.256,414.362z M285.099,168.562c-0.037,0.009-0.074,0.018-0.111,0.027
		c-15.792,4.037-24.095,5.938-31.98,5.938c-7.912,0-16.217-1.902-32.008-5.938c-0.037-0.009-0.074-0.019-0.111-0.027L24.022,121.405
		c-6.058-1.438-9.211-4.932-8.879-9.835c0.023-0.34,0.023-0.682,0-1.022c-0.332-4.887,2.828-8.38,8.893-9.837l196.852-47.154
		c0.033-0.008,0.066-0.016,0.099-0.024c15.833-4.02,24.153-5.913,32.021-5.913c7.842,0,16.159,1.894,31.992,5.913
		c0.033,0.008,0.066,0.017,0.1,0.024l196.852,47.154c6.067,1.453,9.226,4.947,8.893,9.837c-0.022,0.34-0.022,0.682,0,1.022
		c0.332,4.907-2.819,8.4-8.893,9.839L285.099,168.562z M497.003,248.102c0,7.606-5.963,13.794-13.291,13.794
		c-7.313,0-13.263-6.188-13.263-13.794v-33.56c0-7.606,5.95-13.795,13.263-13.795c7.328,0,13.291,6.188,13.291,13.795V248.102z"/>
</g>
<g>
</g>
<g>
</g>
<g>
</g>
<g>
</g>
<g>
</g>
<g>
</g>
<g>
</g>
<g>
</g>
<g>
</g>
<g>
</g>
<g>
</g>
<g>
</g>
<g>
</g>
<g>
</g>
<g>
</g>
</svg>
