<?xml version="1.0" encoding="iso-8859-1"?>
<!-- Generator: Adobe Illustrator 23.0.3, SVG Export Plug-In . SVG Version: 6.00 Build 0)  -->
<svg version="1.1" id="Capa_1" xmlns="http://www.w3.org/2000/svg" xmlns:xlink="http://www.w3.org/1999/xlink" x="0px" y="0px"
	 viewBox="0 0 512 512" style="enable-background:new 0 0 512 512;" xml:space="preserve">
<g>
	<g>
		<polygon style="fill-rule:evenodd;clip-rule:evenodd;fill:#C4CCCF;" points="286.341,425.709 222.951,400.063 162.953,425.709 
			153.747,461.415 224.661,479.994 295.547,461.415 		"/>
	</g>
	<g>
		<path style="fill-rule:evenodd;clip-rule:evenodd;fill:#ECEFF1;" d="M432.303,385.843l-212.459-29.551L7.557,385.843v17.44
			c0,12.339,10.09,22.427,22.432,22.427h132.965h123.388h123.53c12.342,0,22.432-10.088,22.432-22.427V385.843z"/>
	</g>
	<g>
		<path style="fill-rule:evenodd;clip-rule:evenodd;fill:#C4CCCF;" d="M29.988,101.508c-12.342,0-22.432,10.088-22.432,22.427
			v261.909h424.746V123.934c0-12.31-10.09-22.427-22.432-22.427H29.988z"/>
	</g>
	<g>
		<path style="fill-rule:evenodd;clip-rule:evenodd;fill:#8EBFE8;" d="M44.838,356.292h350.012c2.622,0,4.76-2.137,4.76-4.787
			V241.196V138.98c0-2.65-2.138-4.787-4.76-4.787c-8.75,0-340.635,0-350.012,0c-2.622,0-4.788,2.137-4.788,4.787v212.525
			C40.05,354.155,42.216,356.292,44.838,356.292L44.838,356.292z"/>
	</g>
	<g>
		<path style="fill-rule:evenodd;clip-rule:evenodd;fill:#ECEFF1;" d="M295.547,461.044H153.747h-20.294
			c-10.432,0-18.954,8.52-18.954,18.95v10.401c0,4.702,3.848,8.549,8.551,8.549h203.195c4.703,0,8.551-3.847,8.551-8.549v-10.401
			c0-10.43-8.522-18.95-18.954-18.95H295.547z"/>
	</g>
	<g>
		<path style="fill-rule:evenodd;clip-rule:evenodd;fill:#90A4AE;" d="M399.61,138.98v102.216v110.309
			c0,2.65-2.138,4.787-4.76,4.787h-26.108v29.551h63.561V123.934c0-12.31-10.09-22.142-22.432-22.427
			c-2.537-0.029-17.928-0.057-41.3-0.057v22.427c0.114,0.855,0.171,1.738,0.171,2.622v7.694h26.108
			C397.473,134.193,399.61,136.33,399.61,138.98L399.61,138.98z"/>
	</g>
	<g>
		<path style="fill-rule:evenodd;clip-rule:evenodd;fill:#C4CCCF;" d="M282.835,461.044c10.432,0,18.954,8.52,18.954,18.95v10.401
			c0,4.702-3.848,8.549-8.551,8.549h33.006c4.703,0,8.551-3.847,8.551-8.549v-10.401c0-10.43-8.522-18.95-18.954-18.95h-20.294
			H282.835z"/>
	</g>
	<g>
		<path style="fill-rule:evenodd;clip-rule:evenodd;fill:#90A4AE;" d="M253.335,425.709h-90.382l-5.016,19.235h81.546
			c10.061,0,19.724-0.399,21.548,6.469l1.511,9.632h20.294h12.712l-9.206-35.335H253.335z"/>
	</g>
	<g>
		<path style="fill-rule:evenodd;clip-rule:evenodd;fill:#519AD6;" d="M368.571,134.193v222.099h0.171h26.108
			c2.622,0,4.76-2.137,4.76-4.787V241.196v-12.481V138.98c0-2.622-2.138-4.787-4.76-4.787h-26.108H368.571z"/>
	</g>
	<g>
		<path style="fill-rule:evenodd;clip-rule:evenodd;fill:#546E7A;" d="M239.198,166.65h41.015h56.036h90.524
			c0.371,0,0.77,0,1.14-0.028c12.171-0.598,21.918-10.715,21.918-23.025V66.771L330.121,30.923l-113.982,35.05v77.624
			c0,12.339,9.805,22.484,22.004,23.025C238.485,166.65,238.856,166.65,239.198,166.65L239.198,166.65z"/>
	</g>
	<g>
		<path style="fill-rule:evenodd;clip-rule:evenodd;fill:#FFD54F;" d="M490.391,112.992c-7.724,0-14.052,6.326-14.052,14.049v22.056
			c0,7.722,6.328,14.049,14.052,14.049s14.052-6.326,14.052-14.049V127.04C504.443,119.318,498.116,112.992,490.391,112.992
			L490.391,112.992z"/>
	</g>
	<g>
		<path style="fill-rule:evenodd;clip-rule:evenodd;fill:#7C8C94;" d="M332.971,13.056c-5.957,0-11.943,1.339-22.831,4.046
			L177.376,48.106c-7.325,1.71-10.232,6.697-9.89,11.626c-0.342,4.958,2.565,9.945,9.89,11.655l132.765,31.004
			c10.888,2.707,16.874,4.046,22.831,4.046c5.986,0,11.943-1.339,22.859-4.046l132.765-31.004c7.297-1.71,10.232-6.697,9.89-11.655
			c0.342-4.93-2.594-9.917-9.89-11.626L355.83,17.102C344.914,14.395,338.957,13.056,332.971,13.056L332.971,13.056z"/>
	</g>
	<g>
		<path style="fill-rule:evenodd;clip-rule:evenodd;fill:#546E7A;" d="M380.2,22.801c19.182,12.225,31.011,29.009,31.011,47.532
			c0,1.767-0.086,3.505-0.314,5.243c-0.627,5.186-2.195,10.23-4.589,15.018l30.783-7.181l51.504-12.025
			c0.627-0.142,1.226-0.313,1.796-0.513c5.986-2.08,8.408-6.611,8.095-11.142c0.342-4.93-2.594-9.917-9.89-11.626L380.2,22.801z"/>
	</g>
	<g>
		<path style="fill-rule:evenodd;clip-rule:evenodd;fill:#37474F;" d="M216.139,105.868l75.731,17.639l18.27,4.246
			c21.805,5.386,23.857,5.386,45.69,0l18.755-4.103l16.902-3.705c18.498-4.046,18.812-1.282,18.812,18.437v28.268h16.475
			c0.371,0,0.77,0,1.14-0.028c12.171-0.598,21.918-10.715,21.918-23.025v-36.931V80.905c-3.762,0.969-7.639,1.995-11.658,3.078
			l-82.344,18.01c-21.833,5.414-23.885,5.414-45.69,0l-94.002-21.857V105.868z"/>
	</g>
	<g>
		<path style="fill-rule:evenodd;clip-rule:evenodd;fill:#C4CCCF;" d="M432.303,385.843h-63.561h-0.171v39.866h41.3
			c12.342,0,22.432-10.088,22.432-22.427V385.843z"/>
	</g>
	<g>
		<path d="M170.449,238.141h-21.747c-4.174,0-7.557,3.383-7.557,7.557c0,4.174,3.383,7.557,7.557,7.557h21.747
			c4.174,0,7.557-3.383,7.557-7.557C178.006,241.525,174.623,238.141,170.449,238.141z"/>
		<path d="M170.449,260.653h-21.747c-4.174,0-7.557,3.384-7.557,7.557c0,4.174,3.383,7.557,7.557,7.557h21.747
			c4.174,0,7.557-3.384,7.557-7.557C178.006,264.037,174.623,260.653,170.449,260.653z"/>
		<path d="M497.949,106.801V75.505c5.362-3.563,8.388-9.205,8.107-15.771c0.397-9.22-5.727-16.641-15.742-18.987L357.601,9.755
			c-10.645-2.64-17.537-4.257-24.629-4.257c-6.732,0-12.962,1.363-24.603,4.257L175.658,40.747
			c-10.013,2.337-16.14,9.759-15.742,18.987c-0.396,9.245,5.73,16.676,15.741,19.013l32.925,7.689v7.515H29.988
			C13.452,93.951,0,107.401,0,123.935v279.348c0,16.533,13.452,29.984,29.988,29.984h123.187l-5.268,20.22h-14.454
			c-14.618,0-26.511,11.891-26.511,26.508v10.401c0,8.881,7.226,16.106,16.108,16.106h203.195c8.882,0,16.108-7.225,16.108-16.106
			v-10.401c0-14.616-11.893-26.508-26.512-26.508h-14.453l-5.269-20.22h113.752c16.536,0,29.989-13.451,29.989-29.984V171.264
			c10.352-4.915,17.529-15.467,17.529-27.667V87.231c0-0.265-0.014-0.528-0.041-0.786l25.486-5.952v26.307
			c-8.199,3.07-14.052,10.983-14.052,20.24v22.056c0,11.913,9.694,21.606,21.609,21.606S512,161.01,512,149.097V127.04
			C512,117.784,506.147,109.871,497.949,106.801z M315.841,468.602c6.285,0,11.398,5.111,11.398,11.393v10.401
			c0,0.528-0.465,0.991-0.994,0.991H123.05c-0.529,0-0.994-0.463-0.994-0.991v-10.401c0-6.282,5.113-11.393,11.397-11.393h20.268
			c0.01,0,0.021,0.002,0.031,0.002c0.008,0,0.015-0.002,0.023-0.002h141.744c0.008,0,0.015,0.002,0.023,0.002
			c0.01,0,0.021-0.002,0.031-0.002H315.841z M163.525,453.487l5.268-20.22h111.707l5.269,20.22H163.525z M424.747,378.285h-184.01
			c-4.174,0-7.557,3.383-7.557,7.557s3.383,7.557,7.557,7.557h184.01v9.883c0,8.199-6.673,14.869-14.875,14.869H29.988
			c-8.201,0-14.875-6.67-14.875-14.869V393.4h190.793c4.174,0,7.557-3.383,7.557-7.557s-3.383-7.557-7.557-7.557H15.114V123.935
			c0-8.199,6.673-14.869,14.875-14.869h178.594v17.57H44.838c-6.808,0-12.346,5.538-12.346,12.345v212.525
			c0,6.807,5.538,12.345,12.346,12.345h350.013c6.791,0,12.316-5.538,12.316-12.345V174.208h17.579V378.285z M442.276,143.597
			c0,8.545-6.954,15.496-15.502,15.496h-70.829c-4.174,0-7.557,3.383-7.557,7.557c0,4.174,3.383,7.557,7.557,7.557h36.109v174.527
			H47.606V141.75h160.976v1.846c0,16.418,12.837,29.848,29.209,30.574c4.762,0.222,9.694,0.294,14.667,0.294
			c4.751,0,9.539-0.066,14.248-0.131c4.697-0.065,9.134-0.126,13.508-0.126h36.426c4.174,0,7.557-3.383,7.557-7.557
			c0-4.174-3.383-7.557-7.557-7.557h-36.426c-4.478,0-9.175,0.065-13.716,0.127c-9.412,0.131-19.146,0.264-28.02-0.149
			c-8.15-0.362-14.782-7.304-14.782-15.475V89.965l84.671,19.773c11.641,2.894,17.87,4.257,24.605,4.257
			c7.095,0,13.986-1.617,24.631-4.257l84.673-19.773V143.597z M354.112,95.032c-0.034,0.008-0.067,0.016-0.101,0.024
			c-10.482,2.6-15.974,3.824-21.04,3.824c-5.076,0-10.556-1.224-21.007-3.823c-0.035-0.009-0.07-0.017-0.105-0.025L179.094,64.028
			c-4.261-0.994-4.116-3.088-4.069-3.776c0.024-0.347,0.024-0.695,0-1.042c-0.047-0.681-0.19-2.75,4.069-3.745l132.766-31.004
			c0.035-0.008,0.07-0.017,0.104-0.025c10.454-2.599,15.934-3.823,21.008-3.823c5.063,0,10.556,1.225,21.04,3.824
			c0.033,0.008,0.066,0.016,0.101,0.024l132.759,31.003c2.831,0.663,4.202,1.923,4.076,3.746c-0.024,0.347-0.024,0.695,0,1.042
			c0.087,1.257-0.54,2.24-1.833,2.953c-0.878,0.15-1.705,0.448-2.452,0.873L354.112,95.032z M496.886,149.097
			c0,3.519-2.974,6.491-6.495,6.491s-6.496-2.972-6.496-6.491V127.04c0-3.519,2.975-6.491,6.496-6.491s6.495,2.972,6.495,6.491
			V149.097z"/>
		<path d="M301.077,269.008c-0.969,0-1.938,0.171-2.822,0.598l-2.052,0.883c-2.28,0.997-4.646,1.567-7.097,1.567
			c-3.734,0-6.841-1.254-9.263-4.132c-2.651-3.163-3.534-7.153-3.534-11.199c0-4.075,0.912-8.121,3.62-11.284
			c2.394-2.85,5.444-4.189,9.178-4.189c2.223,0,4.532,0.627,6.584,1.425c1.397,0.541,3.534,1.339,5.016,1.339
			c1.71,0,3.135-0.712,4.247-1.966c1.197-1.282,1.767-2.821,1.767-4.559c0-3.363-2.366-5.614-5.187-7.067
			c-3.648-1.909-7.895-2.565-12-2.565c-7.781,0-14.593,2.508-20.037,8.15c-5.558,5.728-7.838,12.88-7.838,20.802
			c0,7.865,2.252,14.989,7.724,20.717c5.358,5.642,12.114,8.15,19.866,8.15c4.304,0,8.636-0.769,12.456-2.821
			c2.793-1.51,5.558-3.79,5.558-7.238c0-1.795-0.599-3.363-1.824-4.645C304.269,269.692,302.816,269.008,301.077,269.008z"/>
		<path d="M125.33,273.796c-1.311-1.282-2.85-1.938-4.674-1.938h-12.769v-8.72h11.059c1.824,0,3.477-0.598,4.788-1.909
			c1.254-1.254,1.91-2.793,1.91-4.559c0-1.767-0.713-3.277-1.938-4.531c-1.311-1.311-2.936-1.938-4.76-1.938h-11.145v-8.349h12.484
			c1.767,0,3.278-0.684,4.532-1.938l0.029-0.028l0.029-0.029c1.14-1.311,1.796-2.85,1.796-4.616c0-1.767-0.627-3.306-1.853-4.559
			c-1.226-1.254-2.765-1.909-4.532-1.909h-19.467c-1.995,0-3.705,0.741-5.074,2.194c-1.34,1.396-2.081,3.078-2.081,5.015v41.661
			c0,1.966,0.684,3.705,2.109,5.101c1.397,1.368,3.135,2.023,5.102,2.023h19.781c1.824,0,3.42-0.57,4.703-1.852
			c1.283-1.225,1.91-2.764,1.91-4.531c0-0.883-0.142-1.767-0.542-2.593C126.384,275.05,125.928,274.366,125.33,273.796z"/>
		<path d="M251.71,235.44c-0.399-2.137-1.482-3.876-3.164-5.215c-1.71-1.368-3.648-2.052-5.843-2.052
			c-4.617,0-7.639,2.365-8.95,6.782l-7.667,25.333l-7.525-25.333c-1.397-4.36-4.361-6.782-8.95-6.782
			c-2.223,0-4.218,0.712-5.957,2.08c-1.682,1.368-2.765,3.078-3.135,5.186l-6.955,41.262c-0.143,0.456-0.171,0.997-0.171,1.453
			c0,1.995,0.627,3.761,1.995,5.186c1.397,1.453,3.164,2.109,5.131,2.109c4.247,0,6.499-2.565,7.069-6.611l3.62-25.219l7.696,26.245
			c1.14,3.477,3.449,5.585,7.183,5.585c1.596,0,3.42-0.228,4.703-1.282c1.283-1.026,2.024-2.764,2.48-4.303l7.696-26.273
			l3.677,25.248c0.656,4.046,2.907,6.611,7.126,6.611c1.967,0,3.705-0.655,5.074-2.052c1.397-1.453,1.995-3.249,1.995-5.243v-0.057
			l-0.143-1.282L251.71,235.44z"/>
		<path d="M345.057,245.442h-0.029c-1.112-0.969-2.394-1.539-3.876-1.539h-8.836c1.91-2.109,3.819-4.274,5.558-6.469l3.848-4.873
			v-0.029c2.195-3.135,3.819-6.754,3.819-10.658c0-3.875-1.425-7.181-4.275-9.803c-3.021-2.764-6.698-3.961-10.746-3.961
			c-4.275,0-8.038,1.453-11.202,4.36c-2.993,2.736-4.76,6.155-4.76,10.259c0,3.619,1.767,5.927,5.501,5.927
			c2.508,0,4.104-1.567,4.959-3.818l0.827-2.251c0.769-1.966,1.967-3.42,4.19-3.42c0.912,0,1.71,0.285,2.366,0.969
			c0.627,0.627,0.941,1.339,0.941,2.223c0,1.795-1.482,4.103-2.48,5.5c-2.166,2.878-4.674,5.756-7.069,8.492l-7.525,8.748
			c-0.941,1.14-2.052,2.707-2.052,4.246c0,1.539,0.542,2.878,1.682,3.904c1.169,1.026,2.622,1.453,4.161,1.453h21.206
			c1.511,0,2.822-0.513,3.876-1.567l0.029-0.029c0.969-1.111,1.539-2.422,1.539-3.876c0-1.482-0.599-2.736-1.625-3.761
			L345.057,245.442z"/>
	</g>
</g>
<g>
</g>
<g>
</g>
<g>
</g>
<g>
</g>
<g>
</g>
<g>
</g>
<g>
</g>
<g>
</g>
<g>
</g>
<g>
</g>
<g>
</g>
<g>
</g>
<g>
</g>
<g>
</g>
<g>
</g>
</svg>
