<?xml version="1.0" encoding="iso-8859-1"?>
<!-- Generator: Adobe Illustrator 23.0.3, SVG Export Plug-In . SVG Version: 6.00 Build 0)  -->
<svg version="1.1" id="Capa_1" xmlns="http://www.w3.org/2000/svg" xmlns:xlink="http://www.w3.org/1999/xlink" x="0px" y="0px"
	 viewBox="0 0 512 512" style="enable-background:new 0 0 512 512;" xml:space="preserve">
<g>
	<g>
		<path style="fill-rule:evenodd;clip-rule:evenodd;fill:#8EBFE8;" d="M230.802,294.914l144.838-0.198
			c20.266-0.028,45.436-11.164,45.436-37.033V105.529V57.786c0-12.155-9.92-22.129-22.08-22.101l-13.577,0.057H76.157L62.58,35.685
			C50.42,35.657,40.5,45.63,40.5,57.786v199.897c0,25.869,25.17,37.004,45.436,37.033L230.802,294.914z"/>
	</g>
	<g>
		<path style="fill-rule:evenodd;clip-rule:evenodd;fill:#ECEFF1;" d="M230.802,242.184c24.348-14.11,106.035-22.299,154.617,0
			V35.742v-5.468c0-11.05-4.45-12.24-17.573-15.98C334.655,4.886,259.6,4.149,230.802,20.838V242.184z"/>
	</g>
	<g>
		<path style="fill-rule:evenodd;clip-rule:evenodd;fill:#ECEFF1;" d="M230.802,242.184L286.3,136.044L230.802,20.838
			C202.005,4.149,126.921,4.886,93.73,14.293c-13.123,3.74-17.573,4.93-17.573,15.98v5.468v206.442
			C124.739,219.885,206.426,228.074,230.802,242.184L230.802,242.184z"/>
	</g>
	<g>
		<path style="fill-rule:evenodd;clip-rule:evenodd;fill:#519AD6;" d="M373.968,257.626H349.11v37.118l26.53-0.028
			c20.266-0.028,45.436-11.164,45.436-37.033V105.529V57.786c0-12.155-9.92-22.129-22.08-22.101l-13.577,0.057v202.73v7.424
			C385.419,252.356,380.26,257.626,373.968,257.626L373.968,257.626z"/>
	</g>
	<g>
		<path style="fill-rule:evenodd;clip-rule:evenodd;fill:#C4CCCF;" d="M349.11,227.847c13.067,2.21,25.51,5.667,36.309,10.625
			V35.742v-5.468c0-11.05-4.45-12.24-17.573-15.98c-5.3-1.502-11.678-2.777-18.735-3.825v48.111v40.773v40.744v40.773V227.847z"/>
	</g>
	<g>
		<path style="fill-rule:evenodd;clip-rule:evenodd;fill:#90A4AE;" d="M87.608,257.626h143.194l9.382-9.605l-9.382-9.549
			c-24.376-14.11-106.064-22.299-154.645,0v7.424C76.157,252.356,81.315,257.626,87.608,257.626L87.608,257.626z"/>
	</g>
	<g>
		<path style="fill-rule:evenodd;clip-rule:evenodd;fill:#90A4AE;" d="M230.802,238.472v14.79v4.363h143.166
			c6.292,0,11.451-5.27,11.451-11.73v-7.424C336.837,216.173,255.15,224.362,230.802,238.472L230.802,238.472z"/>
	</g>
	<g>
		<path style="fill-rule:evenodd;clip-rule:evenodd;fill:#546E7A;" d="M349.11,257.626h24.858c6.292,0,11.451-5.27,11.451-11.73
			v-7.424c-10.799-4.958-23.242-8.415-36.309-10.625V257.626z"/>
	</g>
	<g>
		<path style="fill-rule:evenodd;clip-rule:evenodd;fill:#ECEFF1;" d="M217.367,415.872v54.118
			c0,18.955,18.537,34.454,41.184,34.454s41.184-15.499,41.184-34.454v-54.118c0-18.956-18.537-34.454-41.184-34.454
			S217.367,396.916,217.367,415.872L217.367,415.872z"/>
	</g>
	<g>
		<path style="fill-rule:evenodd;clip-rule:evenodd;fill:#C4CCCF;" d="M258.551,385.923c10.771,6.233,17.857,16.632,17.857,28.334
			v54.146c0,16.519-14.087,30.402-32.737,33.689c4.62,1.502,9.637,2.352,14.881,2.352c22.647,0,41.184-15.499,41.184-34.454v-54.118
			c0-18.956-18.537-34.454-41.184-34.454c-2.891,0-5.725,0.255-8.475,0.737C253.109,383.146,255.943,384.393,258.551,385.923
			L258.551,385.923z"/>
	</g>
	<g>
		<path d="M204.778,136.621c-18.188-10.548-71.7-14.892-103.301-0.326c-3.791,1.747-5.447,6.236-3.699,10.026
			c1.275,2.765,4.011,4.394,6.869,4.394c1.06,0,2.136-0.224,3.16-0.696c27.428-12.641,76.114-8.023,89.383-0.326
			c3.611,2.093,8.236,0.867,10.332-2.743C209.617,143.339,208.389,138.715,204.778,136.621z"/>
		<path d="M204.778,177.365c-18.168-10.537-71.67-14.877-103.296-0.328c-3.792,1.744-5.452,6.232-3.707,10.023
			c1.274,2.768,4.011,4.399,6.872,4.399c1.057,0,2.132-0.223,3.155-0.694c27.454-12.629,76.135-8.017,89.388-0.328
			c3.611,2.094,8.236,0.866,10.332-2.743C209.617,184.083,208.389,179.459,204.778,177.365z"/>
		<path d="M204.778,95.848c-18.168-10.537-71.673-14.876-103.296-0.328c-3.792,1.744-5.452,6.232-3.707,10.023
			c1.274,2.767,4.012,4.399,6.872,4.399c1.058,0,2.132-0.223,3.155-0.694c27.451-12.629,76.135-8.017,89.388-0.328
			c3.611,2.093,8.236,0.866,10.332-2.743C209.617,102.566,208.389,97.943,204.778,95.848z"/>
		<path d="M101.478,54.778c-3.791,1.747-5.447,6.236-3.699,10.026c1.275,2.765,4.011,4.394,6.869,4.394
			c1.06,0,2.136-0.224,3.16-0.696c27.428-12.641,76.114-8.023,89.383-0.326c3.611,2.093,8.236,0.867,10.332-2.743
			c2.095-3.609,0.866-8.233-2.744-10.328C186.591,44.556,133.078,40.212,101.478,54.778z"/>
		<path d="M264.386,149.692c13.27-7.696,61.955-12.316,89.383,0.326c1.025,0.472,2.101,0.696,3.16,0.696
			c2.858,0,5.594-1.629,6.869-4.394c1.748-3.79,0.092-8.278-3.699-10.026c-31.599-14.566-85.113-10.223-103.301,0.326
			c-3.61,2.094-4.839,6.718-2.744,10.328C256.148,150.559,260.774,151.785,264.386,149.692z"/>
		<path d="M264.386,190.436c13.253-7.688,61.933-12.301,89.388,0.328c1.023,0.471,2.098,0.694,3.155,0.694
			c2.86,0,5.598-1.632,6.872-4.399c1.745-3.791,0.085-8.278-3.707-10.023c-31.627-14.548-85.13-10.209-103.296,0.328
			c-3.61,2.094-4.839,6.718-2.744,10.328C256.148,191.303,260.774,192.53,264.386,190.436z"/>
		<path d="M264.386,108.919c13.253-7.688,61.933-12.301,89.388,0.328c1.023,0.471,2.098,0.694,3.155,0.694
			c2.86,0,5.598-1.632,6.872-4.399c1.745-3.791,0.085-8.278-3.707-10.023c-31.625-14.549-85.128-10.209-103.296,0.328
			c-3.61,2.094-4.839,6.718-2.744,10.328C256.148,109.787,260.774,111.013,264.386,108.919z"/>
		<path d="M264.386,68.174c13.27-7.696,61.955-12.316,89.383,0.326c1.025,0.472,2.101,0.696,3.16,0.696
			c2.858,0,5.594-1.629,6.869-4.394c1.748-3.79,0.092-8.278-3.699-10.026c-31.6-14.567-85.114-10.223-103.301,0.326
			c-3.61,2.094-4.839,6.718-2.744,10.328C256.148,69.041,260.774,70.268,264.386,68.174z"/>
		<path d="M451.234,97.972h-22.6V57.786c0-7.926-3.104-15.387-8.74-21.008c-5.594-5.579-12.994-8.649-20.859-8.649
			c-0.023,0-0.048,0-0.07,0l-6.049,0.025c-0.796-14.789-10.079-17.446-22.722-21.049l-0.28-0.08
			c-33.098-9.41-105.505-10.948-139.118,5.284c-19.479-9.408-49.716-11.626-66.677-12.093c-27.281-0.752-55.041,1.858-72.46,6.81
			l-0.274,0.078c-12.644,3.603-21.927,6.26-22.723,21.05l-6.063-0.025c-0.023,0-0.047,0-0.07,0c-7.851,0-15.252,3.07-20.846,8.649
			c-5.637,5.621-8.74,13.082-8.74,21.008v199.897c0,29.224,26.653,44.551,52.983,44.589l144.838,0.198c0.004,0,0.007,0,0.011,0
			c0.005,0,0.01-0.001,0.014-0.001s0.009,0.001,0.014,0.001c0.003,0,0.007,0,0.011,0l144.839-0.198
			c26.329-0.038,52.983-15.365,52.983-44.589v-51.596c0-4.173-3.384-7.556-7.559-7.556s-7.559,3.383-7.559,7.556v51.596
			c0,21.587-22.658,29.455-37.888,29.477l-137.293,0.188l0.015-22.165h135.615c10.482,0,19.01-8.652,19.01-19.287V43.266
			l6.036-0.025c0.012,0,0.022,0,0.034,0c3.819,0,7.431,1.503,10.17,4.235c2.772,2.765,4.3,6.427,4.3,10.31v113.11
			c0,4.173,3.384,7.556,7.559,7.556s7.559-3.383,7.559-7.556v-57.811h22.6c7.007,0,12.707,5.711,12.707,12.731v152.381
			c0,18.164-16.789,45.064-52.822,45.117l-109.236,0.114c-50.891,0.037-50.891,37.067-50.891,49.235v1.707
			c-23.3,3.14-41.184,20.554-41.184,41.502v54.118c0,23.164,21.865,42.01,48.742,42.01s48.743-18.846,48.743-42.01v-54.118
			c0-20.949-17.885-38.362-41.185-41.502v-1.707c0-17.253,2.764-34.1,35.787-34.123l109.241-0.114
			c41.953-0.062,67.921-31.312,67.921-60.229V125.816C479.059,110.463,466.577,97.972,451.234,97.972z M365.773,21.56l0.275,0.078
			c5.01,1.428,9.337,2.661,10.872,3.875c0.257,0.203,0.939,0.743,0.939,4.761v197.037c-28.574-10.003-61.06-10.67-79.1-10.043
			c-23.2,0.804-45.292,4.43-60.4,9.67V25.434C267.882,11.79,335.778,13.032,365.773,21.56z M223.243,250.07h-47.146
			c-4.175,0-7.559,3.383-7.559,7.556c0,4.173,3.384,7.556,7.559,7.556h47.137l-0.015,22.165l-137.273-0.188
			c-15.229-0.021-37.888-7.889-37.888-29.477V57.786c0-3.883,1.527-7.544,4.3-10.31c2.748-2.74,6.337-4.214,10.19-4.235l6.05,0.025
			v202.629c0,10.635,8.527,19.287,19.009,19.287h58.361c4.175,0,7.559-3.383,7.559-7.556c0-4.173-3.384-7.556-7.559-7.556H87.607
			c-2.109,0-3.892-1.912-3.892-4.175v-2.452c44.838-18.108,114.445-11.419,139.527-0.322V250.07z M223.243,226.94
			c-15.118-5.242-37.22-8.869-60.425-9.673c-18.037-0.626-50.527,0.04-79.103,10.043V30.273c0-4.018,0.683-4.558,0.939-4.761
			c1.535-1.214,5.862-2.447,10.873-3.875l0.27-0.077c30.02-8.534,97.956-9.777,127.445,3.885V226.94z M373.968,250.07H238.36v-6.951
			c25.065-11.1,94.651-17.79,139.5,0.325v2.452C377.86,248.158,376.077,250.07,373.968,250.07z M292.177,415.871v54.118
			c0,14.832-15.085,26.898-33.626,26.898s-33.625-12.066-33.625-26.898v-54.118c0-12.752,11.155-23.452,26.066-26.204v31.163
			c0,4.173,3.384,7.556,7.559,7.556s7.559-3.383,7.559-7.556v-31.163C281.021,392.419,292.177,403.119,292.177,415.871z"/>
	</g>
</g>
<g>
</g>
<g>
</g>
<g>
</g>
<g>
</g>
<g>
</g>
<g>
</g>
<g>
</g>
<g>
</g>
<g>
</g>
<g>
</g>
<g>
</g>
<g>
</g>
<g>
</g>
<g>
</g>
<g>
</g>
</svg>
