<?xml version="1.0" encoding="iso-8859-1"?>
<!-- Generator: Adobe Illustrator 23.0.3, SVG Export Plug-In . SVG Version: 6.00 Build 0)  -->
<svg version="1.1" id="Capa_1" xmlns="http://www.w3.org/2000/svg" xmlns:xlink="http://www.w3.org/1999/xlink" x="0px" y="0px"
	 viewBox="0 0 512 512" style="enable-background:new 0 0 512 512;" xml:space="preserve">
<g>
	<g>
		<path style="fill-rule:evenodd;clip-rule:evenodd;fill:#E6E6E6;" d="M24.066,80.259l240.576,32.958l223.291-32.958V27.691
			c0-11.08-9.053-20.12-20.114-20.12H44.152c-11.033,0-20.086,9.068-20.086,20.12V80.259z"/>
	</g>
	<g>
		<path style="fill-rule:evenodd;clip-rule:evenodd;fill:#8EBFE8;" d="M342.439,80.259H24.066V484.28
			c0,11.08,9.053,20.149,20.086,20.149h65.349H311.66h156.16c11.061,0,20.114-9.068,20.114-20.149V80.259H342.439z"/>
	</g>
	<g>
		<path style="fill-rule:evenodd;clip-rule:evenodd;fill:#F55A8E;" d="M112.925,315.667H87.322c-2.914,0-5.29,2.38-5.29,5.299
			v25.646c0,2.919,2.376,5.328,5.29,5.328h25.602c2.914,0,5.29-2.409,5.29-5.328v-25.646
			C118.215,318.047,115.838,315.667,112.925,315.667L112.925,315.667z"/>
	</g>
	<g>
		<path style="fill-rule:evenodd;clip-rule:evenodd;fill:#ECEFF1;" d="M112.925,395.638H87.322c-2.914,0-5.29,2.38-5.29,5.328
			v25.618c0,2.919,2.376,5.328,5.29,5.328h25.602c2.914,0,5.29-2.409,5.29-5.328v-25.618
			C118.215,398.018,115.838,395.638,112.925,395.638L112.925,395.638z"/>
	</g>
	<g>
		<path style="fill-rule:evenodd;clip-rule:evenodd;fill:#FFD54F;" d="M280.683,400.965v25.618c0,2.919,2.376,5.328,5.318,5.328
			h25.574c2.914,0,5.319-2.409,5.319-5.328v-25.618c0-2.947-2.405-5.328-5.319-5.328h-25.574
			C283.059,395.638,280.683,398.018,280.683,400.965L280.683,400.965z"/>
	</g>
	<g>
		<path style="fill-rule:evenodd;clip-rule:evenodd;fill:#8BC34A;" d="M286.001,351.94h25.574c2.914,0,5.319-2.409,5.319-5.328
			v-25.646c0-2.919-2.405-5.299-5.319-5.299h-25.574c-2.942,0-5.318,2.38-5.318,5.299v25.646
			C280.683,349.531,283.059,351.94,286.001,351.94L286.001,351.94z"/>
	</g>
	<g>
		<path style="fill-rule:evenodd;clip-rule:evenodd;fill:#ECEFF1;" d="M91.99,275.993h329.632c5.488,0,9.986-4.506,9.986-10.003
			V151.19c0-5.498-4.498-10.003-9.986-10.003H91.99c-5.488,0-9.958,4.506-9.958,10.003v114.799
			C82.032,271.487,86.502,275.993,91.99,275.993L91.99,275.993z"/>
	</g>
	<g>
		<path style="fill-rule:evenodd;clip-rule:evenodd;fill:#C2C7CC;" d="M449.799,27.691v52.568h38.135V27.691
			c0-11.08-9.053-20.12-20.114-20.12h-38.135C440.746,7.571,449.799,16.611,449.799,27.691L449.799,27.691z"/>
	</g>
	<g>
		<path style="fill-rule:evenodd;clip-rule:evenodd;fill:#519AD6;" d="M487.934,80.259h-38.135v6.575V484.28
			c0,11.08-9.053,20.149-20.114,20.149h38.135c11.061,0,20.114-9.068,20.114-20.149V80.259z"/>
	</g>
	<g>
		<path style="fill-rule:evenodd;clip-rule:evenodd;fill:#C2C7CC;" d="M384.563,151.19v37.832v39.135v37.832
			c0,5.498-4.498,10.003-9.986,10.003h47.046c5.488,0,9.986-4.506,9.986-10.003V151.19c0-5.498-4.498-10.003-9.986-10.003h-47.046
			C380.065,141.187,384.563,145.693,384.563,151.19L384.563,151.19z"/>
	</g>
	<g>
		<path d="M426.29,49.233h0.198c4.181,0,7.571-3.39,7.571-7.571s-3.39-7.571-7.571-7.571h-0.198c-4.181,0-7.571,3.39-7.571,7.571
			S422.109,49.233,426.29,49.233z"/>
		<path d="M390.108,49.233h0.227c4.181,0,7.571-3.39,7.571-7.571s-3.39-7.571-7.571-7.571h-0.227c-4.181,0-7.571,3.39-7.571,7.571
			S385.926,49.233,390.108,49.233z"/>
		<path d="M353.953,49.403h0.198c4.181,0,7.571-3.39,7.571-7.571s-3.39-7.571-7.571-7.571h-0.198c-4.181,0-7.571,3.39-7.571,7.571
			S349.772,49.403,353.953,49.403z"/>
		<path d="M304.775,43.901c0-4.181-3.39-7.571-7.571-7.571H87.52c-4.181,0-7.571,3.39-7.571,7.571s3.39,7.571,7.571,7.571h209.684
			C301.385,51.472,304.775,48.082,304.775,43.901z"/>
		<path d="M112.925,308.095H87.322c-7.092,0-12.861,5.774-12.861,12.87v25.646c0,7.112,5.769,12.899,12.861,12.899h25.603
			c7.092,0,12.861-5.786,12.861-12.899v-25.646C125.786,313.869,120.016,308.095,112.925,308.095z M110.644,344.369h-21.04v-21.131
			h21.04V344.369z"/>
		<path d="M311.575,308.095h-25.574c-7.107,0-12.889,5.774-12.889,12.87v25.646c0,7.112,5.782,12.899,12.889,12.899h25.574
			c7.107,0,12.889-5.786,12.889-12.899v-25.646C324.465,313.869,318.683,308.095,311.575,308.095z M309.323,344.369h-21.069v-21.131
			h21.069V344.369z"/>
		<path d="M232.958,326.232h-84.331c-4.181,0-7.571,3.39-7.571,7.571c0,4.181,3.39,7.571,7.571,7.571h84.331
			c4.181,0,7.571-3.39,7.571-7.571C240.529,329.622,237.139,326.232,232.958,326.232z"/>
		<path d="M431.609,326.232h-84.332c-4.181,0-7.571,3.39-7.571,7.571c0,4.181,3.39,7.571,7.571,7.571h84.332
			c4.181,0,7.571-3.39,7.571-7.571C439.18,329.622,435.79,326.232,431.609,326.232z"/>
		<path d="M112.925,388.067H87.322c-7.092,0-12.861,5.786-12.861,12.899v25.618c0,7.112,5.769,12.899,12.861,12.899h25.603
			c7.092,0,12.861-5.786,12.861-12.899v-25.618C125.786,393.853,120.016,388.067,112.925,388.067z M110.644,424.34h-21.04v-21.131
			h21.04V424.34z"/>
		<path d="M311.575,388.067h-25.574c-7.107,0-12.889,5.786-12.889,12.899v25.618c0,7.112,5.782,12.899,12.889,12.899h25.574
			c7.107,0,12.889-5.786,12.889-12.899v-25.618C324.465,393.853,318.683,388.067,311.575,388.067z M309.323,424.34h-21.069v-21.131
			h21.069V424.34z"/>
		<path d="M232.958,406.203h-84.331c-4.181,0-7.571,3.39-7.571,7.571s3.39,7.571,7.571,7.571h84.331c4.181,0,7.571-3.39,7.571-7.571
			S237.139,406.203,232.958,406.203z"/>
		<path d="M431.609,406.203h-84.332c-4.181,0-7.571,3.39-7.571,7.571s3.39,7.571,7.571,7.571h84.332c4.181,0,7.571-3.39,7.571-7.571
			S435.79,406.203,431.609,406.203z"/>
		<path d="M467.82,0H44.152c-15.25,0-27.657,12.422-27.657,27.691V484.28c0,15.285,12.407,27.72,27.657,27.72H467.82
			c15.266,0,27.685-12.435,27.685-27.72V27.691C495.505,12.422,483.085,0,467.82,0z M467.82,496.858H44.152
			c-6.9,0-12.514-5.642-12.514-12.577V87.83h213.344c4.181,0,7.571-3.39,7.571-7.571s-3.39-7.571-7.571-7.571H31.637V27.691
			c0-6.919,5.614-12.549,12.514-12.549H467.82c6.916,0,12.543,5.63,12.543,12.549v44.997h-200.84c-4.181,0-7.571,3.39-7.571,7.571
			s3.39,7.571,7.571,7.571h200.84v396.45C480.363,491.215,474.736,496.858,467.82,496.858z"/>
		<path d="M421.623,133.616H91.99c-9.666,0-17.529,7.884-17.529,17.575v114.799c0,9.691,7.863,17.575,17.529,17.575h144.164
			c4.181,0,7.571-3.39,7.571-7.571c0-4.181-3.39-7.571-7.571-7.571H91.99c-1.294,0-2.387-1.114-2.387-2.432V151.19
			c0-1.318,1.093-2.432,2.387-2.432h329.632c1.309,0,2.415,1.114,2.415,2.432v114.799c0,1.318-1.106,2.432-2.415,2.432H270.725
			c-4.181,0-7.571,3.39-7.571,7.571c0,4.181,3.39,7.571,7.571,7.571h150.898c9.681,0,17.557-7.884,17.557-17.575V151.19
			C439.18,141.5,431.304,133.616,421.623,133.616z"/>
		<path d="M126.164,235.728h261.312c4.181,0,7.571-3.39,7.571-7.571s-3.39-7.571-7.571-7.571H126.164
			c-4.181,0-7.571,3.39-7.571,7.571S121.983,235.728,126.164,235.728z"/>
		<path d="M126.164,196.593h261.312c4.181,0,7.571-3.39,7.571-7.571c0-4.181-3.39-7.571-7.571-7.571H126.164
			c-4.181,0-7.571,3.39-7.571,7.571C118.593,193.204,121.983,196.593,126.164,196.593z"/>
	</g>
</g>
<g>
</g>
<g>
</g>
<g>
</g>
<g>
</g>
<g>
</g>
<g>
</g>
<g>
</g>
<g>
</g>
<g>
</g>
<g>
</g>
<g>
</g>
<g>
</g>
<g>
</g>
<g>
</g>
<g>
</g>
</svg>
