<?xml version="1.0" encoding="iso-8859-1"?>
<!-- Generator: Adobe Illustrator 23.0.3, SVG Export Plug-In . SVG Version: 6.00 Build 0)  -->
<svg version="1.1" id="Capa_1" xmlns="http://www.w3.org/2000/svg" xmlns:xlink="http://www.w3.org/1999/xlink" x="0px" y="0px"
	 viewBox="0 0 512 512" style="enable-background:new 0 0 512 512;" xml:space="preserve">
<g>
	<g>
		<polygon style="fill-rule:evenodd;clip-rule:evenodd;fill:#C4CCCF;" points="333.689,403.097 261.522,385.128 189.355,403.097 
			178.572,444.534 261.508,462.919 344.472,444.534 		"/>
	</g>
	<g>
		<path style="fill-rule:evenodd;clip-rule:evenodd;fill:#ECEFF1;" d="M504.443,356.39l-245.11-14.576L7.557,356.39v20.413
			c0,14.472,11.8,26.295,26.245,26.295h155.553h144.334h144.508c14.445,0,26.245-11.822,26.245-26.295V356.39z"/>
	</g>
	<g>
		<path style="fill-rule:evenodd;clip-rule:evenodd;fill:#546E7A;" d="M33.803,23.059c-14.445,0-26.245,11.823-26.245,26.295V356.39
			h496.885V49.354c0-14.472-11.829-26.091-26.245-26.295C464.014,22.826,101.29,23.059,33.803,23.059L33.803,23.059z"/>
	</g>
	<g>
		<path style="fill-rule:evenodd;clip-rule:evenodd;fill:#8EBFE8;" d="M51.183,321.737h409.43c3.081,0,5.609-2.533,5.609-5.62
			v-129.32V66.971c0-3.087-2.529-5.62-5.609-5.62c-10.231,0-398.473,0-409.43,0c-3.081,0-5.609,2.533-5.609,5.62v249.146
			C45.574,319.204,48.102,321.737,51.183,321.737L51.183,321.737z"/>
	</g>
	<g>
		<path style="fill-rule:evenodd;clip-rule:evenodd;fill:#ECEFF1;" d="M344.472,444.534h-165.9h-23.746
			c-12.178,0-22.176,9.988-22.176,22.218v12.172c0,5.504,4.505,10.017,9.998,10.017h237.718c5.493,0,9.998-4.514,9.998-10.017
			v-12.172c0-12.23-9.969-22.218-22.147-22.218H344.472z"/>
	</g>
	<g>
		<path style="fill-rule:evenodd;clip-rule:evenodd;fill:#35505C;" d="M466.223,66.971v119.827v129.32
			c0,3.087-2.529,5.62-5.609,5.62h-30.547v34.652h74.376V49.354c0-14.472-11.829-26.004-26.245-26.295
			c-2.965-0.058-20.81,0-48.131,0v38.292h30.547C463.694,61.351,466.223,63.885,466.223,66.971L466.223,66.971z"/>
	</g>
	<g>
		<path style="fill-rule:evenodd;clip-rule:evenodd;fill:#C4CCCF;" d="M504.443,356.39h-74.376v46.708h48.131
			c14.445,0,26.245-11.822,26.245-26.295V356.39z"/>
	</g>
	<g>
		<path style="fill-rule:evenodd;clip-rule:evenodd;fill:#C4CCCF;" d="M329.591,444.534c12.178,0,22.176,9.988,22.176,22.218v12.172
			c0,5.504-4.505,10.017-9.998,10.017h38.598c5.493,0,9.998-4.514,9.998-10.017v-12.172c0-12.23-9.969-22.218-22.147-22.218h-23.746
			H329.591z"/>
	</g>
	<g>
		<path style="fill-rule:evenodd;clip-rule:evenodd;fill:#90A4AE;" d="M295.063,403.097H189.355l-5.871,22.538h95.36
			c11.8,0,23.106-0.466,25.228,7.6l1.773,11.298h23.746h14.881l-10.783-41.437H295.063z"/>
	</g>
	<g>
		<path style="fill-rule:evenodd;clip-rule:evenodd;fill:#519AD6;" d="M430.067,321.737h30.547c3.081,0,5.609-2.533,5.609-5.62
			v-129.32V172.18V66.971c0-3.087-2.529-5.62-5.609-5.62h-30.547V321.737z"/>
	</g>
	<g>
		<path style="fill-rule:evenodd;clip-rule:evenodd;fill:#FFD54F;" d="M344.617,245.677c42.114,0,76.236-34.215,76.236-76.409
			s-34.122-76.38-76.236-76.38c-42.114,0-76.265,34.186-76.265,76.38c0,15.695,4.737,30.255,12.817,42.398
			c-2.877,6.872-4.505,11.968-7.411,18.84c-1.976,16.336,12.091,18.229,21.915,13.803
			C321.075,232.923,317.646,245.677,344.617,245.677L344.617,245.677z"/>
	</g>
	<g>
		<path style="fill-rule:evenodd;clip-rule:evenodd;fill:#E69B56;" d="M344.53,92.888c33.337,8.153,58.1,38.292,58.1,74.226
			c0,41.699-33.366,75.594-74.812,76.38c2.819,0.815,6.191,1.543,10.492,1.922l0,0c2.093,0.175,4.185,0.262,6.307,0.262
			c42.114,0,76.236-34.215,76.236-76.409s-34.122-76.38-76.236-76.38C344.588,92.888,344.559,92.888,344.53,92.888L344.53,92.888z"
			/>
	</g>
	<g>
		<path style="fill-rule:evenodd;clip-rule:evenodd;fill:#F55A8E;" d="M186.42,321.737h90.565
			c-2.994-51.949-45.253-77.807-85.013-82.99c-9.911-4.281-27.379-4.368-35.226-0.058c-37.987,4.921-85.711,32.73-85.711,83.049
			h90.652H186.42z"/>
	</g>
	<g>
		<path style="fill-rule:evenodd;clip-rule:evenodd;fill:#FED8B3;" d="M231.063,159.193H198.54
			c-22.089,0-31.302-5.504-39.004-10.163c-10.609-6.435-13.021-11.269-22.176,1.893c-4.069,5.882-7.295,8.27-12.846,8.27h-7.092
			v30.779c0,22.422,17.758,41.612,39.324,48.717c6.074,1.805,11.103,2.883,17.497,2.912c6.016,0.058,12.004-0.961,17.729-2.854
			c5.261-1.747,10.289-4.222,14.881-7.309c14.125-9.435,24.211-24.577,24.211-41.466V159.193z"/>
	</g>
	<g>
		<path style="fill-rule:evenodd;clip-rule:evenodd;fill:#546E7A;" d="M231.063,168.569c0.233-2.825,0-6.756,0-9.376
			c-0.465-78.186-113.642-67.732-113.642-3.64v13.016h7.092c5.551,0,8.777-2.388,12.846-8.241
			c9.155-13.191,11.568-8.328,22.176-1.922c7.702,4.659,16.915,10.163,39.004,10.163H231.063z"/>
	</g>
	<g>
		<path style="fill-rule:evenodd;clip-rule:evenodd;fill:#37474F;" d="M211.241,159.193c0.029,2.621,0.262,6.552,0,9.376h19.822
			c0.233-2.825,0-6.756,0-9.376c-0.262-42.747-34.209-58.996-64.93-54.483C190.024,108.35,211.037,125.589,211.241,159.193
			L211.241,159.193z"/>
	</g>
	<g>
		<path style="fill-rule:evenodd;clip-rule:evenodd;fill:#FCC172;" d="M211.241,190.117c0,16.889-10.085,32.002-24.211,41.466
			c-2.354,1.572-4.796,2.97-7.353,4.222c-2.441,1.194-4.941,2.213-7.528,3.058c-2.325,0.786-4.738,1.398-7.15,1.893
			c1.221,0.204,2.441,0.408,3.691,0.524c1.744,0.204,3.575,0.32,5.522,0.32c0,0,0,0,0.029,0c5.842,0.058,11.655-0.903,17.235-2.708
			c0.145-0.058,0.32-0.087,0.494-0.146c5.261-1.747,10.289-4.222,14.881-7.309c14.125-9.435,24.211-24.577,24.211-41.466v-21.403
			h-19.822V190.117z"/>
	</g>
	<g>
		<path style="fill-rule:evenodd;clip-rule:evenodd;fill:#BA4583;" d="M238.59,321.737h38.394
			c-2.994-51.949-45.253-77.807-85.013-82.99l0,0c-5.726,1.893-11.713,2.912-17.729,2.854c-1.54,0-2.965-0.058-4.389-0.175
			C207.753,253.481,236.178,279.776,238.59,321.737L238.59,321.737z"/>
	</g>
	<g>
		<path d="M460.613,329.296c7.26,0,13.167-5.912,13.167-13.179V66.971c0-7.267-5.907-13.179-13.167-13.179H275.211
			c-4.174,0-7.557,3.384-7.557,7.559s3.383,7.559,7.557,7.559h183.454v245.268H283.871c-5.517-43.772-37.479-68.281-70.092-78.38
			c15.612-11.538,24.841-28.449,24.841-45.827v-21.241c0.151-2.228,0.098-4.716,0.045-6.936c-0.022-0.941-0.045-1.832-0.045-2.647
			c-0.258-43.353-31.549-62.718-62.524-62.718c-0.072,0-0.149,0-0.221,0c-16.442,0.049-32.766,5.586-44.789,15.191
			c-13.685,10.934-21.222,26.536-21.222,43.932v13.017v21.403c0,18.03,9.974,34.835,24.965,45.9
			c-14.76,4.683-28.703,12.107-40.013,21.503c-18.417,15.301-29.029,34.818-30.998,56.804H53.131V68.91h187.175
			c4.174,0,7.557-3.384,7.557-7.559s-3.383-7.559-7.557-7.559H51.183c-7.26,0-13.167,5.912-13.167,13.179v249.146
			c0,7.267,5.907,13.179,13.167,13.179H460.613z M124.978,155.552c0-28.484,26.246-43.932,50.942-44.005c0.057,0,0.112,0,0.17,0
			c21.782,0,47.206,12.479,47.416,47.646c0,0.557,0.01,1.17,0.023,1.818H198.54c-20.096,0-28.064-4.82-35.099-9.075
			c-1.425-0.86-2.695-1.695-3.923-2.501c-3.919-2.574-7.644-5.02-12.235-5.02c-0.546,0-1.104,0.035-1.676,0.108
			c-6.246,0.797-10.638,5.996-14.452,11.491c-3.184,4.58-4.508,4.962-6.176,4.994V155.552z M124.978,189.972v-13.86
			c9.421-0.177,14.508-5.601,18.589-11.473c2.056-2.962,3.312-4.286,3.96-4.86c0.941,0.484,2.438,1.467,3.695,2.293
			c1.283,0.842,2.737,1.797,4.402,2.803c7.851,4.749,18.605,11.254,42.915,11.254h24.966v13.844c0,13.308-7.795,26.46-20.855,35.183
			c-3.961,2.649-8.223,4.738-12.594,6.227c-0.394,0.097-0.777,0.225-1.147,0.382c-4.844,1.526-9.802,2.31-14.622,2.278
			c-5.032-0.031-9.973-0.863-14.673-2.339c-0.34-0.14-0.691-0.254-1.052-0.344C139.665,224.985,124.978,208.077,124.978,189.972z
			 M155.978,246.429c5.824,1.728,11.944,2.692,18.206,2.73c0.146,0.001,0.291,0.002,0.437,0.002c5.956,0,12.014-0.935,17.921-2.706
			c32.179,4.681,69.556,25.061,76.048,67.723h-25.234v-12.854c0-4.175-3.383-7.559-7.557-7.559c-4.174,0-7.557,3.384-7.557,7.559
			v12.854H119.805v-12.854c0-4.175-3.383-7.559-7.557-7.559c-4.174,0-7.557,3.384-7.557,7.559v12.854H79.005
			C83.585,272.159,125.966,250.903,155.978,246.429z"/>
		<path d="M478.351,15.501c-0.051-0.001-0.102-0.001-0.153-0.001H33.803C15.164,15.5,0,30.687,0,49.354v327.449
			c0,18.667,15.164,33.853,33.803,33.853h145.776l-6.849,26.319h-17.904c-16.395,0-29.733,13.358-29.733,29.777v12.172
			c0,9.691,7.876,17.576,17.556,17.576h237.718c9.68,0,17.556-7.885,17.556-17.576v-12.172c0-16.419-13.326-29.777-29.705-29.777
			h-17.903l-6.849-26.319h134.732c18.639,0,33.802-15.187,33.802-33.853V49.354C512,31.063,496.905,15.877,478.351,15.501z
			 M382.808,466.752v12.172c0,1.332-1.118,2.458-2.441,2.458H142.649c-1.323,0-2.441-1.125-2.441-2.458v-12.172
			c0-8.083,6.558-14.659,14.619-14.659h23.721c0.01,0,0.021,0.002,0.031,0.002c0.008,0,0.016-0.002,0.023-0.002h165.842
			c0.008,0,0.016,0.002,0.023,0.002c0.01,0,0.021-0.002,0.031-0.002h23.72C376.263,452.093,382.808,458.669,382.808,466.752z
			 M334.696,436.975H188.349l6.849-26.319h132.65L334.696,436.975z M478.198,395.538H33.803c-10.305,0-18.688-8.405-18.688-18.736
			v-12.854h224.231c4.174,0,7.557-3.384,7.557-7.559s-3.383-7.559-7.557-7.559H15.115V49.354c0-10.331,8.383-18.736,18.688-18.736
			h444.311c10.357,0.246,18.772,8.636,18.772,18.736v299.477H274.02c-4.174,0-7.557,3.384-7.557,7.559s3.383,7.559,7.557,7.559
			h222.866v12.854C496.885,387.133,488.502,395.538,478.198,395.538z"/>
		<path d="M266.798,227.562c-0.275,0.65-0.457,1.335-0.542,2.036c-1.451,11.993,4.006,17.956,7.389,20.443
			c3.495,2.57,8.026,3.871,12.864,3.871c4.013,0,8.237-0.895,12.255-2.705l11.706-5.245c10.787,4.829,22.257,7.275,34.148,7.275
			c46.204,0,83.794-37.668,83.794-83.969c0-46.284-37.589-83.939-83.794-83.939c-46.219,0-83.822,37.655-83.822,83.939
			c0,15.272,4.106,30.104,11.912,43.147c-0.802,2.027-1.519,3.927-2.222,5.788C269.325,221.276,268.228,224.18,266.798,227.562z
			 M344.617,100.446c37.87,0,68.679,30.873,68.679,68.822c0,37.965-30.809,68.851-68.679,68.851
			c-10.744,0-21.069-2.436-30.687-7.241c-2.026-1.013-4.4-1.062-6.467-0.136l-14.895,6.675c-3.738,1.685-8.025,1.875-9.971,0.445
			c-1.429-1.052-1.56-3.593-1.428-5.486c1.332-3.209,2.41-6.063,3.456-8.832c1.112-2.945,2.163-5.727,3.515-8.958
			c0.977-2.334,0.722-5.002-0.68-7.108c-7.557-11.357-11.551-24.57-11.551-38.21C275.91,131.319,306.732,100.446,344.617,100.446z"
			/>
		<path d="M325.871,158.144c4.36,0,6.307-3.087,6.83-7.251c0.872-2.999,2.994-6.523,5.057-8.998c1.831-2.213,4.708-2.825,7.47-2.825
			c2.79,0,5.173,0.845,7.121,2.854c1.889,1.951,2.732,4.31,2.732,7.018c0,1.369-0.262,2.708-0.872,3.931
			c-0.61,1.223-1.395,2.388-2.296,3.407c-1.482,1.66-3.11,3.261-4.679,4.805c-2.093,2.038-4.156,4.164-6.016,6.435
			c-1.599,1.951-2.79,4.135-3.691,6.494c-1.046,2.737-1.395,5.766-1.395,8.707c0,2.33,0.465,4.747,2.093,6.494
			c1.395,1.514,3.168,2.271,5.232,2.271c4.301,0,6.423-2.795,7.092-6.814c0.232-1.281,0.523-2.592,0.814-3.873
			c0.174-0.699,0.436-1.369,0.727-2.038c0.378-0.815,0.901-1.602,1.453-2.271c0.814-1.077,1.744-2.067,2.703-3.028
			c2.935-2.97,5.9-5.94,8.719-9.027c1.773-1.98,3.197-4.193,4.331-6.581c1.337-2.825,1.86-5.911,1.86-9.027
			c0-4.281-1.075-8.299-3.226-11.997c-2.209-3.756-5.29-6.639-9.126-8.736c-4.185-2.271-8.807-3.203-13.573-3.203
			c-5.144,0-10.056,1.107-14.474,3.815c-3.924,2.446-7.179,5.62-9.446,9.668c-1.976,3.553-3.255,7.455-3.255,11.56
			c0,2.126,0.843,3.96,2.238,5.562C321.744,157.212,323.633,158.144,325.871,158.144z"/>
		<path d="M344.007,196.99c-2.5,0-4.592,0.961-6.278,2.796c-1.715,1.922-2.499,4.222-2.499,6.785c0,2.65,0.668,5.183,2.616,7.076
			c1.715,1.66,3.778,2.562,6.162,2.562c2.354,0,4.36-0.932,6.045-2.592c1.889-1.893,2.587-4.397,2.587-7.047
			c0-2.562-0.756-4.863-2.441-6.756C348.541,197.951,346.478,196.99,344.007,196.99z"/>
		<path d="M174.736,288.845h-0.233c-4.174,0-7.557,3.384-7.557,7.559s3.383,7.559,7.557,7.559h0.233
			c4.174,0,7.557-3.384,7.557-7.559S178.91,288.845,174.736,288.845z"/>
		<path d="M173.806,277.202h0.204c4.174,0,7.557-3.384,7.557-7.559c0-4.175-3.383-7.559-7.557-7.559h-0.204
			c-4.174,0-7.557,3.384-7.557,7.559C166.248,273.817,169.632,277.202,173.806,277.202z"/>
	</g>
</g>
<g>
</g>
<g>
</g>
<g>
</g>
<g>
</g>
<g>
</g>
<g>
</g>
<g>
</g>
<g>
</g>
<g>
</g>
<g>
</g>
<g>
</g>
<g>
</g>
<g>
</g>
<g>
</g>
<g>
</g>
</svg>
