<?xml version="1.0" encoding="iso-8859-1"?>
<!-- Generator: Adobe Illustrator 23.0.3, SVG Export Plug-In . SVG Version: 6.00 Build 0)  -->
<svg version="1.1" id="Capa_1" xmlns="http://www.w3.org/2000/svg" xmlns:xlink="http://www.w3.org/1999/xlink" x="0px" y="0px"
	 viewBox="0 0 512 512" style="enable-background:new 0 0 512 512;" xml:space="preserve">
<g>
	<g>
		<path style="fill-rule:evenodd;clip-rule:evenodd;fill:#E6E6E6;" d="M23.557,80.249l229.39,28.822l235.496-28.822V27.679
			c0-11.081-9.073-20.121-20.158-20.121H43.687c-11.057,0-20.13,9.069-20.13,20.121V80.249z"/>
	</g>
	<g>
		<path style="fill-rule:evenodd;clip-rule:evenodd;fill:#8EBFE8;" d="M342.629,80.249H23.557v404.043
			c0,11.081,9.073,20.15,20.13,20.15h65.493h202.603h156.502c11.086,0,20.158-9.069,20.158-20.15V80.249H342.629z"/>
	</g>
	<g>
		<path style="fill-rule:evenodd;clip-rule:evenodd;fill:#546E7A;" d="M235.119,262.901h32.803h52.508h6.578
			c10.575,0,19.251-8.644,19.251-19.215v-52.712c0,0-92.512-3.958-97.502-3.958c-4.99,0-97.502,3.958-97.502,3.958v52.712
			c0,10.287,8.194,18.733,18.372,19.215c7.23,0.34,14.998,0.227,22.653,0.142v-0.142h12.446H235.119z"/>
	</g>
	<g>
		<path style="fill-rule:evenodd;clip-rule:evenodd;fill:#7C8C94;" d="M229.704,209.31c9.101,2.239,14.063,3.372,19.052,3.372
			c4.99,0,9.952-1.134,19.052-3.372l78.45-18.336l32.35-7.538c0.51-0.113,1.021-0.283,1.503-0.425
			c4.99-1.729,7.003-5.526,6.748-9.296c0.284-4.109-2.155-8.275-8.25-9.692l-110.799-25.874c-9.101-2.267-14.063-3.372-19.052-3.372
			c-4.99,0-9.952,1.105-19.052,3.372l-110.799,25.874c-6.096,1.417-8.534,5.583-8.25,9.692c-0.284,4.138,2.155,8.304,8.25,9.721
			l32.35,7.538L229.704,209.31z"/>
	</g>
	<g>
		<path style="fill-rule:evenodd;clip-rule:evenodd;fill:#546E7A;" d="M378.608,164.023l-84.205-19.668
			c15.508,13.462,26.282,31.514,29.713,51.806l22.143-5.186l32.35-7.538c0.51-0.113,1.021-0.283,1.503-0.425
			c4.99-1.729,7.003-5.526,6.748-9.296C387.142,169.605,384.704,165.439,378.608,164.023L378.608,164.023z"/>
	</g>
	<g>
		<path style="fill-rule:evenodd;clip-rule:evenodd;fill:#37474F;" d="M324.116,235.864v27.036h2.892
			c10.575,0,19.251-8.644,19.251-19.215v-35.765v-16.947l-78.45,18.336c-9.101,2.239-14.063,3.372-19.052,3.372
			c-4.99,0-9.952-1.134-19.052-3.372l-78.45-18.336v16.947l78.45,18.308c9.101,2.267,14.063,3.401,19.052,3.401
			c4.99,0,9.952-1.134,19.052-3.401l47.603-11.109C326.355,212.569,324.116,224.075,324.116,235.864L324.116,235.864z"/>
	</g>
	<g>
		<path style="fill-rule:evenodd;clip-rule:evenodd;fill:#E6E6E6;" d="M423.602,328.791c0-2.749-2.268-4.988-5.018-4.988H101.837
			c-2.75,0-4.99,2.239-4.99,4.988v30.437c0,2.749,2.24,4.988,4.99,4.988h316.747c2.75,0,5.018-2.239,5.018-4.988V328.791z"/>
	</g>
	<g>
		<path style="fill-rule:evenodd;clip-rule:evenodd;fill:#E6E6E6;" d="M418.584,403.779H101.837c-2.75,0-4.99,2.267-4.99,5.016
			v30.409c0,2.749,2.24,4.988,4.99,4.988h316.747c2.75,0,5.018-2.239,5.018-4.988v-30.409
			C423.602,406.046,421.334,403.779,418.584,403.779L418.584,403.779z"/>
	</g>
	<g>
		<path style="fill-rule:evenodd;clip-rule:evenodd;fill:#C4CCCF;" d="M377.19,328.791v30.437c0,2.749-2.24,4.988-4.99,4.988h46.384
			c2.75,0,5.018-2.239,5.018-4.988v-30.437c0-2.749-2.268-4.988-5.018-4.988h-46.384C374.951,323.803,377.19,326.042,377.19,328.791
			L377.19,328.791z"/>
	</g>
	<g>
		<path style="fill-rule:evenodd;clip-rule:evenodd;fill:#C4CCCF;" d="M418.584,403.779h-46.384c2.75,0,4.99,2.267,4.99,5.016
			v30.409c0,2.749-2.24,4.988-4.99,4.988h46.384c2.75,0,5.018-2.239,5.018-4.988v-30.409
			C423.602,406.046,421.334,403.779,418.584,403.779L418.584,403.779z"/>
	</g>
	<g>
		<path style="fill-rule:evenodd;clip-rule:evenodd;fill:#C4CCCF;" d="M446.256,80.249h33.767h8.421V27.679
			c0-6.717-3.346-12.696-8.421-16.352c-3.317-2.381-7.371-3.769-11.738-3.769h-42.188c11.086,0,20.158,9.04,20.158,20.121V80.249z"
			/>
	</g>
	<g>
		<path style="fill-rule:evenodd;clip-rule:evenodd;fill:#519AD6;" d="M480.023,80.249h-33.767v404.043
			c0,11.081-9.073,20.15-20.158,20.15h42.188c4.366,0,8.421-1.417,11.738-3.798c5.075-3.656,8.421-9.636,8.421-16.352V80.249
			H480.023z"/>
	</g>
	<g>
		<path d="M426.664,49.208h0.198c4.174,0,7.557-3.383,7.557-7.557s-3.383-7.557-7.557-7.557h-0.198
			c-4.174,0-7.557,3.383-7.557,7.557S422.491,49.208,426.664,49.208z"/>
		<path d="M390.403,49.208h0.227c4.174,0,7.557-3.383,7.557-7.557s-3.383-7.557-7.557-7.557h-0.227
			c-4.174,0-7.557,3.383-7.557,7.557S386.229,49.208,390.403,49.208z"/>
		<path d="M354.169,49.378h0.198c4.174,0,7.557-3.383,7.557-7.557s-3.383-7.557-7.557-7.557h-0.198
			c-4.174,0-7.557,3.383-7.557,7.557S349.995,49.378,354.169,49.378z"/>
		<path d="M304.852,43.889c0-4.174-3.383-7.557-7.557-7.557H87.151c-4.174,0-7.557,3.383-7.557,7.557s3.383,7.557,7.557,7.557
			h210.144C301.469,51.447,304.852,48.063,304.852,43.889z"/>
		<path d="M468.285,0H43.687C28.42,0,16,12.417,16,27.679v456.614C16,499.571,28.42,512,43.687,512h424.598
			C483.568,512,496,499.571,496,484.293V27.679C496,12.417,483.568,0,468.285,0z M468.285,496.885H43.687
			c-6.932,0-12.573-5.649-12.573-12.592V87.807h207.662c4.174,0,7.557-3.383,7.557-7.557c0-4.174-3.383-7.557-7.557-7.557H31.114
			V27.679c0-6.928,5.64-12.564,12.573-12.564h424.598c6.948,0,12.601,5.636,12.601,12.564v45.014H273.394
			c-4.174,0-7.557,3.383-7.557,7.557c0,4.174,3.383,7.557,7.557,7.557h207.492v396.486
			C480.887,491.236,475.234,496.885,468.285,496.885z"/>
		<path d="M117.186,190.794l26.511,6.191v46.701c0,14.329,11.233,26.084,25.587,26.764c3.874,0.176,7.877,0.234,11.913,0.234
			c4.033,0,8.098-0.058,12.093-0.116c3.979-0.057,7.737-0.111,11.437-0.111h30.393c4.174,0,7.557-3.384,7.557-7.557
			c0-4.174-3.383-7.557-7.557-7.557h-30.393c-3.808,0-7.796,0.057-11.653,0.113c-7.772,0.111-15.809,0.227-23.089-0.104
			c-6.161-0.291-11.173-5.525-11.173-11.665v-43.172l69.087,16.133c9.323,2.294,14.888,3.592,20.858,3.592
			c5.969,0,11.535-1.298,20.771-3.571l69.174-16.154v43.172c0,6.428-5.247,11.657-11.694,11.657h-59.085
			c-4.174,0-7.557,3.383-7.557,7.557c0,4.174,3.383,7.557,7.557,7.557h59.085c14.783,0,26.808-12.01,26.808-26.772v-46.701
			l17.739-4.142v25.309c0,4.174,3.383,7.557,7.557,7.557s7.557-3.383,7.557-7.557v-29.951c5.566-3.509,7.944-9.261,7.758-14.484
			c0.247-6.885-3.966-14.698-14.099-17.053l-110.747-25.862c-9.777-2.436-15.027-3.583-20.823-3.583
			c-5.796,0-11.047,1.148-20.824,3.583l-110.738,25.86c-10.141,2.357-14.354,10.17-14.106,17.055
			C102.842,180.614,107.055,188.44,117.186,190.794z M118.193,173.195c-0.021-0.304-0.084-1.229,2.43-1.814l110.799-25.874
			c0.037-0.008,0.073-0.017,0.109-0.026c8.59-2.141,13.09-3.149,17.225-3.149c4.135,0,8.635,1.008,17.226,3.149
			c0.036,0.009,0.072,0.018,0.108,0.026l110.807,25.876c2.507,0.582,2.443,1.507,2.422,1.812c-0.023,0.345-0.024,0.691,0,1.035
			c0.014,0.206,0.038,0.616-0.479,1.037c-1.46,0.052-2.817,0.509-3.952,1.275l-29.97,6.999c-0.274,0.049-0.544,0.111-0.808,0.189
			l-78.107,18.24c-8.913,2.193-13.238,3.154-17.247,3.154c-4.01,0-8.334-0.961-17.334-3.175l-78.028-18.221
			c-0.26-0.077-0.527-0.138-0.798-0.186l-31.982-7.469c-2.508-0.583-2.445-1.499-2.421-1.843
			C118.217,173.886,118.217,173.54,118.193,173.195z"/>
		<path d="M418.584,316.246H101.837c-6.919,0-12.547,5.628-12.547,12.545v30.437c0,6.917,5.629,12.545,12.547,12.545h316.748
			c6.934,0,12.575-5.628,12.575-12.545v-30.437C431.159,321.874,425.518,316.246,418.584,316.246z M416.046,356.659H104.404v-25.298
			h311.642V356.659z"/>
		<path d="M418.584,396.222H101.837c-6.919,0-12.547,5.641-12.547,12.574v30.409c0,6.917,5.629,12.545,12.547,12.545h316.748
			c6.934,0,12.575-5.628,12.575-12.545v-30.409C431.159,401.862,425.518,396.222,418.584,396.222z M416.046,436.635H104.404v-25.298
			h311.642V436.635z"/>
	</g>
</g>
<g>
</g>
<g>
</g>
<g>
</g>
<g>
</g>
<g>
</g>
<g>
</g>
<g>
</g>
<g>
</g>
<g>
</g>
<g>
</g>
<g>
</g>
<g>
</g>
<g>
</g>
<g>
</g>
<g>
</g>
</svg>
