<?xml version="1.0" encoding="iso-8859-1"?>
<!-- Generator: Adobe Illustrator 23.0.3, SVG Export Plug-In . SVG Version: 6.00 Build 0)  -->
<svg version="1.1" id="Capa_1" xmlns="http://www.w3.org/2000/svg" xmlns:xlink="http://www.w3.org/1999/xlink" x="0px" y="0px"
	 viewBox="0 0 512 512" style="enable-background:new 0 0 512 512;" xml:space="preserve">
<g>
	<g>
		<path style="fill-rule:evenodd;clip-rule:evenodd;fill:#ECEFF1;" d="M53.047,32.808v446.383c0,13.887,11.356,25.251,25.233,25.251
			h183.37h172.07c13.877,0,25.233-11.393,25.233-25.251V369.743V198.371v-76.405c0-3.174,0-6.093-0.028-8.757L363.289,7.557H78.28
			C64.403,7.557,53.047,18.922,53.047,32.808L53.047,32.808z"/>
	</g>
	<g>
		<path style="fill-rule:evenodd;clip-rule:evenodd;fill:#90A4AE;" d="M363.261,87.958c-0.028,13.887,11.328,25.251,25.233,25.251
			h70.431c-0.34-21.057-2.747-27.943-20.022-46.704l-32.766-35.652c-16.68-18.109-18.181-23.295-42.848-23.295L363.261,87.958z"/>
	</g>
	<g>
		<path style="fill-rule:evenodd;clip-rule:evenodd;fill:#8BC34A;" d="M163.069,273.528h-46.444c-2.435,0-4.418,1.984-4.418,4.421
			v27.036c0,2.437,1.982,4.421,4.418,4.421h46.444c2.435,0,4.418-1.984,4.418-4.421v-27.036
			C167.487,275.512,165.504,273.528,163.069,273.528L163.069,273.528z"/>
	</g>
	<g>
		<path style="fill-rule:evenodd;clip-rule:evenodd;fill:#FFD54F;" d="M163.069,345.682h-46.444c-2.435,0-4.418,2.012-4.418,4.449
			v27.008c0,2.437,1.982,4.449,4.418,4.449h46.444c2.435,0,4.418-2.012,4.418-4.449v-27.008
			C167.487,347.694,165.504,345.682,163.069,345.682L163.069,345.682z"/>
	</g>
	<g>
		<path style="fill-rule:evenodd;clip-rule:evenodd;fill:#F55A8E;" d="M163.069,417.864h-46.444c-2.435,0-4.418,1.984-4.418,4.421
			v27.008c0,2.466,1.982,4.449,4.418,4.449h46.444c2.435,0,4.418-1.984,4.418-4.449v-27.008
			C167.487,419.848,165.504,417.864,163.069,417.864L163.069,417.864z"/>
	</g>
	<g>
		<path style="fill-rule:evenodd;clip-rule:evenodd;fill:#C4CCCF;" d="M423.752,121.966v76.405v171.372v109.449
			c0,13.83-11.328,25.194-25.148,25.251h35.116c13.877,0,25.233-11.393,25.233-25.251V369.743V198.371v-76.405
			c0-3.174,0-6.093-0.028-8.757h-35.23C423.752,115.873,423.752,118.792,423.752,121.966L423.752,121.966z"/>
	</g>
	<g>
		<path style="fill-rule:evenodd;clip-rule:evenodd;fill:#FFD54F;" d="M249.954,231.103c47.011,0,85.356-38.372,85.356-85.417
			s-38.345-85.388-85.356-85.388c-46.982,0-85.327,38.344-85.327,85.388S202.971,231.103,249.954,231.103L249.954,231.103z"/>
	</g>
	<g>
		<path style="fill-rule:evenodd;clip-rule:evenodd;fill:#E69B56;" d="M238.767,61.007c41.828,5.498,74.141,41.32,74.141,84.68
			s-32.313,79.182-74.141,84.68c3.653,0.482,7.391,0.737,11.186,0.737c47.152,0,85.356-38.231,85.356-85.417
			c0-47.158-38.203-85.388-85.356-85.388C246.159,60.298,242.421,60.553,238.767,61.007L238.767,61.007z"/>
	</g>
	<g>
		<path d="M466.463,113.582c0.006-0.125,0.019-0.247,0.019-0.374c0-0.247-0.014-0.49-0.037-0.731
			c-0.4-22.162-3.209-30.691-21.978-51.087l-32.772-35.658c-1.872-2.032-3.55-3.899-5.09-5.613C392.87,4.836,387.374,0,363.292,0h0
			c-0.001,0-0.002,0-0.003,0H78.279C60.199,0,45.49,14.718,45.49,32.808v204.813c0,4.174,3.383,7.557,7.557,7.557
			s7.557-3.383,7.557-7.557V32.808c0-9.757,7.93-17.694,17.676-17.694h277.45l-0.026,72.827c-0.019,8.731,3.387,16.962,9.587,23.175
			c6.211,6.222,14.451,9.649,23.204,9.649h62.902c0,0.4,0,0.789,0,1.2v357.226c0,9.757-7.93,17.694-17.676,17.694H78.279
			c-9.746,0-17.676-7.937-17.676-17.694V272.225c0-4.174-3.383-7.557-7.557-7.557s-7.557,3.384-7.557,7.557v206.967
			C45.49,497.282,60.199,512,78.279,512h355.441c18.08,0,32.789-14.718,32.789-32.808V121.966
			C466.51,118.957,466.5,116.182,466.463,113.582z M388.494,105.651c-4.71,0-9.151-1.851-12.505-5.211
			c-3.344-3.351-5.18-7.779-5.172-12.48l0.026-72.663c11.752,0.718,14.592,3.878,24.521,14.926c1.578,1.755,3.297,3.668,5.209,5.743
			l32.769,35.656c13.55,14.724,16.93,20.704,17.774,34.029H388.494z"/>
		<path d="M264.907,101.051c-4.418-2.409-9.289-3.372-14.273-3.372c-5.437,0-10.62,1.162-15.264,3.996
			c-4.135,2.551-7.561,5.895-9.94,10.174c-2.096,3.741-3.427,7.822-3.427,12.158c0,2.239,0.906,4.166,2.351,5.838
			c1.529,1.814,3.512,2.777,5.89,2.777c4.588,0,6.627-3.231,7.165-7.595c0.935-3.174,3.172-6.887,5.324-9.466
			c1.954-2.352,4.984-2.976,7.901-2.976s5.437,0.879,7.476,2.976c1.982,2.069,2.888,4.563,2.888,7.397
			c0,1.445-0.283,2.834-0.934,4.138c-0.651,1.304-1.444,2.494-2.435,3.599c-1.529,1.729-3.257,3.401-4.928,5.044
			c-2.181,2.125-4.361,4.393-6.315,6.745c-1.671,2.04-2.945,4.364-3.88,6.83c-1.104,2.891-1.473,6.093-1.473,9.154
			c0,2.466,0.481,5.016,2.209,6.858c1.473,1.587,3.342,2.381,5.494,2.381c4.531,0,6.797-2.947,7.476-7.17
			c0.255-1.332,0.538-2.721,0.85-4.081c0.198-0.708,0.453-1.445,0.793-2.125c0.368-0.879,0.935-1.672,1.501-2.409
			c0.85-1.105,1.841-2.182,2.86-3.174c3.087-3.117,6.202-6.263,9.176-9.494c1.869-2.069,3.37-4.421,4.559-6.943
			c1.416-2.947,1.982-6.206,1.982-9.466c0-4.506-1.133-8.729-3.398-12.611C272.213,106.266,268.956,103.233,264.907,101.051z"/>
		<path d="M249.331,173.488c-2.634,0-4.843,1.02-6.598,2.947c-1.841,2.012-2.662,4.421-2.662,7.113c0,2.806,0.736,5.47,2.775,7.482
			c1.784,1.729,3.965,2.692,6.485,2.692c2.492,0,4.588-0.992,6.344-2.749c2.011-1.984,2.747-4.648,2.747-7.425
			c0-2.664-0.793-5.101-2.577-7.113C254.117,174.508,251.908,173.488,249.331,173.488z"/>
		<path d="M104.65,277.95v27.036c0,6.605,5.372,11.978,11.975,11.978h46.444c6.603,0,11.975-5.373,11.975-11.978V277.95
			c0-6.605-5.372-11.979-11.975-11.979h-46.444C110.022,265.971,104.65,271.345,104.65,277.95z M119.764,281.086h40.167v20.764
			h-40.167V281.086z"/>
		<path d="M104.65,377.14c0,6.621,5.372,12.007,11.975,12.007h46.444c6.603,0,11.975-5.386,11.975-12.007v-27.008
			c0-6.621-5.372-12.007-11.975-12.007h-46.444c-6.603,0-11.975,5.386-11.975,12.007V377.14z M119.764,353.239h40.167v20.792
			h-40.167V353.239z"/>
		<path d="M104.65,449.293c0,6.621,5.372,12.007,11.975,12.007h46.444c6.603,0,11.975-5.386,11.975-12.007v-27.008
			c0-6.605-5.372-11.978-11.975-11.978h-46.444c-6.603,0-11.975,5.373-11.975,11.978V449.293z M119.764,425.421h40.167v20.764
			h-40.167V425.421z"/>
		<path d="M406.732,284.789H207.757c-4.174,0-7.557,3.384-7.557,7.557c0,4.174,3.383,7.557,7.557,7.557h198.975
			c4.174,0,7.557-3.383,7.557-7.557C414.289,288.172,410.906,284.789,406.732,284.789z"/>
		<path d="M406.732,356.064h-81.844c-4.174,0-7.557,3.384-7.557,7.557c0,4.174,3.383,7.557,7.557,7.557h81.844
			c4.174,0,7.557-3.383,7.557-7.557C414.289,359.447,410.906,356.064,406.732,356.064z"/>
		<path d="M207.757,371.178h82.524c4.174,0,7.557-3.383,7.557-7.557c0-4.174-3.383-7.557-7.557-7.557h-82.524
			c-4.174,0-7.557,3.384-7.557,7.557C200.2,367.795,203.583,371.178,207.757,371.178z"/>
		<path d="M207.757,443.361h198.975c4.174,0,7.557-3.383,7.557-7.557c0-4.174-3.383-7.557-7.557-7.557H207.757
			c-4.174,0-7.557,3.384-7.557,7.557C200.2,439.977,203.583,443.361,207.757,443.361z"/>
		<path d="M249.954,52.741c-51.217,0-92.884,41.695-92.884,92.946c0,51.266,41.667,92.974,92.884,92.974
			c51.232,0,92.912-41.708,92.912-92.974C342.866,94.436,301.186,52.741,249.954,52.741z M249.954,223.546
			c-42.883,0-77.77-34.927-77.77-77.859c0-42.916,34.887-77.831,77.77-77.831c42.898,0,77.798,34.915,77.798,77.831
			C327.752,188.619,292.852,223.546,249.954,223.546z"/>
	</g>
</g>
<g>
</g>
<g>
</g>
<g>
</g>
<g>
</g>
<g>
</g>
<g>
</g>
<g>
</g>
<g>
</g>
<g>
</g>
<g>
</g>
<g>
</g>
<g>
</g>
<g>
</g>
<g>
</g>
<g>
</g>
</svg>
