<?xml version="1.0" encoding="iso-8859-1"?>
<!-- Generator: Adobe Illustrator 23.0.3, SVG Export Plug-In . SVG Version: 6.00 Build 0)  -->
<svg version="1.1" id="Capa_1" xmlns="http://www.w3.org/2000/svg" xmlns:xlink="http://www.w3.org/1999/xlink" x="0px" y="0px"
	 viewBox="0 0 512 512" style="enable-background:new 0 0 512 512;" xml:space="preserve">
<g>
	<g>
		<polygon style="fill-rule:evenodd;clip-rule:evenodd;fill:#C4CCCF;" points="327.892,425.062 261.097,400.123 194.301,425.062 
			184.334,463.378 256,492.568 337.887,463.378 		"/>
	</g>
	<g>
		<path style="fill-rule:evenodd;clip-rule:evenodd;fill:#ECEFF1;" d="M337.887,463.378H184.334h-21.973
			c-11.298,0-20.528,9.239-20.528,20.518v11.279c0,5.101,4.162,9.267,9.259,9.267h220.008c5.097,0,9.259-4.166,9.259-9.267v-11.279
			c0-11.279-9.231-20.518-20.5-20.518H337.887z"/>
	</g>
	<g>
		<path style="fill-rule:evenodd;clip-rule:evenodd;fill:#C4CCCF;" d="M324.126,463.378c11.269,0,20.5,9.239,20.5,20.518v11.279
			c0,5.101-4.162,9.267-9.259,9.267h35.734c5.097,0,9.259-4.166,9.259-9.267v-11.279c0-11.279-9.231-20.518-20.5-20.518h-21.973
			H324.126z"/>
	</g>
	<g>
		<path style="fill-rule:evenodd;clip-rule:evenodd;fill:#90A4AE;" d="M292.158,425.062h-97.857l-5.408,20.858h88.258
			c12.997,0.397,21.435-1.7,24.011,11.733l0.991,5.725h21.973h13.761l-9.995-38.316H292.158z"/>
	</g>
	<g>
		<path style="fill-rule:evenodd;clip-rule:evenodd;fill:#546E7A;" d="M97.124,73.646H50.347c-13.365,0-24.294,10.968-24.294,24.316
			v283.91l245.294,22.077l214.6-22.077V98.16c0-13.376-10.93-24.032-24.294-24.316l-42.246-0.085v-0.057v-0.057H123.089H97.124
			L97.124,73.646z"/>
	</g>
	<g>
		<path style="fill-rule:evenodd;clip-rule:evenodd;fill:#8EBFE8;" d="M380.332,109.071H123.485h-0.396H66.43
			c-2.86,0-5.182,2.352-5.182,5.186v230.376c0,2.862,2.322,5.186,5.182,5.186h378.941c2.86,0,5.182-2.324,5.182-5.186V211.549
			v-97.291c0-2.834-2.322-5.186-5.182-5.186h-51.93H380.332z"/>
	</g>
	<g>
		<path style="fill-rule:evenodd;clip-rule:evenodd;fill:#35505C;" d="M417.113,381.872h68.834V98.16
			c0-13.376-10.93-24.032-24.294-24.316l-42.246-0.085v-0.057v-0.057h-2.294v0.085v35.34h28.258c2.86,0,5.182,2.352,5.182,5.186
			v97.291v133.085c0,2.862-2.322,5.186-5.182,5.186h-28.258V381.872z"/>
	</g>
	<g>
		<path style="fill-rule:evenodd;clip-rule:evenodd;fill:#519AD6;" d="M417.113,349.82h28.258c2.86,0,5.182-2.324,5.182-5.186
			V211.549v-97.291c0-2.834-2.322-5.186-5.182-5.186h-28.258V349.82z"/>
	</g>
	<g>
		<path style="fill-rule:evenodd;clip-rule:evenodd;fill:#ECEFF1;" d="M485.947,381.872H259.738H26.053v18.874
			c0,13.376,10.93,24.316,24.294,24.316h143.954h133.591h133.761c13.365,0,24.294-10.939,24.294-24.316V381.872z"/>
	</g>
	<g>
		<path style="fill-rule:evenodd;clip-rule:evenodd;fill:#C4CCCF;" d="M485.947,381.872h-68.834v43.19h44.54
			c13.365,0,24.294-10.939,24.294-24.316V381.872z"/>
	</g>
	<g>
		<path style="fill-rule:evenodd;clip-rule:evenodd;fill:#F55A8E;" d="M166.439,7.812v252.821h189.4
			c13.223,0,24.04-10.826,24.068-24.061l0.057-204.955c0.028-13.235-10.816-24.061-24.04-24.061L166.439,7.812z"/>
	</g>
	<g>
		<path style="fill-rule:evenodd;clip-rule:evenodd;fill:#ECEFF1;" d="M355.839,260.634h-189.4h-20.189
			c-14.894,0-22.709,9.919-23.162,20.093v1.87l0,0c0.453,10.061,8.098,19.753,23.162,19.753h44.653h157.375h7.9
			c13.223,0,23.728-10.854,23.728-24.089v-41.688C379.879,249.808,369.062,260.634,355.839,260.634L355.839,260.634z"/>
	</g>
	<g>
		<path style="fill-rule:evenodd;clip-rule:evenodd;fill:#FCD968;" d="M166.439,260.634V7.812c-19.283,0-41.51-2.352-43.35,25.279
			v247.635c0.453-10.174,8.268-20.093,23.162-20.093H166.439z"/>
	</g>
	<g>
		<path style="fill-rule:evenodd;clip-rule:evenodd;fill:#BA4583;" d="M356.179,7.557v253.076
			c13.082-0.17,23.7-10.939,23.728-24.061l0.057-204.955C379.992,18.468,369.289,7.671,356.179,7.557L356.179,7.557z"/>
	</g>
	<g>
		<path style="fill-rule:evenodd;clip-rule:evenodd;fill:#C4CCCF;" d="M146.336,278.204h209.588c12.6,0,23.02-9.834,23.983-22.219
			v-19.413c-0.028,13.121-10.647,23.891-23.728,24.061c-0.113,0-0.227,0-0.34,0h-189.4h-20.189
			c-14.894,0-22.709,9.919-23.162,20.093v1.87l0,0c0.142,2.721,0.793,5.413,1.954,7.907
			C128.214,283.589,135.349,278.204,146.336,278.204L146.336,278.204z"/>
	</g>
	<g>
		<path style="fill-rule:evenodd;clip-rule:evenodd;fill:#FCD968;" d="M321.776,54.347H210.101c-3.964,0-7.22,3.259-7.22,7.255v12.3
			v0.312v28.85c0,3.996,3.256,7.255,7.22,7.255h30.41h32.846h48.419c3.992,0,7.249-3.259,7.249-7.255V74.185v-0.227V61.602
			C329.025,57.606,325.768,54.347,321.776,54.347L321.776,54.347z"/>
	</g>
	<g>
		<path style="fill-rule:evenodd;clip-rule:evenodd;fill:#8BC34A;" d="M244.674,177.682c-4.077,0-7.447,3.117-7.447,6.915v51.097
			h-10.024c-23.87,1.19-24.408,20.065-14.554,32.733l34.091,43.842c11.015,13.433,28.825,13.433,38.424,0l34.063-43.842
			c9.882-12.668,9.344-31.542-14.554-32.733H294.65v-51.097c0-3.798-3.341-6.915-7.447-6.915H244.674z"/>
	</g>
	<g>
		<path style="fill-rule:evenodd;clip-rule:evenodd;fill:#689F38;" d="M277.491,177.682l0.028,57.048
			c-0.028,11.336,1.104,18.223,14.101,18.223h5.068c4.559,0,5.833,3.032,1.586,9.466l-43.52,56.708
			c-1.076,1.417,3.143,1.587,4.757,2.097c7.928,2.551,16.423,0.708,22.709-5.498c1.048-1.049,2.039-2.182,2.945-3.457l7.702-9.919
			l18.773-24.146l7.588-9.777c1.897-2.409,3.398-5.073,4.445-7.794c4.361-11.478,0.311-23.976-18.999-24.939H294.65v-51.097
			c0-3.798-3.341-6.915-7.447-6.915H277.491z"/>
	</g>
	<g>
		<path style="fill-rule:evenodd;clip-rule:evenodd;fill:#E69B56;" d="M297.793,54.347v19.3v35.425v1.247h23.983
			c1.501,0,2.888-0.453,4.021-1.247c1.954-1.304,3.228-3.514,3.228-6.008V74.185v-0.227v-0.312V61.602
			c0-3.996-3.256-7.255-7.249-7.255H297.793z"/>
	</g>
	<g>
		<path d="M461.813,66.289c-0.047-0.001-0.095-0.002-0.142-0.002l-74.16-0.18l0.01-34.473c0.019-8.41-3.263-16.34-9.24-22.33
			C372.293,3.304,364.354,0,355.914,0L166.438,0.255c-1.374,0-2.763-0.012-4.157-0.024c-17.751-0.155-44.55-0.389-46.731,32.359
			c-0.012,0.167-0.017,0.335-0.017,0.502v32.997H50.347c-17.563,0-31.851,14.298-31.851,31.873v302.785
			c0,17.575,14.288,31.874,31.851,31.874h134.18l-6.035,23.201h-16.13c-15.487,0-28.085,12.595-28.085,28.076v11.279
			c0,9.277,7.543,16.825,16.815,16.825h220.009c9.272,0,16.815-7.548,16.815-16.825v-11.279c0-15.481-12.586-28.076-28.057-28.076
			h-16.133l-6.053-23.201h123.979c17.563,0,31.851-14.298,31.851-31.874V98.16C493.504,80.957,479.287,66.659,461.813,66.289z
			 M278.942,307.887c-0.061,0.078-0.12,0.157-0.177,0.237c-3.07,4.286-7.35,6.732-12.055,6.889
			c-5.171,0.167-10.385-2.457-14.325-7.213l-34.025-43.757c-0.018-0.023-0.034-0.047-0.051-0.07
			c-0.292-0.375-0.569-0.764-0.838-1.158c-0.098-0.143-0.193-0.287-0.287-0.43c-0.574-0.882-1.093-1.799-1.536-2.737
			c-0.024-0.05-0.048-0.101-0.071-0.151c-0.229-0.495-0.441-0.994-0.628-1.495c-1.222-3.3-1.386-6.491-0.306-8.847
			c1.924-4.196,7.821-5.392,12.504-5.647h9.826c4.174,0,7.557-3.383,7.557-7.557v-50.455h42.31v50.455
			c0,4.174,3.383,7.557,7.557,7.557h9.826c3.892,0.214,10.508,1.243,12.527,5.653c1.054,2.303,0.912,5.406-0.244,8.628
			c-0.017,0.042-0.03,0.086-0.047,0.128c-0.018,0.046-0.041,0.09-0.058,0.137c-0.17,0.468-0.369,0.939-0.584,1.409
			c-0.041,0.087-0.082,0.174-0.123,0.261c-0.191,0.402-0.398,0.802-0.62,1.202c-0.063,0.114-0.127,0.227-0.193,0.34
			c-0.214,0.37-0.442,0.737-0.681,1.102c-0.094,0.144-0.19,0.287-0.288,0.43c-0.289,0.422-0.587,0.842-0.908,1.251l-0.061,0.079
			L278.942,307.887z M130.646,280.913c0.329-5.904,4.598-12.722,15.605-12.722h20.189h36.609c0.013,0.024,0.028,0.048,0.041,0.072
			c0.107,0.193,0.218,0.383,0.328,0.574c0.314,0.542,0.645,1.079,0.99,1.614c0.167,0.259,0.331,0.52,0.505,0.776
			c0.468,0.688,0.957,1.37,1.478,2.042c0.013,0.017,0.024,0.034,0.037,0.051l16.687,21.474h-76.863
			c-11.001,0-15.268-6.368-15.605-12.383V280.913z M324.221,274.245l0.711-0.915c0.013-0.017,0.025-0.035,0.038-0.052
			c0.423-0.542,0.824-1.093,1.213-1.648c0.064-0.091,0.127-0.182,0.19-0.273c0.712-1.034,1.368-2.09,1.961-3.166h27.505
			c6.045,0,11.7-1.714,16.511-4.678v14.748c0,9.116-7.254,16.532-16.171,16.532h-47.908L324.221,274.245z M130.646,33.352
			c1.129-15.739,9.192-17.989,28.237-18.019V117.63c0,4.174,3.383,7.557,7.557,7.557c4.174,0,7.557-3.383,7.557-7.557V15.359
			l181.928-0.245c4.386,0,8.525,1.728,11.657,4.866c3.12,3.127,4.834,7.255,4.825,11.635l-0.057,204.94
			c-0.02,9.109-7.426,16.52-16.511,16.52h-23.278c0.039-3.588-0.628-7.056-2.07-10.207c-2.307-5.04-8.714-13.622-25.697-14.468
			c-0.125-0.006-0.251-0.009-0.376-0.009h-2.466v-43.54c0-7.98-6.731-14.472-15.004-14.472h-42.529
			c-8.273,0-15.003,6.492-15.003,14.472v43.54h-2.466c-0.126,0-0.251,0.003-0.376,0.009c-16.956,0.846-23.361,9.418-25.67,14.452
			c-1.446,3.155-2.116,6.628-2.078,10.223h-24.829V152.261c0-4.174-3.383-7.557-7.557-7.557c-4.174,0-7.557,3.383-7.557,7.557
			v100.815h-12.632c-6.062,0-11.279,1.347-15.605,3.614V33.352z M50.347,81.203h65.185v20.31H66.43
			c-7.024,0-12.738,5.717-12.738,12.744v230.376c0,7.027,5.715,12.744,12.738,12.744h180.396c4.174,0,7.557-3.383,7.557-7.557
			c0-4.174-3.383-7.557-7.557-7.557H68.806V116.628h46.727v164.098v1.87c0,0.113,0.002,0.227,0.007,0.34
			c0.585,12.99,10.446,26.971,30.712,26.971h88.628l5.642,7.256c0.041,0.053,0.083,0.106,0.126,0.159
			c6.723,8.182,15.997,12.813,25.578,12.813c0.329,0,0.658-0.005,0.987-0.017c9.321-0.309,17.969-5.07,23.75-13.068l5.55-7.143
			h59.666c17.251,0,31.285-14.196,31.285-31.646v-41.686l0.033-119.946h55.499v225.634H281.427c-4.174,0-7.557,3.383-7.557,7.557
			c0,4.174,3.383,7.557,7.557,7.557h163.945c7.024,0,12.738-5.717,12.738-12.744V114.257c0-7.027-5.715-12.744-12.738-12.744h-57.87
			l0.006-20.292l74.048,0.18C471,81.634,478.39,88.983,478.39,98.16v276.155H33.61V97.962C33.61,88.721,41.119,81.203,50.347,81.203
			z M372.803,483.896v11.279c0,0.927-0.779,1.71-1.702,1.71H151.093c-0.923,0-1.702-0.783-1.702-1.71v-11.279
			c0-7.147,5.819-12.961,12.972-12.961h21.947c0.01,0,0.021,0.002,0.031,0.002c0.008,0,0.016-0.002,0.023-0.002h153.496
			c0.008,0,0.016,0.002,0.023,0.002c0.01,0,0.021-0.002,0.031-0.002h21.947C366.997,470.935,372.803,476.749,372.803,483.896z
			 M328.105,455.821H194.109l6.035-23.201h121.908L328.105,455.821z M461.653,417.505H50.347c-9.228,0-16.737-7.518-16.737-16.759
			V389.43h444.78v11.317C478.39,409.987,470.881,417.505,461.653,417.505z"/>
		<path d="M210.101,117.876h111.674c8.164,0,14.805-6.645,14.805-14.813V61.602c0-8.168-6.641-14.812-14.805-14.812H210.101
			c-8.149,0-14.778,6.644-14.778,14.812v41.462C195.324,111.231,201.953,117.876,210.101,117.876z M210.437,61.904h111.03v40.857
			h-111.03V61.904z"/>
	</g>
</g>
<g>
</g>
<g>
</g>
<g>
</g>
<g>
</g>
<g>
</g>
<g>
</g>
<g>
</g>
<g>
</g>
<g>
</g>
<g>
</g>
<g>
</g>
<g>
</g>
<g>
</g>
<g>
</g>
<g>
</g>
</svg>
