<?xml version="1.0" encoding="iso-8859-1"?>
<!-- Generator: Adobe Illustrator 23.0.3, SVG Export Plug-In . SVG Version: 6.00 Build 0)  -->
<svg version="1.1" id="Capa_1" xmlns="http://www.w3.org/2000/svg" xmlns:xlink="http://www.w3.org/1999/xlink" x="0px" y="0px"
	 viewBox="0 0 512 512" style="enable-background:new 0 0 512 512;" xml:space="preserve">
<g>
	<g>
		<path style="fill-rule:evenodd;clip-rule:evenodd;fill:#ECEFF1;" d="M261.65,504.443h172.07c13.877,0,25.233-11.393,25.233-25.251
			V369.743V198.371v-76.405c0-3.174,0-6.093-0.028-8.757L363.289,7.557H78.28c-13.877,0-25.233,11.364-25.233,25.251v446.383
			c0,13.887,11.356,25.251,25.233,25.251H261.65z"/>
	</g>
	<g>
		<path style="fill-rule:evenodd;clip-rule:evenodd;fill:#90A4AE;" d="M388.494,113.209h70.431
			c-0.34-21.057-2.747-27.943-20.022-46.704l-32.766-35.652c-16.68-18.109-18.181-23.295-42.848-23.295l-0.028,80.401
			C363.233,101.845,374.589,113.209,388.494,113.209L388.494,113.209z"/>
	</g>
	<g>
		<path style="fill-rule:evenodd;clip-rule:evenodd;fill:#8BC34A;" d="M395.177,382.269c0-33.158-26.875-60.052-59.981-60.052
			c-33.134,0-60.009,26.895-60.009,60.052s26.875,60.024,60.009,60.024C368.302,442.293,395.177,415.427,395.177,382.269
			L395.177,382.269z"/>
	</g>
	<g>
		<path style="fill-rule:evenodd;clip-rule:evenodd;fill:#C4CCCF;" d="M423.752,121.966v76.405v171.372v109.449
			c0,13.83-11.328,25.194-25.148,25.251h35.116c13.877,0,25.233-11.393,25.233-25.251V369.743V198.371v-76.405
			c0-3.174,0-6.093-0.028-8.757h-35.23C423.752,115.873,423.752,118.792,423.752,121.966L423.752,121.966z"/>
	</g>
	<g>
		<path style="fill-rule:evenodd;clip-rule:evenodd;fill:#689F38;" d="M319.762,324.229c25.658,6.802,44.575,30.21,44.575,58.04
			c0,27.802-18.918,51.21-44.575,58.012c4.928,1.304,10.082,2.012,15.434,2.012c33.106,0,59.981-26.866,59.981-60.024
			s-26.875-60.052-59.981-60.052C329.844,322.216,324.689,322.925,319.762,324.229L319.762,324.229z"/>
	</g>
	<g>
		<path d="M215.461,211.454h130.27c4.174,0,7.557-3.383,7.557-7.557s-3.383-7.557-7.557-7.557h-130.27
			c-4.174,0-7.557,3.383-7.557,7.557S211.287,211.454,215.461,211.454z"/>
		<path d="M382.943,160.008H215.461c-4.174,0-7.557,3.383-7.557,7.557c0,4.174,3.383,7.557,7.557,7.557h167.482
			c4.174,0,7.557-3.383,7.557-7.557C390.5,163.391,387.117,160.008,382.943,160.008z"/>
		<path d="M182.73,153.072c-3.106-2.788-7.883-2.531-10.672,0.575l-35.462,39.498l-15.354-14.183
			c-3.066-2.833-7.847-2.642-10.679,0.424c-2.832,3.066-2.642,7.847,0.424,10.679l20.985,19.384
			c1.399,1.292,3.231,2.006,5.128,2.006c0.117,0,0.235-0.003,0.353-0.008c2.021-0.095,3.919-0.995,5.27-2.5l40.582-45.202
			C186.093,160.638,185.836,155.86,182.73,153.072z"/>
		<path d="M182.73,225.763c-3.106-2.787-7.883-2.531-10.672,0.575l-34.853,38.821l-11.155-12.898
			c-2.73-3.156-7.502-3.502-10.66-0.772c-3.157,2.73-3.503,7.503-0.772,10.66l16.765,19.385c1.42,1.641,3.476,2.593,5.646,2.613
			c0.023,0,0.046,0,0.07,0c2.145,0,4.189-0.911,5.624-2.509l40.582-45.202C186.093,233.329,185.836,228.551,182.73,225.763z"/>
		<path d="M215.461,284.146h130.27c4.174,0,7.557-3.383,7.557-7.557c0-4.174-3.383-7.557-7.557-7.557h-130.27
			c-4.174,0-7.557,3.384-7.557,7.557C207.903,280.763,211.287,284.146,215.461,284.146z"/>
		<path d="M390.5,240.257c0-4.174-3.384-7.557-7.557-7.557h-65.22c-4.174,0-7.557,3.383-7.557,7.557s3.384,7.557,7.557,7.557h65.22
			C387.117,247.814,390.5,244.431,390.5,240.257z"/>
		<path d="M215.461,247.814h67.656c4.174,0,7.557-3.383,7.557-7.557s-3.384-7.557-7.557-7.557h-67.656
			c-4.174,0-7.557,3.383-7.557,7.557S211.287,247.814,215.461,247.814z"/>
		<path d="M466.463,113.582c0.006-0.125,0.019-0.247,0.019-0.374c0-0.247-0.014-0.49-0.037-0.731
			c-0.4-22.162-3.209-30.691-21.979-51.087l-32.771-35.658c-1.872-2.032-3.55-3.899-5.09-5.613C392.869,4.836,387.375,0,363.292,0h0
			c-0.001,0-0.001,0-0.002,0H78.28C60.199,0,45.49,14.718,45.49,32.808v180.328c0,4.174,3.383,7.557,7.557,7.557
			s7.557-3.383,7.557-7.557V32.808c0-9.757,7.929-17.694,17.676-17.694h277.449l-0.026,72.827
			c-0.018,8.732,3.387,16.962,9.588,23.175c6.21,6.222,14.45,9.649,23.203,9.649h62.902c0,0.4,0,0.789,0,1.2v357.226
			c0,9.757-7.929,17.694-17.676,17.694H78.28c-9.746,0-17.676-7.937-17.676-17.694V247.767c0-4.174-3.383-7.557-7.557-7.557
			s-7.557,3.383-7.557,7.557v231.425C45.49,497.282,60.199,512,78.28,512h355.44c18.081,0,32.79-14.718,32.79-32.808V121.966
			C466.51,118.957,466.501,116.182,466.463,113.582z M388.494,105.651c-4.71,0-9.151-1.851-12.504-5.211
			c-3.344-3.351-5.181-7.779-5.171-12.481l0.026-72.663c11.751,0.718,14.591,3.878,24.52,14.926
			c1.578,1.755,3.297,3.668,5.209,5.743l32.769,35.656c13.55,14.724,16.93,20.704,17.773,34.029H388.494z"/>
		<path d="M329.192,351.407c-1.189,0.68-2.209,1.587-2.974,2.721c-0.765,1.134-1.359,2.409-1.869,3.684
			c-0.425,1.162-0.878,2.296-1.331,3.429l-13.055,33.158c-0.425,1.077-0.85,2.154-1.189,3.259c-0.283,0.879-0.425,1.785-0.425,2.721
			c0,1.785,0.765,3.344,2.067,4.591c1.303,1.247,2.917,1.927,4.729,1.927c1.869,0,3.653-0.538,4.814-2.097
			c1.104-1.474,2.039-3.883,2.69-5.64l1.982-5.328h18.153l2.011,5.243v0.028c0.396,0.935,0.793,1.87,1.189,2.777
			c0.425,0.907,0.906,1.927,1.501,2.692c0.595,0.708,1.274,1.275,2.096,1.7c0.906,0.453,1.926,0.624,2.945,0.624
			c1.869,0,3.568-0.68,4.899-2.012c1.246-1.247,2.011-2.806,2.011-4.591c0-1.899-0.991-4.449-1.699-6.178L344.4,361.156
			c-0.481-1.304-1.019-2.636-1.558-3.968c-0.453-1.077-1.019-2.154-1.699-3.117c-0.765-1.105-1.756-2.012-2.917-2.664
			c-1.388-0.794-2.974-1.077-4.559-1.077C332.109,350.33,330.552,350.613,329.192,351.407z M338.623,382.326h-9.912l4.928-13.688
			L338.623,382.326z"/>
		<path d="M267.629,382.269c0,37.264,30.31,67.582,67.567,67.582c37.241,0,67.539-30.317,67.539-67.582
			c0-37.28-30.298-67.609-67.539-67.609C297.94,314.659,267.629,344.989,267.629,382.269z M387.62,382.269
			c0,28.93-23.517,52.467-52.424,52.467c-28.923,0-52.452-23.537-52.452-52.467c0-28.946,23.53-52.495,52.452-52.495
			C364.103,329.774,387.62,353.323,387.62,382.269z"/>
	</g>
</g>
<g>
</g>
<g>
</g>
<g>
</g>
<g>
</g>
<g>
</g>
<g>
</g>
<g>
</g>
<g>
</g>
<g>
</g>
<g>
</g>
<g>
</g>
<g>
</g>
<g>
</g>
<g>
</g>
<g>
</g>
</svg>
