<?xml version="1.0" encoding="iso-8859-1"?>
<!-- Generator: Adobe Illustrator 23.0.3, SVG Export Plug-In . SVG Version: 6.00 Build 0)  -->
<svg version="1.1" id="Capa_1" xmlns="http://www.w3.org/2000/svg" xmlns:xlink="http://www.w3.org/1999/xlink" x="0px" y="0px"
	 viewBox="0 0 512 512" style="enable-background:new 0 0 512 512;" xml:space="preserve">
<g>
	<g>
		<path style="fill-rule:evenodd;clip-rule:evenodd;fill:#C4CCCF;" d="M389.915,7.557c-99.245,0-198.49,0-297.736,0
			c-11.633,0-21.137,9.466-21.137,21.029v371.712c0,11.563,9.505,21.029,21.137,21.029h21.648l297.225-343.57V28.586
			C411.052,17.023,401.519,7.557,389.915,7.557L389.915,7.557z"/>
	</g>
	<g>
		<path style="fill-rule:evenodd;clip-rule:evenodd;fill:#ECEFF1;" d="M363.87,45.278h-229.7c-11.207,0-20.343,9.126-20.343,20.32
			v355.728v3.344c0,11.166,9.164,20.292,20.343,20.292h147.761h138.682c11.179,0,20.343-9.126,20.343-20.292v-88.025V198.77v-61.47
			c0-2.551,0-4.875-0.028-7.028L363.87,45.278z"/>
	</g>
	<g>
		<path style="fill-rule:evenodd;clip-rule:evenodd;fill:#90A4AE;" d="M363.87,45.278l-0.057,64.673
			c0,11.166,9.164,20.32,20.343,20.32h26.897h29.876c-0.284-16.948-2.213-22.474-16.144-37.579l-13.732-14.935L398.37,64.04
			C384.95,49.444,383.73,45.278,363.87,45.278L363.87,45.278z"/>
	</g>
	<g>
		<path style="fill-rule:evenodd;clip-rule:evenodd;fill:#C4CCCF;" d="M411.081,424.671c0,11.138-9.107,20.263-20.258,20.292h0.028
			h29.762c11.179,0,20.343-9.126,20.343-20.292v-88.025V198.77v-61.47c0-2.551,0-4.875-0.028-7.028h-12.54h-17.335
			C412.528,228.187,411.081,326.641,411.081,424.671L411.081,424.671z"/>
	</g>
	<g>
		<path style="fill-rule:evenodd;clip-rule:evenodd;fill:#8BC34A;" d="M246.722,296.374c-5.873,0-10.725,4.449-10.725,9.919v73.515
			h-14.441c-34.415,1.7-35.181,28.85-20.967,47.102l14.072,18.053l35.039,45.004c15.888,19.3,41.537,19.3,55.382,0l35.039-45.004
			l14.073-18.053c14.214-18.251,13.448-45.401-20.967-47.102h-14.47v-73.515c0-5.47-4.823-9.919-10.725-9.919H246.722z"/>
	</g>
	<g>
		<path style="fill-rule:evenodd;clip-rule:evenodd;fill:#689F38;" d="M330.022,410.926l-14.073,18.053l-12.455,15.984
			l-22.584,28.992c-8.285,11.535-20.74,16.182-32.826,13.943l1.617,2.069c15.888,19.3,41.537,19.3,55.382,0l35.039-45.004
			l14.073-18.053c13.619-17.458,13.505-43.106-16.739-46.762C340.718,389.614,337.37,401.46,330.022,410.926L330.022,410.926z"/>
	</g>
	<g>
		<path d="M359.444,217.144H174.43c-4.174,0-7.557,3.383-7.557,7.557s3.383,7.557,7.557,7.557h185.014
			c4.174,0,7.557-3.383,7.557-7.557S363.618,217.144,359.444,217.144z"/>
		<path d="M359.444,170.411H174.43c-4.174,0-7.557,3.383-7.557,7.557c0,4.174,3.383,7.557,7.557,7.557h185.014
			c4.174,0,7.557-3.383,7.557-7.557C367.001,173.794,363.618,170.411,359.444,170.411z"/>
		<path d="M440.957,270.976c4.169,0,7.558-3.389,7.558-7.558V137.297c0-2.432-0.009-4.681-0.041-6.793
			c0.002-0.078,0.012-0.155,0.012-0.234c0-0.16-0.014-0.316-0.024-0.474c-0.329-18.043-2.651-25.463-18.123-42.229L418.61,74.845
			V28.586C418.61,12.824,405.737,0,389.915,0H92.18C76.358,0,63.485,12.824,63.485,28.586v185.856c0,4.174,3.383,7.557,7.557,7.557
			c4.174,0,7.557-3.383,7.557-7.557V28.586c0-7.428,6.092-13.471,13.58-13.471h297.735c7.488,0,13.58,6.043,13.58,13.471v29.856
			c-1.308-1.428-2.515-2.768-3.609-3.996C388.729,42.019,383.85,37.72,363.874,37.72H134.168c-15.386,0-27.894,12.507-27.894,27.874
			v348.175H92.18c-7.488,0-13.58-6.043-13.58-13.471V249.046c0-4.174-3.383-7.557-7.557-7.557c-4.174,0-7.557,3.383-7.557,7.557
			v151.252c0,15.762,12.872,28.586,28.694,28.586h14.414c2.039,13.365,13.623,23.64,27.575,23.64h76.792l32.782,42.09
			c0.04,0.05,0.08,0.1,0.12,0.16C252.92,505.771,265.347,512,278.144,512c0.44,0,0.88-0.01,1.32-0.03
			c12.407-0.41,23.944-6.788,31.673-17.506l32.672-41.94h76.802c15.386,0,27.904-12.497,27.904-27.854V301.019
			c0-4.169-3.389-7.558-7.558-7.558c-4.169,0-7.558,3.389-7.558,7.558V424.67c0,7.018-5.739,12.737-12.787,12.737h-65.025
			l4.569-5.859c10.148-13.017,13.057-28.513,7.588-40.421c-3.009-6.568-11.447-17.746-34.142-18.866c-0.12-0.01-0.25-0.01-0.37-0.01
			h-6.918v-65.955c0-9.638-8.198-17.486-18.276-17.486h-61.316c-10.078,0-18.286,7.848-18.286,17.486v65.955h-6.878
			c-0.13,0-0.25,0-0.37,0.01c-22.705,1.12-31.143,12.297-34.152,18.866c-5.459,11.907-2.549,27.404,7.588,40.421l4.559,5.859
			h-65.015c-7.048,0-12.787-5.719-12.787-12.737v-3.264c0-0.027,0.004-0.053,0.004-0.08s-0.004-0.053-0.004-0.08V65.594
			c0-7.028,5.739-12.757,12.787-12.757h222.138l-0.05,57.114c0,15.371,12.516,27.877,27.9,27.877h49.243v125.589
			C433.398,267.587,436.788,270.976,440.957,270.976z M206.551,422.271c-6.458-8.298-8.778-18.286-5.769-24.844
			c3.469-7.578,13.277-9.658,20.965-10.058h14.247c4.179,0,7.558-3.389,7.558-7.558v-73.513c0-1.12,1.36-2.369,3.169-2.369h61.316
			c1.86,0,3.159,1.25,3.159,2.369v73.513c0,4.169,3.389,7.558,7.558,7.558h14.277c7.698,0.4,17.506,2.479,20.975,10.058
			c3.009,6.558,0.69,16.546-5.769,24.834l-11.807,15.146l-11.777,15.116l-25.534,32.772c-0.06,0.08-0.12,0.16-0.18,0.24
			c-5.049,7.048-12.137,11.067-19.975,11.327c-8.498,0.3-17.016-3.949-23.365-11.627l-25.484-32.712l-11.777-15.116L206.551,422.271
			z M371.371,109.958l0.05-56.863c7.58,0.724,9.891,3.288,17.218,11.449c1.26,1.41,2.639,2.939,4.179,4.619l26.414,28.653
			c10.084,10.93,12.988,15.478,13.825,24.897h-48.901C377.106,122.714,371.371,116.988,371.371,109.958z"/>
		<path d="M174.43,138.764h117.715c4.174,0,7.557-3.383,7.557-7.557c0-4.174-3.383-7.557-7.557-7.557H174.43
			c-4.174,0-7.557,3.383-7.557,7.557C166.873,135.38,170.256,138.764,174.43,138.764z"/>
	</g>
</g>
<g>
</g>
<g>
</g>
<g>
</g>
<g>
</g>
<g>
</g>
<g>
</g>
<g>
</g>
<g>
</g>
<g>
</g>
<g>
</g>
<g>
</g>
<g>
</g>
<g>
</g>
<g>
</g>
<g>
</g>
</svg>
