<?xml version="1.0" encoding="iso-8859-1"?>
<!-- Generator: Adobe Illustrator 23.0.3, SVG Export Plug-In . SVG Version: 6.00 Build 0)  -->
<svg version="1.1" id="Capa_1" xmlns="http://www.w3.org/2000/svg" xmlns:xlink="http://www.w3.org/1999/xlink" x="0px" y="0px"
	 viewBox="0 0 512 512" style="enable-background:new 0 0 512 512;" xml:space="preserve">
<g>
	<g>
		<path style="fill-rule:evenodd;clip-rule:evenodd;fill:#C4CCCF;" d="M429.992,7.557c-112.677,0-225.326,0-338.003,0
			c-13.184,0-23.987,10.741-23.987,23.891v422.238c0,13.121,10.803,23.891,23.987,23.891h24.583l337.408-390.27V31.448
			C453.979,18.298,443.176,7.557,429.992,7.557L429.992,7.557z"/>
	</g>
	<g>
		<path style="fill-rule:evenodd;clip-rule:evenodd;fill:#ECEFF1;" d="M400.419,50.407H139.651c-12.674,0-23.08,10.372-23.08,23.069
			v404.1v3.769c0,12.696,10.406,23.097,23.08,23.097h167.768h157.419c12.702,0,23.108-10.401,23.108-23.097v-99.984V224.755v-69.801
			c0-2.919-0.028-5.555-0.057-7.992L400.419,50.407z"/>
	</g>
	<g>
		<path style="fill-rule:evenodd;clip-rule:evenodd;fill:#90A4AE;" d="M400.419,50.407l-0.057,73.486
			c0,12.668,10.406,23.069,23.108,23.069h30.508h33.911c-0.284-19.271-2.495-25.534-18.288-42.708l-15.623-16.947l-14.375-15.615
			C424.35,55.14,422.989,50.407,400.419,50.407L400.419,50.407z"/>
	</g>
	<g>
		<path style="fill-rule:evenodd;clip-rule:evenodd;fill:#C4CCCF;" d="M454.036,481.346c0,12.668-10.377,23.04-23.023,23.097h0.028
			h33.797c12.702,0,23.108-10.401,23.108-23.097v-99.984V224.755v-69.801c0-2.919-0.028-5.555-0.057-7.992h-14.234h-19.677
			C455.68,258.196,454.036,369.998,454.036,481.346L454.036,481.346z"/>
	</g>
	<g>
		<path style="fill-rule:evenodd;clip-rule:evenodd;fill:#F55A8E;" d="M46.623,98.67h199.014c12.419,0,22.598,10.174,22.598,22.587
			v91.482c0,12.441-10.179,22.587-22.598,22.587H46.623c-12.419,0-22.569-10.146-22.569-22.587v-91.482
			C24.054,108.845,34.204,98.67,46.623,98.67L46.623,98.67z"/>
	</g>
	<g>
		<path style="fill-rule:evenodd;clip-rule:evenodd;fill:#BA4583;" d="M241.838,121.257v91.482
			c0,12.441-10.179,22.587-22.598,22.587h5.387h21.01c12.419,0,22.598-10.146,22.598-22.587v-91.482
			c0-12.413-10.179-22.587-22.598-22.587H219.24C231.659,98.67,241.838,108.845,241.838,121.257L241.838,121.257z"/>
	</g>
	<g>
		<path d="M395.401,394.294H185.357c-4.174,0-7.557,3.384-7.557,7.557s3.383,7.557,7.557,7.557h210.043
			c4.174,0,7.557-3.384,7.557-7.557S399.575,394.294,395.401,394.294z"/>
		<path d="M395.401,341.214H185.357c-4.174,0-7.557,3.383-7.557,7.557c0,4.174,3.383,7.557,7.557,7.557h210.043
			c4.174,0,7.557-3.383,7.557-7.557C402.958,344.597,399.575,341.214,395.401,341.214z"/>
		<path d="M177.8,295.662c0,4.174,3.383,7.557,7.557,7.557h133.659c4.174,0,7.557-3.384,7.557-7.557s-3.383-7.557-7.557-7.557
			H185.357C181.184,288.104,177.8,291.488,177.8,295.662z"/>
		<path d="M475.161,99.133l-13.625-14.79V31.448c0-17.34-14.15-31.448-31.544-31.448H91.989C74.595,0,60.444,14.108,60.444,31.448
			v59.665H46.623c-16.612,0-30.127,13.523-30.127,30.144v91.481c0,16.622,13.515,30.144,30.127,30.144h13.821v210.802
			c0,17.34,14.151,31.448,31.544,31.448h17.265C111.114,500.252,124.032,512,139.651,512h325.188
			c16.909,0,30.665-13.739,30.665-30.626v-326.42C495.504,128.238,494.698,120.375,475.161,99.133z M480.079,139.404H423.47
			c-8.574,0-15.551-6.958-15.551-15.505l0.051-65.717c9.936,0.738,12.587,3.676,21.3,13.365c1.445,1.608,3.021,3.359,4.776,5.264
			l14.445,15.68c0.053,0.056,0.102,0.116,0.156,0.17l15.393,16.708C476.04,122.415,479.229,127.89,480.079,139.404z M75.559,31.448
			c0-9.006,7.37-16.333,16.43-16.333h338.004c9.059,0,16.43,7.327,16.43,16.333v36.49l-1.26-1.368
			c-1.712-1.857-3.245-3.563-4.653-5.128c-12.421-13.812-17.848-18.59-40.083-18.591c0,0-0.001,0-0.001,0c-0.002,0-0.004,0-0.006,0
			H139.651c-16.893,0-30.637,13.739-30.637,30.626v17.637H75.559V31.448z M480.39,481.374c0,8.553-6.977,15.512-15.551,15.512
			H139.651c-8.559,0-15.522-6.958-15.522-15.512V371.868c0-4.174-3.383-7.557-7.557-7.557c-4.174,0-7.557,3.383-7.557,7.557v98.151
			H91.989c-9.059,0-16.43-7.327-16.43-16.333V242.883h33.455v94.382c0,4.174,3.383,7.557,7.557,7.557
			c4.174,0,7.557-3.383,7.557-7.557v-94.382h39.226c4.174,0,7.557-3.383,7.557-7.557s-3.383-7.557-7.557-7.557H46.623
			c-8.278,0-15.012-6.742-15.012-15.03v-91.481c0-8.288,6.734-15.03,15.012-15.03h199.014c8.293,0,15.041,6.742,15.041,15.03v91.481
			c0,8.288-6.747,15.03-15.041,15.03h-47.662c-4.174,0-7.557,3.383-7.557,7.557s3.383,7.557,7.557,7.557h47.662
			c16.628,0,30.155-13.523,30.155-30.144v-91.481c0-16.622-13.527-30.144-30.155-30.144H124.129V73.476
			c0-8.553,6.963-15.512,15.522-15.512h253.205l-0.051,65.929c0,16.887,13.756,30.626,30.665,30.626h56.919c0,0.147,0,0.286,0,0.434
			V481.374z"/>
		<path d="M92.145,134.638H74.044c-2.224,0-4.113,0.778-5.668,2.333c-1.557,1.556-2.334,3.476-2.334,5.761v53.515
			c0,2.223,0.763,4.094,2.287,5.618s3.334,2.286,5.43,2.286c2.096,0,3.906-0.762,5.43-2.286c1.524-1.524,2.286-3.333,2.286-5.427
			v-15.521h11.623c7.05,0,12.702-2.11,16.958-6.333c4.254-4.221,6.383-9.76,6.383-16.616c0-6.918-2.255-12.537-6.764-16.855
			C105.164,136.798,99.322,134.638,92.145,134.638z M97.766,164.633c-1.843,1.842-4.002,2.762-6.478,2.762h-9.813v-18.949h9.908
			c2.604,0,4.779,0.937,6.526,2.809c1.746,1.874,2.62,4.143,2.62,6.808C100.529,160.603,99.608,162.793,97.766,164.633z"/>
		<path d="M179.771,152.778c-2.255-4.919-5.415-8.871-9.479-11.855c-5.653-4.126-12.956-6.189-21.911-6.189h-15.91
			c-2.224,0-4.097,0.795-5.621,2.381c-1.524,1.588-2.287,3.397-2.287,5.427v53.039c0,2.286,0.729,4.159,2.191,5.618
			c1.587,1.397,3.525,2.095,5.811,2.095h17.148c9.272,0,16.703-2.507,22.293-7.523c7.431-6.792,11.146-15.774,11.146-26.948
			C183.153,163.047,182.025,157.699,179.771,152.778z M162.289,183.773c-3.303,3.746-7.685,5.618-13.147,5.618h-9.146v-40.66h8.289
			c5.842,0,10.463,1.809,13.862,5.428c3.397,3.618,5.096,8.507,5.096,14.664C167.243,175.046,165.591,180.028,162.289,183.773z"/>
		<path d="M200.897,204.342c2.158,0,3.985-0.762,5.478-2.286c1.492-1.524,2.239-3.333,2.239-5.427v-20.473h14.671
			c2.096,0,3.842-0.681,5.24-2.047c1.396-1.364,2.096-2.999,2.096-4.904c0-1.967-0.715-3.633-2.144-4.999
			c-1.429-1.364-3.16-2.047-5.192-2.047h-14.671v-13.427h17.339c1.968,0,3.62-0.698,4.954-2.095
			c1.334-1.396,2.001-3.014,2.001-4.856c0-2.031-0.683-3.729-2.048-5.095c-1.366-1.364-3.001-2.047-4.906-2.047h-24.961
			c-2.224,0-4.097,0.795-5.621,2.381c-1.524,1.588-2.287,3.428-2.287,5.523v54.087c0,2.095,0.794,3.904,2.382,5.427
			C197.053,203.579,198.864,204.342,200.897,204.342z"/>
	</g>
</g>
<g>
</g>
<g>
</g>
<g>
</g>
<g>
</g>
<g>
</g>
<g>
</g>
<g>
</g>
<g>
</g>
<g>
</g>
<g>
</g>
<g>
</g>
<g>
</g>
<g>
</g>
<g>
</g>
<g>
</g>
</svg>
