<?xml version="1.0" encoding="iso-8859-1"?>
<!-- Generator: Adobe Illustrator 23.0.3, SVG Export Plug-In . SVG Version: 6.00 Build 0)  -->
<svg version="1.1" id="Capa_1" xmlns="http://www.w3.org/2000/svg" xmlns:xlink="http://www.w3.org/1999/xlink" x="0px" y="0px"
	 viewBox="0 0 512 512" style="enable-background:new 0 0 512 512;" xml:space="preserve">
<g>
	<g>
		<path style="fill-rule:evenodd;clip-rule:evenodd;fill:#E6E6E6;" d="M23.554,80.249l236.487,48.89l228.406-48.89V27.679
			c0-11.081-9.073-20.121-20.158-20.121H43.684c-11.057,0-20.13,9.069-20.13,20.121V80.249z"/>
	</g>
	<g>
		<path style="fill-rule:evenodd;clip-rule:evenodd;fill:#8EBFE8;" d="M342.63,80.249H23.554v404.043
			c0,11.081,9.073,20.15,20.13,20.15h65.494h202.606h156.505c11.086,0,20.158-9.069,20.158-20.15V80.249H342.63z"/>
	</g>
	<g>
		<path style="fill-rule:evenodd;clip-rule:evenodd;fill:#C4CCCF;" d="M446.258,80.249h33.768h8.421V27.679
			c0-6.717-3.346-12.696-8.421-16.352c-3.317-2.381-7.372-3.769-11.738-3.769H426.1c11.086,0,20.159,9.04,20.159,20.121V80.249z"/>
	</g>
	<g>
		<path style="fill-rule:evenodd;clip-rule:evenodd;fill:#519AD6;" d="M480.026,80.249h-33.768v404.043
			c0,11.081-9.073,20.15-20.159,20.15h42.188c4.366,0,8.421-1.417,11.738-3.798c5.075-3.656,8.421-9.636,8.421-16.352V80.249
			H480.026z"/>
	</g>
	<g>
		<path style="fill-rule:evenodd;clip-rule:evenodd;fill:#E6E6E6;" d="M213.599,251.905h185.679
			c13.609,0,24.752-11.138,24.752-24.741v-53.393c0-13.603-11.142-24.741-24.752-24.741H213.599l-42.33,56.737L213.599,251.905z"/>
	</g>
	<g>
		<path style="fill-rule:evenodd;clip-rule:evenodd;fill:#F55A8E;" d="M213.599,251.905V149.031H113.232
			c-13.609,0-24.752,11.138-24.752,24.741v53.393c0,13.603,11.142,24.741,24.752,24.741H213.599z"/>
	</g>
	<g>
		<path style="fill-rule:evenodd;clip-rule:evenodd;fill:#E6E6E6;" d="M213.599,315.188l-47.207,57.785l47.207,45.061h185.679
			c13.609,0,24.752-11.138,24.752-24.741v-53.393c0-13.603-11.142-24.712-24.752-24.712H213.599z"/>
	</g>
	<g>
		<path style="fill-rule:evenodd;clip-rule:evenodd;fill:#8BC34A;" d="M213.599,315.188H113.232
			c-13.609,0-24.752,11.109-24.752,24.712v53.393c0,13.603,11.142,24.741,24.752,24.741h100.367V315.188z"/>
	</g>
	<g>
		<path d="M426.667,49.208h0.198c4.174,0,7.557-3.383,7.557-7.557s-3.383-7.557-7.557-7.557h-0.198
			c-4.174,0-7.557,3.383-7.557,7.557S422.493,49.208,426.667,49.208z"/>
		<path d="M390.405,49.208h0.227c4.174,0,7.557-3.383,7.557-7.557s-3.383-7.557-7.557-7.557h-0.227
			c-4.174,0-7.557,3.383-7.557,7.557S386.231,49.208,390.405,49.208z"/>
		<path d="M354.17,49.378h0.198c4.174,0,7.557-3.383,7.557-7.557s-3.383-7.557-7.557-7.557h-0.198c-4.174,0-7.557,3.383-7.557,7.557
			S349.996,49.378,354.17,49.378z"/>
		<path d="M468.288,0H43.684C28.417,0,15.997,12.417,15.997,27.679v456.614c0,15.278,12.42,27.707,27.687,27.707h424.604
			c15.283,0,27.715-12.429,27.715-27.707V27.679C496.003,12.417,483.571,0,468.288,0z M468.288,496.885H43.684
			c-6.933,0-12.573-5.649-12.573-12.592V87.807h206.645c4.174,0,7.557-3.383,7.557-7.557c0-4.174-3.383-7.557-7.557-7.557H31.11
			V27.679c0-6.928,5.64-12.564,12.573-12.564h424.604c6.949,0,12.602,5.636,12.602,12.564v45.014H272.373
			c-4.174,0-7.557,3.383-7.557,7.557c0,4.174,3.383,7.557,7.557,7.557h208.516v396.486
			C480.889,491.236,475.237,496.885,468.288,496.885z"/>
		<path d="M281.717,41.82c0-4.174-3.383-7.557-7.557-7.557H89.246c-4.174,0-7.557,3.383-7.557,7.557s3.383,7.557,7.557,7.557H274.16
			C278.334,49.378,281.717,45.994,281.717,41.82z"/>
		<path d="M399.278,141.473H113.232c-17.815,0-32.309,14.489-32.309,32.298v53.392c0,17.809,14.494,32.298,32.309,32.298h180.774
			c4.174,0,7.557-3.384,7.557-7.557c0-4.174-3.383-7.557-7.557-7.557h-72.85v-87.76h178.123c9.48,0,17.194,7.709,17.194,17.184
			v53.392c0,9.475-7.714,17.184-17.194,17.184h-70.625c-4.174,0-7.557,3.383-7.557,7.557c0,4.174,3.383,7.557,7.557,7.557h70.625
			c17.815,0,32.308-14.489,32.308-32.298v-53.392C431.586,155.962,417.094,141.473,399.278,141.473z M206.042,244.347h-92.81
			c-9.481,0-17.195-7.709-17.195-17.184v-53.392c0-9.475,7.714-17.184,17.195-17.184h92.81V244.347z"/>
		<path d="M131.973,395.73c3.204,0,5.245-1.474,6.124-4.421l2.126-7.142h21.775l2.296,7.142c0.992,2.891,2.92,4.336,5.812,4.336
			c1.729,0,3.204-0.538,4.395-1.587c1.248-1.19,1.9-2.466,1.9-3.826c0-1.389-0.227-2.636-0.652-3.798l-15.395-41.858
			c-1.729-4.733-4.792-7.085-9.186-7.085c-4.451,0-7.57,2.352-9.299,7.085l-15.622,41.802c-0.369,0.935-0.567,1.984-0.567,3.146
			c0,1.729,0.624,3.174,1.815,4.393C128.712,395.107,130.187,395.73,131.973,395.73z M151.167,350.698l6.975,22.077l-14.289-0.085
			L151.167,350.698z"/>
		<path d="M399.278,307.631H113.232c-17.815,0-32.309,14.476-32.309,32.27v53.392c0,17.809,14.494,32.298,32.309,32.298h180.774
			c4.174,0,7.557-3.383,7.557-7.557c0-4.174-3.383-7.557-7.557-7.557h-72.85v-87.731h178.123c9.48,0,17.194,7.695,17.194,17.155
			v53.392c0,9.475-7.714,17.184-17.194,17.184h-70.625c-4.174,0-7.557,3.383-7.557,7.557c0,4.174,3.383,7.557,7.557,7.557h70.625
			c17.815,0,32.308-14.489,32.308-32.298v-53.392C431.586,322.107,417.094,307.631,399.278,307.631z M206.042,410.477h-92.81
			c-9.481,0-17.195-7.709-17.195-17.184v-53.392c0-9.46,7.714-17.155,17.195-17.155h92.81V410.477z"/>
		<path d="M253.717,192.041h120.271c4.174,0,7.557-3.383,7.557-7.557s-3.383-7.557-7.557-7.557H253.717
			c-4.174,0-7.557,3.383-7.557,7.557S249.543,192.041,253.717,192.041z"/>
		<path d="M253.717,224.547h120.271c4.174,0,7.557-3.383,7.557-7.557s-3.383-7.557-7.557-7.557H253.717
			c-4.174,0-7.557,3.383-7.557,7.557S249.543,224.547,253.717,224.547z"/>
		<path d="M260.04,357.915h120.271c4.174,0,7.557-3.383,7.557-7.557c0-4.174-3.383-7.557-7.557-7.557H260.04
			c-4.174,0-7.557,3.383-7.557,7.557C252.483,354.532,255.866,357.915,260.04,357.915z"/>
		<path d="M260.04,390.421h120.271c4.174,0,7.557-3.383,7.557-7.557c0-4.174-3.383-7.557-7.557-7.557H260.04
			c-4.174,0-7.557,3.383-7.557,7.557C252.483,387.038,255.866,390.421,260.04,390.421z"/>
		<path d="M150.317,228.524c1.418,0,2.778-0.085,4.026-0.227c1.248-0.17,2.325-0.368,3.232-0.567
			c1.673-0.482,3.884-1.417,6.663-2.834l5.5,4.959c1.049,0.879,2.382,1.332,3.941,1.332c3.827,0,5.727-1.899,5.727-5.725
			c0-1.644-0.454-2.834-1.418-3.627l-5.245-4.704c2.183-3.713,3.629-6.717,4.281-8.955c0.652-2.267,0.964-5.215,0.964-8.899
			c0-8.644-2.58-15.729-7.769-21.255c-5.188-5.526-11.795-8.275-19.818-8.275c-8.222,0-14.913,2.721-20.045,8.162
			c-5.132,5.47-7.683,12.498-7.683,21.142c0,8.644,2.608,15.729,7.854,21.227C135.772,225.775,142.378,228.524,150.317,228.524z
			 M139.997,186.128c2.693-3.287,6.152-4.903,10.32-4.903c4.366,0,7.853,1.644,10.462,4.931c2.637,3.316,3.941,7.652,3.941,13.065
			c0,2.607-0.114,4.421-0.369,5.441c-0.227,1.02-0.822,2.267-1.758,3.741l-6.833-5.81c-1.049-0.907-2.438-1.332-4.168-1.332
			c-3.147,0-4.707,1.445-4.707,4.308c0,2.04,0.539,3.599,1.645,4.648l6.351,6.036c-1.616,0.85-3.034,1.275-4.224,1.275
			c-4.423,0-7.967-1.729-10.66-5.186c-2.693-3.457-4.054-7.907-4.054-13.291C135.942,193.723,137.303,189.415,139.997,186.128z"/>
	</g>
</g>
<g>
</g>
<g>
</g>
<g>
</g>
<g>
</g>
<g>
</g>
<g>
</g>
<g>
</g>
<g>
</g>
<g>
</g>
<g>
</g>
<g>
</g>
<g>
</g>
<g>
</g>
<g>
</g>
<g>
</g>
</svg>
