<?xml version="1.0" encoding="iso-8859-1"?>
<!-- Generator: Adobe Illustrator 23.0.3, SVG Export Plug-In . SVG Version: 6.00 Build 0)  -->
<svg version="1.1" id="Capa_1" xmlns="http://www.w3.org/2000/svg" xmlns:xlink="http://www.w3.org/1999/xlink" x="0px" y="0px"
	 viewBox="0 0 512 512" style="enable-background:new 0 0 512 512;" xml:space="preserve">
<g>
	<g>
		<path style="fill-rule:evenodd;clip-rule:evenodd;fill:#C4CCCF;" d="M460.036,155.391H260.685H51.964
			c-11.556,0-21.04,9.487-21.04,21.048v266.634L256,469.745l225.075-26.672V176.439C481.075,164.878,471.62,155.391,460.036,155.391
			L460.036,155.391z"/>
	</g>
	<g>
		<path style="fill-rule:evenodd;clip-rule:evenodd;fill:#ECEFF1;" d="M194.784,443.073h-10.506H30.925h-8.461
			c-8.206,0-14.907,6.704-14.907,14.912v23.519c0,8.209,6.701,14.941,14.907,14.941h467.073c8.206,0,14.907-6.732,14.907-14.941
			v-23.519c0-8.209-6.701-14.912-14.907-14.912h-8.461H327.722h-10.477v15.509c0,6.079-4.969,11.049-11.045,11.049H205.8
			c-6.048,0-11.017-4.971-11.017-11.049V443.073z"/>
	</g>
	<g>
		<path style="fill-rule:evenodd;clip-rule:evenodd;fill:#90A4AE;" d="M194.784,443.073v15.509c0,6.079,4.969,11.049,11.017,11.049
			H306.2c6.076,0,11.045-4.971,11.045-11.049v-15.509H194.784z"/>
	</g>
	<g>
		<path style="fill-rule:evenodd;clip-rule:evenodd;fill:#8EBFE8;" d="M251.485,193.339H71.329c-3.01,0-5.452,2.471-5.452,5.454
			v200.906c0,2.982,2.442,5.397,5.452,5.397h369.343c3.01,0,5.452-2.414,5.452-5.397V198.793c0-2.983-2.442-5.454-5.452-5.454
			H251.485z"/>
	</g>
	<g>
		<path style="fill-rule:evenodd;clip-rule:evenodd;fill:#519AD6;" d="M418.78,193.339v211.756h21.891
			c3.01,0,5.452-2.414,5.452-5.397V198.793c0-2.983-2.442-5.454-5.452-5.454H418.78z"/>
	</g>
	<g>
		<path style="fill-rule:evenodd;clip-rule:evenodd;fill:#90A4AE;" d="M446.123,198.793v200.906c0,2.982-2.442,5.397-5.452,5.397
			H418.78v37.977h62.295V176.439c0-11.561-9.455-21.048-21.04-21.048H418.78v37.949h21.891
			C443.681,193.339,446.123,195.811,446.123,198.793L446.123,198.793z"/>
	</g>
	<g>
		<path style="fill-rule:evenodd;clip-rule:evenodd;fill:#C4CCCF;" d="M481.075,443.073h-31.148c3.18,0,6.105,0.994,8.518,2.67
			c3.862,2.698,6.417,7.186,6.417,12.242v23.519c0,8.181-6.644,14.856-14.793,14.941h39.467c8.206,0,14.907-6.732,14.907-14.941
			v-23.519c0-8.209-6.701-14.912-14.907-14.912H481.075z"/>
	</g>
	<g>
		<path style="fill-rule:evenodd;clip-rule:evenodd;fill:#546E7A;" d="M234.441,361.237h32.804h52.509h6.578
			c10.575,0,19.251-8.644,19.251-19.215V289.31c0,0-92.514-3.958-97.504-3.958s-97.504,3.958-97.504,3.958v52.713
			c0,10.287,8.194,18.733,18.372,19.215c7.23,0.34,14.998,0.227,22.654,0.142v-0.142h12.447H234.441z"/>
	</g>
	<g>
		<path style="fill-rule:evenodd;clip-rule:evenodd;fill:#7C8C94;" d="M229.026,307.646c9.101,2.239,14.063,3.372,19.053,3.372
			s9.952-1.134,19.053-3.372l78.451-18.336l32.35-7.538c0.51-0.113,1.021-0.283,1.503-0.425c4.99-1.729,7.003-5.526,6.748-9.296
			c0.284-4.109-2.155-8.275-8.251-9.692l-110.801-25.874c-9.101-2.267-14.063-3.372-19.053-3.372s-9.952,1.105-19.053,3.372
			l-110.801,25.874c-6.096,1.417-8.534,5.583-8.251,9.692c-0.284,4.138,2.155,8.304,8.251,9.721l32.35,7.538L229.026,307.646z"/>
	</g>
	<g>
		<path style="fill-rule:evenodd;clip-rule:evenodd;fill:#546E7A;" d="M377.933,262.359l-84.207-19.668
			c15.509,13.462,26.283,31.514,29.713,51.806l22.143-5.186l32.35-7.538c0.51-0.113,1.021-0.283,1.503-0.425
			c4.99-1.729,7.003-5.526,6.748-9.296C386.467,267.942,384.028,263.776,377.933,262.359L377.933,262.359z"/>
	</g>
	<g>
		<path style="fill-rule:evenodd;clip-rule:evenodd;fill:#37474F;" d="M323.439,334.201v27.036h2.892
			c10.575,0,19.251-8.644,19.251-19.215v-35.765V289.31l-78.451,18.336c-9.101,2.239-14.063,3.372-19.053,3.372
			s-9.952-1.134-19.053-3.372l-78.451-18.336v16.947l78.451,18.308c9.101,2.267,14.063,3.401,19.053,3.401s9.952-1.134,19.053-3.401
			l47.604-11.109C325.679,310.905,323.439,322.411,323.439,334.201L323.439,334.201z"/>
	</g>
	<g>
		<path d="M256.863,85.926c-0.011,0-0.021,0-0.03,0c-23.624,0-43.818,10.183-52.708,26.579c-1.989,3.67-0.627,8.256,3.042,10.246
			c3.669,1.991,8.257,0.628,10.246-3.041c6.149-11.343,21.621-18.669,39.421-18.669c0.008,0,0.016,0,0.023,0
			c17.786,0.006,33.241,7.332,39.375,18.664c1.368,2.527,3.967,3.961,6.653,3.961c1.215,0,2.447-0.294,3.59-0.912
			c3.671-1.987,5.036-6.573,3.049-10.244C300.654,96.121,280.475,85.934,256.863,85.926z"/>
		<path d="M330.504,95.423c1.369,2.524,3.968,3.957,6.651,3.957c1.217,0,2.451-0.295,3.595-0.915
			c3.67-1.989,5.031-6.577,3.042-10.246c-14.511-26.763-47.836-43.388-86.97-43.388c-39.133,0-72.457,16.626-86.967,43.388
			c-1.989,3.67-0.627,8.256,3.042,10.246c3.668,1.991,8.257,0.628,10.246-3.041c11.865-21.883,40.096-35.477,73.679-35.478
			C290.406,59.946,318.64,73.54,330.504,95.423z"/>
		<path d="M136.581,79.462c3.668,1.991,8.256,0.628,10.246-3.041c17.828-32.882,59.982-53.309,110.011-53.309
			s92.183,20.426,110.011,53.309c1.369,2.524,3.968,3.957,6.651,3.957c1.217,0,2.451-0.295,3.595-0.915
			c3.67-1.989,5.031-6.577,3.042-10.246c-20.475-37.761-67.72-61.219-123.299-61.219S154.014,31.456,133.539,69.217
			C131.55,72.886,132.911,77.473,136.581,79.462z"/>
		<path d="M489.536,435.516h-0.904V176.439c0-15.773-12.828-28.605-28.597-28.605H51.965c-15.769,0-28.597,12.833-28.597,28.605
			v259.077h-0.904C10.077,435.516,0,445.595,0,457.985v23.519c0,12.405,10.077,22.498,22.464,22.498h467.073
			c12.387,0,22.464-10.093,22.464-22.498v-23.519C512,445.595,501.923,435.516,489.536,435.516z M38.481,176.439
			c0-7.439,6.048-13.491,13.483-13.491h408.071c7.435,0,13.483,6.052,13.483,13.491v259.077H317.245H194.784H38.481V176.439z
			 M309.688,450.63v7.951c0,1.893-1.597,3.492-3.489,3.492H205.801c-1.875,0-3.46-1.599-3.46-3.492v-7.951H309.688z
			 M496.886,481.504c0,4.071-3.297,7.384-7.35,7.384H22.464c-4.053,0-7.35-3.312-7.35-7.384v-23.519c0-4.055,3.297-7.355,7.35-7.355
			h164.763v7.951c0,10.26,8.332,18.607,18.574,18.607h100.399c10.257,0,18.602-8.347,18.602-18.607v-7.951h164.735
			c4.053,0,7.35,3.3,7.35,7.355V481.504z"/>
		<path d="M455.294,462.187h-0.199c-4.174,0-7.557,3.383-7.557,7.557c0,4.174,3.383,7.557,7.557,7.557h0.199
			c4.174,0,7.557-3.383,7.557-7.557C462.851,465.571,459.468,462.187,455.294,462.187z"/>
		<path d="M419.007,462.187h-0.226c-4.174,0-7.557,3.383-7.557,7.557c0,4.174,3.383,7.557,7.557,7.557h0.226
			c4.174,0,7.557-3.383,7.557-7.557C426.563,465.571,423.18,462.187,419.007,462.187z"/>
		<path d="M382.692,462.386h-0.198c-4.174,0-7.557,3.383-7.557,7.557c0,4.174,3.383,7.557,7.557,7.557h0.198
			c4.174,0,7.557-3.383,7.557-7.557C390.249,465.769,386.865,462.386,382.692,462.386z"/>
		<path d="M453.679,399.699V198.793c0-7.174-5.835-13.011-13.008-13.011H272.639c-4.174,0-7.557,3.383-7.557,7.557
			c0,4.174,3.383,7.557,7.557,7.557h165.927v196.642H73.434V200.897h163.911c4.174,0,7.557-3.383,7.557-7.557
			c0-4.174-3.383-7.557-7.557-7.557H71.328c-7.173,0-13.008,5.837-13.008,13.011v200.906c0,7.143,5.835,12.954,13.008,12.954
			h369.343C447.845,412.653,453.679,406.842,453.679,399.699z"/>
		<path d="M378.889,324.045c4.174,0,7.557-3.384,7.557-7.557v-30.252c5.239-3.532,7.486-9.106,7.304-14.184
			c0.248-6.884-3.964-14.697-14.098-17.053l-110.746-25.862c-9.78-2.435-15.03-3.583-20.826-3.583
			c-5.796,0-11.045,1.147-20.823,3.583l-110.742,25.86c-10.14,2.358-14.353,10.17-14.105,17.055
			c-0.247,6.898,3.966,14.724,14.098,17.079l26.511,6.191v46.701c0,14.329,11.233,26.085,25.587,26.764
			c3.873,0.176,7.877,0.234,11.912,0.234c4.033,0,8.098-0.058,12.094-0.116c3.979-0.057,7.737-0.111,11.437-0.111h29.54
			c4.174,0,7.557-3.384,7.557-7.557s-3.383-7.557-7.557-7.557h-29.54c-3.808,0-7.797,0.057-11.654,0.113
			c-7.773,0.111-15.81,0.227-23.09-0.104c-6.161-0.291-11.173-5.525-11.173-11.666v-43.171l69.089,16.134
			c9.323,2.293,14.889,3.591,20.859,3.591c5.97,0,11.535-1.298,20.771-3.571l69.177-16.154v43.171
			c0,6.428-5.247,11.657-11.695,11.657h-58.086c-4.174,0-7.557,3.384-7.557,7.557s3.383,7.557,7.557,7.557h58.086
			c14.783,0,26.808-12.01,26.808-26.772v-46.701l18.192-4.248v25.415C371.332,320.662,374.715,324.045,378.889,324.045z
			 M344.25,281.877c-0.285,0.051-0.565,0.114-0.839,0.196l-78.085,18.235c-8.912,2.193-13.237,3.154-17.247,3.154
			s-8.335-0.961-17.335-3.175l-78.007-18.216c-0.269-0.08-0.545-0.143-0.826-0.193l-31.976-7.467
			c-2.507-0.583-2.445-1.497-2.421-1.842c0.024-0.346,0.023-0.693,0-1.039c-0.021-0.304-0.085-1.227,2.429-1.812l110.801-25.874
			c0.036-0.008,0.072-0.017,0.108-0.026c8.591-2.14,13.092-3.148,17.227-3.148c4.136,0,8.635,1.008,17.225,3.148
			c0.036,0.009,0.072,0.018,0.108,0.026l110.809,25.876c2.507,0.583,2.444,1.507,2.422,1.81c-0.023,0.346-0.024,0.693,0,1.039
			c0.022,0.32,0.073,1.129-1.925,1.711c-0.036,0.011-0.072,0.02-0.108,0.031c-0.125,0.035-0.256,0.069-0.397,0.102L344.25,281.877z"
			/>
	</g>
</g>
<g>
</g>
<g>
</g>
<g>
</g>
<g>
</g>
<g>
</g>
<g>
</g>
<g>
</g>
<g>
</g>
<g>
</g>
<g>
</g>
<g>
</g>
<g>
</g>
<g>
</g>
<g>
</g>
<g>
</g>
</svg>
