<?xml version="1.0" encoding="iso-8859-1"?>
<!-- Generator: Adobe Illustrator 23.0.3, SVG Export Plug-In . SVG Version: 6.00 Build 0)  -->
<svg version="1.1" id="Capa_1" xmlns="http://www.w3.org/2000/svg" xmlns:xlink="http://www.w3.org/1999/xlink" x="0px" y="0px"
	 viewBox="0 0 512 512" style="enable-background:new 0 0 512 512;" xml:space="preserve">
<g>
	<g>
		<path style="fill-rule:evenodd;clip-rule:evenodd;fill:#F55A8E;" d="M470.848,60.556H41.152
			c-18.477,0-33.581,15.095-33.581,33.561v323.767c0,18.437,15.104,33.561,33.581,33.561h429.696
			c18.448,0,33.581-15.123,33.581-33.561V94.116C504.429,75.651,489.296,60.556,470.848,60.556L470.848,60.556z"/>
	</g>
	<g>
		<path style="fill-rule:evenodd;clip-rule:evenodd;fill:#ECEFF1;" d="M458.889,95.533H53.111c-5.809,0-10.542,4.73-10.542,10.535
			v299.864c0,5.777,4.733,10.535,10.542,10.535h405.778c5.781,0,10.514-4.758,10.514-10.535V106.068
			C469.403,100.262,464.67,95.533,458.889,95.533L458.889,95.533z"/>
	</g>
	<g>
		<path style="fill-rule:evenodd;clip-rule:evenodd;fill:#F55A8E;" d="M384.869,308.847l22.387-17.078v-53.952
			c0-5.862-4.789-10.649-10.655-10.649h-23.237c-5.838,0-10.627,4.786-10.627,10.649v54.83L384.869,308.847z"/>
	</g>
	<g>
		<path style="fill-rule:evenodd;clip-rule:evenodd;fill:#FFD54F;" d="M115.285,178.853h293.218c9.522,0,17.315-7.76,17.315-17.276
			v-1.699c0-9.488-7.793-17.276-17.315-17.276H115.285c-9.522,0-17.315,7.788-17.315,17.276v1.699
			C97.971,171.093,105.764,178.853,115.285,178.853L115.285,178.853z"/>
	</g>
	<g>
		<path style="fill-rule:evenodd;clip-rule:evenodd;fill:#E69B56;" d="M373.335,142.602c9.522,0,17.315,7.788,17.315,17.276v1.699
			c0,9.516-7.793,17.276-17.315,17.276h35.168c9.522,0,17.315-7.76,17.315-17.276v-1.699c0-9.488-7.793-17.276-17.315-17.276
			H373.335z"/>
	</g>
	<g>
		<path style="fill-rule:evenodd;clip-rule:evenodd;fill:#BA4583;" d="M401.844,60.556c18.477,0,33.581,15.095,33.581,33.561v1.416
			h23.464c5.781,0,10.514,4.73,10.514,10.535v299.864c0,5.777-4.733,10.535-10.514,10.535h-23.464v1.416
			c0,18.437-15.104,33.561-33.581,33.561h69.004c18.448,0,33.581-15.123,33.581-33.561V94.116c0-18.465-15.133-33.561-33.581-33.561
			H401.844z"/>
	</g>
	<g>
		<path style="fill-rule:evenodd;clip-rule:evenodd;fill:#C4CCCF;" d="M458.947,95.487h-23.471v321.027h23.471
			c5.783,0,10.517-4.759,10.517-10.538v-299.95C469.464,100.218,464.73,95.487,458.947,95.487L458.947,95.487z"/>
	</g>
	<g>
		<path style="fill-rule:evenodd;clip-rule:evenodd;fill:#BA4583;" d="M389.63,278.204v27.018l17.627-13.453v-53.952
			c0-5.862-4.789-10.649-10.655-10.649h-17.626c5.866,0,10.655,4.786,10.655,10.649V278.204z"/>
	</g>
	<g>
		<path style="fill-rule:evenodd;clip-rule:evenodd;fill:#FFD54F;" d="M376.197,364.668c7.935,7.987,9.947,7.76,18.278,0
			l10.854-10.111l11.052-2.945c10.91-2.889,11.704-4.73,9.153-15.832l-3.316-14.444l2.976-11.045
			c2.947-10.847,1.757-12.49-9.153-15.832l-8.785-2.691l-5.413-1.643l-8.048-8.1c-7.963-7.987-9.947-7.76-18.307,0l-10.854,10.111
			l-1.899,0.51l-9.153,2.407c-10.882,2.889-11.704,4.73-9.153,15.832l3.344,14.472l-3.004,11.017
			c-2.919,10.875-1.757,12.518,9.153,15.831l14.198,4.361L376.197,364.668z"/>
	</g>
	<g>
		<path style="fill-rule:evenodd;clip-rule:evenodd;fill:#E69B56;" d="M402.779,290.41c0.397,1.303,0.765,2.606,1.049,3.965
			c0.992,4.276,1.502,8.808,1.502,13.481c0,25.97-16.181,47.268-36.755,49.165l7.623,7.647c7.935,7.987,9.947,7.76,18.278,0
			l10.854-10.111l11.052-2.945c10.91-2.889,11.704-4.73,9.153-15.832l-3.316-14.444l2.976-11.045
			c2.947-10.847,1.757-12.49-9.153-15.832l-8.785-2.691L402.779,290.41z"/>
	</g>
	<g>
		<path d="M458.889,87.961H53.111c-9.987,0-18.113,8.123-18.113,18.107v141.407c0,4.181,3.39,7.571,7.571,7.571
			s7.571-3.39,7.571-7.571V106.068c0-1.635,1.333-2.965,2.971-2.965h405.778c1.595,0,2.943,1.358,2.943,2.965v299.863
			c0,1.607-1.348,2.965-2.943,2.965H53.111c-1.61,0-2.971-1.358-2.971-2.965V284.208c0-4.181-3.39-7.571-7.571-7.571
			s-7.571,3.39-7.571,7.571v121.724c0,9.984,8.126,18.107,18.113,18.107h405.778c9.972,0,18.085-8.123,18.085-18.107V106.068
			C476.974,96.084,468.861,87.961,458.889,87.961z"/>
		<path d="M97.971,298.661h207.466c4.181,0,7.571-3.39,7.571-7.571s-3.39-7.571-7.571-7.571H97.971c-4.181,0-7.571,3.39-7.571,7.571
			S93.789,298.661,97.971,298.661z"/>
		<path d="M97.971,242.16h207.466c4.181,0,7.571-3.39,7.571-7.571c0-4.181-3.39-7.571-7.571-7.571H97.971
			c-4.181,0-7.571,3.39-7.571,7.571C90.399,238.771,93.789,242.16,97.971,242.16z"/>
		<path d="M97.971,355.19h207.466c4.181,0,7.571-3.39,7.571-7.571s-3.39-7.571-7.571-7.571H97.971c-4.181,0-7.571,3.39-7.571,7.571
			S93.789,355.19,97.971,355.19z"/>
		<path d="M408.503,135.031H115.285c-13.722,0-24.886,11.146-24.886,24.847v1.7c0,13.7,11.164,24.846,24.886,24.846h127.438
			c4.181,0,7.571-3.39,7.571-7.571c0-4.181-3.39-7.571-7.571-7.571H115.285c-5.372,0-9.744-4.353-9.744-9.704v-1.7
			c0-5.351,4.371-9.705,9.744-9.705h293.218c5.372,0,9.744,4.354,9.744,9.705v1.7c0,5.351-4.371,9.704-9.744,9.704H277.324
			c-4.181,0-7.571,3.39-7.571,7.571c0,4.181,3.39,7.571,7.571,7.571h131.179c13.722,0,24.886-11.146,24.886-24.846v-1.7
			C433.389,146.177,422.225,135.031,408.503,135.031z"/>
		<path d="M432.33,295.704c-2.796-4.723-7.809-6.566-14.079-8.486l-3.423-1.045v-48.356c0-10.046-8.176-18.219-18.226-18.219
			h-23.237c-10.035,0-18.198,8.173-18.198,18.219v48.99l-3.525,0.93c-5.892,1.564-11.416,3.386-14.264,8.431
			c-2.697,4.777-1.79,10.035-0.323,16.422l2.915,12.615l-2.511,9.207c-1.58,5.887-2.755,11.585,0.184,16.563
			c2.793,4.731,8.03,6.638,14.059,8.468l12.392,3.807l6.733,6.754c4.263,4.291,8.566,8.14,14.303,8.14c0.047,0,0.096,0,0.144-0.001
			c5.479-0.061,9.577-3.477,14.364-7.935c0,0,0,0,0-0.001l9.469-8.821l9.213-2.455c5.904-1.563,11.439-3.386,14.284-8.442
			c2.683-4.767,1.775-10.025,0.31-16.403l-2.893-12.604l2.481-9.207C434.099,306.395,435.288,300.702,432.33,295.704z
			 M373.364,234.74h23.237c1.672,0,3.084,1.409,3.084,3.077v39.395l-0.529-0.532c-4.273-4.285-8.584-8.13-14.307-8.13
			c-0.047,0-0.095,0-0.143,0c-5.465,0.062-9.57,3.473-14.378,7.936l-0.021,0.02v-38.689
			C370.308,236.149,371.707,234.74,373.364,234.74z M414.432,344.297l-11.052,2.944c-1.2,0.32-2.303,0.93-3.211,1.777l-10.853,10.11
			l0-0.001c-2.127,1.982-3.384,3.012-4.126,3.532c-0.646-0.49-1.757-1.452-3.631-3.338l-8.076-8.1
			c-0.876-0.878-1.954-1.527-3.139-1.891l-14.221-4.368c-2.773-0.843-4.29-1.411-5.11-1.791c0.1-0.818,0.379-2.262,1.061-4.804
			l3.004-11.017c0.329-1.207,0.354-2.477,0.072-3.696l-3.342-14.462c-0.651-2.836-0.914-4.439-0.992-5.34
			c0.759-0.321,2.15-0.8,4.699-1.476l8.997-2.375c0.171-0.041,0.342-0.082,0.508-0.134l1.548-0.408
			c1.207-0.318,2.316-0.929,3.229-1.781l10.844-10.102c2.145-1.992,3.408-3.024,4.152-3.544c0.658,0.497,1.77,1.462,3.633,3.331
			l8.048,8.1c0.88,0.886,1.966,1.541,3.161,1.905l14.19,4.331c2.789,0.854,4.313,1.429,5.135,1.813
			c-0.101,0.803-0.378,2.244-1.075,4.81l-2.976,11.046c-0.323,1.197-0.346,2.454-0.069,3.663l3.316,14.445
			c0.651,2.835,0.915,4.44,0.996,5.343C418.389,343.14,416.991,343.618,414.432,344.297z"/>
		<path d="M470.848,52.985H41.152C18.461,52.985,0,71.437,0,94.117v323.767c0,22.68,18.461,41.132,41.152,41.132h429.695
			c22.691,0,41.152-18.452,41.152-41.132V94.117C512,71.437,493.539,52.985,470.848,52.985z M496.858,417.883
			c0,14.331-11.668,25.99-26.01,25.99H41.152c-14.342,0-26.01-11.659-26.01-25.99V94.117c0-14.331,11.668-25.99,26.01-25.99h429.695
			c14.342,0,26.01,11.659,26.01,25.99V417.883z"/>
	</g>
</g>
<g>
</g>
<g>
</g>
<g>
</g>
<g>
</g>
<g>
</g>
<g>
</g>
<g>
</g>
<g>
</g>
<g>
</g>
<g>
</g>
<g>
</g>
<g>
</g>
<g>
</g>
<g>
</g>
<g>
</g>
</svg>
