<?xml version="1.0" encoding="iso-8859-1"?>
<!-- Generator: Adobe Illustrator 23.0.3, SVG Export Plug-In . SVG Version: 6.00 Build 0)  -->
<svg version="1.1" id="Capa_1" xmlns="http://www.w3.org/2000/svg" xmlns:xlink="http://www.w3.org/1999/xlink" x="0px" y="0px"
	 viewBox="0 0 512 512" style="enable-background:new 0 0 512 512;" xml:space="preserve">
<g>
	<g>
		<path style="fill-rule:evenodd;clip-rule:evenodd;fill:#C4CCCF;" d="M456.841,124.474H258.904H51.664
			c-11.474,0-20.89,9.415-20.89,20.916v264.574l223.479,26.497l223.479-26.497V145.39
			C477.731,133.889,468.343,124.474,456.841,124.474L456.841,124.474z"/>
	</g>
	<g>
		<path style="fill-rule:evenodd;clip-rule:evenodd;fill:#8EBFE8;" d="M438.431,165.854H250.587H71.708
			c-2.988,0-5.413,2.452-5.413,5.44v199.347c0,2.96,2.425,5.384,5.413,5.384h366.723c2.988,0,5.413-2.424,5.413-5.384V171.295
			C443.844,168.307,441.42,165.854,438.431,165.854L438.431,165.854z"/>
	</g>
	<g>
		<path style="fill-rule:evenodd;clip-rule:evenodd;fill:#ECEFF1;" d="M193.47,409.964h-10.431H30.773h-8.401
			c-8.148,0-14.801,6.681-14.801,14.827v23.312c0,8.146,6.653,14.827,14.801,14.827h463.76c8.147,0,14.801-6.652,14.801-14.827
			v-23.312c0-8.146-6.653-14.827-14.801-14.827h-8.401H325.465h-10.403v15.419c0,6.004-4.934,10.937-10.967,10.937h-99.687
			c-6.005,0-10.939-4.933-10.939-10.937V409.964z"/>
	</g>
	<g>
		<path style="fill-rule:evenodd;clip-rule:evenodd;fill:#90A4AE;" d="M193.47,409.964v15.419c0,6.004,4.934,10.937,10.939,10.937
			h99.687c6.033,0,10.967-4.933,10.967-10.937v-15.419H193.47z"/>
	</g>
	<g>
		<path style="fill-rule:evenodd;clip-rule:evenodd;fill:#FFD54F;" d="M417.795,49.071c47.842,0,86.634,38.759,86.634,86.622
			c0,47.835-38.792,86.594-86.634,86.594c-13.899,0-27.036-3.27-38.68-9.105l-16.915,7.583
			c-11.192,4.989-27.177,2.875-24.894-15.644c3.27-7.808,5.131-13.587,8.401-21.395c-9.191-13.756-14.547-30.274-14.547-48.033
			C331.16,87.829,369.953,49.071,417.795,49.071L417.795,49.071z"/>
	</g>
	<g>
		<path style="fill-rule:evenodd;clip-rule:evenodd;fill:#E69B56;" d="M406.884,49.747c38.708,8.654,67.633,43.212,67.633,84.536
			c0,26.497-11.897,50.231-30.673,66.101c-12.461,10.571-27.967,17.674-45.023,19.816c6.089,1.381,12.461,2.086,18.973,2.086
			c8.768,0,17.254-1.297,25.232-3.721c0.282-0.085,0.564-0.169,0.818-0.254c12.856-4.059,24.414-10.993,33.887-20.098
			c16.464-15.757,26.698-37.969,26.698-62.521c0-47.864-38.792-86.622-86.634-86.622C414.101,49.071,410.465,49.296,406.884,49.747
			L406.884,49.747z"/>
	</g>
	<g>
		<path style="fill-rule:evenodd;clip-rule:evenodd;fill:#F55A8E;" d="M265.501,376.025h76.232
			c-2.537-43.664-38.116-65.368-71.58-69.738c-8.345-3.608-23.061-3.664-29.658-0.028c-31.998,4.115-72.144,27.483-72.144,69.766
			h76.316H265.501z"/>
	</g>
	<g>
		<path style="fill-rule:evenodd;clip-rule:evenodd;fill:#FED8B3;" d="M303.053,239.454h-27.375c-18.579,0-26.36-4.623-32.844-8.541
			c-8.937-5.384-10.967-9.471-18.663,1.607c-3.411,4.933-6.146,6.934-10.798,6.934h-5.977v25.877
			c0,18.83,14.942,34.953,33.098,40.929c5.131,1.494,9.36,2.424,14.716,2.452c5.075,0.028,10.121-0.846,14.942-2.424
			c4.426-1.466,8.655-3.524,12.517-6.117c11.897-7.949,20.383-20.662,20.383-34.841V239.454z"/>
	</g>
	<g>
		<path style="fill-rule:evenodd;clip-rule:evenodd;fill:#546E7A;" d="M303.053,247.346c0.197-2.396,0-5.694,0-7.893
			c-0.366-65.678-95.656-56.912-95.656-3.044v10.937h5.977c4.652,0,7.386-2.001,10.798-6.934c7.696-11.078,9.726-6.991,18.663-1.607
			c6.484,3.918,14.265,8.541,32.844,8.541H303.053z"/>
	</g>
	<g>
		<path style="fill-rule:evenodd;clip-rule:evenodd;fill:#37474F;" d="M286.363,239.454c0.028,2.199,0.226,5.497,0,7.893h16.69
			c0.197-2.396,0-5.694,0-7.893c-0.197-35.912-28.784-49.583-54.665-45.749C268.517,196.748,286.222,211.209,286.363,239.454
			L286.363,239.454z"/>
	</g>
	<g>
		<path style="fill-rule:evenodd;clip-rule:evenodd;fill:#FCC172;" d="M286.363,265.443c0,14.179-8.458,26.892-20.355,34.841
			c-2.002,1.325-4.06,2.509-6.202,3.552c-2.058,0.987-4.172,1.86-6.343,2.565c-1.973,0.648-3.975,1.184-6.033,1.579
			c1.043,0.197,2.058,0.338,3.101,0.451c1.494,0.169,3.017,0.254,4.652,0.282c0.028,0,0.028,0,0.028,0
			c4.934,0.028,9.839-0.789,14.519-2.283c0.141-0.056,0.282-0.085,0.423-0.141c4.426-1.466,8.655-3.524,12.517-6.117
			c11.897-7.949,20.383-20.662,20.383-34.841v-17.984h-16.69V265.443z"/>
	</g>
	<g>
		<path style="fill-rule:evenodd;clip-rule:evenodd;fill:#BA4583;" d="M309.396,376.025h32.336
			c-2.537-43.664-38.116-65.368-71.58-69.738l0,0c-4.821,1.579-9.867,2.452-14.942,2.424c-1.269,0-2.481-0.085-3.665-0.169
			C283.431,318.662,307.366,340.762,309.396,376.025L309.396,376.025z"/>
	</g>
	<g>
		<path style="fill-rule:evenodd;clip-rule:evenodd;fill:#519AD6;" d="M408.237,221.78v154.246h30.194
			c2.988,0,5.413-2.424,5.413-5.384V218.312c-0.254,0.085-0.536,0.169-0.818,0.254c-7.978,2.424-16.464,3.721-25.232,3.721
			C414.581,222.287,411.395,222.118,408.237,221.78L408.237,221.78z"/>
	</g>
	<g>
		<path style="fill-rule:evenodd;clip-rule:evenodd;fill:#C4CCCF;" d="M443.844,218.312v152.329c0,2.96-2.425,5.384-5.413,5.384
			h-30.194v33.939h69.494v-211.75C468.258,207.319,456.7,214.253,443.844,218.312L443.844,218.312z"/>
	</g>
	<g>
		<path style="fill-rule:evenodd;clip-rule:evenodd;fill:#90A4AE;" d="M443.844,218.312v152.329c0,2.96-2.425,5.384-5.413,5.384
			h-30.194v33.939h35.607h33.887v-211.75C468.258,207.319,456.7,214.253,443.844,218.312L443.844,218.312z"/>
	</g>
	<g>
		<path style="fill-rule:evenodd;clip-rule:evenodd;fill:#C4CCCF;" d="M461.915,424.791v23.312c0,8.175-6.682,14.827-14.829,14.827
			h39.046c8.147,0,14.801-6.652,14.801-14.827v-23.312c0-8.146-6.653-14.827-14.801-14.827h-8.401h-30.504
			c3.045,0.028,5.92,0.987,8.26,2.65C459.35,415.291,461.915,419.745,461.915,424.791L461.915,424.791z"/>
	</g>
	<g>
		<path d="M486.132,402.393h-0.83V201.299C501.813,184.328,512,161.179,512,135.692c0-51.938-42.26-94.192-94.205-94.192
			c-6.605,0-13.151,0.671-19.457,1.993c-4.092,0.859-6.713,4.872-5.855,8.964c0.859,4.092,4.872,6.709,8.965,5.855
			c5.286-1.109,10.785-1.671,16.347-1.671c43.595,0,79.063,35.462,79.063,79.051c0,43.574-35.468,79.024-79.063,79.024
			c-12.423,0-24.295-2.793-35.287-8.302c-2.033-1.018-4.415-1.069-6.489-0.141l-16.902,7.577c-4.603,2.052-9.943,2.218-12.419,0.386
			c-1.948-1.441-2.193-4.558-1.976-7.231c1.486-3.601,2.696-6.804,3.87-9.912c1.295-3.428,2.517-6.665,4.099-10.443
			c0.981-2.342,0.722-5.02-0.688-7.13c-8.683-12.995-13.272-28.151-13.272-43.828c0-25.938,12.757-50.262,34.124-65.064
			c3.437-2.381,4.293-7.098,1.912-10.534c-2.381-3.438-7.099-4.292-10.535-1.912c-20.2,13.995-33.929,35.14-38.737,58.721H51.663
			c-15.694,0-28.461,12.779-28.461,28.486v257.004h-0.83C10.036,402.393,0,412.441,0,424.791v23.311
			c0,12.35,10.036,22.398,22.372,22.398h463.76c12.336,0,22.372-10.047,22.372-22.398v-23.311
			C508.504,412.441,498.468,402.393,486.132,402.393z M38.344,145.389c0-7.359,5.975-13.345,13.319-13.345h272.005
			c-0.047,1.213-0.079,2.428-0.079,3.648c0,7.68,0.929,15.255,2.738,22.591h-58.543c-4.181,0-7.571,3.389-7.571,7.571
			c0,4.181,3.39,7.571,7.571,7.571h63.685c1.664,3.796,3.579,7.493,5.748,11.065c-1.018,2.557-1.915,4.933-2.793,7.255
			c-1.296,3.429-2.519,6.67-4.103,10.451c-0.267,0.638-0.446,1.311-0.531,1.998c-1.609,13.052,4.258,19.521,7.899,22.214
			c3.799,2.811,8.754,4.235,14.071,4.235c4.415,0,9.08-0.983,13.536-2.969l13.72-6.15c12.183,5.532,25.209,8.334,38.778,8.334
			c6.323,0,12.501-0.631,18.479-1.824v140.421h-87.708c-4.972-35.716-30.704-56.174-57.502-65.084
			c12.323-9.88,19.561-23.772,19.561-38.041v-17.814c0.128-1.93,0.084-4.035,0.038-5.914c-0.019-0.778-0.038-1.513-0.038-2.191
			c-0.208-37.26-27.154-53.906-53.829-53.906c-0.059,0-0.12,0-0.179,0c-14.109,0.039-28.127,4.786-38.46,13.024
			c-11.821,9.425-18.331,22.877-18.331,37.88v10.938v17.983c0,14.775,7.789,28.599,19.68,38.113
			c-11.765,4-22.837,10.03-31.915,17.56c-15.446,12.81-24.471,29.098-26.407,47.452H73.867v-195.03h160.51
			c4.181,0,7.571-3.389,7.571-7.571c0-4.181-3.39-7.571-7.571-7.571H71.708c-7.159,0-12.984,5.837-12.984,13.011v199.347
			c0,7.143,5.825,12.955,12.984,12.955h366.723c7.16,0,12.984-5.811,12.984-12.955V223.653c6.64-2.544,12.922-5.816,18.745-9.722
			v188.462H315.063H193.47H38.344V145.389z M307.028,351.288c-4.181,0-7.571,3.389-7.571,7.571v9.596h-88.859v-9.596
			c0-4.181-3.39-7.571-7.571-7.571c-4.181,0-7.571,3.389-7.571,7.571v9.596h-19.03c4.526-33.645,38.849-50.748,63.371-54.451
			c4.923,1.435,10.086,2.242,15.369,2.279c0.099,0,0.195,0.001,0.294,0.001c5.074,0,10.224-0.778,15.243-2.251
			c26.244,3.871,56.563,20.286,62.535,54.423h-18.639v-9.596C314.599,354.677,311.209,351.288,307.028,351.288z M230.389,244.731
			c1.16-1.67,1.986-2.673,2.532-3.265c0.679,0.409,1.518,0.959,2.251,1.438c1.09,0.715,2.327,1.525,3.746,2.38
			c6.728,4.065,15.942,9.632,36.759,9.632h19.803v10.412c0,10.755-6.362,21.426-17.022,28.548c-3.212,2.149-6.668,3.848-10.22,5.065
			c-0.386,0.095-0.762,0.219-1.125,0.371c-3.844,1.198-7.785,1.828-11.644,1.828c-0.069,0-0.139,0-0.208-0.001
			c-4.074-0.029-8.075-0.695-11.883-1.875c-0.351-0.145-0.714-0.263-1.087-0.354c-15.386-5.22-27.326-18.923-27.326-33.582v-10.469
			C222.708,254.303,226.963,249.685,230.389,244.731z M214.968,239.452v-3.043c0-23.153,21.48-35.706,41.691-35.762
			c0.043,0,0.086,0,0.13,0c17.781,0,38.533,10.165,38.693,38.807c0,0.105,0,0.213,0.001,0.322h-19.804
			c-16.598,0-23.149-3.958-28.936-7.454c-1.182-0.713-2.243-1.409-3.27-2.08c-3.317-2.174-6.734-4.414-10.971-4.414
			c-0.504,0-1.02,0.031-1.547,0.099c-5.724,0.729-9.631,5.317-13.009,10.179C216.535,238.143,215.673,239.049,214.968,239.452z
			 M307.492,417.535v7.848c0,1.825-1.555,3.366-3.396,3.366h-99.687c-1.825,0-3.367-1.541-3.367-3.366v-7.848H307.492z
			 M493.362,448.102c0,4.002-3.243,7.256-7.229,7.256H22.372c-3.987,0-7.23-3.255-7.23-7.256v-23.311
			c0-4.002,3.243-7.256,7.23-7.256h163.527v7.848c0,10.205,8.303,18.507,18.509,18.507h99.687c10.222,0,18.538-8.303,18.538-18.507
			v-7.848h163.499c3.986,0,7.229,3.255,7.229,7.256V448.102z"/>
		<path d="M452.132,428.89h-0.197c-4.181,0-7.571,3.389-7.571,7.571s3.39,7.571,7.571,7.571h0.197c4.181,0,7.571-3.389,7.571-7.571
			S456.314,428.89,452.132,428.89z"/>
		<path d="M416.103,428.89h-0.226c-4.181,0-7.571,3.389-7.571,7.571s3.39,7.571,7.571,7.571h0.226c4.181,0,7.571-3.389,7.571-7.571
			S420.285,428.89,416.103,428.89z"/>
		<path d="M380.045,429.059h-0.197c-4.181,0-7.571,3.389-7.571,7.571s3.39,7.571,7.571,7.571h0.197c4.181,0,7.571-3.389,7.571-7.571
			S384.227,429.059,380.045,429.059z"/>
		<path d="M411.141,177.975c2.002,1.973,4.454,2.932,7.386,2.932c2.763,0,5.103-0.958,7.076-2.932
			c1.973-1.973,2.96-4.341,2.96-7.103c0-2.903-0.987-5.384-2.96-7.385c-1.973-2.001-4.313-3.016-7.076-3.016
			c-2.847,0-5.3,1.043-7.33,3.072c-2.058,2.058-3.073,4.482-3.073,7.329C408.125,173.634,409.111,176.002,411.141,177.975z"/>
		<path d="M418.415,144.516c2.509,0,4.624-0.874,6.371-2.621c1.72-1.719,2.594-3.862,2.594-6.371V91.691
			c0-2.621-0.874-4.792-2.594-6.568c-1.748-1.776-3.834-2.65-6.259-2.65c-2.594,0-4.793,0.874-6.569,2.65
			c-1.776,1.776-2.65,3.918-2.65,6.427v43.974c0,2.509,0.874,4.651,2.65,6.371C413.735,143.642,415.877,144.516,418.415,144.516z"/>
		<path d="M255.633,347.173h-0.169c-4.181,0-7.571,3.389-7.571,7.571s3.39,7.571,7.571,7.571h0.169c4.181,0,7.571-3.389,7.571-7.571
			S259.815,347.173,255.633,347.173z"/>
		<path d="M254.844,339.82h0.197c4.181,0,7.571-3.389,7.571-7.571s-3.39-7.571-7.571-7.571h-0.197c-4.181,0-7.571,3.389-7.571,7.571
			S250.663,339.82,254.844,339.82z"/>
	</g>
</g>
<g>
</g>
<g>
</g>
<g>
</g>
<g>
</g>
<g>
</g>
<g>
</g>
<g>
</g>
<g>
</g>
<g>
</g>
<g>
</g>
<g>
</g>
<g>
</g>
<g>
</g>
<g>
</g>
<g>
</g>
</svg>
