<?xml version="1.0" encoding="iso-8859-1"?>
<!-- Generator: Adobe Illustrator 23.0.3, SVG Export Plug-In . SVG Version: 6.00 Build 0)  -->
<svg version="1.1" id="Capa_1" xmlns="http://www.w3.org/2000/svg" xmlns:xlink="http://www.w3.org/1999/xlink" x="0px" y="0px"
	 viewBox="0 0 512 512" style="enable-background:new 0 0 512 512;" xml:space="preserve">
<g>
	<g>
		<path style="fill-rule:evenodd;clip-rule:evenodd;fill:#E69B56;" d="M414.53,267.644l86.914-44.427
			c0-12.661-6.274-23.288-15.87-30.248l-71.043-53.22l-43.629,63.933L414.53,267.644z"/>
	</g>
	<g>
		<path style="fill-rule:evenodd;clip-rule:evenodd;fill:#E69B56;" d="M90.595,264.121l62.364-55.655l-62.364-68.717l-57.35,46.947
			c-3.065,2.521-6.245,5.013-9.253,7.562c-8.222,6.989-13.435,17.387-13.435,28.959L90.595,264.121z"/>
	</g>
	<g>
		<path style="fill-rule:evenodd;clip-rule:evenodd;fill:#ECEFF1;" d="M349.073,7.557H107.869c-9.511,0-17.274,7.762-17.274,17.244
			v114.948v170.575l102.125,52.189l15.183,7.762c46.264,22.772,48.098,24.605,96.224,0l13.808-7.075l96.596-49.382V139.749v-1.719
			V85.755c0-4.067,0-7.476-0.172-10.426L349.073,7.557z"/>
	</g>
	<g>
		<path style="fill-rule:evenodd;clip-rule:evenodd;fill:#FED8B3;" d="M19.064,490.35l133.378-60.525l40.277-113.487L90.595,264.121
			l-80.039-40.904v243.216C10.556,475.484,13.736,483.82,19.064,490.35L19.064,490.35z"/>
	</g>
	<g>
		<path style="fill-rule:evenodd;clip-rule:evenodd;fill:#FED8B3;" d="M317.934,317.026l31.912,112.8l142.144,61.642
			c5.873-6.703,9.453-15.468,9.453-25.035V223.217l-86.914,44.427L317.934,317.026z"/>
	</g>
	<g>
		<path style="fill-rule:evenodd;clip-rule:evenodd;fill:#FCC172;" d="M192.72,316.338l-81.499,81.664L19.064,490.35
			c6.99,8.593,17.646,14.093,29.506,14.093h414.86c11.344,0,21.571-5.041,28.561-12.976L317.934,317.026l-13.808,7.075
			c-48.126,24.605-49.96,22.743-96.224,0L192.72,316.338z"/>
	</g>
	<g>
		<path style="fill-rule:evenodd;clip-rule:evenodd;fill:#C4CCCF;" d="M90.595,264.121l102.125,52.218l15.183,7.762
			c46.264,22.743,48.098,24.605,96.224,0l13.808-7.075l96.596-49.382v-40.875l-96.596,49.411l-13.808,7.046
			c-48.126,24.605-49.96,22.772-96.224,0l-15.183-7.734L90.595,223.274V264.121z"/>
	</g>
	<g>
		<path style="fill-rule:evenodd;clip-rule:evenodd;fill:#FCC172;" d="M462.743,243.01v184.61c0,9.567-3.581,18.332-9.482,25.035
			l38.73,38.813c5.873-6.703,9.453-15.468,9.453-25.035V223.217L462.743,243.01z"/>
	</g>
	<g>
		<path style="fill-rule:evenodd;clip-rule:evenodd;fill:#E69B56;" d="M491.991,491.467l-38.73-38.813
			c-5.615,6.416-13.349,10.942-22.087,12.431c-2.091,0.372-4.268,0.573-6.445,0.573H73.522H43.729L19.064,490.35
			c6.99,8.593,17.646,14.093,29.506,14.093h414.86C474.774,504.443,485.001,499.402,491.991,491.467L491.991,491.467z"/>
	</g>
	<g>
		<path style="fill-rule:evenodd;clip-rule:evenodd;fill:#FCC172;" d="M10.556,466.433c0,9.051,3.18,17.387,8.508,23.918
			l24.665-24.691H10.556V466.433z"/>
	</g>
	<g>
		<path style="fill-rule:evenodd;clip-rule:evenodd;fill:#90A4AE;" d="M349.016,58.027c0,9.51,7.763,17.301,17.274,17.301h48.069
			c-0.573-11.085-3.037-16.069-13.55-27.47l-22.43-24.376C366.977,11.08,365.946,7.557,349.073,7.557L349.016,58.027z"/>
	</g>
	<g>
		<path d="M490.055,186.884l-67.968-50.917V85.755c0-20.592-0.623-26.654-15.717-43.013l-22.428-24.374
			c-1.257-1.367-2.385-2.624-3.421-3.779C371.207,4.213,366.722,0.002,349.083,0c0,0-0.001,0-0.001,0c-0.003,0-0.006,0-0.009,0
			H107.869C94.177,0,83.037,11.125,83.037,24.801v111.368l-54.593,44.69c-1.153,0.948-2.323,1.892-3.493,2.837
			c-1.926,1.554-3.918,3.163-5.854,4.804C8.867,197.196,2.999,209.85,2.999,223.217v243.215C2.999,491.558,23.442,512,48.57,512
			h414.86c25.128,0,45.571-20.442,45.571-45.568V223.217C509.001,208.878,502.097,195.638,490.055,186.884z M481.042,199.018
			c0.031,0.023,0.063,0.046,0.094,0.069c6.928,5.024,11.22,11.902,12.405,19.683l-71.454,36.532v-100.45L481.042,199.018z
			 M369.272,24.685c1.073,1.196,2.242,2.497,3.545,3.915l22.437,24.384c5.996,6.498,8.92,10.271,10.35,14.788h-39.315
			c-5.357,0-9.717-4.371-9.717-9.735l0.048-42.593C361.609,16.149,363.544,18.304,369.272,24.685z M107.869,15.114h233.639
			l-0.048,42.914c0,13.707,11.139,24.858,24.83,24.858h40.682c0.002,0.912,0.002,1.863,0.002,2.869V263.03l-92.205,47.142
			c-0.187,0.086-0.372,0.18-0.553,0.283l-13.529,6.917c-43.812,22.401-43.813,22.401-86.792,1.254l-2.607-1.282l-15.03-7.683
			c-0.026-0.014-0.053-0.027-0.08-0.041l-98.026-50.111V139.777c0-0.002,0-0.003,0-0.005V24.801
			C98.152,19.459,102.511,15.114,107.869,15.114z M28.878,200.024c1.79-1.517,3.711-3.068,5.568-4.567
			c1.206-0.973,2.411-1.947,3.586-2.912l45.006-36.842v96.081l-64.586-33.016C19.526,211.524,23.19,204.858,28.878,200.024z
			 M48.57,496.886c-7.102,0-13.639-2.45-18.824-6.54l81.581-81.735c2.949-2.954,2.944-7.738-0.01-10.687
			c-2.953-2.95-7.738-2.945-10.688,0.01l-80.138,80.289c-1.53-3.629-2.377-7.613-2.377-11.791V235.568l161.928,82.778
			l-56.095,56.216c-2.949,2.954-2.943,7.739,0.011,10.687c1.475,1.472,3.406,2.207,5.338,2.207c1.937,0,3.874-0.74,5.349-2.219
			l59.535-59.664l10.282,5.256c0.035,0.019,0.071,0.036,0.106,0.053l2.653,1.305c22.582,11.111,35.021,17.231,48.811,17.233
			c0.002,0,0.004,0,0.007,0c13.669,0,26.811-5.955,51.528-18.591l8.914-4.558l57.892,58.047c1.476,1.48,3.413,2.22,5.351,2.22
			c1.93,0,3.861-0.735,5.337-2.206c2.955-2.948,2.961-7.733,0.015-10.688l-54.456-54.603l163.267-83.474v230.863
			c0,4.731-1.085,9.213-3.019,13.212l-82.619-82.797c-2.949-2.956-7.735-2.961-10.687-0.012c-2.954,2.948-2.96,7.733-0.012,10.687
			l83.527,83.707c-4.983,3.556-11.073,5.657-17.648,5.657H48.57z"/>
		<path d="M230.533,150.284h111.292c4.174,0,7.557-3.383,7.557-7.557s-3.383-7.557-7.557-7.557H230.533
			c-4.174,0-7.557,3.383-7.557,7.557S226.36,150.284,230.533,150.284z"/>
		<path d="M230.533,119.263h143.089c4.174,0,7.557-3.383,7.557-7.557s-3.383-7.557-7.557-7.557H230.533
			c-4.174,0-7.557,3.383-7.557,7.557S226.36,119.263,230.533,119.263z"/>
		<path d="M134.427,136.591l14.295,12.918c1.393,1.258,3.199,1.95,5.067,1.95c0.131,0,0.262-0.003,0.393-0.01
			c2.005-0.104,3.887-1.003,5.229-2.496l34.662-38.583c2.789-3.105,2.534-7.883-0.571-10.672c-3.104-2.787-7.882-2.533-10.672,0.571
			l-29.597,32.945l-8.671-7.836c-3.097-2.798-7.877-2.557-10.674,0.54C131.089,129.013,131.331,133.793,134.427,136.591z"/>
		<path d="M230.533,221.006h111.292c4.174,0,7.557-3.383,7.557-7.557c0-4.174-3.383-7.557-7.557-7.557H230.533
			c-4.174,0-7.557,3.383-7.557,7.557C222.976,217.623,226.36,221.006,230.533,221.006z"/>
		<path d="M230.533,189.985h143.089c4.174,0,7.557-3.383,7.557-7.557c0-4.174-3.383-7.557-7.557-7.557H230.533
			c-4.174,0-7.557,3.383-7.557,7.557C222.976,186.602,226.36,189.985,230.533,189.985z"/>
		<path d="M134.434,207.347l14.295,12.89c1.392,1.255,3.196,1.944,5.06,1.944c0.132,0,0.265-0.003,0.397-0.01
			c2.004-0.105,3.884-1.004,5.225-2.496l34.662-38.583c2.789-3.105,2.534-7.883-0.571-10.672c-3.104-2.787-7.882-2.533-10.672,0.571
			l-29.603,32.95l-8.672-7.82c-3.099-2.793-7.879-2.547-10.673,0.552C131.087,199.773,131.334,204.552,134.434,207.347z"/>
	</g>
</g>
<g>
</g>
<g>
</g>
<g>
</g>
<g>
</g>
<g>
</g>
<g>
</g>
<g>
</g>
<g>
</g>
<g>
</g>
<g>
</g>
<g>
</g>
<g>
</g>
<g>
</g>
<g>
</g>
<g>
</g>
</svg>
