<?xml version="1.0" encoding="iso-8859-1"?>
<!-- Generator: Adobe Illustrator 23.0.3, SVG Export Plug-In . SVG Version: 6.00 Build 0)  -->
<svg version="1.1" id="Capa_1" xmlns="http://www.w3.org/2000/svg" xmlns:xlink="http://www.w3.org/1999/xlink" x="0px" y="0px"
	 viewBox="0 0 512 512" style="enable-background:new 0 0 512 512;" xml:space="preserve">
<g>
	<g>
		<path style="fill-rule:evenodd;clip-rule:evenodd;fill:#C4CCCF;" d="M393.152,7.557c-101.659,0-203.289,0-304.947,0
			c-11.916,0-21.648,9.692-21.648,21.538v380.719c0,11.846,9.732,21.538,21.648,21.538h22.187L414.8,79.484V29.095
			C414.8,17.249,405.068,7.557,393.152,7.557L393.152,7.557z"/>
	</g>
	<g>
		<path style="fill-rule:evenodd;clip-rule:evenodd;fill:#ECEFF1;" d="M366.482,46.184H131.217
			c-11.462,0-20.825,9.352-20.825,20.802v364.367v3.429c0,11.421,9.363,20.802,20.825,20.802h151.339h142.061
			c11.434,0,20.825-9.381,20.825-20.802v-90.178v-141.19v-62.971c0-2.607,0-4.988-0.028-7.198L366.482,46.184z"/>
	</g>
	<g>
		<path style="fill-rule:evenodd;clip-rule:evenodd;fill:#90A4AE;" d="M366.482,46.184l-0.057,66.259
			c0,11.449,9.391,20.802,20.854,20.802H414.8h30.614c-0.284-17.344-2.27-23.012-16.513-38.486L414.8,79.484l-12.966-14.085
			C388.073,50.464,386.825,46.184,366.482,46.184L366.482,46.184z"/>
	</g>
	<g>
		<path style="fill-rule:evenodd;clip-rule:evenodd;fill:#C4CCCF;" d="M414.857,434.782c0,11.393-9.363,20.745-20.769,20.802h0.028
			h30.5c11.434,0,20.825-9.381,20.825-20.802v-90.178v-141.19v-62.971c0-2.607,0-4.988-0.028-7.198h-12.853H414.8
			C416.332,233.54,414.857,334.373,414.857,434.782L414.857,434.782z"/>
	</g>
	<g>
		<path style="fill-rule:evenodd;clip-rule:evenodd;fill:#F55A8E;" d="M250.069,504.442c-5.362,0-9.76-4.053-9.76-9.012v-66.797
			h-13.136c-31.266-1.53-31.947-26.215-19.038-42.793l12.768-16.409l31.834-40.866c14.442-17.542,37.764-17.542,50.333,0
			l31.834,40.866l12.796,16.409c12.909,16.579,12.2,41.263-19.066,42.793h-13.136v66.797c0,4.96-4.369,9.012-9.732,9.012H250.069z"
			/>
	</g>
	<g>
		<path style="fill-rule:evenodd;clip-rule:evenodd;fill:#BA4583;" d="M325.71,400.377l-12.768-16.409l-11.321-14.538
			l-20.513-26.328c-7.519-10.457-18.839-14.68-29.819-12.668l1.447-1.87c14.442-17.542,37.764-17.542,50.333,0l31.834,40.866
			l12.796,16.409c12.37,15.87,12.257,39.166-15.236,42.482C335.442,419.733,332.406,408.964,325.71,400.377L325.71,400.377z"/>
	</g>
	<g>
		<path d="M238.976,222.412h-66.534c-4.174,0-7.556,3.383-7.556,7.557c0,4.174,3.383,7.557,7.556,7.557h66.534
			c4.174,0,7.556-3.383,7.556-7.557C246.532,225.795,243.15,222.412,238.976,222.412z"/>
		<path d="M361.97,222.412h-88.323c-4.173,0-7.556,3.383-7.556,7.557c0,4.174,3.383,7.557,7.556,7.557h88.323
			c4.174,0,7.556-3.383,7.556-7.557C369.527,225.795,366.144,222.412,361.97,222.412z"/>
		<path d="M361.97,174.517H172.442c-4.174,0-7.556,3.383-7.556,7.557c0,4.174,3.383,7.557,7.556,7.557H361.97
			c4.174,0,7.556-3.383,7.556-7.557C369.527,177.9,366.144,174.517,361.97,174.517z"/>
		<path d="M172.442,141.765h120.583c4.174,0,7.556-3.383,7.556-7.557s-3.383-7.557-7.556-7.557H172.442
			c-4.174,0-7.556,3.383-7.556,7.557S168.269,141.765,172.442,141.765z"/>
		<path d="M452.958,133.491c0.003-0.083,0.012-0.164,0.012-0.247c0-0.169-0.014-0.335-0.025-0.501
			c-0.339-18.408-2.72-25.989-18.489-43.106L422.356,76.51V29.095C422.356,13.052,409.255,0,393.151,0H88.204
			C72.101,0,59,13.052,59,29.095v380.719c0,16.044,13.101,29.096,29.204,29.096h14.936c2.009,13.685,13.836,24.231,28.077,24.231
			h101.54v32.293c0,9.128,7.768,16.566,17.315,16.566h55.693c9.537,0,17.285-7.438,17.285-16.566v-32.293h101.569
			c15.646,0,28.382-12.727,28.382-28.363V140.446C453,137.956,452.991,135.653,452.958,133.491z M409.539,84.902l13.81,14.974
			c10.428,11.325,13.374,15.978,14.207,25.812h-50.277c-7.332,0-13.298-5.942-13.298-13.238l0.05-58.457
			c7.977,0.716,10.327,3.322,17.937,11.781c1.31,1.45,2.729,3.029,4.309,4.749l12.666,13.734
			C409.129,84.483,409.329,84.698,409.539,84.902z M315.491,421.071c-4.169,0-7.548,3.389-7.548,7.558v19.396v15.116v32.293
			c0,0.67-0.95,1.449-2.179,1.449h-55.693c-1.35,0-2.209-0.86-2.209-1.449v-32.293v-15.116v-19.396c0-4.169-3.379-7.558-7.548-7.558
			h-12.946c-6.788-0.35-15.426-2.159-18.435-8.718c-2.629-5.739-0.56-14.527,5.159-21.875l44.536-57.187
			c5.638-6.808,13.166-10.578,20.694-10.318c6.898,0.23,13.156,3.779,17.605,9.988c0.06,0.09,0.12,0.17,0.18,0.25l44.626,57.267
			c5.718,7.338,7.788,16.126,5.158,21.865c-3.009,6.558-11.656,8.378-18.454,8.728H315.491z M437.885,434.778
			c0,7.308-5.948,13.247-13.266,13.247H323.049v-11.837h5.588c0.12,0,0.24,0,0.36-0.01c20.994-1.02,28.821-11.427,31.63-17.536
			c5.079-11.057,2.409-25.414-6.968-37.451l-44.547-57.157c-7.138-9.888-17.805-15.776-29.281-16.166
			c-12.296-0.41-24.283,5.379-32.93,15.896c-0.04,0.05-0.09,0.1-0.13,0.16L202.175,381.2c-9.377,12.037-12.056,26.394-6.978,37.461
			c2.799,6.099,10.627,16.496,31.611,17.516c0.12,0.01,0.24,0.01,0.37,0.01h5.578v11.837h-101.54
			c-7.318,0-13.266-5.939-13.266-13.247V319.834c0-4.169-3.389-7.558-7.558-7.558c-4.179,0-7.558,3.389-7.558,7.558v103.962H88.204
			c-7.77,0-14.092-6.273-14.092-13.982V29.095c0-7.709,6.321-13.981,14.092-13.981h304.947c7.77,0,14.092,6.272,14.092,13.981
			v31.017c-1.478-1.597-2.811-3.083-4.029-4.446c-11.378-12.648-16.359-17.029-36.685-17.036c-0.014,0-0.028-0.002-0.042-0.002
			c-0.003,0-0.005,0-0.007,0c-0.012,0-0.024,0.002-0.036,0.002H131.217c-15.645,0-28.381,12.717-28.381,28.353v218.249
			c0,4.169,3.379,7.558,7.558,7.558c4.169,0,7.558-3.389,7.558-7.558V66.983c0-7.298,5.948-13.237,13.266-13.237h227.702
			l-0.05,58.697c0,15.637,12.744,28.359,28.41,28.359h50.605V434.778z"/>
	</g>
</g>
<g>
</g>
<g>
</g>
<g>
</g>
<g>
</g>
<g>
</g>
<g>
</g>
<g>
</g>
<g>
</g>
<g>
</g>
<g>
</g>
<g>
</g>
<g>
</g>
<g>
</g>
<g>
</g>
<g>
</g>
</svg>
