<?xml version="1.0" encoding="iso-8859-1"?>
<!-- Generator: Adobe Illustrator 23.0.3, SVG Export Plug-In . SVG Version: 6.00 Build 0)  -->
<svg version="1.1" id="Capa_1" xmlns="http://www.w3.org/2000/svg" xmlns:xlink="http://www.w3.org/1999/xlink" x="0px" y="0px"
	 viewBox="0 0 512 512" style="enable-background:new 0 0 512 512;" xml:space="preserve">
<g>
	<g>
		<path style="fill-rule:evenodd;clip-rule:evenodd;fill:#8EBFE8;" d="M265.508,483.95h196.185c27.572,0,42.75-19.905,42.75-40.833
			V180.204c0-16.526-13.53-30.042-30.073-30.042h-7.902H45.532H37.63c-16.543,0-30.073,13.516-30.073,30.042v262.913
			c0,20.927,15.179,40.833,42.75,40.833H265.508z"/>
	</g>
	<g>
		<path style="fill-rule:evenodd;clip-rule:evenodd;fill:#ECEFF1;" d="M256.014,425.938h210.454V150.162v-7.44
			c0-15.05-6.054-16.668-23.933-21.722c-20.238-5.764-41.67-8.575-79.19-9.598c-55.911,1.562-91.043,9.058-107.33,18.485V425.938z"
			/>
	</g>
	<g>
		<path style="fill-rule:evenodd;clip-rule:evenodd;fill:#ECEFF1;" d="M256.014,425.938l29.362-163.018l-29.362-133.032
			c-16.316-9.427-51.448-16.924-107.359-18.485c-37.52,1.022-58.952,3.833-79.19,9.598c-17.879,5.054-23.933,6.673-23.933,21.722
			v7.44v275.776H256.014z"/>
	</g>
	<g>
		<path style="fill-rule:evenodd;clip-rule:evenodd;fill:#90A4AE;" d="M61.108,446.042h194.906L267.64,434.4l-11.626-8.462
			c-33.171-19.195-144.367-30.326-210.482,0v4.146C45.532,438.858,52.524,446.042,61.108,446.042L61.108,446.042z"/>
	</g>
	<g>
		<path style="fill-rule:evenodd;clip-rule:evenodd;fill:#90A4AE;" d="M466.468,425.938c-66.115-30.326-177.283-19.195-210.454,0
			v20.104H450.92c8.556,0,15.548-7.184,15.548-15.958V425.938z"/>
	</g>
	<g>
		<path style="fill-rule:evenodd;clip-rule:evenodd;fill:#F55A8E;" d="M168.155,28.573c46.985-5.14,89.253,28.736,94.397,75.674
			c5.173,46.938-28.765,89.161-75.751,94.329c-13.644,1.477-26.918-0.312-38.97-4.77l-15.776,9.229
			c-10.46,6.105-26.378,5.736-26.15-12.664c2.388-8.007,3.581-13.885,5.941-21.893c-10.489-12.494-17.538-28.14-19.442-45.575
			C87.23,75.937,121.169,33.713,168.155,28.573L168.155,28.573z"/>
	</g>
	<g>
		<path style="fill-rule:evenodd;clip-rule:evenodd;fill:#BA4583;" d="M238.647,53.732c12.962,13.232,21.745,30.695,23.905,50.515
			c3.809,34.642-13.672,66.729-41.983,83.227c-16.088-22.915-22.455-52.446-14.98-81.722
			C211.018,84.541,222.928,66.68,238.647,53.732L238.647,53.732z"/>
	</g>
	<g>
		<path style="fill-rule:evenodd;clip-rule:evenodd;fill:#8BC34A;" d="M348.138,36.325c-53.21-13.601-107.387,18.485-121.003,71.67
			c-13.587,53.156,18.533,107.278,71.743,120.879c15.463,3.947,31.011,4.032,45.621,0.852l16.657,13.204
			c11.029,8.746,29.419,10.932,32.148-10.308c-1.421-9.598-1.848-16.554-3.269-26.152c14.127-12.664,24.786-29.503,29.846-49.266
			C433.496,104.02,401.376,49.898,348.138,36.325L348.138,36.325z"/>
	</g>
	<g>
		<path style="fill-rule:evenodd;clip-rule:evenodd;fill:#689F38;" d="M335.148,33.883c46.73,17.69,73.676,68.007,61.027,117.5
			c-4.32,16.924-12.336,31.235-23.535,43.104c-5.628,5.963-6.538,3.862-5.543,11.869c0.881,6.928,1.364,12.863,2.501,20.445
			c-1.109,8.547-4.747,13.317-9.408,15.362l0.966,0.767c11.029,8.746,29.419,10.932,32.148-10.308
			c-1.421-9.598-1.848-16.554-3.269-26.152c14.127-12.664,24.786-29.503,29.846-49.266c13.615-53.184-18.504-107.306-71.743-120.879
			C343.817,35.218,339.468,34.423,335.148,33.883L335.148,33.883z"/>
	</g>
	<g>
		<path style="fill-rule:evenodd;clip-rule:evenodd;fill:#519AD6;" d="M466.468,150.162v275.776v4.146
			c0,8.774-6.992,15.958-15.548,15.958h-23.194v37.908h33.967c27.572,0,42.75-19.905,42.75-40.833V180.204
			c0-16.526-13.53-30.042-30.073-30.042H466.468z"/>
	</g>
	<g>
		<path style="fill-rule:evenodd;clip-rule:evenodd;fill:#7C8C94;" d="M466.468,425.938c-11.711-5.395-24.871-9.456-38.742-12.437
			v12.437v20.104h23.194c8.556,0,15.548-7.184,15.548-15.958V425.938z"/>
	</g>
	<g>
		<path style="fill-rule:evenodd;clip-rule:evenodd;fill:#C4CCCF;" d="M466.468,425.938V150.162v-7.44
			c0-15.05-6.054-16.668-23.933-21.722c-1.535-0.454-3.07-0.88-4.633-1.278c-3.326-0.852-6.68-1.647-10.176-2.357v2.357v30.44
			v146.094v55.456v61.788C441.597,416.482,454.757,420.543,466.468,425.938L466.468,425.938z"/>
	</g>
	<g>
		<path d="M84.308,303.815c1.056,0,2.129-0.223,3.153-0.693c39.494-18.16,105.961-10.888,124.173-0.328
			c3.61,2.095,8.234,0.864,10.329-2.746c2.094-3.611,0.864-8.235-2.746-10.329c-11.858-6.875-35.382-11.708-61.393-12.611
			c-17.35-0.598-50.384,0.192-76.677,12.283c-3.792,1.744-5.453,6.231-3.708,10.023C78.711,302.183,81.447,303.815,84.308,303.815z"
			/>
		<path d="M84.308,359.271c1.056,0,2.129-0.223,3.153-0.693c39.494-18.16,105.961-10.887,124.173-0.328
			c3.61,2.094,8.234,0.864,10.329-2.746c2.094-3.611,0.864-8.235-2.746-10.329c-11.858-6.875-35.382-11.708-61.393-12.611
			c-17.35-0.6-50.384,0.192-76.677,12.283c-3.792,1.744-5.453,6.231-3.708,10.023C78.711,357.639,81.447,359.271,84.308,359.271z"/>
		<path d="M430.881,289.39c-26.307-12.089-59.343-12.883-76.699-12.282c-26.014,0.903-49.539,5.736-61.397,12.611
			c-3.611,2.093-4.841,6.718-2.746,10.329c2.094,3.611,6.718,4.842,10.329,2.746c18.208-10.559,84.687-17.83,124.203,0.329
			c1.022,0.471,2.095,0.692,3.151,0.692c2.862,0,5.599-1.633,6.871-4.403C436.335,295.62,434.673,291.132,430.881,289.39z"/>
		<path d="M430.881,344.846c-26.307-12.089-59.343-12.881-76.699-12.282c-26.014,0.903-49.539,5.736-61.397,12.611
			c-3.611,2.093-4.841,6.718-2.746,10.329c2.094,3.611,6.718,4.841,10.329,2.746c18.208-10.559,84.687-17.83,124.203,0.329
			c1.022,0.471,2.095,0.692,3.151,0.692c2.862,0,5.599-1.633,6.871-4.403C436.335,351.076,434.673,346.588,430.881,344.846z"/>
		<path d="M171.878,145.079c-2.814,0-5.173,1.079-7.049,3.152c-1.961,2.13-2.842,4.714-2.842,7.61c0,2.982,0.768,5.849,2.956,7.951
			c1.933,1.874,4.235,2.896,6.936,2.896c2.672,0,4.917-1.051,6.822-2.925c2.132-2.13,2.928-4.969,2.928-7.922
			c0-2.868-0.853-5.452-2.786-7.61C176.995,146.187,174.664,145.079,171.878,145.079z"/>
		<path d="M151.469,101.436c4.917,0,7.078-3.436,7.675-8.121c0.995-3.379,3.383-7.326,5.685-10.109
			c2.103-2.499,5.315-3.18,8.442-3.18s5.827,0.965,8.016,3.209c2.132,2.186,3.098,4.856,3.098,7.894c0,1.533-0.313,3.01-0.995,4.401
			c-0.711,1.391-1.563,2.669-2.615,3.833c-1.649,1.846-3.496,3.635-5.258,5.395c-2.331,2.3-4.69,4.685-6.765,7.212
			c-1.791,2.186-3.155,4.657-4.15,7.298c-1.194,3.095-1.563,6.503-1.563,9.796c0,2.612,0.512,5.338,2.331,7.298
			c1.592,1.675,3.581,2.556,5.884,2.556c4.86,0,7.248-3.152,7.987-7.667c0.284-1.448,0.597-2.896,0.938-4.344
			c0.199-0.767,0.483-1.562,0.824-2.3c0.398-0.909,1.023-1.789,1.62-2.556c0.91-1.193,1.961-2.328,3.041-3.379
			c3.297-3.322,6.651-6.701,9.806-10.166c2.018-2.187,3.638-4.714,4.917-7.383c1.507-3.18,2.103-6.644,2.103-10.137
			c0-4.799-1.222-9.314-3.638-13.459c-2.501-4.231-5.969-7.468-10.29-9.825c-4.747-2.556-9.949-3.578-15.292-3.578
			c-5.798,0-11.341,1.221-16.316,4.288c-4.434,2.698-8.101,6.275-10.631,10.819c-2.246,4.004-3.667,8.377-3.667,13.005
			c0,2.385,0.938,4.458,2.501,6.247C146.808,100.414,148.911,101.436,151.469,101.436z"/>
		<path d="M276.561,159.59c0.754,0.77,1.376,1.438,1.897,1.998c1.861,1.996,4.331,4.643,8.078,4.643c0.48,0,0.983-0.043,1.507-0.138
			c4.6-0.826,6.192-4.642,7.353-7.428c0.309-0.74,0.682-1.637,1.156-2.686l22.007-48.548h61.84c4.174,0,7.557-3.383,7.557-7.557
			c0-4.174-3.383-7.557-7.557-7.557h-66.712c-2.966,0-5.659,1.735-6.883,4.436l-22.347,49.3l-14.918-15.211
			c-2.921-2.979-7.707-3.026-10.687-0.104c-2.98,2.922-3.027,7.706-0.104,10.687L276.561,159.59z"/>
		<path d="M358.456,145.903l7.959-8.689c1.421-1.619,2.359-3.549,2.359-5.736s-0.768-4.146-2.388-5.622
			c-1.535-1.59-3.468-2.357-5.685-2.357c-2.53,0-4.633,1.107-6.225,3.067l-6.111,7.638l-5.969-7.61
			c-1.592-1.988-3.695-3.095-6.225-3.095c-1.108,0-2.189,0.199-3.212,0.625c-0.909,0.398-1.762,0.937-2.501,1.59l-0.028,0.028
			l-0.029,0.057c-1.563,1.533-2.302,3.493-2.302,5.679c0,2.215,0.91,4.146,2.388,5.764l7.93,8.661l-10.318,11.301
			c-1.336,1.391-1.847,3.209-1.847,5.14c0,2.243,0.796,4.203,2.359,5.764c1.592,1.59,3.553,2.385,5.77,2.385
			c2.672,0,4.86-1.619,6.509-3.606l7.476-9.342l7.618,9.342c1.649,1.988,3.837,3.606,6.509,3.606c2.217,0,4.207-0.795,5.77-2.385
			c1.564-1.562,2.388-3.521,2.388-5.764c0-1.931-0.625-3.691-1.933-5.14L358.456,145.903z"/>
		<path d="M474.37,142.606h-0.347c-0.045-20.568-11.61-23.84-29.104-28.784l-0.307-0.087c-5.367-1.535-10.804-2.844-16.483-3.974
			c-2.421-11.027-6.622-21.715-12.552-31.707c-14.582-24.568-37.869-41.987-65.57-49.049c-36.882-9.426-74.274,1.634-100.097,26.01
			c-19.875-24.57-50.721-37.454-82.579-33.953c-24.734,2.706-46.933,14.873-62.505,34.26
			c-12.606,15.693-19.645,34.596-20.431,54.333c-5.852,1.141-11.463,2.486-16.988,4.075l-0.329,0.094
			c-17.493,4.944-29.059,8.217-29.104,28.784H37.63C16.881,142.606,0,159.472,0,180.205v262.912
			c0,24.046,17.28,48.389,50.307,48.389h71.886c4.174,0,7.557-3.383,7.557-7.557s-3.383-7.557-7.557-7.557H50.307
			c-24.18,0-35.193-17.249-35.193-33.276V180.205c0-12.399,10.101-22.485,22.516-22.485h0.345v272.364
			c0,12.967,10.378,23.515,23.133,23.515h187.35v22.794h-90.536c-4.174,0-7.557,3.383-7.557,7.557s3.383,7.557,7.557,7.557h98.093
			h205.678c33.027,0,50.307-24.343,50.307-48.389V180.205C512,159.472,495.119,142.606,474.37,142.606z M346.265,43.647
			c0.002,0.001,0.003,0.001,0.005,0.002c23.792,6.065,43.79,21.024,56.31,42.118c5.834,9.83,9.691,20.447,11.561,31.385
			c0.018,0.147,0.047,0.29,0.073,0.434c2.057,12.398,1.555,25.2-1.656,37.743c-4.52,17.661-14.053,33.399-27.569,45.513
			c-1.889,1.695-2.803,4.225-2.431,6.735c0.691,4.668,1.134,8.626,1.601,12.815c0.427,3.822,0.866,7.766,1.507,12.235
			c-0.749,4.607-2.421,7.468-4.977,8.508c-3.69,1.5-9.93-0.235-14.84-4.129l-16.656-13.204c-1.347-1.068-3.005-1.634-4.694-1.634
			c-0.536,0-1.075,0.057-1.608,0.173c-13.986,3.044-28.165,2.779-42.142-0.789c-14.843-3.794-28.208-11.051-39.204-21.1
			c-0.231-0.248-0.472-0.486-0.734-0.701c-6.309-5.896-11.827-12.711-16.356-20.341c-12.519-21.095-16.07-45.792-9.999-69.541
			C247.016,60.805,297.174,31.104,346.265,43.647z M116.611,64.786c13.046-16.24,31.643-26.433,52.37-28.7
			c27.449-3.022,53.995,8.474,70.58,30.203c-9.053,11.406-15.908,24.843-19.746,39.835c-5.952,23.284-3.964,47.347,5.508,69.032
			c-11.357,8.83-24.847,14.307-39.334,15.907c-12.211,1.318-24.168-0.142-35.535-4.346c-2.124-0.784-4.484-0.578-6.437,0.565
			l-15.77,9.224c-4.278,2.497-9.476,3.235-12.088,1.712c-2.034-1.184-2.608-4.169-2.688-6.785c1.103-3.777,1.962-7.121,2.795-10.365
			c0.882-3.431,1.713-6.671,2.829-10.459c0.716-2.429,0.167-5.055-1.462-6.994c-9.912-11.807-16.038-26.17-17.718-41.543
			C97.635,101.373,103.564,81.027,116.611,64.786z M53.088,142.723c0-6.796,1.449-7.939,2.314-8.62
			c2.52-1.986,8.086-3.56,15.789-5.737l0.363-0.103c4.406-1.268,8.881-2.351,13.492-3.307c2.028,16.533,8.368,32.06,18.462,45.206
			c-0.692,2.517-1.294,4.858-1.882,7.148c-0.918,3.572-1.784,6.947-2.963,10.902c-0.2,0.671-0.306,1.366-0.314,2.065
			c-0.161,13.012,6.323,18.745,10.202,21.004c3.247,1.891,7.129,2.824,11.241,2.824c5.27,0,10.917-1.534,16.08-4.547l12.772-7.471
			c12.44,4.04,25.837,5.426,38.987,4.002c16.39-1.811,31.701-7.783,44.798-17.373c4.578,7.423,9.961,14.17,16.029,20.15v205.265
			c-20.226-7.742-51.765-13.163-85.069-14.316c-25.129-0.872-71.002,0.105-110.3,14.822V142.723z M263.572,430.526
			c33.589-15.827,132.776-25.751,195.302,0.347c-0.38,4.264-3.8,7.613-7.953,7.613H263.572V430.526z M53.127,430.873
			c62.534-26.103,161.739-16.178,195.331-0.347v7.959H61.108C56.94,438.485,53.508,435.136,53.127,430.873z M496.886,443.117
			c0,16.027-11.013,33.276-35.193,33.276H263.572v-22.794H450.92c12.74,0,23.105-10.548,23.105-23.515V306.251
			c0-4.174-3.383-7.557-7.557-7.557c-4.174,0-7.557,3.383-7.557,7.557v108.386c-39.298-14.718-85.166-15.695-110.285-14.822
			c-33.297,1.153-64.831,6.574-85.055,14.316V221.243c10.063,6.785,21.328,11.859,33.437,14.954
			c15.095,3.853,30.397,4.397,45.54,1.626l13.911,11.029c6.496,5.151,14.15,7.913,21.181,7.913c3.084,0,6.05-0.532,8.744-1.628
			c4.589-1.867,12.565-7.148,14.415-21.552c0.089-0.687,0.082-1.383-0.02-2.069c-0.69-4.662-1.132-8.614-1.598-12.8
			c-0.334-2.993-0.677-6.061-1.117-9.398c14.171-13.709,24.211-30.997,29.138-50.239c2.833-11.069,3.868-22.312,3.164-33.392
			c3.43,0.778,6.785,1.634,10.112,2.586l0.33,0.094c7.703,2.177,13.269,3.751,15.789,5.737c0.865,0.681,2.314,1.824,2.314,8.62
			v127.864c0,4.174,3.383,7.557,7.557,7.557c4.174,0,7.557-3.383,7.557-7.557V157.72h0.345c12.415,0,22.516,10.087,22.516,22.485
			V443.117z"/>
	</g>
</g>
<g>
</g>
<g>
</g>
<g>
</g>
<g>
</g>
<g>
</g>
<g>
</g>
<g>
</g>
<g>
</g>
<g>
</g>
<g>
</g>
<g>
</g>
<g>
</g>
<g>
</g>
<g>
</g>
<g>
</g>
</svg>
