<?xml version="1.0" encoding="iso-8859-1"?>
<!-- Generator: Adobe Illustrator 23.0.3, SVG Export Plug-In . SVG Version: 6.00 Build 0)  -->
<svg version="1.1" id="Capa_1" xmlns="http://www.w3.org/2000/svg" xmlns:xlink="http://www.w3.org/1999/xlink" x="0px" y="0px"
	 viewBox="0 0 512 512" style="enable-background:new 0 0 512 512;" xml:space="preserve">
<g>
	<g>
		<path style="fill-rule:evenodd;clip-rule:evenodd;fill:#546E7A;" d="M259.614,324.37l-99.792,24.089
			c-60.651,25.931-82.811,84.17-87.17,123.138c-0.623,17.174,4.953,32.846,36.028,32.846h40.387h110.972h108.708h42.623
			c31.075,0,36.679-15.672,36.028-32.846c-4.358-39.024-26.321-97.235-87.142-123.024L259.614,324.37z"/>
	</g>
	<g>
		<path style="fill-rule:evenodd;clip-rule:evenodd;fill:#35505C;" d="M360.255,348.573c0.679,8.814-0.566,17.372-3.368,25.421
			c46.472,28.793,64.217,78.53,68.094,113.19c0.226,5.838-0.283,11.478-2.264,16.409c21.142-3.457,25.245-17.174,24.679-31.996
			C443.038,432.573,421.076,374.362,360.255,348.573L360.255,348.573z"/>
	</g>
	<g>
		<path style="fill-rule:evenodd;clip-rule:evenodd;fill:#ECEFF1;" d="M261.255,385.046l28.443,42.538
			c39.255-6.462,73.557-40.215,70.557-79.012c-10.274-4.364-21.623-7.794-34.217-10.061c-0.736,0.538-1.5,1.049-2.264,1.559
			c-10.642,7.113-22.415,12.555-34.726,15.927L261.255,385.046z"/>
	</g>
	<g>
		<path style="fill-rule:evenodd;clip-rule:evenodd;fill:#ECEFF1;" d="M230.378,427.585l30.877-42.538l-29.208-29.077
			c-13.472-3.656-26.321-9.749-37.698-17.713c-12.679,2.296-24.17,5.781-34.528,10.202
			C156.764,387.314,191.095,421.123,230.378,427.585L230.378,427.585z"/>
	</g>
	<g>
		<path style="fill-rule:evenodd;clip-rule:evenodd;fill:#C4CCCF;" d="M232.048,355.97c-12.679-3.457-24.792-9.04-35.66-16.324
			c-0.679-0.453-1.358-0.907-2.038-1.389c-9.311,1.7-17.972,4.024-26.009,6.887c0.226,0.368,0.453,0.737,0.708,1.105
			c12,17.571,42.311,35.368,76.698,38.798L232.048,355.97z"/>
	</g>
	<g>
		<path style="fill-rule:evenodd;clip-rule:evenodd;fill:#C4CCCF;" d="M323.774,340.071c-10.642,7.113-22.415,12.555-34.726,15.927
			l-14.745,29.049c20.66-1.757,41.406-11.421,55.698-19.073c4.189-2.267,4.868-2.267,9.425-1.134
			c6.849,2.891,11.575,5.498,17.462,9.154c2.802-8.049,4.047-16.607,3.368-25.421c-2.151-0.935-4.359-1.785-6.594-2.636
			c-8.491-3.117-17.66-5.64-27.623-7.425C325.302,339.051,324.538,339.561,323.774,340.071L323.774,340.071z"/>
	</g>
	<g>
		<path style="fill-rule:evenodd;clip-rule:evenodd;fill:#8EBFE8;" d="M274.302,385.046l-13.047-7.68l-15.509,7.68l-15.368,42.538
			c20.83,3.457,38.547,2.947,59.321,0L274.302,385.046z"/>
	</g>
	<g>
		<path style="fill-rule:evenodd;clip-rule:evenodd;fill:#519AD6;" d="M242.802,358.322c-3.623-0.595-7.217-1.389-10.755-2.352
			l13.698,29.077h28.557l14.745-29.049c-9.425,2.579-19.132,3.939-28.84,3.883C254.378,359.852,248.548,359.314,242.802,358.322
			L242.802,358.322z"/>
	</g>
	<g>
		<path style="fill-rule:evenodd;clip-rule:evenodd;fill:#FFD54F;" d="M412.812,188.65c-7.33,0-13.33,5.98-13.33,13.32v20.943
			c0,7.312,6,13.32,13.33,13.32c7.302,0,13.302-6.008,13.302-13.32V201.97C426.114,194.63,420.114,188.65,412.812,188.65
			L412.812,188.65z"/>
	</g>
	<g>
		<path style="fill-rule:evenodd;clip-rule:evenodd;fill:#7C8C94;" d="M263.604,93.767c-5.632,0-11.292,1.275-21.623,3.854
			l-125.83,29.417c-6.934,1.615-9.708,6.377-9.368,11.053c-0.34,4.676,2.434,9.437,9.368,11.053l125.83,29.417
			c10.33,2.579,15.991,3.854,21.623,3.854c5.66,0,11.321-1.275,21.651-3.854l125.83-29.417c6.934-1.615,9.708-6.376,9.368-11.053
			c0.34-4.676-2.434-9.437-9.368-11.053l-125.83-29.417C274.925,95.043,269.264,93.767,263.604,93.767L263.604,93.767z"/>
	</g>
	<g>
		<path style="fill-rule:evenodd;clip-rule:evenodd;fill:#546E7A;" d="M308.378,103.006c18.17,11.619,29.406,27.547,29.406,45.117
			c0,1.672-0.113,3.344-0.311,4.988c-0.594,4.931-2.094,9.721-4.359,14.255l29.179-6.802l48.792-11.421
			c0.594-0.142,1.16-0.312,1.726-0.482c5.66-1.955,7.953-6.291,7.642-10.571c0.34-4.676-2.434-9.437-9.368-11.053L308.378,103.006z"
			/>
	</g>
	<g>
		<path style="fill-rule:evenodd;clip-rule:evenodd;fill:#546E7A;" d="M149.463,220.958c67.5-0.085,137.83-0.028,221.462-0.028
			v-3.316v-0.028v-59.061l-8.632,2.041l-29.179,6.802l-47.858,11.194c-10.33,2.579-15.991,3.854-21.651,3.854
			c-5.632,0-11.292-1.275-21.623-3.854l-92.519-21.623v60.676V220.958z"/>
	</g>
	<g>
		<path style="fill-rule:evenodd;clip-rule:evenodd;fill:#FED8B3;" d="M370.925,220.929c-83.632,0-153.962-0.057-221.462,0.028
			v38.344c0,55.065,55.075,100.21,110.745,100.579c22.387,0.142,44.802-7.255,63.566-19.81
			c27.538-18.393,47.151-47.866,47.151-80.769V220.929z"/>
	</g>
	<g>
		<path style="fill-rule:evenodd;clip-rule:evenodd;fill:#FCC172;" d="M335.151,220.929v38.372
			c0,32.903-19.642,62.376-47.179,80.769c-13.613,9.097-29.123,15.474-45.17,18.251c5.745,0.992,11.575,1.53,17.406,1.559
			c22.387,0.142,44.802-7.255,63.566-19.81c27.538-18.393,47.151-47.866,47.151-80.769v-38.372
			C358.727,220.929,346.812,220.929,335.151,220.929L335.151,220.929z"/>
	</g>
	<g>
		<path style="fill-rule:evenodd;clip-rule:evenodd;fill:#37474F;" d="M370.925,178.504v-19.98l-8.632,2.041l-29.179,6.802
			l-47.858,11.194c-10.33,2.579-15.991,3.854-21.651,3.854c-5.632,0-11.292-1.275-21.623-3.854l-92.519-21.623v18.251l96.17,22.502
			c10.358,2.579,15.991,3.854,21.651,3.854c5.66,0,11.321-1.275,21.651-3.854l33.566-7.85c14.632-3.429,12.651,13.121,12.651,27.745
			v3.344h35.774C370.925,206.787,370.925,192.646,370.925,178.504L370.925,178.504z"/>
	</g>
	<g>
		<path style="fill-rule:evenodd;clip-rule:evenodd;fill:#E69B56;" d="M406.132,190.435c3.991,2.324,6.679,6.632,6.679,11.534
			v20.943c0,4.903-2.689,9.21-6.651,11.534c1.953,1.134,4.217,1.785,6.651,1.785c7.302,0,13.302-6.008,13.302-13.32V201.97
			c0-7.34-6-13.32-13.302-13.32C410.378,188.65,408.114,189.302,406.132,190.435L406.132,190.435z"/>
	</g>
	<g>
		<path style="fill-rule:evenodd;clip-rule:evenodd;fill:#FCD968;" d="M116.038,197.889l22.217,13.178l22.217-13.178h1.698
			c0-38.514,37.217-43.502,37.16-84.907c-0.028-39.478-30.538-58.891-61.076-58.466c-30.538-0.425-61.047,18.988-61.104,58.466
			c-0.028,41.405,37.189,46.393,37.189,84.907H116.038z"/>
	</g>
	<g>
		<path style="fill-rule:evenodd;clip-rule:evenodd;fill:#C4CCCF;" d="M138.255,197.889h-22.217c-9.594,0-17.462,7.85-17.462,17.486
			c0,9.607,7.868,17.457,17.462,17.457h44.434c9.594,0,17.462-7.85,17.462-17.457c0-9.636-7.868-17.486-17.462-17.486H138.255z"/>
	</g>
	<g>
		<path style="fill-rule:evenodd;clip-rule:evenodd;fill:#E69B56;" d="M176.264,112.982c0.057,41.405-37.16,46.393-37.16,84.907
			h21.368h1.698c0-38.514,37.217-43.502,37.16-84.907c-0.028-39.478-30.538-58.891-61.076-58.466
			c-3.877-0.057-7.726,0.227-11.547,0.794C152.944,59.334,176.236,78.492,176.264,112.982L176.264,112.982z"/>
	</g>
	<g>
		<path style="fill-rule:evenodd;clip-rule:evenodd;fill:#90A4AE;" d="M177.934,215.375c0-9.636-7.868-17.486-17.462-17.486h-21.368
			h-0.849h-0.849c5.179,0,9.877,2.296,13.075,5.923c2.717,3.089,4.387,7.142,4.387,11.563c0,9.607-7.868,17.457-17.462,17.457
			h23.066C170.066,232.832,177.934,224.982,177.934,215.375L177.934,215.375z"/>
	</g>
	<g>
		<path d="M200.841,266.956c1.407,1.156,3.107,1.72,4.795,1.72c2.181,0,4.345-0.94,5.839-2.758c0.528-0.598,3.323-1.942,8.192-2.043
			c5.366-0.093,9.273,1.379,10.322,2.472c2.888,3.012,7.672,3.111,10.684,0.224c3.012-2.889,3.112-7.673,0.224-10.686
			c-4.606-4.804-12.931-7.436-22.265-7.1c-4.873,0.186-13.8,1.414-18.829,7.532C197.154,259.54,197.617,264.305,200.841,266.956z"/>
		<path d="M283.525,266.942c1.409,1.165,3.115,1.733,4.811,1.733c2.175,0,4.333-0.935,5.827-2.743
			c0.528-0.601,3.329-1.955,8.216-2.058c5.379-0.097,9.258,1.371,10.297,2.459c2.882,3.019,7.665,3.13,10.684,0.248
			c3.019-2.882,3.13-7.665,0.248-10.685c-4.571-4.788-12.862-7.446-22.154-7.116c-8.334,0.298-15.236,3.039-18.939,7.52
			C279.856,259.519,280.308,264.283,283.525,266.942z"/>
		<path d="M454.948,471.311c-0.007-0.185-0.021-0.369-0.042-0.553c-1.705-15.268-6.509-38.592-19.712-63.007
			c-1.985-3.671-6.57-5.04-10.242-3.053c-3.671,1.986-5.038,6.572-3.052,10.243c9.355,17.299,15.726,37.606,17.954,57.215
			c0.287,8.527-1.26,14.248-4.858,17.985c-4.308,4.476-12.258,6.745-23.628,6.745h-35.065v-36.484c0-4.174-3.383-7.557-7.557-7.557
			s-7.557,3.383-7.557,7.557v36.484H156.623v-35.038c0-4.174-3.383-7.557-7.557-7.557c-4.174,0-7.557,3.383-7.557,7.557v35.038
			h-32.83c-11.357,0-19.299-2.265-23.605-6.73c-3.6-3.733-5.153-9.458-4.881-18.003c1.786-15.516,12.722-80.146,72.269-111.798
			c1.666,16.136,8.962,31.754,21.223,44.957c14.352,15.453,34.561,26.287,55.45,29.727c0.002,0,0.003,0.001,0.005,0.001
			s0.003,0,0.005,0.001c0.002,0,0.004,0.001,0.006,0.001c0.001,0,0.002,0,0.003,0c10.006,1.66,19.625,2.489,29.655,2.489
			c9.981,0,20.371-0.821,31.951-2.464c0.036-0.005,0.07-0.015,0.106-0.021c0.019-0.003,0.039-0.002,0.058-0.005
			c20.895-3.437,41.111-14.273,55.466-29.73c12.235-13.173,19.524-28.752,21.211-44.85c14.465,7.64,27.11,17.735,37.786,30.276
			c1.495,1.756,3.62,2.66,5.758,2.66c1.732,0,3.473-0.593,4.895-1.803c3.178-2.705,3.561-7.475,0.856-10.653
			c-14.463-16.991-32.075-29.981-52.604-38.86c-0.708-0.449-1.489-0.788-2.323-0.983c-6.085-2.513-12.42-4.672-19.001-6.473
			c22.5-20.501,35.514-47.619,35.514-75.324v-41.689v-0.028v-53.058l26.773-6.259v24.261c-7.788,3.035-13.33,10.595-13.33,19.44
			v20.943c0,11.512,9.37,20.877,20.887,20.877c11.502,0,20.859-9.365,20.859-20.877v-20.943c0-8.841-5.529-16.398-13.302-19.436
			v-29.307c5.514-3.819,7.869-9.738,7.652-15.134c0.297-7.42-4.238-15.854-15.215-18.412L287.03,90.275
			c-11.071-2.763-16.999-4.064-23.426-4.064c-6.4,0-12.325,1.301-23.395,4.064l-34.72,8.107c-2.48-12.635-8.245-23.645-17.057-32.33
			c-12.562-12.38-30.863-19.348-50.176-19.092c-19.281-0.235-37.607,6.709-50.173,19.085
			c-12.068,11.885-18.461,28.112-18.488,46.934c-0.016,23.807,11.059,37.18,20.831,48.979c7.702,9.3,14.479,17.49,16.025,30.29
			c-9.051,3.773-15.431,12.717-15.431,23.128c0,13.794,11.224,25.015,25.019,25.015h25.867v18.913
			c0,27.688,12.596,54.271,35.507,75.076c-33.532,9.175-60.641,27.573-80.729,54.849c-22.984,31.208-29.627,64.474-31.542,81.527
			c-0.021,0.189-0.036,0.38-0.042,0.569c-0.468,12.9,2.508,22.493,9.096,29.325C81.562,508.287,92.842,512,108.679,512h302.689
			c15.856,0,27.146-3.721,34.516-11.374C452.471,493.783,455.436,484.195,454.948,471.311z M240.65,421.393l10.401-28.789h17.95
			l10.371,28.654C265.246,422.776,253.145,422.821,240.65,421.393z M245.298,366.35c4.949,0.682,9.915,1.055,14.862,1.087
			c0.224,0.002,0.445,0.002,0.669,0.002c4.788,0,9.611-0.343,14.433-0.98l-5.599,11.03h-19.122L245.298,366.35z M352.862,353.77
			c-0.328,29.429-25.101,57.063-58.275,65.114l-12.065-33.334l11.793-23.233c11.629-3.535,22.931-8.839,33.332-15.753
			C336.504,348.319,344.917,350.719,352.862,353.77z M418.557,201.969v20.943c0,3.124-2.631,5.763-5.745,5.763
			c-3.129,0-5.773-2.639-5.773-5.763v-20.943c0-3.177,2.59-5.762,5.773-5.762C415.98,196.207,418.557,198.792,418.557,201.969z
			 M206.88,113.578l36.82-8.597c0.037-0.009,0.075-0.018,0.112-0.027c9.882-2.466,15.056-3.629,19.793-3.629
			c4.763,0,9.94,1.163,19.821,3.629c0.037,0.009,0.073,0.018,0.11,0.026l125.835,29.418c3.711,0.865,3.587,2.581,3.546,3.146
			c-0.026,0.365-0.026,0.731,0,1.095c0.031,0.422,0.107,1.487-1.41,2.36c-0.85,0.148-1.651,0.434-2.378,0.841l-39.644,9.268
			c-0.126,0.024-0.248,0.056-0.371,0.087l-85.579,20.007c-0.037,0.009-0.074,0.018-0.11,0.026c-9.88,2.467-15.057,3.63-19.82,3.63
			c-4.738,0-9.911-1.163-19.792-3.63c-0.037-0.009-0.075-0.019-0.112-0.027l-54.714-12.776
			C197.833,147.532,206.74,134.683,206.88,113.578z M84.708,112.993c0.021-14.684,4.855-27.194,13.978-36.179
			c9.73-9.582,24.14-14.993,39.463-14.74c0.07,0,0.141,0,0.211,0c15.378-0.234,29.738,5.159,39.463,14.744
			c9.116,8.984,13.94,21.491,13.951,36.175c0.025,18.357-8.022,28.077-17.339,39.331c-1.65,1.993-3.338,4.039-5.001,6.168
			c-0.03,0.039-0.061,0.077-0.09,0.117c-6.517,8.364-12.604,18.099-14.278,31.723h-9.254v-48.538h10.698
			c4.174,0,7.557-3.383,7.557-7.557c0-4.174-3.383-7.557-7.557-7.557h-37.245c-4.174,0-7.557,3.383-7.557,7.557
			c0,4.174,3.383,7.557,7.557,7.557h11.434v48.538h-9.254c-2.109-17.164-11.221-28.166-19.379-38.016
			C92.745,141.061,84.696,131.342,84.708,112.993z M106.133,215.375c0-5.475,4.444-9.929,9.905-9.929h44.434
			c5.462,0,9.905,4.454,9.905,9.929c0,5.46-4.444,9.901-9.905,9.901h-44.434C110.576,225.276,106.133,220.834,106.133,215.375z
			 M157.019,259.302v-18.913h3.453c8.99,0,16.884-4.767,21.296-11.904h66.271c4.174,0,7.557-3.383,7.557-7.557
			s-3.383-7.557-7.557-7.557h-62.634c-0.759-9.543-6.879-17.595-15.341-21.124c1.008-8.341,4.235-14.728,8.495-20.736l61.648,14.395
			c11.072,2.764,16.997,4.065,23.399,4.065c6.428,0,12.357-1.301,23.427-4.065l76.337-17.846v45.312h-81.792
			c-4.174,0-7.557,3.383-7.557,7.557s3.383,7.557,7.557,7.557h81.792v30.816c0,28.326-16.37,56.17-43.796,74.488
			c-17.882,11.964-38.719,18.536-58.737,18.536c-0.192,0-0.385-0.001-0.577-0.002c-8.666-0.057-17.206-1.251-25.44-3.406
			c-0.548-0.216-1.118-0.371-1.703-0.455C190.799,336.644,157.019,299.343,157.019,259.302z M192.737,346.3
			c10.535,6.98,22.034,12.373,33.936,15.966l10.901,23.162l-12.087,33.456c-33.227-8.064-58.022-35.772-58.272-65.253
			C175.007,350.616,183.497,348.133,192.737,346.3z"/>
		<path d="M138.284,33.818c4.174,0,7.557-3.383,7.557-7.557V7.557c0-4.174-3.383-7.557-7.557-7.557
			c-4.174,0-7.557,3.383-7.557,7.557v18.705C130.727,30.435,134.11,33.818,138.284,33.818z"/>
		<path d="M77.774,50.483c1.932,0,3.865-0.736,5.34-2.209c2.953-2.95,2.957-7.735,0.007-10.688L69.904,24.35
			c-2.949-2.953-7.734-2.956-10.687-0.007s-2.957,7.735-0.007,10.688l13.217,13.235C73.903,49.744,75.838,50.483,77.774,50.483z"/>
		<path d="M198.793,50.483c1.935,0,3.871-0.739,5.347-2.216l13.217-13.235c2.949-2.953,2.946-7.738-0.007-10.688
			c-2.953-2.95-7.737-2.946-10.687,0.007l-13.217,13.235c-2.949,2.953-2.946,7.738,0.007,10.688
			C194.928,49.746,196.86,50.483,198.793,50.483z"/>
	</g>
</g>
<g>
</g>
<g>
</g>
<g>
</g>
<g>
</g>
<g>
</g>
<g>
</g>
<g>
</g>
<g>
</g>
<g>
</g>
<g>
</g>
<g>
</g>
<g>
</g>
<g>
</g>
<g>
</g>
<g>
</g>
</svg>
