<?xml version="1.0" encoding="iso-8859-1"?>
<!-- Generator: Adobe Illustrator 23.0.3, SVG Export Plug-In . SVG Version: 6.00 Build 0)  -->
<svg version="1.1" id="Capa_1" xmlns="http://www.w3.org/2000/svg" xmlns:xlink="http://www.w3.org/1999/xlink" x="0px" y="0px"
	 viewBox="0 0 512 512" style="enable-background:new 0 0 512 512;" xml:space="preserve">
<g>
	<g>
		<path style="fill-rule:evenodd;clip-rule:evenodd;fill:#C4CCCF;" d="M460.006,85.556H260.69H51.966
			c-11.563,0-21.057,9.465-21.057,21.056v266.47l225.076,26.667l225.076-26.667v-266.47
			C481.062,95.021,471.597,85.556,460.006,85.556L460.006,85.556z"/>
	</g>
	<g>
		<path style="fill-rule:evenodd;clip-rule:evenodd;fill:#ECEFF1;" d="M194.771,373.082h-10.486H30.91h-8.445
			c-8.19,0-14.907,6.716-14.907,14.935v23.493c0,8.218,6.717,14.935,14.907,14.935h467.043c8.219,0,14.935-6.716,14.935-14.935
			v-23.493c0-8.218-6.717-14.935-14.935-14.935h-8.445H327.714h-10.486v15.53c0,6.065-4.988,11.024-11.053,11.024h-100.38
			c-6.065,0-11.024-4.959-11.024-11.024V373.082z"/>
	</g>
	<g>
		<path style="fill-rule:evenodd;clip-rule:evenodd;fill:#90A4AE;" d="M194.771,373.082v15.53c0,6.065,4.96,11.024,11.024,11.024
			h100.38c6.065,0,11.053-4.959,11.053-11.024v-15.53H194.771z"/>
	</g>
	<g>
		<path style="fill-rule:evenodd;clip-rule:evenodd;fill:#C4CCCF;" d="M446.119,128.943v200.781c0,3.004-2.466,5.413-5.47,5.413
			h-28.51v37.946h68.923v-266.47c0-11.591-9.466-21.056-21.057-21.056h-47.866v37.917h28.51
			C443.653,123.473,446.119,125.939,446.119,128.943L446.119,128.943z"/>
	</g>
	<g>
		<path style="fill-rule:evenodd;clip-rule:evenodd;fill:#C4CCCF;" d="M459.212,375.689c3.939,2.692,6.547,7.226,6.547,12.327
			v23.493c0,8.218-6.717,14.935-14.935,14.935h38.684c8.219,0,14.935-6.716,14.935-14.935v-23.493
			c0-8.218-6.717-14.935-14.935-14.935h-8.445h-30.154C453.969,373.11,456.831,374.045,459.212,375.689L459.212,375.689z"/>
	</g>
	<g>
		<path style="fill-rule:evenodd;clip-rule:evenodd;fill:#90A4AE;" d="M412.139,373.082h38.769h30.154v-266.47
			c0-11.591-9.466-21.056-21.057-21.056h-47.866C412.139,148.015,412.139,310.623,412.139,373.082L412.139,373.082z"/>
	</g>
	<g>
		<path style="fill-rule:evenodd;clip-rule:evenodd;fill:#8EBFE8;" d="M446.119,329.723V128.943c0-3.004-2.466-5.469-5.47-5.469
			H251.48H71.322c-3.004,0-5.441,2.465-5.441,5.469v200.781c0,3.004,2.437,5.413,5.441,5.413h369.327
			C443.653,335.136,446.119,332.727,446.119,329.723L446.119,329.723z"/>
	</g>
	<g>
		<path style="fill-rule:evenodd;clip-rule:evenodd;fill:#519AD6;" d="M412.139,123.473v211.663h28.51
			c3.004,0,5.47-2.409,5.47-5.413V128.943c0-3.004-2.466-5.469-5.47-5.469H412.139z"/>
	</g>
	<g>
		<path style="fill-rule:evenodd;clip-rule:evenodd;fill:#ECEFF1;" d="M142.144,223.198c9.437,11.846,27.773,31.173,51.409,17.938
			c10.939-6.121,25.619-18.364,35.935-14.765l-29.53-41.545l-15.275-9.012l-15.275,9.012L142.144,223.198z"/>
	</g>
	<g>
		<path style="fill-rule:evenodd;clip-rule:evenodd;fill:#ECEFF1;" d="M169.407,184.827h30.551h1.899
			c7.085,0,12.895-5.781,12.895-12.866c0-7.085-5.81-12.894-12.895-12.894h-34.348c-7.085,0-12.895,5.809-12.895,12.894
			c0,7.085,5.81,12.866,12.895,12.866H169.407z"/>
	</g>
	<g>
		<path style="fill-rule:evenodd;clip-rule:evenodd;fill:#F55A8E;" d="M126.359,245.387c-19.243,22.104,1.7,52.058,24.854,52.058
			h33.47h33.498c23.125,0,44.069-29.954,24.826-52.058l-13.518-19.015c-10.316-3.599-23.579-5.809-34.49,0.312
			c-23.636,13.234-43.417,8.36-52.854-3.486L126.359,245.387z"/>
	</g>
	<g>
		<path style="fill-rule:evenodd;clip-rule:evenodd;fill:#C4CCCF;" d="M197.577,171.961c0,4.336-2.182,8.19-5.498,10.542
			c-2.097,1.474-4.648,2.324-7.397,2.324h15.275h1.899c7.085,0,12.895-5.781,12.895-12.866c0-7.085-5.81-12.894-12.895-12.894
			h-17.174C191.767,159.067,197.577,164.876,197.577,171.961L197.577,171.961z"/>
	</g>
	<g>
		<path style="fill-rule:evenodd;clip-rule:evenodd;fill:#C4CCCF;" d="M193.156,205.996l12.271,17.23
			c8.247-1.19,16.891,0.652,24.061,3.146l-29.53-41.545h-15.275h-15.275l-6.121,8.643h13.773
			C186.298,193.47,187.658,198.26,193.156,205.996L193.156,205.996z"/>
	</g>
	<g>
		<path style="fill-rule:evenodd;clip-rule:evenodd;fill:#BA4583;" d="M210.443,230.821l35.028,50.556
			c6.66-10.457,7.708-24.315-2.466-35.99l-13.518-19.015c-7.17-2.494-15.814-4.336-24.061-3.146c-0.085,0-0.142,0.028-0.227,0.028
			L210.443,230.821z"/>
	</g>
	<g>
		<path d="M489.508,365.525h-0.888V106.612C488.62,90.835,475.783,78,460.006,78H51.966c-15.778,0-28.614,12.835-28.614,28.612
			v258.914h-0.888C10.077,365.525,0,375.615,0,388.016v23.493C0,423.911,10.077,434,22.464,434h467.044
			C501.91,434,512,423.911,512,411.509v-23.493C512,375.615,501.91,365.525,489.508,365.525z M38.467,106.612
			c0-7.444,6.056-13.499,13.499-13.499h408.04c7.444,0,13.499,6.056,13.499,13.499v258.914H317.229H194.771H38.467V106.612z
			 M202.329,380.638h107.342v7.974c0,1.879-1.601,3.468-3.495,3.468h-100.38c-1.879,0-3.467-1.588-3.467-3.468V380.638z
			 M496.885,411.509c0,4.068-3.31,7.378-7.378,7.378H22.464c-4.052,0-7.349-3.31-7.349-7.378v-23.493
			c0-4.068,3.297-7.378,7.349-7.378h164.75v7.974c0,10.245,8.336,18.58,18.582,18.58h100.38c10.262,0,18.61-8.335,18.61-18.58
			v-7.974h164.722c4.068,0,7.378,3.31,7.378,7.378V411.509z"/>
		<path d="M455.301,392.192h-0.227c-4.174,0-7.557,3.383-7.557,7.556s3.383,7.556,7.557,7.556h0.227
			c4.174,0,7.557-3.383,7.557-7.556S459.475,392.192,455.301,392.192z"/>
		<path d="M418.998,392.192h-0.227c-4.174,0-7.557,3.383-7.557,7.556s3.384,7.556,7.557,7.556h0.227
			c4.174,0,7.557-3.383,7.557-7.556S423.171,392.192,418.998,392.192z"/>
		<path d="M382.694,392.391h-0.227c-4.174,0-7.557,3.383-7.557,7.556s3.383,7.556,7.557,7.556h0.227
			c4.174,0,7.557-3.383,7.557-7.556S386.868,392.391,382.694,392.391z"/>
		<path d="M405.186,162.467c0-4.173-3.384-7.556-7.557-7.556h-69.574c-2.969,0-5.663,1.738-6.886,4.443l-23.477,51.913
			l-15.903-16.228c-2.921-2.979-7.706-3.029-10.687-0.108c-2.981,2.921-3.03,7.705-0.108,10.687l23.635,24.117
			c1.434,1.462,3.385,2.268,5.397,2.268c0.438,0,0.879-0.039,1.319-0.116c2.456-0.435,4.54-2.054,5.568-4.328l26.019-57.535h64.697
			C401.803,170.023,405.186,166.641,405.186,162.467z"/>
		<path d="M335.232,227.017c0,1.789,0.623,3.308,1.871,4.555c1.247,1.247,2.765,1.87,4.555,1.87c1.79,0,3.525-1.003,5.206-3.01
			l9.435-11.794l9.597,11.794c1.68,2.007,3.416,3.01,5.206,3.01c1.789,0,3.307-0.624,4.555-1.87
			c1.247-1.247,1.871-2.766,1.871-4.555c0-1.572-0.488-2.899-1.464-3.985l-12.038-13.257l9.598-10.492
			c1.301-1.464,1.952-3.01,1.952-4.636c0-1.789-0.624-3.253-1.871-4.392c-1.193-1.247-2.684-1.871-4.473-1.871
			c-1.952,0-3.579,0.814-4.88,2.442l-8.052,10.085l-7.89-10.085c-1.301-1.627-2.928-2.442-4.88-2.442
			c-0.923,0-1.763,0.163-2.521,0.488c-0.76,0.326-1.438,0.76-2.034,1.301c-1.193,1.195-1.789,2.685-1.789,4.474
			c0,1.681,0.651,3.226,1.952,4.636l9.598,10.492l-12.119,13.257C335.692,224.009,335.232,225.337,335.232,227.017z"/>
		<path d="M382.835,289.889h-75.498c-4.174,0-7.557,3.383-7.557,7.556s3.383,7.556,7.557,7.556h75.498
			c4.174,0,7.557-3.383,7.557-7.556S387.009,289.889,382.835,289.889z"/>
		<path d="M382.835,259.482h-75.498c-4.174,0-7.557,3.383-7.557,7.556s3.383,7.556,7.557,7.556h75.498
			c4.174,0,7.557-3.383,7.557-7.556S387.009,259.482,382.835,259.482z"/>
		<path d="M222.309,171.961c0-11.277-9.175-20.45-20.452-20.45h-34.348c-11.277,0-20.452,9.174-20.452,20.45
			c0,7.378,3.952,13.835,9.839,17.424l-36.492,51.337c-9.685,11.337-11.803,26.122-5.654,39.626
			c6.715,14.747,21.369,24.654,36.463,24.654h66.967c15.08,0,29.722-9.905,36.435-24.647c6.15-13.507,4.032-28.293-5.654-39.632
			l-36.492-51.337C218.357,185.796,222.309,179.339,222.309,171.961z M196.058,192.383l16.316,22.954
			c-7.871-0.246-14.984,1.34-21.068,4.753c-17.86,10-31.433,7.935-39.258,2.202l21.26-29.908H196.058z M167.508,166.623h34.348
			c2.893,0,5.338,2.445,5.338,5.338c0,2.928-2.394,5.31-5.338,5.31h-34.348c-2.943,0-5.337-2.382-5.337-5.31
			C162.171,169.068,164.615,166.623,167.508,166.623z M240.859,274.092c-4.235,9.302-13.561,15.798-22.679,15.798h-66.967
			c-9.133,0-18.47-6.499-22.708-15.804c-2.194-4.819-4.651-14.312,3.554-23.736c0.163-0.186,0.316-0.382,0.459-0.584l10.79-15.18
			c6.439,4.616,14.835,7.522,24.58,7.522c9.242,0,19.689-2.609,30.807-8.833c7.984-4.48,18.21-2.937,26.076-0.496l12.075,16.987
			c0.144,0.202,0.297,0.397,0.459,0.584C245.512,259.775,243.055,269.271,240.859,274.092z"/>
		<path d="M453.676,329.724V128.943c0-7.183-5.844-13.026-13.027-13.026H276.986c-4.174,0-7.557,3.383-7.557,7.556
			s3.384,7.556,7.557,7.556h161.576V327.58H73.439V131.029h166.053c4.174,0,7.557-3.383,7.557-7.556s-3.383-7.556-7.557-7.556
			H71.322c-7.167,0-12.998,5.843-12.998,13.026v200.781c0,7.151,5.831,12.968,12.998,12.968h369.327
			C447.832,342.692,453.676,336.875,453.676,329.724z"/>
	</g>
</g>
<g>
</g>
<g>
</g>
<g>
</g>
<g>
</g>
<g>
</g>
<g>
</g>
<g>
</g>
<g>
</g>
<g>
</g>
<g>
</g>
<g>
</g>
<g>
</g>
<g>
</g>
<g>
</g>
<g>
</g>
</svg>
