<?xml version="1.0" encoding="iso-8859-1"?>
<!-- Generator: Adobe Illustrator 23.0.3, SVG Export Plug-In . SVG Version: 6.00 Build 0)  -->
<svg version="1.1" id="Capa_1" xmlns="http://www.w3.org/2000/svg" xmlns:xlink="http://www.w3.org/1999/xlink" x="0px" y="0px"
	 viewBox="0 0 512 512" style="enable-background:new 0 0 512 512;" xml:space="preserve">
<g>
	<g>
		<path style="fill-rule:evenodd;clip-rule:evenodd;fill:#E6E6E6;" d="M23.555,80.25l244.532,25.843L488.445,80.25V27.68
			c0-11.081-9.073-20.121-20.158-20.121H43.685c-11.057,0-20.13,9.069-20.13,20.121V80.25z"/>
	</g>
	<g>
		<path style="fill-rule:evenodd;clip-rule:evenodd;fill:#8EBFE8;" d="M342.63,80.25H23.555v404.042
			c0,11.081,9.073,20.15,20.13,20.15h65.494h202.605h156.504c11.086,0,20.158-9.069,20.158-20.15V80.25H342.63z"/>
	</g>
	<g>
		<path style="fill-rule:evenodd;clip-rule:evenodd;fill:#C4CCCF;" d="M446.257,80.25h33.767h8.421V27.68
			c0-6.717-3.346-12.696-8.421-16.352c-3.317-2.381-7.372-3.769-11.738-3.769h-42.188c11.086,0,20.158,9.04,20.158,20.121V80.25z"/>
	</g>
	<g>
		<path style="fill-rule:evenodd;clip-rule:evenodd;fill:#519AD6;" d="M480.025,80.25h-33.767v404.042
			c0,11.081-9.073,20.15-20.158,20.15h42.188c4.366,0,8.421-1.417,11.738-3.798c5.075-3.656,8.421-9.636,8.421-16.352V80.25H480.025
			z"/>
	</g>
	<g>
		<path style="fill-rule:evenodd;clip-rule:evenodd;fill:#ECEFF1;" d="M193.016,425.657l-22.256-25.024l4.536-4.053
			c10.349-10.231,2.353-19.696-7.627-21.935l-34.59-7.708c-13.751-3.684-18.344,2.749-17.607,14.085l3.742,36.644
			c1.049,10.202,9.526,19.243,20.896,10.202l4.536-4.053l22.285,25.024c1.644,1.87,4.508,2.04,6.379,0.397l19.336-17.174
			C194.49,430.39,194.66,427.527,193.016,425.657L193.016,425.657z"/>
	</g>
	<g>
		<path style="fill-rule:evenodd;clip-rule:evenodd;fill:#C4CCCF;" d="M173.396,404.94c0,13.546-5.897,25.676-15.282,34.008
			l8.818,9.891c1.644,1.87,4.508,2.04,6.379,0.397l19.336-17.174c1.843-1.672,2.013-4.534,0.369-6.405l-19.62-22.077
			C173.396,404.033,173.396,404.487,173.396,404.94L173.396,404.94z"/>
	</g>
	<g>
		<path d="M426.666,49.208h0.198c4.174,0,7.557-3.383,7.557-7.557s-3.383-7.557-7.557-7.557h-0.198
			c-4.174,0-7.557,3.383-7.557,7.557S422.492,49.208,426.666,49.208z"/>
		<path d="M390.404,49.208h0.227c4.174,0,7.557-3.383,7.557-7.557s-3.383-7.557-7.557-7.557h-0.227
			c-4.174,0-7.557,3.383-7.557,7.557S386.23,49.208,390.404,49.208z"/>
		<path d="M354.169,49.378h0.198c4.174,0,7.557-3.383,7.557-7.557s-3.383-7.557-7.557-7.557h-0.198
			c-4.174,0-7.557,3.383-7.557,7.557S349.995,49.378,354.169,49.378z"/>
		<path d="M468.29,0H43.68C28.413,0,15.996,12.417,15.996,27.684v456.613C15.996,499.573,28.413,512,43.68,512h424.61
			c15.276,0,27.713-12.427,27.713-27.704V27.684C496.004,12.417,483.567,0,468.29,0z M468.29,496.883H43.68
			c-6.928,0-12.567-5.649-12.567-12.587V87.809h212.88c4.179,0,7.558-3.389,7.558-7.558c0-4.179-3.379-7.558-7.558-7.558H31.113
			V27.684c0-6.928,5.639-12.567,12.567-12.567h424.61c6.948,0,12.597,5.639,12.597,12.567v45.009H276.085
			c-4.169,0-7.558,3.379-7.558,7.558c0,4.169,3.389,7.558,7.558,7.558h204.802v396.487
			C480.887,491.235,475.239,496.883,468.29,496.883z"/>
		<path d="M281.717,41.821c0-4.174-3.383-7.557-7.557-7.557H89.247c-4.174,0-7.557,3.383-7.557,7.557s3.383,7.557,7.557,7.557
			H274.16C278.334,49.378,281.717,45.995,281.717,41.821z"/>
		<path d="M416.346,174.689H211.275c-4.174,0-7.557,3.383-7.557,7.557s3.383,7.557,7.557,7.557h205.072
			c4.174,0,7.557-3.383,7.557-7.557S420.52,174.689,416.346,174.689z"/>
		<path d="M416.346,142.041H211.275c-4.174,0-7.557,3.383-7.557,7.557s3.383,7.557,7.557,7.557h205.072
			c4.174,0,7.557-3.383,7.557-7.557S420.52,142.041,416.346,142.041z"/>
		<path d="M90.949,203.152h48.989c8.138,0,14.767-6.638,14.767-14.787v-44.279l9.822-10.916c2.792-3.103,2.539-7.881-0.563-10.672
			c-3.104-2.791-7.882-2.54-10.673,0.563l-6.6,7.335c-2.028-1.058-4.326-1.647-6.753-1.647H90.949
			c-8.138,0-14.756,6.618-14.756,14.757v44.859C76.192,196.514,82.811,203.152,90.949,203.152z M91.309,143.866h43.262
			l-15.991,17.772l-7.819-7.074c-3.095-2.799-7.874-2.561-10.674,0.534c-2.8,3.095-2.561,7.874,0.534,10.674l13.439,12.157
			c1.393,1.26,3.201,1.953,5.07,1.953c0.129,0,0.259-0.003,0.389-0.01c2.005-0.103,3.887-1,5.23-2.493l14.84-16.493v27.148H91.309
			V143.866z"/>
		<path d="M416.346,274.671H211.275c-4.174,0-7.557,3.383-7.557,7.557s3.383,7.557,7.557,7.557h205.072
			c4.174,0,7.557-3.383,7.557-7.557S420.52,274.671,416.346,274.671z"/>
		<path d="M416.346,242.024H211.275c-4.174,0-7.557,3.383-7.557,7.557s3.383,7.557,7.557,7.557h205.072
			c4.174,0,7.557-3.383,7.557-7.557S420.52,242.024,416.346,242.024z"/>
		<path d="M90.949,303.109h48.989c8.138,0,14.767-6.618,14.767-14.757v-44.859c0-0.219-0.01-0.449-0.02-0.668l9.844-10.948
			c2.79-3.103,2.537-7.881-0.567-10.672c-3.102-2.79-7.881-2.537-10.673,0.567l-7.379,8.206c-0.001,0-0.002-0.001-0.004-0.002
			c-1.83-0.82-3.849-1.27-5.969-1.27H90.949c-8.138,0-14.756,6.628-14.756,14.787v44.859
			C76.192,296.491,82.811,303.109,90.949,303.109z M91.309,243.823h42.151l-14.882,16.55l-7.818-7.073
			c-3.095-2.799-7.873-2.561-10.674,0.534c-2.8,3.095-2.561,7.874,0.534,10.674l13.439,12.158c1.393,1.259,3.201,1.953,5.07,1.953
			c0.13,0,0.26-0.003,0.39-0.01c2.006-0.103,3.888-1.001,5.231-2.495l14.838-16.501v28.379H91.309V243.823z"/>
		<path d="M416.346,374.655H211.275c-4.174,0-7.557,3.383-7.557,7.557s3.383,7.557,7.557,7.557h205.072
			c4.174,0,7.557-3.383,7.557-7.557S420.52,374.655,416.346,374.655z"/>
		<path d="M416.342,357.116c4.179,0,7.558-3.379,7.558-7.548c0-4.179-3.379-7.558-7.558-7.558h-86.16
			c-4.169,0-7.558,3.379-7.558,7.558c0,4.169,3.389,7.548,7.558,7.548H416.342z"/>
		<path d="M211.27,357.116h83.42c4.169,0,7.548-3.379,7.548-7.548c0-4.179-3.379-7.558-7.548-7.558h-83.42
			c-4.169,0-7.548,3.379-7.548,7.558C203.722,353.737,207.101,357.116,211.27,357.116z"/>
		<path d="M181.367,401.186c7.388-7.818,6.748-15.186,5.669-18.956c-2.08-7.238-8.868-12.977-17.726-14.966l-14.607-3.249v-20.545
			c0-8.148-6.628-14.777-14.767-14.777H90.949c-8.138,0-14.756,6.628-14.756,14.777v44.859c0,8.138,6.618,14.757,14.756,14.757
			h19.176l1.57,15.356c0.93,9.018,5.829,16.446,12.777,19.365c3.619,1.52,10.867,3.039,19.505-3.379l17.276,19.405
			c2.379,2.699,5.719,4.079,9.068,4.079c2.839,0,5.689-0.98,7.978-2.999l0.03-0.03l19.395-17.226
			c4.879-4.419,5.309-12.047,0.94-17.026L181.367,401.186z M91.309,387.979v-44.18h48.279v16.846l-4.719-1.05
			c-8.678-2.29-15.556-1.42-20.455,2.589c-4.879,3.999-7.058,10.498-6.478,19.326c0,0.09,0.01,0.19,0.02,0.28l0.63,6.188H91.309z
			 M170.57,441.566l-20.275-22.775c-1.34-1.5-3.209-2.409-5.219-2.519c-0.14-0.01-0.29-0.01-0.43-0.01
			c-1.85,0-3.649,0.68-5.029,1.919l-4.369,3.889c-1.08,0.84-3.429,2.43-4.909,1.81c-1.47-0.62-3.229-3.279-3.609-6.978l-1.41-13.817
			l-1.55-15.106l-0.77-7.578c-0.26-4.299,0.54-6.148,1-6.529c0.49-0.4,2.609-0.85,7.118,0.36c0.11,0.03,0.21,0.06,0.32,0.08
			l8.148,1.82l15.116,3.369l11.307,2.519c3.639,0.81,6.059,2.869,6.498,4.379c0.44,1.56-1.44,3.709-2.409,4.689l-4.379,3.909
			c-3.109,2.779-3.379,7.548-0.61,10.657l20.255,22.765L170.57,441.566z"/>
	</g>
</g>
<g>
</g>
<g>
</g>
<g>
</g>
<g>
</g>
<g>
</g>
<g>
</g>
<g>
</g>
<g>
</g>
<g>
</g>
<g>
</g>
<g>
</g>
<g>
</g>
<g>
</g>
<g>
</g>
<g>
</g>
</svg>
