<?xml version="1.0" encoding="iso-8859-1"?>
<!-- Generator: Adobe Illustrator 23.0.3, SVG Export Plug-In . SVG Version: 6.00 Build 0)  -->
<svg version="1.1" id="Capa_1" xmlns="http://www.w3.org/2000/svg" xmlns:xlink="http://www.w3.org/1999/xlink" x="0px" y="0px"
	 viewBox="0 0 512 512" style="enable-background:new 0 0 512 512;" xml:space="preserve">
<g>
	<g>
		<path d="M466.463,450.733c-1.055,0-2.127-0.222-3.15-0.691c-64.639-29.69-173.631-17.662-203.538-0.329
			c-3.607,2.091-8.233,0.863-10.328-2.749c-2.093-3.611-0.862-8.234,2.749-10.328c18.144-10.516,55.992-18.216,96.419-19.615
			c27.45-0.95,79.653,0.293,121.007,19.286c3.792,1.742,5.455,6.229,3.713,10.022C472.063,449.099,469.324,450.733,466.463,450.733z
			"/>
	</g>
	<g>
		<path d="M45.537,450.733c-2.862,0.001-5.599-1.633-6.871-4.403c-1.743-3.793-0.081-8.28,3.711-10.022
			c41.337-18.995,93.549-20.241,120.993-19.287c40.435,1.4,78.278,9.099,96.408,19.617c3.611,2.094,4.839,6.718,2.744,10.329
			c-2.093,3.611-6.718,4.841-10.329,2.744c-29.895-17.34-138.861-29.371-203.505,0.33C47.666,450.51,46.593,450.733,45.537,450.733z
			"/>
	</g>
	<g>
		<path style="fill-rule:evenodd;clip-rule:evenodd;fill:#8EBFE8;" d="M255.986,501.444l205.692-0.255
			c27.547-0.028,42.765-19.886,42.765-40.82V197.32c0-16.543-13.547-30.084-30.097-30.084h-7.879H45.533h-7.907
			c-16.551,0-30.069,13.541-30.069,30.084v263.049c0,20.934,15.19,40.792,42.765,40.82L255.986,501.444z"/>
	</g>
	<g>
		<path style="fill-rule:evenodd;clip-rule:evenodd;fill:#ECEFF1;" d="M255.986,443.174h210.482V167.236v-7.422
			c0-15.07-6.065-16.685-23.947-21.756c-20.235-5.751-41.66-8.555-79.182-9.603c-55.915,1.586-91.057,9.065-107.352,18.498V443.174z
			"/>
	</g>
	<g>
		<path style="fill-rule:evenodd;clip-rule:evenodd;fill:#ECEFF1;" d="M255.986,443.174l29.36-163.11l-29.36-133.111
			c-16.296-9.433-51.409-16.912-107.324-18.498c-37.551,1.048-58.947,3.853-79.21,9.603c-17.854,5.071-23.919,6.685-23.919,21.756
			v7.422v275.938H255.986z"/>
	</g>
	<g>
		<path style="fill-rule:evenodd;clip-rule:evenodd;fill:#90A4AE;" d="M61.091,463.287h194.895l11.648-11.643l-11.648-8.47
			c-33.158-19.234-144.364-30.367-210.453,0v4.136C45.533,456.091,52.533,463.287,61.091,463.287L61.091,463.287z"/>
	</g>
	<g>
		<path style="fill-rule:evenodd;clip-rule:evenodd;fill:#90A4AE;" d="M466.467,443.174c-66.117-30.367-177.295-19.234-210.482,0
			v20.113H450.88c8.559,0,15.587-7.195,15.587-15.977V443.174z"/>
	</g>
	<g>
		<path style="fill-rule:evenodd;clip-rule:evenodd;fill:#FCD968;" d="M331.682,212.418l23.579,13.994l23.607-13.994h1.814
			c0-40.848,39.563-46.117,39.506-90.053c-0.057-41.868-32.478-62.462-64.927-61.981c-32.421-0.482-64.842,20.113-64.899,61.981
			c-0.057,43.936,39.506,49.205,39.506,90.053H331.682z"/>
	</g>
	<g>
		<path style="fill-rule:evenodd;clip-rule:evenodd;fill:#C4CCCF;" d="M355.261,212.418h-23.579
			c-10.231,0-18.563,8.357-18.563,18.555c0,10.198,8.332,18.526,18.563,18.526h47.186c10.202,0,18.563-8.328,18.563-18.526
			c0-10.198-8.36-18.555-18.563-18.555H355.261z"/>
	</g>
	<g>
		<path style="fill-rule:evenodd;clip-rule:evenodd;fill:#E69B56;" d="M395.674,122.365c0.057,43.936-39.506,49.205-39.506,90.053
			h22.7h1.814c0-40.848,39.563-46.117,39.506-90.053c-0.057-41.868-32.478-62.462-64.927-61.981
			c-4.081-0.085-8.19,0.198-12.243,0.822C370.905,65.483,395.646,85.822,395.674,122.365L395.674,122.365z"/>
	</g>
	<g>
		<path style="fill-rule:evenodd;clip-rule:evenodd;fill:#90A4AE;" d="M397.431,230.973c0-10.198-8.36-18.555-18.563-18.555h-22.7
			h-0.907h-0.907c5.526,0,10.514,2.436,13.915,6.289c2.891,3.286,4.648,7.563,4.648,12.266c0,10.198-8.332,18.526-18.563,18.526
			h24.514C389.071,249.499,397.431,241.171,397.431,230.973L397.431,230.973z"/>
	</g>
	<g>
		<path style="fill-rule:evenodd;clip-rule:evenodd;fill:#C4CCCF;" d="M436.569,167.236v265.571
			c10.599,2.719,20.688,6.119,29.899,10.368V167.236v-7.422c0-15.07-6.065-16.685-23.947-21.756
			c-1.955-0.567-3.939-1.105-5.951-1.615V167.236z"/>
	</g>
	<g>
		<path style="fill-rule:evenodd;clip-rule:evenodd;fill:#7C8C94;" d="M466.467,443.174c-9.211-4.249-19.3-7.648-29.899-10.368
			v10.368v20.113h14.312c8.559,0,15.587-7.195,15.587-15.977V443.174z"/>
	</g>
	<g>
		<path style="fill-rule:evenodd;clip-rule:evenodd;fill:#519AD6;" d="M466.467,447.31c0,8.782-7.028,15.977-15.587,15.977h-14.312
			v37.931l25.109-0.028c27.547-0.028,42.765-19.886,42.765-40.82V197.32c0-16.543-13.547-30.084-30.097-30.084h-7.879v275.938
			V447.31z"/>
	</g>
	<g>
		<path d="M474.346,159.679h-0.324c-0.051-20.554-11.601-23.834-29.068-28.786l-0.352-0.1c-5.569-1.596-11.178-2.936-16.976-4.074
			c0.078-1.418,0.121-2.871,0.119-4.365c-0.026-19.82-6.763-36.91-19.48-49.423c-13.269-13.057-32.539-20.355-53.003-20.105
			c-20.399-0.301-39.706,7.046-52.973,20.1c-12.719,12.515-19.456,29.607-19.483,49.428c-0.003,2.466,0.111,4.822,0.321,7.085
			c-11.019,2.502-20.112,5.502-27.144,8.96c-17.813-8.757-48.503-14.531-89.283-16.753c-4.149-0.215-7.73,2.968-7.957,7.135
			c-0.227,4.167,2.967,7.73,7.135,7.957c48.472,2.641,71.797,9.744,82.55,14.798v279.821c-20.221-7.755-51.755-13.183-85.059-14.336
			c-25.121-0.873-70.99,0.107-110.28,14.846V159.814c0-6.806,1.45-7.952,2.316-8.638c2.511-1.986,8.056-3.561,15.73-5.74
			l0.381-0.108c16.639-4.724,33.444-7.196,58.002-8.533c4.168-0.227,7.362-3.789,7.135-7.957c-0.227-4.167-3.814-7.378-7.957-7.135
			c-25.754,1.403-43.516,4.035-61.309,9.086l-0.381,0.108c-17.442,4.954-28.977,8.233-29.028,28.782h-0.352
			C16.879,159.679,0,176.564,0,197.319v263.05c0,24.015,17.282,48.343,50.313,48.377l205.663,0.255c0.004,0,0.007,0,0.01,0
			s0.005,0,0.008,0l82.782-0.085c4.174-0.004,7.554-3.391,7.549-7.565c-0.004-4.171-3.387-7.549-7.557-7.549
			c-0.002,0-0.005,0-0.008,0l-75.217,0.077v-23.036H450.88c12.762,0,23.144-10.557,23.144-23.534V174.793h0.321
			c12.429,0,22.541,10.105,22.541,22.526v263.05c0,16.003-11.021,33.238-35.219,33.263l-87.882,0.113
			c-4.174,0.005-7.553,3.393-7.547,7.567c0.005,4.171,3.387,7.547,7.557,7.547c0.003,0,0.007,0,0.01,0l87.88-0.113
			C494.718,508.713,512,484.384,512,460.369v-263.05C512,176.564,495.108,159.679,474.346,159.679z M312.888,83.701
			c10.428-10.261,25.86-16.035,42.261-15.759c0.074,0,0.15,0,0.225,0c16.413-0.282,31.86,5.501,42.29,15.764
			c9.77,9.613,14.946,22.985,14.967,38.669c0.025,19.644-8.579,30.01-18.542,42.013c-8.687,10.467-18.399,22.168-20.534,40.474
			h-10.737v-52.362h11.856c4.174,0,7.557-3.383,7.557-7.557c0-4.174-3.383-7.557-7.557-7.557h-39.592
			c-4.174,0-7.557,3.383-7.557,7.557c0,4.174,3.383,7.557,7.557,7.557h12.622v52.362h-10.708
			c-2.135-18.306-11.848-30.007-20.535-40.474c-9.963-12.003-18.567-22.369-18.542-42.013
			C297.941,106.688,303.117,93.315,312.888,83.701z M331.682,219.975h47.186c6.069,0,11.006,4.933,11.006,10.997
			c0,6.048-4.937,10.969-11.006,10.969h-47.186c-6.068,0-11.005-4.921-11.005-10.969
			C320.677,224.908,325.614,219.975,331.682,219.975z M304.831,174.041c8.3,10,15.587,18.803,17.158,32.692
			c-9.615,3.857-16.426,13.265-16.426,24.239c0,14.382,11.717,26.083,26.119,26.083h47.186c14.403,0,26.12-11.7,26.12-26.083
			c0-10.974-6.811-20.382-16.426-24.239c1.571-13.889,8.857-22.693,17.157-32.693c7.344-8.847,15.379-18.538,19.409-32.404
			c5.229,1.039,10.297,2.25,15.329,3.693l0.373,0.105c7.69,2.18,13.246,3.756,15.763,5.744c0.866,0.684,2.317,1.83,2.317,8.636
			v272.054c-39.303-14.739-85.168-15.717-110.295-14.847c-33.303,1.153-64.844,6.583-85.073,14.339V151.537
			c4.733-2.224,11.926-4.844,22.695-7.306C290.471,156.731,297.954,165.756,304.831,174.041z M248.428,447.756v7.973H61.091
			c-4.157,0-7.581-3.354-7.964-7.625C115.672,421.951,214.857,431.897,248.428,447.756z M15.114,460.369v-263.05
			c0-12.421,10.099-22.526,22.512-22.526h0.35V447.31c0,12.977,10.37,23.534,23.116,23.534h187.337v23.034L50.33,493.632
			C26.135,493.607,15.114,476.372,15.114,460.369z M450.88,455.73H263.542v-7.971c33.585-15.853,132.789-25.795,195.329,0.347
			C458.474,452.313,454.977,455.73,450.88,455.73z"/>
		<path d="M219.225,306.898c-11.864-6.888-35.398-11.727-61.418-12.628c-17.347-0.6-50.383,0.198-76.691,12.298
			c-3.792,1.744-5.453,6.231-3.708,10.023c1.273,2.77,4.01,4.401,6.87,4.401c1.056,0,2.13-0.223,3.153-0.693
			c39.524-18.176,106-10.899,124.206-0.33c3.609,2.095,8.234,0.868,10.33-2.742C224.062,313.619,222.835,308.994,219.225,306.898z"
			/>
		<path d="M219.225,362.363c-11.864-6.888-35.398-11.727-61.418-12.628c-17.347-0.603-50.383,0.198-76.691,12.298
			c-3.792,1.744-5.453,6.231-3.708,10.023c1.273,2.77,4.01,4.401,6.87,4.401c1.056,0,2.13-0.223,3.153-0.693
			c39.524-18.177,106-10.898,124.206-0.33c3.609,2.094,8.234,0.868,10.33-2.742C224.062,369.083,222.835,364.459,219.225,362.363z"
			/>
		<path d="M219.225,251.433c-11.87-6.891-35.403-11.734-61.416-12.638c-17.354-0.604-50.393,0.193-76.697,12.309
			c-3.791,1.747-5.449,6.235-3.703,10.026c1.275,2.767,4.011,4.397,6.87,4.397c1.057,0,2.132-0.223,3.157-0.694
			c39.496-18.192,105.982-10.907,124.202-0.329c3.609,2.094,8.234,0.868,10.33-2.742
			C224.062,258.153,222.835,253.528,219.225,251.433z"/>
		<path d="M300.367,319.968c18.193-10.577,84.647-17.86,124.172,0.332c1.023,0.471,2.097,0.693,3.155,0.693
			c2.86,0,5.596-1.631,6.871-4.399c1.745-3.791,0.085-8.279-3.706-10.025c-26.294-12.1-59.332-12.903-76.68-12.298
			c-26.027,0.901-49.557,5.741-61.407,12.63c-3.609,2.098-4.833,6.724-2.736,10.332
			C292.133,320.842,296.759,322.064,300.367,319.968z"/>
		<path d="M430.857,362.033c-26.294-12.1-59.332-12.902-76.68-12.298c-26.027,0.901-49.557,5.741-61.407,12.63
			c-3.609,2.098-4.833,6.724-2.736,10.332c2.098,3.61,6.724,4.833,10.332,2.736c18.193-10.577,84.647-17.86,124.172,0.332
			c1.023,0.471,2.097,0.693,3.155,0.693c2.86,0,5.596-1.631,6.871-4.399C436.308,368.267,434.649,363.779,430.857,362.033z"/>
		<path d="M355.318,37.942c4.174,0,7.557-3.383,7.557-7.557V10.556c0-4.174-3.383-7.557-7.557-7.557s-7.557,3.383-7.557,7.557
			v19.829C347.761,34.559,351.144,37.942,355.318,37.942z"/>
		<path d="M285.672,53.408c1.475,1.474,3.409,2.211,5.343,2.211c1.934,0,3.869-0.738,5.345-2.214
			c2.951-2.952,2.95-7.737-0.003-10.688L282.3,28.666c-2.951-2.95-7.737-2.95-10.688,0.003c-2.951,2.952-2.95,7.737,0.003,10.688
			L285.672,53.408z"/>
		<path d="M419.622,55.619c1.936,0,3.872-0.739,5.348-2.217l14.028-14.05c2.949-2.953,2.945-7.738-0.009-10.688
			c-2.953-2.948-7.738-2.945-10.688,0.009l-14.028,14.05c-2.949,2.953-2.945,7.738,0.009,10.688
			C415.757,54.883,417.69,55.619,419.622,55.619z"/>
		<path d="M77.408,205.633c1.273,2.77,4.01,4.401,6.87,4.401c1.056,0,2.13-0.223,3.153-0.693
			c39.482-18.157,105.981-10.885,124.213-0.326c3.61,2.092,8.235,0.86,10.327-2.752c2.092-3.611,0.86-8.235-2.752-10.327
			c-11.871-6.876-35.402-11.709-61.409-12.613c-17.352-0.601-50.392,0.19-76.693,12.287
			C77.324,197.353,75.663,201.841,77.408,205.633z"/>
	</g>
</g>
<g>
</g>
<g>
</g>
<g>
</g>
<g>
</g>
<g>
</g>
<g>
</g>
<g>
</g>
<g>
</g>
<g>
</g>
<g>
</g>
<g>
</g>
<g>
</g>
<g>
</g>
<g>
</g>
<g>
</g>
</svg>
