<?xml version="1.0" encoding="iso-8859-1"?>
<!-- Generator: Adobe Illustrator 23.0.3, SVG Export Plug-In . SVG Version: 6.00 Build 0)  -->
<svg version="1.1" id="Capa_1" xmlns="http://www.w3.org/2000/svg" xmlns:xlink="http://www.w3.org/1999/xlink" x="0px" y="0px"
	 viewBox="0 0 512 512" style="enable-background:new 0 0 512 512;" xml:space="preserve">
<g>
	<g>
		<path style="fill-rule:evenodd;clip-rule:evenodd;fill:#C4CCCF;" d="M457.623,137.27H259.357H51.732
			c-11.502,0-20.946,9.418-20.946,20.923v265.18l223.891,26.535l223.891-26.535v-265.18
			C478.569,146.689,469.153,137.27,457.623,137.27L457.623,137.27z"/>
	</g>
	<g>
		<path style="fill-rule:evenodd;clip-rule:evenodd;fill:#ECEFF1;" d="M193.785,423.374h-10.431H30.786h-8.401
			c-8.147,0-14.828,6.683-14.828,14.861v23.377c0,8.149,6.681,14.832,14.828,14.832H486.97c8.175,0,14.857-6.655,14.857-14.832
			v-23.377c0-8.178-6.681-14.861-14.857-14.861h-8.401h-152.54h-10.431v15.453c0,6.035-4.962,10.969-10.994,10.969h-99.852
			c-6.033,0-10.966-4.935-10.966-10.969V423.374z"/>
	</g>
	<g>
		<path style="fill-rule:evenodd;clip-rule:evenodd;fill:#90A4AE;" d="M443.809,180.443V380.23c0,2.989-2.453,5.386-5.441,5.386
			h-24.188v37.758h64.388v-265.18c0-11.505-9.416-20.923-20.946-20.923h-43.442V175h24.188
			C441.357,175,443.809,177.454,443.809,180.443L443.809,180.443z"/>
	</g>
	<g>
		<path style="fill-rule:evenodd;clip-rule:evenodd;fill:#C4CCCF;" d="M478.569,423.374h-40.51c0,0,0,0,0.028,0l0,0H478.569z
			 M452.774,438.234v11.674v11.702c0,8.178-6.681,14.832-14.828,14.832h49.024c8.175,0,14.857-6.655,14.857-14.832v-23.377
			c0-8.178-6.681-14.861-14.857-14.861h-8.401h-40.482c3.665,0.028,7.02,1.41,9.585,3.666
			C450.801,429.775,452.774,433.779,452.774,438.234L452.774,438.234z"/>
	</g>
	<g>
		<path style="fill-rule:evenodd;clip-rule:evenodd;fill:#7C8C94;" d="M193.785,423.374v15.453c0,6.035,4.933,10.969,10.966,10.969
			h99.852c6.033,0,10.994-4.935,10.994-10.969v-15.453H193.785z"/>
	</g>
	<g>
		<path style="fill-rule:evenodd;clip-rule:evenodd;fill:#8EBFE8;" d="M438.369,175H250.195H70.986
			c-2.988,0-5.413,2.453-5.413,5.442V380.23c0,2.989,2.424,5.386,5.413,5.386h367.382c2.988,0,5.441-2.397,5.441-5.386V180.443
			C443.809,177.454,441.357,175,438.369,175L438.369,175z"/>
	</g>
	<g>
		<path style="fill-rule:evenodd;clip-rule:evenodd;fill:#519AD6;" d="M443.809,380.23V180.443c0-2.989-2.453-5.442-5.441-5.442
			h-24.188v210.615h24.188C441.357,385.616,443.809,383.219,443.809,380.23L443.809,380.23z"/>
	</g>
	<g>
		<path style="fill-rule:evenodd;clip-rule:evenodd;fill:#F55A8E;" d="M334.077,214.463H175.278c-5.948,0-10.825,4.85-10.825,10.8
			v106.76c0,5.922,4.877,10.8,10.825,10.8h158.799c5.948,0,10.825-4.878,10.825-10.8v-106.76
			C344.902,219.313,340.025,214.463,334.077,214.463L334.077,214.463z"/>
	</g>
	<g>
		<path style="fill-rule:evenodd;clip-rule:evenodd;fill:#BA4583;" d="M319.502,225.263v106.76c0,5.922-4.849,10.8-10.797,10.8
			h25.372c5.948,0,10.825-4.878,10.825-10.8v-106.76c0-5.95-4.877-10.8-10.825-10.8h-25.372
			C314.653,214.463,319.502,219.313,319.502,225.263L319.502,225.263z"/>
	</g>
	<g>
		<path style="fill-rule:evenodd;clip-rule:evenodd;fill:#ECEFF1;" d="M247.376,249.501c-10.036-5.527-20.382-1.523-20.382,16.017
			v12.097l0.31,15.368c0.648,12.295,8.993,20.134,22.835,11.392l9.528-6.063l11.981-8.008c9.359-6.739,11.389-18.611-2.453-27.381
			l-9.529-6.034L247.376,249.501z"/>
	</g>
	<g>
		<path style="fill-rule:evenodd;clip-rule:evenodd;fill:#FCD968;" d="M395.237,35.784c56.466-3.722,105.264,39.055,108.986,95.565
			c3.721,56.482-39.044,105.294-95.51,109.016c-16.407,1.1-32.166-1.748-46.374-7.726l-19.367,10.236
			c-12.799,6.796-31.856,5.527-30.615-16.524c3.27-9.475,4.99-16.44,8.26-25.915c-11.925-15.509-19.536-34.628-20.918-55.608
			C295.977,88.346,338.742,39.506,395.237,35.784L395.237,35.784z"/>
	</g>
	<g>
		<path style="fill-rule:evenodd;clip-rule:evenodd;fill:#E69B56;" d="M383.622,37.222c45.133,8.206,80.682,46.246,83.839,94.127
			c0.169,2.848,0.254,5.668,0.197,8.488c-0.395,24.166-9.247,46.528-23.849,64.011c-8.232,9.813-18.239,18.104-29.629,24.307
			c-9.388,5.104-19.677,8.798-30.643,10.8c8.119,1.466,16.548,1.974,25.174,1.41c1.832-0.113,3.665-0.282,5.469-0.508
			c10.459-1.241,20.41-4.032,29.629-8.149c13.391-6.006,25.203-14.776,34.759-25.52c17.591-19.795,27.542-46.358,25.654-74.839
			c-3.721-56.51-52.519-99.287-108.986-95.565C391.29,36.037,387.4,36.517,383.622,37.222L383.622,37.222z"/>
	</g>
	<g>
		<path style="fill-rule:evenodd;clip-rule:evenodd;" d="M447.784,442.352h-0.197c-4.174,0-7.557,3.383-7.557,7.557
			c0,4.174,3.383,7.557,7.557,7.557h0.197c4.174,0,7.557-3.383,7.557-7.557C455.341,445.735,451.958,442.352,447.784,442.352z"/>
		<path style="fill-rule:evenodd;clip-rule:evenodd;" d="M414.237,442.352h-0.197c-4.174,0-7.557,3.383-7.557,7.557
			c0,4.174,3.383,7.557,7.557,7.557h0.197c4.174,0,7.557-3.383,7.557-7.557C421.794,445.735,418.411,442.352,414.237,442.352z"/>
		<path style="fill-rule:evenodd;clip-rule:evenodd;" d="M380.69,442.549h-0.197c-4.174,0-7.557,3.383-7.557,7.557
			s3.383,7.557,7.557,7.557h0.197c4.174,0,7.557-3.383,7.557-7.557S384.864,442.549,380.69,442.549z"/>
		<path style="fill-rule:evenodd;clip-rule:evenodd;" d="M273.24,256.54C273.239,256.54,273.239,256.54,273.24,256.54l-9.529-6.035
			c-0.05-0.031-0.101-0.062-0.15-0.093l-12.291-7.388c-0.082-0.049-0.164-0.097-0.247-0.143c-7.354-4.05-15.033-4.328-21.068-0.763
			c-4.799,2.835-10.517,9.196-10.517,23.399v12.097c0,0.051,0,0.102,0.001,0.152l0.309,15.368c0.002,0.082,0.005,0.164,0.009,0.246
			c0.499,9.458,4.582,16.846,11.204,20.271c1.844,0.955,4.683,1.973,8.395,1.973c3.988,0,8.986-1.177,14.842-4.875l9.528-6.063
			c0.048-0.03,0.095-0.062,0.143-0.093l11.981-8.009c0.072-0.049,0.145-0.099,0.216-0.15c6.96-5.011,10.827-12.127,10.607-19.521
			C286.44,269.116,281.67,261.881,273.24,256.54z M267.328,284.102l-11.79,7.881l-9.435,6.003c-3.535,2.233-6.601,3.07-8.198,2.243
			c-1.639-0.847-2.83-3.797-3.048-7.53l-0.306-15.159v-12.021c0-6.311,1.597-9.503,3.092-10.386
			c1.257-0.742,3.538-0.388,5.973,0.927l12.08,7.261l9.453,5.988c4.058,2.57,6.335,5.431,6.413,8.056
			C271.63,279.632,270.089,282.084,267.328,284.102z"/>
		<path style="fill-rule:evenodd;clip-rule:evenodd;" d="M486.97,415.817h-0.845V342.19c0-4.174-3.383-7.557-7.557-7.557
			s-7.557,3.383-7.557,7.557v73.626H315.597H193.786H38.343V158.194c0-7.37,6.007-13.367,13.389-13.367H292.13
			c0.01,0.164,0.015,0.328,0.026,0.492c0.498,7.546,1.758,14.95,3.735,22.124h-81.47c-4.174,0-7.557,3.383-7.557,7.557
			s3.383,7.557,7.557,7.557h86.86c2.97,6.723,6.616,13.158,10.921,19.208c-0.47,1.42-0.91,2.799-1.33,4.139h-137.21
			c-10.138,0-18.386,8.238-18.386,18.355v106.762c0,10.127,8.248,18.355,18.386,18.355h158.796c10.138,0,18.376-8.228,18.376-18.355
			v-83.758l11.937-6.308c14.837,5.689,30.443,8.018,46.44,6.948c9.41-0.62,18.467-2.414,27.041-5.226v135.382H73.131V182.557h106.87
			c4.174,0,7.557-3.383,7.557-7.557s-3.383-7.557-7.557-7.557H70.987c-7.152,0-12.97,5.831-12.97,12.999V380.23
			c0,7.137,5.818,12.942,12.97,12.942h367.382c7.167,0,12.997-5.805,12.997-12.942v-143.8c7.023-3.541,13.601-7.812,19.645-12.701
			v84.003c0,4.174,3.383,7.557,7.557,7.557s7.557-3.383,7.557-7.557v-98.829c17.665-20.996,27.576-48.568,25.634-78.05
			c-1.93-29.342-15.167-56.175-37.272-75.56C454.241,37.548,428.757,28,402.093,28c-2.44,0-4.889,0.08-7.349,0.24
			c-55.286,3.642-98.446,47.74-102.508,101.474H51.732c-15.716,0-28.503,12.776-28.503,28.48v257.622h-0.845
			C10.042,415.817,0,425.874,0,438.235v23.377C0,473.957,10.042,484,22.385,484H486.97c12.359,0,22.413-10.043,22.413-22.389
			v-23.377C509.383,425.874,499.329,415.817,486.97,415.817z M335.727,331.021c0,1.76-1.5,3.249-3.269,3.249H173.661
			c-1.78,0-3.269-1.49-3.269-3.249V224.259c0-1.75,1.49-3.239,3.269-3.239h132.522c-6.022,19.569,4.819,26.553,9.088,29.282
			c3.909,2.509,8.738,3.749,13.887,3.749c2.15,0,4.349-0.22,6.569-0.66V331.021z M395.734,43.326
			c25.305-1.67,49.729,6.618,68.795,23.334s30.483,39.87,32.153,65.183c3.439,52.236-36.242,97.535-88.471,100.984
			c-14.857,0.99-29.294-1.41-42.941-7.158c-2.09-0.87-4.459-0.77-6.459,0.29l-19.386,10.237c-1.2,0.64-2.449,1.17-3.699,1.59
			c-4.729,1.59-9.518,1.58-12.307-0.21c-2.479-1.59-4.929-5.319-1.37-16.556c0.589-1.86,5.349-17.086,5.709-18.115
			c0.83-2.409,0.4-5.059-1.15-7.078c-11.438-14.866-18.126-32.672-19.366-51.497c-0.14-2.12-0.21-4.229-0.21-6.318
			C307.033,88.464,345.614,46.625,395.734,43.326z M201.343,430.93H308.04v7.896c0,1.85-1.574,3.413-3.437,3.413h-99.852
			c-1.848,0-3.409-1.563-3.409-3.413V430.93z M494.269,461.611c0,4.012-3.275,7.275-7.299,7.275H22.385
			c-3.941,0-7.271-3.332-7.271-7.275v-23.377c0-4.027,3.262-7.305,7.271-7.305h163.844v7.896c0,10.216,8.31,18.526,18.523,18.526
			h99.852c10.229,0,18.551-8.31,18.551-18.526v-7.896H486.97c4.025,0,7.299,3.277,7.299,7.305V461.611z"/>
		<path style="fill-rule:evenodd;clip-rule:evenodd;" d="M360.295,171.689c1.433,1.463,3.385,2.269,5.398,2.269
			c0.437,0,0.879-0.039,1.317-0.116c2.457-0.435,4.541-2.054,5.569-4.328l25.673-56.776h63.853c4.174,0,7.557-3.383,7.557-7.557
			c0-4.174-3.383-7.557-7.557-7.557h-68.729c-2.969,0-5.663,1.738-6.886,4.443l-23.13,51.152l-15.611-15.935
			c-2.92-2.979-7.702-3.031-10.687-0.109c-2.981,2.92-3.031,7.705-0.109,10.687L360.295,171.689z"/>
		<path style="fill-rule:evenodd;clip-rule:evenodd;" d="M436.846,148.155l7.696-8.375c1.381-1.551,2.255-3.384,2.255-5.499
			c0-2.087-0.733-3.92-2.284-5.358c-1.438-1.494-3.298-2.228-5.384-2.228c-2.424,0-4.426,1.043-5.92,2.933l-5.92,7.416l-5.807-7.416
			c-1.494-1.889-3.496-2.933-5.92-2.933c-1.043,0-2.086,0.169-3.045,0.592c-0.874,0.367-1.691,0.874-2.396,1.523l-0.028,0.028
			l-0.028,0.028c-1.466,1.494-2.17,3.327-2.17,5.414c0,2.115,0.846,3.948,2.255,5.499l7.668,8.375l-9.98,10.913
			c-1.24,1.325-1.748,3.074-1.748,4.907c0,2.115,0.761,3.976,2.255,5.499c1.522,1.495,3.383,2.256,5.497,2.256
			c2.565,0,4.623-1.551,6.202-3.44l7.245-9.052l7.358,9.052c1.579,1.889,3.636,3.44,6.202,3.44c2.114,0,3.975-0.761,5.469-2.256
			c1.522-1.523,2.255-3.384,2.255-5.499c0-1.833-0.564-3.525-1.804-4.907L436.846,148.155z"/>
	</g>
</g>
<g>
</g>
<g>
</g>
<g>
</g>
<g>
</g>
<g>
</g>
<g>
</g>
<g>
</g>
<g>
</g>
<g>
</g>
<g>
</g>
<g>
</g>
<g>
</g>
<g>
</g>
<g>
</g>
<g>
</g>
</svg>
