<?xml version="1.0" encoding="iso-8859-1"?>
<!-- Generator: Adobe Illustrator 23.0.3, SVG Export Plug-In . SVG Version: 6.00 Build 0)  -->
<svg version="1.1" id="Capa_1" xmlns="http://www.w3.org/2000/svg" xmlns:xlink="http://www.w3.org/1999/xlink" x="0px" y="0px"
	 viewBox="0 0 512 512" style="enable-background:new 0 0 512 512;" xml:space="preserve">
<g>
	<path style="fill-rule:evenodd;clip-rule:evenodd;fill:#8EBFE8;" d="M83.754,471.753h178.295h140.495
		c9.848,0,17.903-8.051,17.903-17.867V28.923c0-9.844-8.055-17.867-17.903-17.867H25.603c-9.848,0-17.875,8.051-17.875,17.867
		v424.963c0,9.815,8.055,17.867,17.875,17.867H83.754z"/>
	<path style="fill-rule:evenodd;clip-rule:evenodd;fill:#546E7A;" d="M120.529,267.508h36.035h49.27h79.555
		c0.342,0,0.683-0.028,1.025-0.028c10.674-0.541,19.241-9.445,19.241-20.257V179.71l-105.201-31.495l-100.22,30.812v68.196
		c0,10.84,8.624,19.773,19.355,20.257C119.902,267.48,120.215,267.508,120.529,267.508L120.529,267.508z"/>
	<path style="fill-rule:evenodd;clip-rule:evenodd;fill:#FFD54F;" d="M340.083,221.337c-6.774,0-12.325,5.548-12.325,12.347v19.375
		c0,6.8,5.55,12.347,12.325,12.347c6.803,0,12.353-5.548,12.353-12.347v-19.375C352.436,226.885,346.886,221.337,340.083,221.337
		L340.083,221.337z"/>
	<path style="fill-rule:evenodd;clip-rule:evenodd;fill:#7C8C94;" d="M202.958,132.511c-5.266,0-10.503,1.166-20.095,3.556
		l-116.7,27.255c-6.433,1.479-8.994,5.889-8.681,10.214c-0.313,4.353,2.249,8.734,8.681,10.242l116.7,27.255
		c9.592,2.361,14.829,3.556,20.095,3.556c5.237,0,10.475-1.195,20.067-3.556l116.7-27.255c6.433-1.508,8.994-5.889,8.71-10.242
		c0.285-4.324-2.277-8.734-8.71-10.214l-116.7-27.255C213.433,133.678,208.196,132.511,202.958,132.511L202.958,132.511z"/>
	<path style="fill-rule:evenodd;clip-rule:evenodd;fill:#546E7A;" d="M244.458,141.075c16.879,10.754,27.268,25.492,27.268,41.765
		c0,1.565-0.085,3.101-0.285,4.609c-0.541,4.581-1.935,8.99-4.042,13.201l27.069-6.316l45.257-10.555
		c0.569-0.142,1.11-0.285,1.594-0.455c5.266-1.821,7.4-5.832,7.116-9.787c0.285-4.324-2.277-8.734-8.71-10.214L244.458,141.075z"/>
	<path style="fill-rule:evenodd;clip-rule:evenodd;fill:#37474F;" d="M100.234,214.078l66.576,15.477l16.053,3.755
		c19.184,4.751,21.006,4.751,40.162,0l16.509-3.613l14.858-3.243c16.253-3.556,16.537-1.138,16.537,16.188v24.866h14.459
		c0.342,0,0.683-0.028,1.025-0.028c10.674-0.541,19.241-9.445,19.241-20.257v-32.462v-22.618c-3.273,0.854-6.689,1.735-10.218,2.703
		l-72.411,15.818c-19.156,4.751-20.978,4.751-40.162,0l-82.629-19.204V214.078z"/>
	<path style="fill-rule:evenodd;clip-rule:evenodd;fill:#E6E6E6;" d="M7.728,75.582h412.719V28.923
		c0-9.844-8.055-17.867-17.903-17.867H25.603c-9.848,0-17.875,8.051-17.875,17.867V75.582z"/>
	<path style="fill-rule:evenodd;clip-rule:evenodd;fill:#C4CCCF;" d="M373.226,75.582h47.221V28.923
		c0-9.844-8.055-17.867-17.903-17.867h-47.221c9.848,0,17.903,8.023,17.903,17.867V75.582z"/>
	<path style="fill-rule:evenodd;clip-rule:evenodd;fill:#519AD6;" d="M420.447,75.582h-47.221v264.901
		c0.057,0.057,0.114,0.114,0.171,0.171l6.433,6.43c4.668-2.617,9.621-4.751,14.829-6.316v-8.933c0-4.893,4.013-8.905,8.909-8.905
		h16.879V75.582z"/>
	<path style="fill-rule:evenodd;clip-rule:evenodd;fill:#C4CCCF;" d="M360.788,340.654l-16.736,16.729
		c-3.444,3.443-3.444,9.133,0,12.575l6.831,6.828c-2.419,4.552-4.383,9.389-5.807,14.424h-9.82c-4.896,0-8.909,4.012-8.909,8.905
		v23.671c0,4.893,4.013,8.905,8.909,8.905h10.19c1.48,4.893,3.444,9.559,5.863,13.969l-7.258,7.255
		c-3.444,3.471-3.444,9.133,0,12.603l16.736,16.729c3.473,3.471,9.137,3.471,12.609,0l7.258-7.255
		c4.412,2.418,9.108,4.381,14.004,5.861v10.185c0,4.893,4.013,8.905,8.909,8.905h23.653c4.896,0,8.909-4.012,8.909-8.905v-9.787
		c5.066-1.451,9.905-3.414,14.431-5.832l6.831,6.828c3.473,3.471,9.137,3.471,12.609,0l16.736-16.729
		c3.444-3.471,3.444-9.133,0-12.603l-6.461-6.43c2.619-4.637,4.753-9.616,6.319-14.794h8.937c4.896,0,8.909-4.012,8.909-8.905
		v-23.671c0-4.893-4.013-8.905-8.909-8.905h-8.567c-1.509-5.349-3.615-10.47-6.233-15.249l6.006-6.003
		c3.444-3.443,3.444-9.133,0-12.575l-16.736-16.729c-3.473-3.471-9.137-3.471-12.609,0l-6.006,5.975
		c-4.782-2.617-9.905-4.723-15.256-6.231v-8.564c0-4.893-4.013-8.905-8.909-8.905h-23.653c-4.896,0-8.909,4.012-8.909,8.905v8.933
		c-5.209,1.565-10.161,3.699-14.829,6.316l-6.433-6.43C369.925,337.183,364.26,337.183,360.788,340.654L360.788,340.654z"/>
	<path style="fill-rule:evenodd;clip-rule:evenodd;fill:#90A4AE;" d="M457.393,340.654l-6.006,5.975
		c-1.395-0.74-2.789-1.479-4.241-2.134c6.518,17.639,10.247,37.924,10.247,59.49c0,29.304-6.86,56.189-18.273,77.328
		c3.985-1.309,7.799-2.93,11.442-4.893l6.831,6.828c3.473,3.471,9.137,3.471,12.609,0l16.736-16.729
		c3.444-3.471,3.444-9.133,0-12.603l-6.461-6.43c2.619-4.637,4.753-9.616,6.319-14.794h8.937c4.896,0,8.909-4.012,8.909-8.905
		v-23.671c0-4.893-4.013-8.905-8.909-8.905h-8.567c-1.509-5.349-3.615-10.47-6.233-15.249l6.006-6.003
		c3.444-3.443,3.444-9.133,0-12.575l-16.736-16.729C466.529,337.183,460.865,337.183,457.393,340.654L457.393,340.654z"/>
	<path style="fill-rule:evenodd;clip-rule:evenodd;fill:#546E7A;" d="M415.381,439.491c15.199,0,27.581-12.376,27.581-27.54
		c0-15.192-12.382-27.568-27.581-27.568c-15.171,0-27.553,12.376-27.553,27.568C387.828,427.115,400.21,439.491,415.381,439.491
		L415.381,439.491z"/>
	<g>
		<path d="M320.173,233.685v19.374c0,10.976,8.932,19.905,19.91,19.905s19.91-8.929,19.91-19.905v-19.374
			c0-8.302-5.113-15.424-12.353-18.406v-26.59c5.483-3.248,8.615-8.732,8.361-15.165c0.244-7.102-4.117-15.16-14.558-17.56
			l-116.645-27.242c-10.28-2.561-15.794-3.768-21.84-3.768c-6.071,0-11.589,1.207-21.868,3.768L64.47,155.958
			c-10.493,2.414-14.832,10.47-14.555,17.581c-0.271,7.091,4.059,15.145,14.53,17.599l28.232,6.593v49.491
			c0,14.921,11.672,27.135,26.568,27.806c4.223,0.193,8.589,0.256,12.987,0.256c4.169,0,8.367-0.057,12.495-0.111
			c4.115-0.056,8.002-0.108,11.836-0.108h32.021c4.174,0,7.557-3.383,7.557-7.557s-3.383-7.557-7.557-7.557h-32.021
			c-3.936,0-8.055,0.055-12.039,0.108c-8.264,0.11-16.811,0.226-24.594-0.13c-6.693-0.301-12.138-6.002-12.138-12.707v-45.961
			l73.265,17.111c9.794,2.412,15.64,3.775,21.902,3.775c6.234,0,12.079-1.364,21.786-3.754l73.353-17.132v45.962
			c0,7.018-5.701,12.729-12.709,12.729h-62.249c-4.174,0-7.557,3.383-7.557,7.557s3.383,7.557,7.557,7.557h62.249
			c15.342,0,27.824-12.489,27.824-27.842v-49.492l19.314-4.511v22.059C325.286,218.261,320.173,225.383,320.173,233.685z
			 M344.879,253.059c0,2.642-2.151,4.791-4.796,4.791c-2.599,0-4.796-2.194-4.796-4.791v-19.374c0-2.597,2.196-4.791,4.796-4.791
			c2.644,0,4.796,2.149,4.796,4.791V253.059z M221.218,203.696c-9.425,2.321-14.001,3.338-18.26,3.338
			c-4.285,0-8.863-1.017-18.376-3.36L67.888,176.421c-2.986-0.7-2.897-1.935-2.868-2.341c0.026-0.362,0.026-0.726,0-1.09
			c-0.029-0.401-0.118-1.623,2.863-2.307l116.7-27.255c0.036-0.009,0.072-0.018,0.108-0.026c9.091-2.265,13.857-3.333,18.268-3.333
			c4.385,0,9.148,1.068,18.239,3.333c0.036,0.009,0.072,0.018,0.108,0.026l116.725,27.261c2.972,0.683,2.889,1.939,2.863,2.352
			c-0.022,0.329-0.022,0.66,0,0.989c0.03,0.462,0.11,1.687-2.888,2.389L221.218,203.696z"/>
		<path d="M89.788,347.834c-4.174,0-7.557,3.383-7.557,7.557c0,4.174,3.383,7.557,7.557,7.557h161.075
			c4.174,0,7.557-3.383,7.557-7.557c0-4.174-3.383-7.557-7.557-7.557H89.788z"/>
		<path d="M317.367,313.057c0-4.174-3.384-7.557-7.557-7.557H89.788c-4.174,0-7.557,3.383-7.557,7.557
			c0,4.174,3.383,7.557,7.557,7.557H309.81C313.984,320.614,317.367,317.231,317.367,313.057z"/>
		<path d="M495.534,383.653h-3.063c-0.76-2.101-1.607-4.172-2.538-6.203l2.148-2.148c3.094-3.092,4.798-7.223,4.798-11.632
			c0-4.409-1.704-8.54-4.798-11.633l-16.736-16.728c-6.422-6.42-16.873-6.418-23.282-0.014l-2.151,2.141
			c-2.038-0.934-4.115-1.784-6.224-2.545v-3.058c0-8.813-6.968-16.009-15.683-16.421V219.37c0-4.174-3.383-7.557-7.557-7.557
			c-4.174,0-7.557,3.383-7.557,7.557v96.003h-9.322c-9.079,0-16.466,7.384-16.466,16.461v3.527
			c-1.966,0.748-3.912,1.576-5.829,2.481l-2.534-2.532c-6.421-6.418-16.871-6.419-23.294-0.001l-16.736,16.73
			c-3.094,3.092-4.798,7.223-4.798,11.632c0,4.409,1.704,8.54,4.798,11.633l3.021,3.019c-0.782,1.754-1.5,3.533-2.152,5.331h-4.322
			c-9.079,0-16.466,7.385-16.466,16.462v23.671c0,9.077,7.387,16.461,16.466,16.461h4.788c0.634,1.666,1.323,3.308,2.064,4.925
			l-3.422,3.42c-4.189,4.222-5.601,10.185-4.265,15.604H25.603c-5.689,0-10.317-4.625-10.317-10.309V83.139H412.89v99.957
			c0,4.174,3.383,7.557,7.557,7.557c4.174,0,7.557-3.383,7.557-7.557V28.924c0-14.019-11.422-25.424-25.461-25.424H25.603
			C11.58,3.5,0.171,14.904,0.171,28.924v45.068C0.061,74.504,0,75.036,0,75.582c0,0.546,0.061,1.077,0.171,1.59v376.715
			c0,14.018,11.409,25.423,25.432,25.423h320.555l9.287,9.283c6.424,6.419,16.874,6.419,23.294-0.001l3.405-3.403
			c1.624,0.742,3.278,1.433,4.957,2.071v4.778c0,9.077,7.387,16.462,16.466,16.462h23.653c9.079,0,16.466-7.385,16.466-16.462v-4.3
			c1.81-0.659,3.593-1.381,5.345-2.163l3.017,3.017c6.424,6.419,16.874,6.418,23.294,0l16.758-16.751
			c6.36-6.41,6.36-16.84-0.034-23.283l-2.536-2.525c0.896-1.895,1.718-3.826,2.465-5.787h3.535c9.079,0,16.466-7.384,16.466-16.461
			v-23.671C512,391.038,504.613,383.653,495.534,383.653z M25.603,18.613h376.941c5.705,0,10.346,4.625,10.346,10.31v39.101H15.286
			V28.924C15.286,23.238,19.914,18.613,25.603,18.613z M496.885,423.786c0,0.718-0.632,1.347-1.352,1.347h-8.937
			c-3.331,0-6.27,2.181-7.234,5.37c-1.396,4.615-3.302,9.079-5.666,13.266c-1.672,2.961-1.16,6.674,1.25,9.072l6.427,6.397
			c0.517,0.521,0.517,1.436,0.022,1.935l-16.736,16.73c-0.521,0.519-1.403,0.519-1.924,0l-6.831-6.829
			c-2.354-2.353-5.968-2.891-8.905-1.321c-4.079,2.18-8.436,3.941-12.95,5.233c-3.242,0.928-5.477,3.893-5.477,7.265v9.787
			c0,0.718-0.631,1.348-1.351,1.348h-23.653c-0.72,0-1.352-0.631-1.352-1.348v-10.185c0-3.332-2.182-6.271-5.372-7.235
			c-4.395-1.328-8.62-3.095-12.557-5.254c-1.142-0.626-2.391-0.93-3.63-0.93c-1.957,0-3.891,0.76-5.345,2.213l-7.258,7.255
			c-0.521,0.519-1.403,0.52-1.924-0.001l-11.18-11.174c-0.192-0.215-0.395-0.418-0.61-0.61l-4.924-4.922
			c-0.517-0.521-0.517-1.436-0.022-1.936l7.258-7.255c2.376-2.374,2.899-6.034,1.283-8.979c-2.171-3.957-3.939-8.17-5.256-12.523
			c-0.965-3.189-3.903-5.369-7.234-5.369h-10.19c-0.72,0-1.352-0.63-1.352-1.347v-23.671c0-0.718,0.632-1.348,1.352-1.348h9.82
			c3.382,0,6.353-2.247,7.272-5.502c1.256-4.441,3.008-8.792,5.208-12.934c1.56-2.934,1.019-6.542-1.331-8.892l-6.831-6.827
			c-0.32-0.321-0.368-0.728-0.368-0.943c0-0.215,0.048-0.622,0.368-0.942L366.13,346c0.522-0.521,1.404-0.52,1.924,0l6.433,6.429
			c2.394,2.393,6.086,2.902,9.037,1.247c4.266-2.391,8.744-4.299,13.309-5.671c3.195-0.96,5.383-3.901,5.383-7.238v-8.933
			c0-0.718,0.632-1.347,1.352-1.347h23.653c0.72,0,1.351,0.63,1.351,1.347v8.564c0,3.385,2.25,6.356,5.508,7.274
			c4.749,1.339,9.351,3.217,13.678,5.586c2.939,1.607,6.584,1.091,8.958-1.271l6.018-5.987c0.522-0.521,1.404-0.52,1.924,0
			l16.736,16.728c0.32,0.321,0.368,0.728,0.368,0.943c0,0.215-0.048,0.622-0.368,0.942l-6.005,6.003
			c-2.375,2.374-2.899,6.031-1.285,8.976c2.37,4.325,4.249,8.925,5.588,13.67c0.919,3.257,3.89,5.506,7.274,5.506h8.567
			c0.72,0,1.352,0.631,1.352,1.348V423.786z"/>
		<path d="M365.598,48.856h0.199c4.174,0,7.557-3.383,7.557-7.557s-3.384-7.557-7.557-7.557h-0.199
			c-4.174,0-7.557,3.383-7.557,7.557S361.424,48.856,365.598,48.856z"/>
		<path d="M333.406,48.856h0.2c4.174,0,7.557-3.383,7.557-7.557s-3.383-7.557-7.557-7.557h-0.2c-4.174,0-7.557,3.383-7.557,7.557
			S329.232,48.856,333.406,48.856z"/>
		<path d="M301.242,49.027h0.171c4.174,0,7.557-3.383,7.557-7.557s-3.383-7.557-7.557-7.557h-0.171
			c-4.174,0-7.557,3.383-7.557,7.557S297.069,49.027,301.242,49.027z"/>
		<path d="M66.05,49.027h164.148c4.174,0,7.557-3.383,7.557-7.557s-3.383-7.557-7.557-7.557H66.05c-4.174,0-7.557,3.383-7.557,7.557
			S61.876,49.027,66.05,49.027z"/>
		<path d="M415.381,376.826c-19.36,0-35.11,15.757-35.11,35.125c0,19.353,15.75,35.097,35.11,35.097
			c19.375,0,35.138-15.744,35.138-35.097C450.519,392.583,434.756,376.826,415.381,376.826z M415.381,431.934
			c-11.026,0-19.995-8.965-19.995-19.984c0-11.034,8.97-20.011,19.995-20.011c11.041,0,20.024,8.977,20.024,20.011
			C435.404,422.969,426.422,431.934,415.381,431.934z"/>
	</g>
</g>
<g>
</g>
<g>
</g>
<g>
</g>
<g>
</g>
<g>
</g>
<g>
</g>
<g>
</g>
<g>
</g>
<g>
</g>
<g>
</g>
<g>
</g>
<g>
</g>
<g>
</g>
<g>
</g>
<g>
</g>
</svg>
