<?xml version="1.0" encoding="iso-8859-1"?>
<!-- Generator: Adobe Illustrator 23.0.3, SVG Export Plug-In . SVG Version: 6.00 Build 0)  -->
<svg version="1.1" id="Capa_1" xmlns="http://www.w3.org/2000/svg" xmlns:xlink="http://www.w3.org/1999/xlink" x="0px" y="0px"
	 viewBox="0 0 512.117 512.117" style="enable-background:new 0 0 512.117 512.117;" xml:space="preserve">
<g>
	<g>
		<path style="fill-rule:evenodd;clip-rule:evenodd;fill:#FCD968;" d="M369.51,256.938l29.134,17.308l29.163-17.308h2.221
			c0-50.453,48.836-56.972,48.778-111.233c-0.058-51.722-40.096-77.165-80.163-76.617c-40.038-0.548-80.076,24.895-80.134,76.617
			c-0.087,54.261,48.75,60.78,48.75,111.233H369.51z"/>
	</g>
	<g>
		<path style="fill-rule:evenodd;clip-rule:evenodd;fill:#C4CCCF;" d="M398.644,256.938H369.51
			c-12.606,0-22.904,10.327-22.904,22.904c0,12.606,10.298,22.933,22.904,22.933h58.298c12.577,0,22.904-10.327,22.904-22.933
			c0-12.577-10.327-22.904-22.904-22.904H398.644z"/>
	</g>
	<g>
		<path style="fill-rule:evenodd;clip-rule:evenodd;fill:#E69B56;" d="M448.548,145.705c0.058,54.261-48.778,60.78-48.778,111.233
			h28.038h2.221c0-50.453,48.836-56.972,48.778-111.233c-0.058-51.722-40.096-77.165-80.163-76.617
			c-5.077-0.058-10.125,0.288-15.115,1.038C417.942,75.406,448.49,100.532,448.548,145.705L448.548,145.705z"/>
	</g>
	<g>
		<path style="fill-rule:evenodd;clip-rule:evenodd;fill:#90A4AE;" d="M450.711,279.843c0-12.577-10.327-22.904-22.904-22.904
			h-28.038h-1.125h-1.125c6.837,0,12.981,3.029,17.163,7.789c3.577,4.039,5.769,9.346,5.769,15.116
			c0,12.606-10.327,22.933-22.933,22.933h30.288C440.384,302.776,450.711,292.449,450.711,279.843L450.711,279.843z"/>
	</g>
	<g>
		<path style="fill-rule:evenodd;clip-rule:evenodd;fill:#C4CCCF;" d="M99.598,326.834l-82.932,26.712v68.049
			c0,45.635,37.327,82.963,82.932,82.963c45.634,0,82.961-37.328,82.961-82.963v-68.049L99.598,326.834z"/>
	</g>
	<g>
		<path style="fill-rule:evenodd;clip-rule:evenodd;fill:#ECEFF1;" d="M99.598,353.546l24.288-28.731l-24.288-48.636H54.454
			c-20.769,0-37.788,17.02-37.788,37.818v39.549H99.598z"/>
	</g>
	<g>
		<path style="fill-rule:evenodd;clip-rule:evenodd;fill:#ECEFF1;" d="M99.598,276.179v77.367h82.961v-39.549
			c0-20.798-17.019-37.818-37.817-37.818H99.598z"/>
	</g>
	<g>
		<path style="fill-rule:evenodd;clip-rule:evenodd;fill:#C4CCCF;" d="M146.588,373.912h35.971v-59.915
			c0-20.798-17.019-37.818-37.817-37.818h-35.971c20.798,0,37.817,17.02,37.817,37.818v48.318V373.912z"/>
	</g>
	<g>
		<path style="fill-rule:evenodd;clip-rule:evenodd;fill:#90A4AE;" d="M182.559,353.546h-35.971v68.049
			c0,39.462-27.923,72.694-64.961,80.973c5.798,1.298,11.798,1.99,17.971,1.99c45.634,0,82.961-37.328,82.961-82.963V353.546z"/>
	</g>
	<g>
		<path d="M398.702,39.637c4.175,0,7.559-3.384,7.559-7.559V7.559c0-4.175-3.384-7.559-7.559-7.559s-7.559,3.384-7.559,7.559v24.52
			C391.143,36.253,394.527,39.637,398.702,39.637z"/>
		<path d="M313.944,59.231c1.476,1.477,3.411,2.214,5.345,2.214c1.934,0,3.869-0.737,5.345-2.214c2.952-2.951,2.952-7.737,0-10.689
			l-17.336-17.337c-2.952-2.952-7.739-2.954-10.69,0c-2.952,2.951-2.952,7.737,0,10.689L313.944,59.231z"/>
		<path d="M500.801,31.209c-2.95-2.954-7.736-2.957-10.69-0.009l-17.365,17.337c-2.954,2.95-2.958,7.736-0.009,10.69
			c1.477,1.479,3.413,2.218,5.35,2.218c1.933,0,3.865-0.736,5.341-2.209l17.365-17.337C503.746,38.949,503.75,34.163,500.801,31.209
			z"/>
		<path d="M398.643,61.529c-18.993-0.218-37.552,5.003-52.308,14.758c-16.546,10.938-27.847,27.012-32.681,46.481
			c-1.006,4.052,1.463,8.151,5.515,9.157c4.052,1.01,8.152-1.463,9.158-5.515c9.262-37.306,43.565-50.138,70.215-49.764
			c0.067-0.001,0.136-0.001,0.206,0c20.805-0.312,40.295,7.02,53.508,20.038c12.403,12.221,18.97,29.174,18.992,49.027
			c0.027,24.901-11.306,38.563-23.304,53.027c-11.329,13.657-23.006,27.733-25.132,50.64h-16.609v-68.25h16.412
			c4.175,0,7.559-3.384,7.559-7.559s-3.384-7.559-7.559-7.559h-48.894c-4.175,0-7.559,3.384-7.559,7.559s3.384,7.559,7.559,7.559
			h17.364v68.25h-16.609c-2.126-22.91-13.802-36.989-25.13-50.648c-9.832-11.855-19.118-23.054-22.214-40.205
			c-0.742-4.109-4.677-6.836-8.782-6.096c-4.108,0.741-6.837,4.673-6.096,8.781c3.801,21.06,14.809,34.333,25.455,47.17
			c10.715,12.92,20.101,24.242,21.738,42.714c-11.866,4.166-20.4,15.475-20.4,28.747c0,16.813,13.666,30.491,30.463,30.491h21.575
			v127.041c0,14.299-11.62,25.932-25.902,25.932h-71.191c-14.298,0-25.931-11.633-25.931-25.932V189.813
			c0-22.619-18.402-41.021-41.021-41.021h-93.951c-22.635,0-41.049,18.402-41.049,41.021v78.808H54.455
			c-25.005,0-45.348,20.355-45.348,45.377v107.599c0,49.914,40.594,90.521,90.491,90.521c49.913,0,90.52-40.607,90.52-90.521
			c0-4.175-3.384-7.559-7.559-7.559S175,417.421,175,421.596C175,463.174,141.175,497,99.598,497
			c-41.561,0-75.373-33.826-75.373-75.404v-60.491H175v21.173c0,4.175,3.384,7.559,7.559,7.559s7.559-3.384,7.559-7.559v-68.28
			c0-25.021-20.355-45.377-45.376-45.377h-37.585v-78.808c0-14.283,11.633-25.904,25.931-25.904h93.951
			c14.283,0,25.902,11.621,25.902,25.904v247.563c0,22.635,18.415,41.049,41.049,41.049h71.191
			c22.619,0,41.021-18.414,41.021-41.049V310.334h21.604c16.797,0,30.463-13.678,30.463-30.491c0-13.282-8.547-24.599-20.428-28.757
			c1.64-18.46,11.025-29.778,21.738-42.693c12.571-15.155,26.818-32.331,26.786-62.696c-0.027-23.986-8.153-44.658-23.5-59.779
			C446.815,70.102,423.433,61.177,398.643,61.529z M24.225,313.997c0-16.686,13.561-30.26,30.229-30.26h37.584v62.25H24.225V313.997
			z M144.742,283.737c16.684,0,30.258,13.574,30.258,30.26v31.99h-67.843v-62.25H144.742z M443.152,279.843
			c0,8.478-6.884,15.374-15.345,15.374H369.51c-8.461,0-15.345-6.896-15.345-15.374c0-8.461,6.884-15.346,15.345-15.346h58.297
			C436.268,264.497,443.152,271.382,443.152,279.843z"/>
	</g>
</g>
<g>
</g>
<g>
</g>
<g>
</g>
<g>
</g>
<g>
</g>
<g>
</g>
<g>
</g>
<g>
</g>
<g>
</g>
<g>
</g>
<g>
</g>
<g>
</g>
<g>
</g>
<g>
</g>
<g>
</g>
</svg>
