<?xml version="1.0" encoding="iso-8859-1"?>
<!-- Generator: Adobe Illustrator 23.0.3, SVG Export Plug-In . SVG Version: 6.00 Build 0)  -->
<svg version="1.1" id="Capa_1" xmlns="http://www.w3.org/2000/svg" xmlns:xlink="http://www.w3.org/1999/xlink" x="0px" y="0px"
	 viewBox="0 0 512 512" style="enable-background:new 0 0 512 512;" xml:space="preserve">
<g>
	<g>
		<path style="fill-rule:evenodd;clip-rule:evenodd;fill:#E6E6E6;" d="M23.557,80.249h319.072h145.814V27.678
			c0-11.081-9.073-20.121-20.158-20.121H43.687c-11.057,0-20.13,9.069-20.13,20.121V80.249z"/>
	</g>
	<g>
		<path style="fill-rule:evenodd;clip-rule:evenodd;fill:#8EBFE8;" d="M342.629,80.249H23.557v404.044
			c0,11.081,9.073,20.15,20.13,20.15h65.493h202.603h156.502c11.086,0,20.158-9.069,20.158-20.15V80.249H342.629z"/>
	</g>
	<g>
		<path style="fill-rule:evenodd;clip-rule:evenodd;fill:#C4CCCF;" d="M446.256,80.249h33.767h8.421V27.678
			c0-6.717-3.346-12.696-8.421-16.352c-3.317-2.381-7.371-3.769-11.738-3.769h-42.188c11.086,0,20.158,9.04,20.158,20.121V80.249z"
			/>
	</g>
	<g>
		<path style="fill-rule:evenodd;clip-rule:evenodd;fill:#519AD6;" d="M480.023,80.249h-33.767v404.044
			c0,11.081-9.073,20.15-20.158,20.15h42.188c4.366,0,8.421-1.417,11.738-3.798c5.075-3.656,8.421-9.636,8.421-16.352V80.249
			H480.023z"/>
	</g>
	<g>
		<path style="fill-rule:evenodd;clip-rule:evenodd;fill:#C4CCCF;" d="M397.377,422.852l-22.256-25.053l4.565-4.053
			c10.32-10.202,2.325-19.668-7.655-21.907l-34.589-7.737c-13.751-3.684-18.344,2.749-17.607,14.085l3.742,36.672
			c1.049,10.202,9.526,19.215,20.895,10.174l4.536-4.053l22.285,25.024c1.644,1.87,4.508,2.04,6.379,0.397l19.336-17.174
			C398.851,427.585,399.021,424.694,397.377,422.852L397.377,422.852z"/>
	</g>
	<g>
		<path style="fill-rule:evenodd;clip-rule:evenodd;fill:#90A4AE;" d="M377.757,402.135c0,13.518-5.897,25.648-15.282,33.98
			l8.817,9.891c1.644,1.87,4.508,2.04,6.379,0.397l19.336-17.174c1.843-1.644,2.013-4.534,0.369-6.377l-19.62-22.077
			C377.757,401.229,377.757,401.682,377.757,402.135L377.757,402.135z"/>
	</g>
	<g>
		<path style="fill-rule:evenodd;clip-rule:evenodd;fill:#F55A8E;" d="M240.563,295.889c-1.333-3.939-2.835-7.68-4.536-11.223
			c-12.39-25.591-34.901-40.328-57.498-45.713c-13.921-4.166-29.486-4.364-43.974,0.028c-22.54,5.441-44.966,20.15-57.328,45.684
			c-1.701,3.542-3.204,7.283-4.536,11.223c-8.647,25.846,13.07,28.482,23.22,28.482h60.701h53.16h7.57
			C227.492,324.37,249.182,321.735,240.563,295.889L240.563,295.889z"/>
	</g>
	<g>
		<path style="fill-rule:evenodd;clip-rule:evenodd;fill:#BA4583;" d="M168.691,242.836c18.202,7.227,35.1,20.887,45.221,41.83
			c1.701,3.542,3.204,7.283,4.536,11.223c5.302,15.842-0.822,22.984-8.676,26.101c-4.962,1.984-10.604,2.381-14.545,2.381h14.545
			h7.57c10.15,0,31.839-2.636,23.22-28.482c-1.333-3.939-2.835-7.68-4.536-11.223c-12.39-25.591-34.901-40.328-57.498-45.713
			c-3.827-1.162-7.797-2.012-11.823-2.522c-6.946-0.935-14.119-0.907-21.179,0.113c3.714,0.538,7.343,1.332,10.887,2.409
			c1.333,0.312,2.637,0.652,3.941,1.02C163.162,240.796,165.94,241.731,168.691,242.836L168.691,242.836z"/>
	</g>
	<g>
		<path style="fill-rule:evenodd;clip-rule:evenodd;fill:#FED8B3;" d="M203.11,176.889h-26.707c-18.174,0-25.744-4.506-32.094-8.332
			c-8.732-5.271-10.717-9.267-18.23,1.559c-3.346,4.818-6.011,6.773-10.547,6.773h-5.84v25.251c0,18.393,14.601,34.15,32.35,39.959
			c4.99,1.474,9.101,2.381,14.374,2.409c4.933,0.028,9.866-0.822,14.573-2.352c4.309-1.445,8.449-3.457,12.248-5.98
			c11.596-7.765,19.875-20.178,19.875-34.036V176.889z"/>
	</g>
	<g>
		<path style="fill-rule:evenodd;clip-rule:evenodd;fill:#546E7A;" d="M203.11,184.569c0.227-2.296,0.028-5.526,0-7.68
			c-0.369-64.134-93.42-55.575-93.42-2.976v10.684l5.84-0.028c4.536,0,7.201-1.955,10.547-6.745
			c7.513-10.826,9.498-6.858,18.23-1.587c6.351,3.826,13.921,8.332,32.094,8.332H203.11z"/>
	</g>
	<g>
		<path style="fill-rule:evenodd;clip-rule:evenodd;fill:#37474F;" d="M186.836,176.889c0,2.154,0.198,5.385,0,7.68h16.274
			c0.227-2.296,0.028-5.526,0-7.68c-0.198-35.085-28.097-48.405-53.387-44.692C169.399,135.172,186.666,149.314,186.836,176.889
			L186.836,176.889z"/>
	</g>
	<g>
		<path style="fill-rule:evenodd;clip-rule:evenodd;fill:#FCC172;" d="M186.836,202.253c0,13.858-8.279,26.271-19.903,34.008
			c-1.928,1.304-3.969,2.466-6.067,3.486c-1.985,0.964-4.054,1.814-6.181,2.494c-1.928,0.652-3.884,1.162-5.869,1.559
			c0.992,0.17,1.985,0.312,3.005,0.425c1.446,0.17,2.949,0.255,4.565,0.283c0,0,0,0,0.028,0c4.791,0.028,9.583-0.765,14.148-2.239
			c0.142-0.028,0.284-0.085,0.425-0.113c4.309-1.445,8.449-3.457,12.248-5.98c11.596-7.765,19.875-20.178,19.875-34.036v-17.571
			h-16.274V202.253z"/>
	</g>
	<g>
		<path style="fill-rule:evenodd;clip-rule:evenodd;fill:#FCD968;" d="M85.818,367.362c-9.81,0-17.748,7.935-17.748,17.741
			c0,9.806,7.939,17.741,17.748,17.741c9.81,0,17.748-7.935,17.748-17.741C103.566,375.297,95.628,367.362,85.818,367.362
			L85.818,367.362z"/>
	</g>
	<g>
		<path style="fill-rule:evenodd;clip-rule:evenodd;fill:#FCD968;" d="M155.308,367.362c-9.81,0-17.748,7.935-17.748,17.741
			c0,9.806,7.939,17.741,17.748,17.741s17.748-7.935,17.748-17.741C173.057,375.297,165.118,367.362,155.308,367.362
			L155.308,367.362z"/>
	</g>
	<g>
		<path style="fill-rule:evenodd;clip-rule:evenodd;fill:#FCD968;" d="M224.799,367.362c-9.81,0-17.748,7.935-17.748,17.741
			c0,9.806,7.939,17.741,17.748,17.741s17.748-7.935,17.748-17.741C242.547,375.297,234.609,367.362,224.799,367.362
			L224.799,367.362z"/>
	</g>
	<g>
		<path d="M426.863,49.207c4.174,0,7.557-3.383,7.557-7.557s-3.383-7.557-7.557-7.557h-0.198c-4.174,0-7.557,3.383-7.557,7.557
			s3.383,7.557,7.557,7.557H426.863z"/>
		<path d="M390.629,49.207c4.174,0,7.557-3.383,7.557-7.557s-3.383-7.557-7.557-7.557h-0.227c-4.174,0-7.557,3.383-7.557,7.557
			s3.383,7.557,7.557,7.557H390.629z"/>
		<path d="M354.367,49.376c4.174,0,7.557-3.383,7.557-7.557s-3.383-7.557-7.557-7.557h-0.198c-4.174,0-7.557,3.383-7.557,7.557
			s3.383,7.557,7.557,7.557H354.367z"/>
		<path d="M468.285,0H43.687C28.42,0,16,12.416,16,27.678v456.615C16,499.571,28.42,512,43.687,512h424.598
			C483.568,512,496,499.571,496,484.293v-88.902c0-4.174-3.383-7.557-7.557-7.557c-4.174,0-7.557,3.383-7.557,7.557v88.902
			c0,6.944-5.653,12.593-12.601,12.593H43.687c-6.932,0-12.573-5.649-12.573-12.593V87.806h190.14c4.174,0,7.557-3.383,7.557-7.557
			c0-4.174-3.383-7.557-7.557-7.557H31.114V27.678c0-6.928,5.64-12.565,12.573-12.565h424.598c6.948,0,12.601,5.636,12.601,12.565
			v45.014H255.873c-4.174,0-7.557,3.383-7.557,7.557c0,4.174,3.383,7.557,7.557,7.557h225.014v272.953
			c0,4.174,3.383,7.557,7.557,7.557c4.174,0,7.557-3.383,7.557-7.557V27.678C496,12.416,483.568,0,468.285,0z"/>
		<path d="M281.717,41.82c0-4.174-3.383-7.557-7.557-7.557H89.249c-4.174,0-7.557,3.383-7.557,7.557s3.383,7.557,7.557,7.557H274.16
			C278.334,49.376,281.717,45.993,281.717,41.82z"/>
		<path d="M312.317,378.955l3.743,36.677c0.927,9.013,5.817,16.426,12.763,19.35c3.615,1.52,10.868,3.037,19.516-3.389
			l17.279,19.403c2.379,2.706,5.713,4.089,9.065,4.089c2.835,0,5.683-0.99,7.977-3.005c0.011-0.009,0.021-0.018,0.031-0.027
			l19.35-17.186c2.395-2.137,3.816-5.09,4.004-8.314c0.188-3.235-0.888-6.336-3.018-8.721l-17.292-19.464
			c7.394-7.802,6.749-15.169,5.669-18.934c-2.08-7.248-8.87-12.984-17.723-14.97l-34.443-7.703
			c-8.683-2.295-15.567-1.423-20.461,2.591c-4.876,4-7.058,10.501-6.484,19.326C312.299,378.771,312.307,378.863,312.317,378.955z
			 M328.362,371.038c0.49-0.402,2.614-0.845,7.123,0.365c0.102,0.027,0.203,0.052,0.306,0.075l34.585,7.736
			c3.637,0.815,6.064,2.871,6.499,4.391c0.442,1.54-1.416,3.669-2.374,4.639l-4.398,3.904c-1.499,1.332-2.408,3.203-2.527,5.205
			c-0.118,2.001,0.563,3.968,1.894,5.467l20.241,22.784l-14.78,13.126l-20.279-22.773c-1.335-1.498-3.21-2.405-5.214-2.519
			c-0.143-0.008-0.287-0.012-0.431-0.012c-1.852,0-3.647,0.681-5.035,1.921l-4.358,3.894c-1.091,0.845-3.436,2.435-4.93,1.811
			c-1.457-0.613-3.209-3.262-3.59-6.958l-3.728-36.527C327.106,373.267,327.901,371.417,328.362,371.038z"/>
		<path d="M156.613,290.089h-0.17c-4.174,0-7.557,3.383-7.557,7.557c0,4.174,3.383,7.557,7.557,7.557h0.17
			c4.174,0,7.557-3.383,7.557-7.557C164.17,293.472,160.786,290.089,156.613,290.089z"/>
		<path d="M155.79,281.964h0.199c4.174,0,7.557-3.383,7.557-7.557s-3.383-7.557-7.557-7.557h-0.199
			c-4.174,0-7.557,3.383-7.557,7.557S151.617,281.964,155.79,281.964z"/>
		<path d="M217.342,331.927c13.32,0,23.174-3.903,28.497-11.29c4.964-6.888,5.6-16.019,1.881-27.171
			c-1.448-4.278-3.091-8.34-4.893-12.093c-9.89-20.428-26.879-36.26-47.794-44.976c9.919-9.392,15.633-21.681,15.633-34.258v-17.375
			c0.157-2.044,0.101-4.266,0.042-6.252c-0.018-0.619-0.036-1.204-0.042-1.666c-0.21-36.497-26.607-52.802-52.739-52.802
			c-0.059,0-0.121,0-0.18,0c-13.814,0.04-27.538,4.689-37.655,12.755c-11.582,9.234-17.96,22.415-17.96,37.115v10.684v17.542
			c0,13.004,6.147,25.252,15.827,34.366c-20.805,8.758-37.7,24.553-47.546,44.891c-1.794,3.735-3.436,7.797-4.89,12.095
			c-3.719,11.117-3.09,20.246,1.87,27.136c5.322,7.393,15.183,11.3,28.516,11.3H217.342z M117.248,173.913
			c0-22.498,20.889-34.698,40.544-34.755c0.044,0,0.086,0,0.13,0c17.29,0,37.471,9.885,37.632,37.83c0,0.008,0,0.016,0,0.023
			h-19.152c-16.164,0-22.28-3.685-28.189-7.245c-1.145-0.69-2.174-1.365-3.169-2.018c-3.268-2.141-6.634-4.348-10.82-4.348
			c-0.5,0-1.012,0.032-1.536,0.099c-5.657,0.721-9.504,5.239-12.806,9.997c-1.222,1.751-2.003,2.629-2.634,3.071V173.913z
			 M117.248,192.054c7.491-0.596,11.657-5.081,15.038-9.922c1.073-1.547,1.85-2.502,2.377-3.084
			c0.643,0.391,1.416,0.897,2.096,1.342c1.059,0.694,2.259,1.481,3.649,2.32c6.596,3.974,15.629,9.416,35.994,9.416h19.151v10.013
			c0,10.453-6.177,20.829-16.498,27.742c-6.936,4.605-15.002,7.093-22.595,7.071c-6.249-0.038-12.325-1.61-17.758-4.279
			c-0.457-0.3-0.943-0.556-1.455-0.752c-11.654-6.286-19.999-17.695-19.999-29.782V192.054z M79.661,311.796
			c-2.439-3.388-1.239-9.217,0.189-13.486c1.25-3.696,2.66-7.186,4.179-10.35c9.718-20.074,27.733-34.851,49.674-40.923
			c6.979,3.158,14.685,4.98,22.665,5.029c0.098,0.001,0.194,0.001,0.292,0.001c7.583,0,15.368-1.777,22.627-5.091
			c22.051,5.999,40.165,20.801,49.926,40.962c1.528,3.182,2.938,6.671,4.18,10.341c1.433,4.296,2.628,10.13,0.185,13.52
			c-2.296,3.186-8.214,5.013-16.236,5.013h-0.013v-24.892c0-4.174-3.383-7.557-7.557-7.557s-7.557,3.383-7.557,7.557v24.892h-92.424
			v-24.892c0-4.174-3.383-7.557-7.557-7.557s-7.557,3.383-7.557,7.557v24.874C87.275,316.616,81.836,314.818,79.661,311.796z"/>
		<path d="M429.954,234.514h-83.809c-4.174,0-7.557,3.383-7.557,7.557s3.383,7.557,7.557,7.557h83.809
			c4.174,0,7.557-3.383,7.557-7.557S434.127,234.514,429.954,234.514z"/>
		<path d="M429.954,205.296h-83.809c-4.174,0-7.557,3.383-7.557,7.557c0,4.174,3.383,7.557,7.557,7.557h83.809
			c4.174,0,7.557-3.383,7.557-7.557C437.51,208.679,434.127,205.296,429.954,205.296z"/>
		<path d="M311.405,207.562l-21.945,22.38l-8.431-6.286c-3.347-2.495-8.08-1.805-10.576,1.543
			c-2.495,3.346-1.804,8.081,1.543,10.576l13.722,10.23c1.348,1.006,2.935,1.499,4.515,1.499c1.969,0,3.929-0.768,5.398-2.267
			l26.566-27.092c2.922-2.98,2.875-7.765-0.105-10.687C319.113,204.535,314.327,204.58,311.405,207.562z"/>
		<path d="M437.51,320.261c0-4.174-3.383-7.557-7.557-7.557h-83.809c-4.174,0-7.557,3.383-7.557,7.557s3.383,7.557,7.557,7.557
			h83.809C434.127,327.818,437.51,324.435,437.51,320.261z"/>
		<path d="M429.954,283.514h-83.809c-4.174,0-7.557,3.383-7.557,7.557s3.383,7.557,7.557,7.557h83.809
			c4.174,0,7.557-3.383,7.557-7.557S434.127,283.514,429.954,283.514z"/>
		<path d="M271.996,313.993l13.722,10.23c1.348,1.006,2.935,1.499,4.515,1.499c1.969,0,3.929-0.768,5.398-2.267l26.566-27.092
			c2.922-2.98,2.875-7.765-0.105-10.687c-2.979-2.921-7.765-2.876-10.687,0.105l-21.945,22.38l-8.431-6.286
			c-3.347-2.494-8.08-1.806-10.576,1.543C267.959,306.763,268.649,311.498,271.996,313.993z"/>
		<path d="M429.954,156.295h-83.809c-4.174,0-7.557,3.383-7.557,7.557c0,4.174,3.383,7.557,7.557,7.557h83.809
			c4.174,0,7.557-3.383,7.557-7.557C437.51,159.678,434.127,156.295,429.954,156.295z"/>
		<path d="M429.954,127.105h-83.809c-4.174,0-7.557,3.383-7.557,7.557s3.383,7.557,7.557,7.557h83.809
			c4.174,0,7.557-3.383,7.557-7.557S434.127,127.105,429.954,127.105z"/>
		<path d="M322.091,129.265c-2.979-2.921-7.765-2.876-10.687,0.105l-21.944,22.38l-8.431-6.286
			c-3.349-2.495-8.081-1.805-10.577,1.542c-2.495,3.347-1.804,8.081,1.542,10.577l13.722,10.23c1.349,1.006,2.936,1.5,4.516,1.5
			c1.97,0,3.929-0.768,5.398-2.267l26.566-27.093C325.119,136.973,325.072,132.188,322.091,129.265z"/>
		<path d="M60.513,385.103c0,13.95,11.352,25.298,25.305,25.298c13.954,0,25.306-11.348,25.306-25.298
			c0-13.95-11.352-25.298-25.306-25.298C71.865,359.805,60.513,371.153,60.513,385.103z M96.009,385.103
			c0,5.615-4.572,10.184-10.191,10.184c-5.619,0-10.191-4.569-10.191-10.184s4.572-10.184,10.191-10.184
			C91.438,374.919,96.009,379.488,96.009,385.103z"/>
		<path d="M130.003,385.103c0,13.95,11.352,25.298,25.306,25.298c13.953,0,25.305-11.348,25.305-25.298
			c0-13.95-11.352-25.298-25.305-25.298C141.355,359.805,130.003,371.153,130.003,385.103z M165.499,385.103
			c0,5.615-4.572,10.184-10.191,10.184c-5.62,0-10.191-4.569-10.191-10.184s4.572-10.184,10.191-10.184
			C160.928,374.919,165.499,379.488,165.499,385.103z"/>
		<path d="M224.799,410.401c13.954,0,25.306-11.348,25.306-25.298c0-13.95-11.352-25.298-25.306-25.298
			c-13.953,0-25.305,11.348-25.305,25.298C199.494,399.053,210.846,410.401,224.799,410.401z M224.799,374.919
			c5.62,0,10.191,4.569,10.191,10.184s-4.572,10.184-10.191,10.184c-5.619,0-10.191-4.569-10.191-10.184
			S219.18,374.919,224.799,374.919z"/>
	</g>
</g>
<g>
</g>
<g>
</g>
<g>
</g>
<g>
</g>
<g>
</g>
<g>
</g>
<g>
</g>
<g>
</g>
<g>
</g>
<g>
</g>
<g>
</g>
<g>
</g>
<g>
</g>
<g>
</g>
<g>
</g>
</svg>
