<?xml version="1.0" encoding="iso-8859-1"?>
<!-- Generator: Adobe Illustrator 23.0.3, SVG Export Plug-In . SVG Version: 6.00 Build 0)  -->
<svg version="1.1" id="Capa_1" xmlns="http://www.w3.org/2000/svg" xmlns:xlink="http://www.w3.org/1999/xlink" x="0px" y="0px"
	 viewBox="0 0 512 512" style="enable-background:new 0 0 512 512;" xml:space="preserve">
<g>
	<g>
		<path style="fill-rule:evenodd;clip-rule:evenodd;fill:#546E7A;" d="M119.152,317.964h59.581h81.414h131.446
			c0.558,0,1.117-0.028,1.675-0.056c17.673-0.866,31.828-15.624,31.828-33.483V172.655L251.212,120.53L85.648,171.509v112.915
			c0,17.915,14.239,32.673,31.94,33.483C118.119,317.936,118.621,317.964,119.152,317.964L119.152,317.964z"/>
	</g>
	<g>
		<path style="fill-rule:evenodd;clip-rule:evenodd;fill:#FFD54F;" d="M484.034,239.901c-11.224,0-20.409,9.195-20.409,20.431
			v32.086c0,11.236,9.186,20.431,20.409,20.431c11.224,0,20.409-9.195,20.409-20.431v-32.086
			C504.443,249.097,495.258,239.901,484.034,239.901L484.034,239.901z"/>
	</g>
	<g>
		<path style="fill-rule:evenodd;clip-rule:evenodd;fill:#7C8C94;" d="M255.372,94.537c-8.683,0-17.338,1.956-33.196,5.897
			L29.334,145.516c-10.637,2.487-14.881,9.754-14.379,16.937c-0.503,7.183,3.741,14.45,14.379,16.937l192.841,45.082
			c15.858,3.941,24.513,5.897,33.196,5.897c8.655,0,17.338-1.956,33.169-5.897l192.869-45.082
			c10.637-2.487,14.881-9.754,14.379-16.937c0.503-7.183-3.741-14.45-14.379-16.937L288.54,100.434
			C272.71,96.493,264.027,94.537,255.372,94.537L255.372,94.537z"/>
	</g>
	<g>
		<path style="fill-rule:evenodd;clip-rule:evenodd;fill:#546E7A;" d="M323.97,108.707c27.864,17.776,45.062,42.203,45.062,69.119
			c0,2.571-0.168,5.115-0.475,7.63c-0.921,7.574-3.183,14.897-6.673,21.884l44.727-10.481l74.797-17.468
			c0.921-0.224,1.787-0.475,2.624-0.755c8.711-3.018,12.201-9.642,11.754-16.183c0.503-7.183-3.741-14.45-14.379-16.937
			L323.97,108.707z"/>
	</g>
	<g>
		<path style="fill-rule:evenodd;clip-rule:evenodd;fill:#37474F;" d="M85.648,229.56l110.003,25.63l26.524,6.177
			c31.689,7.854,34.704,7.854,66.365,0l27.277-5.981l24.541-5.366c26.859-5.897,27.333-1.901,27.333,26.803v41.141h23.899
			c0.558,0,1.117-0.028,1.675-0.056c17.673-0.866,31.828-15.624,31.828-33.483v-53.746v-37.452
			c-5.444,1.397-11.056,2.907-16.891,4.472L288.54,223.886c-31.661,7.854-34.676,7.854-66.365,0L85.648,192.08V229.56z"/>
	</g>
	<g>
		<path style="fill-rule:evenodd;clip-rule:evenodd;fill:#C4CCCF;" d="M40.195,265.363l-15.858,15.875
			c-3.295,3.27-3.295,8.664,0,11.934l6.449,6.456c-2.289,4.332-4.16,8.916-5.5,13.695h-9.297c-4.635,0-8.432,3.801-8.432,8.469
			v22.443c0,4.64,3.797,8.441,8.432,8.441h9.66c1.396,4.64,3.267,9.083,5.556,13.276l-6.868,6.876
			c-3.295,3.298-3.295,8.664,0,11.962l15.858,15.875c3.267,3.27,8.627,3.27,11.922,0l6.868-6.903
			c4.188,2.292,8.627,4.164,13.262,5.59v9.643c0,4.668,3.797,8.469,8.432,8.469h22.447c4.635,0,8.432-3.801,8.432-8.469v-9.307
			c4.774-1.342,9.353-3.214,13.681-5.506l6.449,6.484c3.295,3.27,8.655,3.27,11.95,0l15.858-15.875
			c3.267-3.298,3.267-8.664,0-11.962l-6.114-6.121c2.485-4.388,4.495-9.084,5.975-14.031h8.46c4.663,0,8.46-3.801,8.46-8.441
			v-22.443c0-4.668-3.797-8.469-8.46-8.469h-8.097c-1.424-5.059-3.434-9.922-5.919-14.45l5.696-5.702
			c3.267-3.27,3.267-8.664,0-11.934l-15.858-15.875c-3.295-3.298-8.655-3.298-11.95,0l-5.668,5.674
			c-4.551-2.487-9.381-4.472-14.462-5.925v-8.105c0-4.64-3.797-8.441-8.432-8.441H80.678c-4.635,0-8.432,3.801-8.432,8.441v8.469
			c-4.914,1.481-9.632,3.522-14.016,6.009l-6.114-6.121C48.822,262.065,43.462,262.065,40.195,265.363L40.195,265.363z"/>
	</g>
	<path style="fill-rule:evenodd;clip-rule:evenodd;fill:#546E7A;" d="M91.902,359.161c14.379,0,26.105-11.767,26.105-26.161
		c0-14.394-11.726-26.133-26.105-26.133S65.797,318.606,65.797,333C65.797,347.394,77.524,359.161,91.902,359.161L91.902,359.161z"
		/>
	<g>
		<path style="fill-rule:evenodd;clip-rule:evenodd;fill:#90A4AE;" d="M126.243,270.813c4.914,14.226,8.069,30.185,9.018,47.15
			c0,0.112,0,0.224,0,0.363c0.195,3.326,0.279,6.708,0.279,10.118c0,24.847-4.774,47.905-12.955,67.078
			c0.893-0.419,1.787-0.866,2.652-1.342l6.449,6.484c3.295,3.27,8.655,3.27,11.95,0l15.858-15.875c3.267-3.298,3.267-8.664,0-11.962
			l-6.114-6.121c2.485-4.388,4.495-9.111,5.975-14.031h8.46c4.663,0,8.46-3.801,8.46-8.441v-22.443c0-1.397-0.335-2.683-0.921-3.829
			l0,0c-1.424-2.739-4.272-4.64-7.538-4.64h-8.097c-1.424-5.059-3.434-9.922-5.919-14.45l5.696-5.702
			c3.267-3.27,3.267-8.664,0-11.934l-15.858-15.875c-3.295-3.298-8.655-3.298-11.95,0L126.243,270.813z"/>
	</g>
	<g>
		<path d="M58.241,333c0,18.592,15.1,33.718,33.661,33.718s33.662-15.125,33.662-33.718c0-18.577-15.101-33.69-33.662-33.69
			S58.241,314.423,58.241,333z M91.902,314.424c10.227,0,18.548,8.333,18.548,18.576c0,10.258-8.321,18.604-18.548,18.604
			S73.354,343.258,73.354,333C73.354,322.757,81.675,314.424,91.902,314.424z"/>
		<path d="M491.591,233.391v-49.933c7.779-4.482,12.203-12.09,11.768-21.004c0.575-11.771-7.311-21.275-20.229-24.296
			l-192.814-45.07c-16.682-4.152-25.575-6.108-34.943-6.108c-9.354,0-18.258,1.956-34.964,6.106L27.613,138.158
			c-12.917,3.021-20.803,12.525-20.228,24.296c-0.575,11.771,7.312,21.275,20.229,24.295l50.952,11.912
			c-0.301,0.816-0.474,1.694-0.474,2.614v39.962c-7.587,1.243-13.401,7.83-13.401,15.769v3.078c-1.696,0.654-3.37,1.371-5.019,2.147
			l-2.208-2.21c-3.032-3.033-7.053-4.732-11.353-4.689c-4.27,0.01-8.271,1.677-11.27,4.698l-15.828,15.844
			c-3.033,3.011-4.704,7.035-4.704,11.331c0,4.295,1.671,8.319,4.682,11.307l2.657,2.661c-0.67,1.519-1.288,3.051-1.853,4.594
			h-3.805C7.172,305.767,0,312.956,0,321.793v22.443c0,8.821,7.172,15.997,15.989,15.997h4.263c0.547,1.424,1.135,2.832,1.767,4.223
			l-3.03,3.032c-6.236,6.244-6.236,16.402,0.001,22.643l15.858,15.875c6.21,6.215,16.346,6.226,22.627-0.011l3.02-3.034
			c1.379,0.627,2.779,1.216,4.196,1.764v4.27c0,8.837,7.172,16.026,15.989,16.026h22.447c8.816,0,15.989-7.189,15.989-16.026v-3.818
			c1.533-0.562,3.056-1.178,4.565-1.845l2.683,2.698c6.231,6.185,16.368,6.184,22.621-0.022l15.88-15.897
			c6.173-6.23,6.173-16.368-0.021-22.623l-2.219-2.221c0.772-1.649,1.485-3.327,2.137-5.032h3.056
			c8.831,0,16.016-7.176,16.016-15.997V325.52h63.192c4.174,0,7.557-3.383,7.557-7.557c0-4.174-3.383-7.557-7.557-7.557H179.07
			c-2.895-2.865-6.87-4.64-11.254-4.64h-2.605c-0.669-1.826-1.409-3.629-2.217-5.404l1.848-1.849c6.23-6.236,6.23-16.381,0-22.616
			l-15.858-15.875c-3.022-3.025-7.042-4.69-11.323-4.69c-4.279,0-8.3,1.666-11.321,4.69l-1.822,1.824
			c-1.77-0.804-3.573-1.543-5.405-2.214v-2.625c0-8.822-7.172-15.998-15.989-15.998h-9.921v-38.925l127.195,29.736
			c16.706,4.151,25.61,6.108,34.971,6.108c9.373,0,18.265-1.956,34.94-6.107l127.226-29.739v82.343
			c0,14.327-11.64,25.982-25.946,25.982H288.736c-4.174,0-7.557,3.383-7.557,7.557c0,4.174,3.383,7.557,7.557,7.557h102.856
			c22.64,0,41.06-18.435,41.06-41.096v-85.876l43.825-10.244v45.087c-11.76,3.308-20.409,14.129-20.409,26.941v32.085
			c0,15.433,12.545,27.989,27.966,27.989c15.421,0,27.966-12.556,27.966-27.989v-32.085C512,247.52,503.351,236.699,491.591,233.391
			z M104.001,257.007v8.105c0,3.373,2.235,6.338,5.478,7.266c4.507,1.289,8.852,3.07,12.916,5.291c2.947,1.61,6.6,1.085,8.972-1.291
			l5.669-5.673c0.341-0.343,0.915-0.341,1.256,0l15.859,15.876c0.321,0.321,0.321,0.929,0,1.251l-5.696,5.702
			c-2.373,2.376-2.895,6.033-1.279,8.977c2.247,4.094,4.021,8.422,5.27,12.862c0.918,3.258,3.89,5.508,7.275,5.508h8.097
			c0.489,0,0.902,0.418,0.902,0.912v22.443c0,0.471-0.422,0.884-0.902,0.884h-8.46c-3.339,0-6.283,2.191-7.241,5.39
			c-1.302,4.354-3.089,8.551-5.31,12.474c-1.673,2.954-1.171,6.663,1.229,9.065l6.092,6.097c0.35,0.353,0.35,0.972,0.022,1.303
			l-15.837,15.853c-0.347,0.344-0.954,0.344-1.266,0.033l-6.45-6.484c-2.347-2.359-5.959-2.907-8.894-1.348
			c-3.962,2.097-8.063,3.749-12.189,4.908c-3.26,0.916-5.512,3.889-5.512,7.276v9.307c0,0.485-0.409,0.912-0.875,0.912H80.679
			c-0.466,0-0.875-0.427-0.875-0.912v-9.642c0-3.318-2.164-6.248-5.336-7.223c-4.129-1.27-8.118-2.951-11.857-4.997
			c-1.14-0.624-2.387-0.928-3.625-0.928c-1.963,0-3.904,0.765-5.359,2.228l-6.834,6.869c-0.341,0.339-0.925,0.35-1.252,0.023
			l-15.859-15.876c-0.347-0.347-0.347-0.932,0-1.279l6.869-6.875c2.37-2.372,2.893-6.021,1.286-8.964
			c-2.057-3.768-3.724-7.748-4.952-11.831c-0.961-3.194-3.901-5.38-7.237-5.38h-9.66c-0.458,0-0.875-0.422-0.875-0.884v-22.443
			c0-0.485,0.409-0.912,0.875-0.912h9.298c3.388,0,6.363-2.254,7.277-5.517c1.158-4.131,2.808-8.236,4.904-12.203
			c1.549-2.93,1.008-6.528-1.335-8.872l-6.472-6.48c-0.196-0.194-0.237-0.435-0.237-0.602c0-0.168,0.041-0.409,0.26-0.627
			l15.859-15.875c0.008-0.007,0.016-0.015,0.022-0.022c0.154-0.155,0.349-0.234,0.58-0.234c0,0,0.001,0,0.002,0
			c0.168,0,0.413,0.045,0.625,0.257l6.114,6.121c2.402,2.406,6.117,2.909,9.076,1.232c3.959-2.247,8.153-4.045,12.469-5.346
			c3.192-0.963,5.375-3.902,5.375-7.236v-8.468c0-0.463,0.417-0.885,0.875-0.885h22.447
			C103.584,256.122,104.001,256.544,104.001,257.007z M286.82,217.114c-0.035,0.008-0.07,0.017-0.105,0.025
			c-15.489,3.857-23.629,5.674-31.342,5.674c-7.702,0-15.857-1.817-31.374-5.674c-0.034-0.009-0.068-0.017-0.103-0.024
			L31.054,172.032c-5.833-1.364-8.873-4.578-8.56-9.05c0.024-0.351,0.024-0.705,0-1.055c-0.313-4.473,2.727-7.688,8.56-9.052
			l192.842-45.082c0.034-0.008,0.068-0.016,0.103-0.024c15.521-3.857,23.676-5.674,31.374-5.674c7.707,0,15.85,1.817,31.342,5.674
			c0.035,0.009,0.07,0.018,0.105,0.025l192.868,45.082c5.834,1.364,8.874,4.579,8.562,9.052c-0.025,0.351-0.025,0.704,0,1.055
			c0.24,3.43-1.5,6.116-4.953,7.799c-1.243,0.12-2.396,0.545-3.389,1.194c-0.074,0.018-0.143,0.039-0.218,0.057L286.82,217.114z
			 M496.886,292.417c0,7.099-5.766,12.875-12.853,12.875s-12.853-5.776-12.853-12.875v-32.085c0-7.099,5.766-12.874,12.853-12.874
			s12.853,5.775,12.853,12.874V292.417z"/>
	</g>
</g>
<g>
</g>
<g>
</g>
<g>
</g>
<g>
</g>
<g>
</g>
<g>
</g>
<g>
</g>
<g>
</g>
<g>
</g>
<g>
</g>
<g>
</g>
<g>
</g>
<g>
</g>
<g>
</g>
<g>
</g>
</svg>
