<?xml version="1.0" encoding="iso-8859-1"?>
<!-- Generator: Adobe Illustrator 23.0.3, SVG Export Plug-In . SVG Version: 6.00 Build 0)  -->
<svg version="1.1" id="Capa_1" xmlns="http://www.w3.org/2000/svg" xmlns:xlink="http://www.w3.org/1999/xlink" x="0px" y="0px"
	 viewBox="0 0 512 512" style="enable-background:new 0 0 512 512;" xml:space="preserve">
<g>
	<g>
		<path style="fill-rule:evenodd;clip-rule:evenodd;fill:#ECEFF1;" d="M420.414,387.115h-299.27H89.232
			c-23.544,0-35.856,35.652-36.565,51.692v2.976l0,0c0.709,15.842,12.765,31.117,36.565,31.117h70.577h248.663h12.453
			c20.906,0,37.501-17.089,37.501-37.947v-85.785C458.397,370.026,441.321,387.115,420.414,387.115L420.414,387.115z"/>
	</g>
	<g>
		<path style="fill-rule:evenodd;clip-rule:evenodd;fill:#FCD968;" d="M121.144,407.123l38.352-194.356L121.144,8.35
			c-30.494,0-65.612-3.684-68.477,39.874v390.583c0.709-16.04,13.02-31.684,36.565-31.684H121.144z"/>
	</g>
	<g>
		<path style="fill-rule:evenodd;clip-rule:evenodd;fill:#F55A8E;" d="M121.144,8.35v398.773h299.27
			c20.906,0,37.983-17.089,38.012-37.976l0.113-323.247c0-20.887-17.105-37.947-37.983-37.947L121.144,8.35z"/>
	</g>
	<g>
		<path style="fill-rule:evenodd;clip-rule:evenodd;fill:#BA4583;" d="M420.925,7.954v399.141
			c20.679-0.255,37.473-17.231,37.501-37.947l0.113-323.247C458.539,25.156,441.661,8.152,420.925,7.954L420.925,7.954z"/>
	</g>
	<g>
		<path style="fill-rule:evenodd;clip-rule:evenodd;fill:#C4CCCF;" d="M89.345,434.84h331.182c19.942,0,36.395-15.53,37.898-35.057
			v-30.636c-0.028,20.717-16.822,37.692-37.501,37.947c-0.17,0-0.34,0.028-0.511,0.028h-299.27H89.232
			c-23.544,0-35.856,15.644-36.565,31.684v2.976l0,0c0.17,4.279,1.22,8.53,3.064,12.441C60.751,443.342,72.013,434.84,89.345,434.84
			L89.345,434.84z"/>
	</g>
	<g>
		<path style="fill-rule:evenodd;clip-rule:evenodd;fill:#FCD968;" d="M366.574,81.751H190.132c-6.297,0-11.432,5.158-11.432,11.449
			v19.413v0.482v45.486c0,6.292,5.134,11.449,11.432,11.449h48.025h51.94h76.477c6.297,0,11.46-5.158,11.46-11.449v-45.514v-0.368
			V93.201C378.034,86.909,372.871,81.751,366.574,81.751L366.574,81.751z"/>
	</g>
	<g>
		<path style="fill-rule:evenodd;clip-rule:evenodd;fill:#8BC34A;" d="M244.767,276.306c-6.468,0-11.772,4.903-11.772,10.883v80.599
			h-15.857c-37.728,1.87-38.55,31.628-22.977,51.636l53.84,69.121c17.417,21.198,45.529,21.198,60.733,0l53.84-69.121
			c15.573-20.008,14.722-49.765-23.005-51.636h-15.857v-80.599c0-5.98-5.276-10.883-11.744-10.883H244.767z"/>
	</g>
	<g>
		<path style="fill-rule:evenodd;clip-rule:evenodd;fill:#689F38;" d="M297.699,276.306v96.356
			c-0.596,17.713,4.51,19.13,27.402,18.789c25.332-0.142,25.785,8.445,1.645,40.583l-53.925,71.814
			c13.219,2.409,26.863-2.692,35.912-15.304l12.198-15.644l29.643-38.061l11.999-15.417c2.978-3.826,5.361-8.02,7.007-12.3
			c6.893-18.081,0.482-37.834-30.012-39.336h-15.857v-80.599c0-5.98-5.276-10.883-11.744-10.883H297.699z"/>
	</g>
	<g>
		<path style="fill-rule:evenodd;clip-rule:evenodd;fill:#E69B56;" d="M366.574,81.751h-23.658v87.883h24.083
			c3.035,0,5.815-1.219,7.858-3.174c1.957-2.04,3.177-4.818,3.177-7.879v-45.514v-0.368V93.201
			C378.034,86.909,372.871,81.751,366.574,81.751L366.574,81.751z"/>
	</g>
	<g>
		<path d="M190.53,177.191h73.839c4.178,0,7.564-3.383,7.564-7.557c0-4.174-3.386-7.557-7.564-7.557H190.53
			c-2.097,0-3.869-1.783-3.869-3.893V92.804c0-2.11,1.772-3.893,3.869-3.893h176.47c2.097,0,3.869,1.783,3.869,3.893v65.381
			c0,2.11-1.772,3.893-3.869,3.893h-67.967c-4.178,0-7.564,3.383-7.564,7.557c0,4.174,3.386,7.557,7.564,7.557h67.967
			c10.475,0,18.996-8.526,18.996-19.006V92.804c0-10.48-8.521-19.006-18.996-19.006H190.53c-10.475,0-18.996,8.526-18.996,19.006
			v65.381C171.534,168.665,180.055,177.191,190.53,177.191z"/>
		<path d="M453.174,13.384C444.547,4.753,433.104,0,420.943,0L121.54,0.396c-2.174,0-4.371-0.02-6.579-0.038
			c-15.113-0.135-30.754-0.265-43.75,5.32c-15.675,6.736-24.321,20.75-25.696,41.654c-0.011,0.165-0.016,0.331-0.016,0.496V438.41
			v2.976c0,0.113,0.002,0.226,0.007,0.339c0.829,18.464,14.989,38.336,44.122,38.336h142.179l10.223,13.125
			c0.041,0.052,0.082,0.103,0.123,0.153c9.791,11.915,23.221,18.662,37.042,18.661c0.462,0,0.927-0.007,1.391-0.022
			c13.388-0.438,25.846-7.326,34.205-18.905l10.135-13.012h96.395c24.849,0,45.065-20.413,45.065-45.504v-65.803L466.5,45.514
			C466.517,33.409,461.784,21.998,453.174,13.384z M113.978,15.466v197.046c0,4.174,3.386,7.557,7.564,7.557
			s7.564-3.383,7.564-7.557V15.5l291.848-0.387c8.106,0,15.747,3.179,21.516,8.95c5.752,5.756,8.914,13.366,8.903,21.437
			l-0.113,323.239c-0.023,16.763-13.682,30.4-30.448,30.4h-41.44c0.811-6.599-0.023-13.002-2.616-18.649
			c-3.235-7.042-12.317-19.039-36.812-20.253c-0.125-0.006-0.25-0.009-0.375-0.009h-8.265v-73.042
			c0-10.168-8.674-18.439-19.336-18.439h-67.201c-10.662,0-19.336,8.272-19.336,18.439v73.042h-8.294
			c-0.125,0-0.25,0.003-0.375,0.009c-24.484,1.215-33.561,13.203-36.794,20.241c-2.594,5.65-3.426,12.057-2.612,18.661h-48.251
			V247.115c0-4.174-3.386-7.557-7.564-7.557s-7.564,3.383-7.564,7.557v152.026H89.629c-12.297,0-21.916,3.605-29.002,9.172V48.082
			C62.778,16.908,82.309,15.212,113.978,15.466z M220.024,464.947H89.629c-20.522,0-28.439-12.752-29.002-23.742v-2.618
			c0.611-12.138,9.794-24.333,29.002-24.333h31.913h60.486c1.659,3.352,3.703,6.648,6.163,9.809l31.846,40.885L220.024,464.947z
			 M302.764,483.903c-0.061,0.079-0.12,0.158-0.179,0.239c-5.68,7.919-13.669,12.44-22.495,12.729
			c-9.54,0.298-19.079-4.443-26.183-13.049l-53.776-69.04c-2.57-3.301-4.534-6.788-5.875-10.252
			c-0.099-0.332-0.224-0.652-0.366-0.964c-2.166-6.127-2.316-12.115-0.172-16.785c3.96-8.623,14.985-10.986,23.611-11.439h15.665
			c4.178,0,7.564-3.383,7.564-7.557v-80.599c0-1.771,1.967-3.325,4.209-3.325h67.201c2.242,0,4.209,1.554,4.209,3.325v80.599
			c0,4.174,3.386,7.557,7.564,7.557h15.636c8.633,0.454,19.664,2.819,23.629,11.451c2.146,4.674,1.996,10.667-0.172,16.795
			c-0.135,0.298-0.254,0.604-0.35,0.92c-1.339,3.47-3.305,6.964-5.879,10.27L302.764,483.903z M421.322,464.947h-84.611
			l-0.013,0.002l31.848-40.887c2.459-3.16,4.502-6.456,6.16-9.807h46.106c11.691,0,22.369-4.432,30.448-11.699v32.001
			C451.259,451.314,437.83,464.947,421.322,464.947z"/>
	</g>
</g>
<g>
</g>
<g>
</g>
<g>
</g>
<g>
</g>
<g>
</g>
<g>
</g>
<g>
</g>
<g>
</g>
<g>
</g>
<g>
</g>
<g>
</g>
<g>
</g>
<g>
</g>
<g>
</g>
<g>
</g>
</svg>
