<?xml version="1.0" encoding="iso-8859-1"?>
<!-- Generator: Adobe Illustrator 23.0.3, SVG Export Plug-In . SVG Version: 6.00 Build 0)  -->
<svg version="1.1" id="Capa_1" xmlns="http://www.w3.org/2000/svg" xmlns:xlink="http://www.w3.org/1999/xlink" x="0px" y="0px"
	 viewBox="0 0 512 512" style="enable-background:new 0 0 512 512;" xml:space="preserve">
<g>
	<g>
		<polygon style="fill-rule:evenodd;clip-rule:evenodd;fill:#C4CCCF;" points="333.238,419.271 263.932,388.739 189.742,419.271 
			179.022,460.396 261.49,482.448 343.958,460.396 		"/>
	</g>
	<g>
		<path style="fill-rule:evenodd;clip-rule:evenodd;fill:#546E7A;" d="M35.143,41.849c-14.358,0-26.087,11.739-26.087,26.109
			v304.869h493.887V67.958c0-14.37-11.758-25.907-26.087-26.109C462.759,41.618,102.224,41.849,35.143,41.849L35.143,41.849z"/>
	</g>
	<g>
		<path style="fill-rule:evenodd;clip-rule:evenodd;fill:#8EBFE8;" d="M52.419,338.419h406.96c3.062,0,5.576-2.516,5.576-5.58
			V204.432V85.451c0-3.065-2.513-5.58-5.576-5.58c-10.169,0-396.069,0-406.96,0c-3.062,0-5.576,2.516-5.576,5.58v247.388
			C46.843,335.904,49.357,338.419,52.419,338.419L52.419,338.419z"/>
	</g>
	<g>
		<path style="fill-rule:evenodd;clip-rule:evenodd;fill:#ECEFF1;" d="M503,372.854H9v20.302c0,14.345,11.732,26.115,26.093,26.115
			h154.65h143.496h143.669c14.361,0,26.093-11.771,26.093-26.115V372.854z"/>
	</g>
	<g>
		<path style="fill-rule:evenodd;clip-rule:evenodd;fill:#ECEFF1;" d="M343.958,460.396H179.022h-23.608
			c-12.107,0-22.047,9.949-22.047,22.066v12.089c0,5.495,4.479,9.949,9.94,9.949h236.338c5.461,0,9.94-4.454,9.94-9.949v-12.089
			c0-12.118-9.911-22.066-22.018-22.066H343.958z"/>
	</g>
	<g>
		<path style="fill-rule:evenodd;clip-rule:evenodd;fill:#35505C;" d="M465.002,85.412V204.42v128.436
			c0,3.066-2.514,5.582-5.577,5.582h-30.369v34.415H503V67.915c0-14.374-11.76-25.826-26.093-26.115
			c-2.947-0.058-20.689-0.115-47.851-0.115V79.83h30.369C462.488,79.83,465.002,82.346,465.002,85.412L465.002,85.412z"/>
	</g>
	<g>
		<path style="fill-rule:evenodd;clip-rule:evenodd;fill:#C4CCCF;" d="M503,372.854h-73.944v46.418h47.851
			c14.361,0,26.093-11.771,26.093-26.115V372.854z"/>
	</g>
	<g>
		<path style="fill-rule:evenodd;clip-rule:evenodd;fill:#C4CCCF;" d="M329.164,460.396c12.107,0,22.047,9.949,22.047,22.066v12.089
			c0,5.495-4.479,9.949-9.94,9.949h38.373c5.461,0,9.94-4.454,9.94-9.949v-12.089c0-12.118-9.911-22.066-22.018-22.066h-23.608
			H329.164z"/>
	</g>
	<g>
		<path style="fill-rule:evenodd;clip-rule:evenodd;fill:#90A4AE;" d="M294.836,419.271H189.742l-5.837,22.384h94.807
			c11.732,0,22.972-0.492,25.081,7.519l1.763,11.221h23.608h14.795l-10.72-41.125H294.836z"/>
	</g>
	<g>
		<path style="fill-rule:evenodd;clip-rule:evenodd;fill:#519AD6;" d="M429.056,338.438h30.369c3.063,0,5.577-2.516,5.577-5.582
			V204.42v-14.518V85.412c0-3.066-2.514-5.582-5.577-5.582h-30.369V338.438z"/>
	</g>
	<g>
		<path style="fill-rule:evenodd;clip-rule:evenodd;fill:#ECEFF1;" d="M145.297,120.668c16.64,20.876,48.967,54.965,90.596,31.632
			c19.269-10.814,45.154-32.384,63.296-26.051L247.16,52.981l-26.896-15.903l-26.896,15.903L145.297,120.668z"/>
	</g>
	<g>
		<path style="fill-rule:evenodd;clip-rule:evenodd;fill:#ECEFF1;" d="M193.369,52.981h53.791h3.38
			c12.48,0,22.707-10.207,22.707-22.697c0-12.52-10.227-22.726-22.707-22.726h-60.551c-12.48,0-22.707,10.207-22.707,22.726
			c0,12.491,10.227,22.697,22.707,22.697H193.369z"/>
	</g>
	<g>
		<path style="fill-rule:evenodd;clip-rule:evenodd;fill:#F55A8E;" d="M117.477,159.818c-33.887,38.947,3.004,91.773,43.796,91.773
			h58.991h58.991c40.791,0,77.683-52.826,43.767-91.773l-23.833-33.569c-18.142-6.332-41.514-10.236-60.754,0.549
			c-41.658,23.362-76.498,14.746-93.138-6.13L117.477,159.818z"/>
	</g>
	<g>
		<path style="fill-rule:evenodd;clip-rule:evenodd;fill:#C4CCCF;" d="M242.971,30.283c0,7.633-3.842,14.457-9.678,18.563
			c-3.698,2.602-8.204,4.135-13.029,4.135h26.896h3.38c12.48,0,22.707-10.207,22.707-22.697c0-12.52-10.227-22.726-22.707-22.726
			h-30.276C232.744,7.557,242.971,17.763,242.971,30.283L242.971,30.283z"/>
	</g>
	<g>
		<path style="fill-rule:evenodd;clip-rule:evenodd;fill:#C4CCCF;" d="M235.2,90.309l21.58,30.389
			c14.589-2.111,29.785,1.128,42.409,5.552L247.16,52.981h-26.896h-26.896l-10.805,15.238h24.238
			C223.095,68.218,225.522,76.661,235.2,90.309L235.2,90.309z"/>
	</g>
	<g>
		<path style="fill-rule:evenodd;clip-rule:evenodd;fill:#BA4583;" d="M265.649,134.113l61.736,89.171
			c11.729-18.476,13.549-42.908-4.362-63.466l-23.833-33.569c-12.625-4.424-27.82-7.662-42.409-5.552
			c-0.116,0.029-0.231,0.029-0.376,0.058L265.649,134.113z"/>
	</g>
	<g>
		<path style="fill-rule:evenodd;clip-rule:evenodd;fill:#C4CCCF;" d="M290.002,187.922l-12.509,12.52
			c-2.571,2.602-2.571,6.824,0,9.426l5.113,5.089c-1.82,3.412-3.293,7.026-4.362,10.814h-7.338c-3.64,0-6.645,2.978-6.645,6.65
			v17.724c0,3.643,3.004,6.65,6.645,6.65h7.627c1.098,3.672,2.571,7.171,4.391,10.467l-5.431,5.436
			c-2.571,2.573-2.571,6.824,0,9.426l12.509,12.52c2.6,2.573,6.818,2.573,9.418,0l5.431-5.436c3.293,1.793,6.789,3.296,10.458,4.395
			v7.604c0,3.672,3.004,6.679,6.645,6.679h17.709c3.64,0,6.644-3.007,6.644-6.679v-7.315c3.784-1.07,7.396-2.544,10.805-4.366
			l5.084,5.118c2.6,2.573,6.818,2.573,9.418,0l12.509-12.52c2.571-2.602,2.571-6.853,0-9.426l-4.824-4.829
			c1.964-3.47,3.553-7.171,4.738-11.074h6.673c3.64,0,6.645-3.007,6.645-6.65v-17.724c0-3.672-3.004-6.65-6.645-6.65h-6.413
			c-1.127-4.019-2.716-7.836-4.651-11.421l4.478-4.482c2.571-2.602,2.571-6.824,0-9.426l-12.509-12.52
			c-2.6-2.602-6.818-2.602-9.418,0l-4.478,4.482c-3.582-1.966-7.396-3.527-11.411-4.655v-6.419c0-3.643-3.004-6.65-6.644-6.65
			h-17.709c-3.64,0-6.645,3.007-6.645,6.65v6.679c-3.9,1.185-7.598,2.776-11.064,4.742l-4.824-4.829
			C296.82,185.32,292.602,185.32,290.002,187.922L290.002,187.922z"/>
	</g>
	<g>
		<path style="fill-rule:evenodd;clip-rule:evenodd;fill:#90A4AE;" d="M362.196,187.922l-4.478,4.482
			c-1.04-0.578-2.109-1.099-3.178-1.619c4.882,13.214,7.656,28.394,7.656,44.556c0,21.888-5.113,42.012-13.665,57.857
			c2.976-0.983,5.836-2.226,8.58-3.672l5.084,5.118c2.6,2.573,6.818,2.573,9.418,0l12.509-12.52c2.571-2.602,2.571-6.853,0-9.426
			l-4.824-4.829c1.964-3.47,3.553-7.171,4.738-11.074h6.673c3.64,0,6.645-3.007,6.645-6.65v-17.724c0-3.672-3.004-6.65-6.645-6.65
			h-6.413c-1.127-4.019-2.716-7.836-4.651-11.421l4.478-4.482c2.571-2.602,2.571-6.824,0-9.426l-12.509-12.52
			C369.014,185.32,364.796,185.32,362.196,187.922L362.196,187.922z"/>
	</g>
	<path style="fill-rule:evenodd;clip-rule:evenodd;fill:#546E7A;" d="M330.794,261.899c11.353,0,20.627-9.252,20.627-20.616
		c0-11.334-9.273-20.616-20.627-20.616c-11.324,0-20.598,9.281-20.598,20.616C310.196,252.646,319.469,261.899,330.794,261.899
		L330.794,261.899z"/>
	<g>
		<path d="M477.009,34.293c-0.062-0.002-0.128-0.005-0.185-0.001H280.527c0.177-1.322,0.277-2.668,0.277-4.038
			C280.804,13.571,267.227,0,250.54,0h-60.551c-16.688,0-30.265,13.571-30.265,30.283c0,1.36,0.099,2.696,0.274,4.009H35.143
			c-18.551,0-33.644,15.102-33.644,33.666v325.167c0,18.564,15.093,33.666,33.644,33.666h144.835l-6.778,26.002h-17.763
			c-16.321,0-29.6,13.286-29.6,29.618v12.086c0,9.651,7.848,17.503,17.496,17.503h236.283c9.647,0,17.495-7.852,17.495-17.503
			v-12.086c0-16.332-13.266-29.618-29.571-29.618h-17.762L343,426.791h133.857c18.551,0,33.644-15.102,33.644-33.666V67.958
			C510.501,49.768,495.476,34.666,477.009,34.293z M189.989,15.114h60.551c8.354,0,15.149,6.792,15.149,15.169
			c0,2.646-0.686,5.132-1.885,7.299c-0.155,0.227-0.299,0.462-0.429,0.706c-2.68,4.277-7.424,7.137-12.835,7.137h-60.551
			c-5.423,0-10.176-2.872-12.853-7.172c-0.118-0.217-0.246-0.428-0.384-0.632c-1.215-2.182-1.913-4.691-1.913-7.366
			C174.839,21.906,181.635,15.114,189.989,15.114z M372.995,217.939c1.735,3.215,3.09,6.536,4.024,9.871
			c0.914,3.263,3.888,5.517,7.277,5.517h5.5v15.91h-5.76c-3.329,0-6.265,2.177-7.232,5.363c-1.012,3.337-2.386,6.549-4.083,9.546
			c-1.673,2.954-1.169,6.663,1.231,9.064l4.197,4.2l-11.243,11.251l-4.434-4.463c-2.353-2.368-5.98-2.91-8.924-1.34
			c-2.979,1.592-6.107,2.857-9.299,3.76c-3.254,0.92-5.501,3.89-5.501,7.272v6.438h-15.883v-6.727c0-3.339-2.191-6.282-5.39-7.24
			c-3.016-0.903-6.047-2.179-9.012-3.793c-2.943-1.601-6.591-1.074-8.96,1.296l-4.793,4.799l-11.244-11.253l4.803-4.807
			c2.379-2.38,2.897-6.048,1.27-8.994c-1.565-2.835-2.832-5.857-3.766-8.979c-0.957-3.2-3.9-5.392-7.241-5.392h-6.714v-15.91h6.425
			c3.383,0,6.355-2.249,7.273-5.505c0.901-3.192,2.165-6.325,3.757-9.309c1.568-2.942,1.025-6.562-1.338-8.913l-4.469-4.447
			l11.243-11.252l4.187,4.191c2.404,2.406,6.118,2.908,9.075,1.232c2.992-1.698,6.2-3.072,9.533-4.085
			c3.183-0.968,5.36-3.903,5.36-7.231v-5.772h9.551c0.009,0,0.018,0.002,0.027,0.002c0.013,0,0.027-0.002,0.04-0.002h6.266v5.512
			c0,3.387,2.253,6.36,5.514,7.276c3.428,0.963,6.731,2.31,9.818,4.004c2.948,1.62,6.608,1.093,8.983-1.284l3.84-3.844
			l11.244,11.253l-3.85,3.854C371.939,211.37,371.409,215.002,372.995,217.939z M307.752,181.33v1.347
			c-0.681,0.276-1.356,0.564-2.025,0.864l-0.96-0.961c-2.685-2.687-6.256-4.167-10.055-4.167c-3.799,0-7.369,1.48-10.055,4.167
			l-12.54,12.55c-5.46,5.528-5.46,14.521,0.046,20.094l1.325,1.32c-0.233,0.554-0.459,1.11-0.676,1.67h-1.906
			c-7.831,0-14.202,6.373-14.202,14.207v11.614h-95.432c-18.259,0-36.86-12.835-45.233-31.211
			c-4.448-9.761-9.434-28.983,7.141-48.047c0.162-0.186,0.315-0.381,0.458-0.582l22.522-31.705
			c9.461,8.392,21.736,13.759,35.46,15.34c2.879,0.332,5.802,0.496,8.769,0.496c16.475,0,34.184-5.089,51.743-14.936
			c16.481-9.239,37.133-5.743,52.313-0.767l22.417,31.57c0.15,0.212,0.311,0.416,0.483,0.611c0.735,0.837,1.428,1.691,2.095,2.555
			C312.805,168.552,307.752,174.355,307.752,181.33z M234.739,120.207c-37.32,20.931-65.287,13.676-79.756-0.139l25.491-35.885
			c0.028-0.04,0.058-0.079,0.085-0.12l16.711-23.526h45.987l37.817,53.258C263.328,110.898,247.554,113.023,234.739,120.207z
			 M381.997,482.411v12.086c0,1.295-1.09,2.389-2.38,2.389H143.333c-1.291,0-2.381-1.094-2.381-2.389v-12.086
			c0-7.997,6.498-14.504,14.485-14.504h23.577c0.01,0,0.021,0.002,0.031,0.002c0.008,0,0.016-0.002,0.023-0.002H343.91
			c0.008,0,0.016,0.002,0.023,0.002c0.01,0,0.021-0.002,0.031-0.002h23.577C375.512,467.907,381.997,474.414,381.997,482.411z
			 M334.159,452.793h-145.34l6.778-26.002h131.784L334.159,452.793z M476.857,411.677H35.143c-10.217,0-18.529-8.323-18.529-18.552
			v-12.741h222.833c4.174,0,7.557-3.383,7.557-7.557c0-4.174-3.383-7.557-7.557-7.557H16.614V67.958
			c0-10.23,8.312-18.552,18.529-18.552h131.413c3.484,4.259,8.105,7.55,13.394,9.414l-9.585,13.493H52.419
			c-7.242,0-13.133,5.893-13.133,13.138v247.388c0,7.244,5.892,13.138,13.133,13.138h406.96c7.241,0,13.133-5.893,13.133-13.138
			V85.451c0-7.244-5.892-13.138-13.133-13.138h-77.278c-4.174,0-7.557,3.383-7.557,7.557s3.384,7.557,7.557,7.557h75.297v243.436
			H54.401V87.427H159.63l-48.105,67.721c-15.946,18.541-19.317,41.825-9.24,63.942c10.918,23.959,34.623,40.057,58.987,40.057
			h98.658c2.607,3.175,6.559,5.204,10.976,5.204h2.278c0.188,0.465,0.381,0.927,0.58,1.385l-1.618,1.619
			c-5.509,5.514-5.522,14.522,0,20.11l12.538,12.549c5.529,5.473,14.524,5.472,20.081-0.029l1.62-1.622
			c0.454,0.198,0.909,0.39,1.365,0.575v2.269c0,7.85,6.371,14.236,14.202,14.236h17.709c7.831,0,14.202-6.386,14.202-14.236v-1.886
			c0.556-0.217,1.108-0.44,1.658-0.673l1.357,1.366c5.529,5.472,14.524,5.472,20.081-0.029l12.538-12.549
			c5.493-5.558,5.48-14.566-0.03-20.08l-0.965-0.967c0.301-0.674,0.591-1.352,0.868-2.038h1.338c7.831,0,14.202-6.373,14.202-14.207
			V232.42c0-7.834-6.371-14.207-14.202-14.207h-0.973c-0.3-0.777-0.617-1.551-0.949-2.321l0.713-0.714
			c5.46-5.528,5.46-14.521-0.031-20.079l-12.509-12.52c-2.685-2.687-6.256-4.167-10.055-4.167c-3.799,0-7.369,1.48-10.056,4.168
			l-0.668,0.669c-0.765-0.331-1.538-0.646-2.317-0.946v-0.974c0-7.834-6.371-14.207-14.202-14.207h-2.451
			c-2.218-4.203-4.976-8.221-8.246-11.988l-23.684-33.353c-0.018-0.025-0.035-0.051-0.054-0.076l-24.341-34.278h65.94
			c4.174,0,7.557-3.383,7.557-7.557s-3.384-7.557-7.557-7.557h-76.672l-9.581-13.493c5.288-1.865,9.909-5.155,13.393-9.415h202.808
			c10.268,0.245,18.61,8.553,18.61,18.552V365.27H273.911c-4.174,0-7.557,3.383-7.557,7.557c0,4.174,3.384,7.557,7.557,7.557
			h221.475v12.741C495.386,403.354,487.074,411.677,476.857,411.677z"/>
		<path d="M330.794,213.096c-15.525,0-28.156,12.638-28.156,28.172s12.63,28.173,28.156,28.173
			c15.541,0,28.184-12.639,28.184-28.173S346.335,213.096,330.794,213.096z M330.794,254.328c-7.191,0-13.041-5.859-13.041-13.06
			s5.85-13.059,13.041-13.059c7.206,0,13.069,5.858,13.069,13.059S338,254.328,330.794,254.328z"/>
	</g>
</g>
<g>
</g>
<g>
</g>
<g>
</g>
<g>
</g>
<g>
</g>
<g>
</g>
<g>
</g>
<g>
</g>
<g>
</g>
<g>
</g>
<g>
</g>
<g>
</g>
<g>
</g>
<g>
</g>
<g>
</g>
</svg>
