<?xml version="1.0" encoding="iso-8859-1"?>
<!-- Generator: Adobe Illustrator 23.0.3, SVG Export Plug-In . SVG Version: 6.00 Build 0)  -->
<svg version="1.1" id="Capa_1" xmlns="http://www.w3.org/2000/svg" xmlns:xlink="http://www.w3.org/1999/xlink" x="0px" y="0px"
	 viewBox="0 0 512 512" style="enable-background:new 0 0 512 512;" xml:space="preserve">
<g>
	<g>
		<path style="fill-rule:evenodd;clip-rule:evenodd;fill:#E6E6E6;" d="M7.557,100.423l206.062,28.617l205.341-28.617V53.868
			c0-9.794-8.046-17.812-17.84-17.812H25.369c-9.794,0-17.812,8.018-17.812,17.812V100.423z"/>
	</g>
	<g>
		<path style="fill-rule:evenodd;clip-rule:evenodd;fill:#8EBFE8;" d="M289.918,100.423H7.557v357.682
			c0,9.822,8.018,17.84,17.812,17.84h57.959h179.288H401.12c9.794,0,17.84-8.018,17.84-17.84V100.423H289.918z"/>
	</g>
	<g>
		<path style="fill-rule:evenodd;clip-rule:evenodd;fill:#C4CCCF;" d="M381.615,100.423h29.881h7.463V53.868
			c0-5.937-2.969-11.237-7.463-14.483c-2.941-2.081-6.52-3.329-10.377-3.329h-37.345c9.822,0,17.84,8.018,17.84,17.812V100.423z"/>
	</g>
	<g>
		<path style="fill-rule:evenodd;clip-rule:evenodd;fill:#519AD6;" d="M411.497,100.423h-29.881v357.682
			c0,9.822-8.018,17.84-17.84,17.84h37.345c3.857,0,7.436-1.249,10.377-3.357c4.495-3.246,7.463-8.545,7.463-14.483V100.423H411.497
			z"/>
	</g>
	<g>
		<path style="fill-rule:evenodd;clip-rule:evenodd;fill:#ECEFF1;" d="M78.806,312.696h268.905c5.549,0,10.099,4.55,10.099,10.099
			v98.077c0,5.549-4.55,10.099-10.099,10.099H78.806c-5.577,0-10.127-4.55-10.127-10.099v-98.077
			C68.679,317.246,73.23,312.696,78.806,312.696L78.806,312.696z"/>
	</g>
	<g>
		<path style="fill-rule:evenodd;clip-rule:evenodd;fill:#546E7A;" d="M262.312,364.495l-6.576,14.982
			c-4.772,11.126,4.966,21.752,17.091,16.258l14.677-7.269l-3.357-21.419L262.312,364.495z"/>
	</g>
	<g>
		<polygon style="fill-rule:evenodd;clip-rule:evenodd;fill:#FFD54F;" points="323.712,370.543 312.086,340.218 278.515,327.484 
			262.312,364.495 287.504,388.466 		"/>
	</g>
	<g>
		<polygon style="fill-rule:evenodd;clip-rule:evenodd;fill:#E69B56;" points="304.928,352.648 277.266,381.724 287.504,388.466 
			323.712,370.543 		"/>
	</g>
	<g>
		<polygon style="fill-rule:evenodd;clip-rule:evenodd;fill:#8BC34A;" points="428.81,169.645 286.922,318.661 278.515,327.484 
			323.712,370.543 371.794,320.048 487.823,198.194 487.851,198.194 477.474,165.373 442.627,155.135 		"/>
	</g>
	<g>
		<polygon style="fill-rule:evenodd;clip-rule:evenodd;fill:#689F38;" points="304.928,352.648 323.712,370.543 371.794,320.048 
			487.823,198.194 487.851,198.194 469.04,180.299 469.04,180.299 353.01,302.153 		"/>
	</g>
	<g>
		<path style="fill-rule:evenodd;clip-rule:evenodd;fill:#F0417B;" d="M494.787,145.646c-12.43-11.847-32.295-11.375-44.142,1.054
			l-8.018,8.434l45.224,43.059l7.991-8.407C507.578,177.469,507.328,157.604,494.787,145.646L494.787,145.646z"/>
	</g>
	<g>
		<path style="fill-rule:evenodd;clip-rule:evenodd;fill:#A3316E;" d="M483.44,138.738c4.051,10.238,2.497,22.196-4.578,31.074
			c-0.555,0.721-1.165,1.415-1.803,2.081l-8.018,8.407l18.811,17.895l7.991-8.407c11.736-12.319,11.486-32.184-1.054-44.141
			C491.43,142.456,487.546,140.153,483.44,138.738L483.44,138.738z"/>
	</g>
	<g>
		<path d="M364.275,73.798h0.194c4.174,0,7.557-3.383,7.557-7.556s-3.383-7.556-7.557-7.556h-0.194
			c-4.174,0-7.557,3.383-7.557,7.556S360.101,73.798,364.275,73.798z"/>
		<path d="M332.202,73.798h0.194c4.174,0,7.557-3.383,7.557-7.556s-3.383-7.556-7.557-7.556h-0.194
			c-4.174,0-7.557,3.383-7.557,7.556S328.028,73.798,332.202,73.798z"/>
		<path d="M300.128,73.937h0.194c4.174,0,7.557-3.383,7.557-7.556s-3.383-7.556-7.557-7.556h-0.194
			c-4.174,0-7.557,3.383-7.557,7.556S295.954,73.937,300.128,73.937z"/>
		<path d="M236.88,66.381c0-4.173-3.383-7.556-7.557-7.556H65.683c-4.174,0-7.557,3.383-7.557,7.556s3.383,7.556,7.557,7.556h163.64
			C233.497,73.937,236.88,70.554,236.88,66.381z"/>
		<path d="M67.418,199.471h21.278c1.719,0,3.156-0.564,4.312-1.693c1.154-1.129,1.733-2.498,1.733-4.11
			c0-0.859-0.162-1.638-0.484-2.337c-0.323-0.698-0.753-1.316-1.29-1.854c-1.236-1.181-2.66-1.773-4.272-1.773h-14.83v-11.526
			h12.977c1.773,0,3.236-0.577,4.392-1.733c1.155-1.155,1.733-2.539,1.733-4.151c0-1.558-0.592-2.928-1.773-4.11
			c-1.183-1.181-2.634-1.774-4.352-1.774H73.786v-11.122h14.508c1.558,0,2.928-0.591,4.11-1.773c1.129-1.29,1.693-2.713,1.693-4.271
			c0-1.613-0.564-2.995-1.693-4.151c-1.128-1.155-2.498-1.733-4.11-1.733H67.338c-1.828,0-3.385,0.673-4.675,2.015
			c-1.29,1.343-1.934,2.901-1.934,4.674v44.812c0,1.881,0.644,3.453,1.934,4.715C63.952,198.84,65.536,199.471,67.418,199.471z"/>
		<path d="M111.708,200.115c2.148,0,3.95-1.048,5.4-3.143l12.734-17.813l12.654,17.813c1.612,2.095,3.438,3.143,5.48,3.143
			c0.968,0,1.826-0.161,2.579-0.483c0.752-0.322,1.451-0.778,2.096-1.37c1.29-1.29,1.934-2.767,1.934-4.433
			c0-1.612-0.483-3.063-1.451-4.352l-15.717-21.197l12.815-17.006c0.968-1.396,1.451-2.793,1.451-4.191
			c0-1.773-0.672-3.29-2.015-4.553c-1.344-1.262-2.875-1.894-4.594-1.894c-2.204,0-4.084,1.129-5.642,3.385l-9.592,13.702
			l-9.591-13.702c-1.612-2.256-3.494-3.385-5.642-3.385c-1.827,0-3.385,0.644-4.675,1.934c-1.29,1.29-1.935,2.795-1.935,4.513
			c0,1.613,0.456,3.01,1.37,4.191l12.896,17.006l-15.798,21.197c-0.967,1.29-1.451,2.74-1.451,4.352c0,1.72,0.671,3.197,2.015,4.433
			C108.376,199.497,109.935,200.115,111.708,200.115z"/>
		<path d="M169.638,200.357c3.277,0,5.372-1.503,6.286-4.513l2.176-7.335h22.326l2.338,7.335c1.02,2.955,3.008,4.433,5.964,4.433
			c1.773,0,3.277-0.538,4.513-1.613c1.29-1.235,1.935-2.551,1.935-3.949c0-1.396-0.216-2.686-0.645-3.869l-15.798-42.958
			c-1.773-4.835-4.917-7.254-9.43-7.254c-4.568,0-7.738,2.418-9.511,7.254l-16.039,42.878c-0.377,0.966-0.564,2.042-0.564,3.224
			c0,1.773,0.617,3.278,1.854,4.513C166.279,199.739,167.81,200.357,169.638,200.357z M189.304,154.174l7.173,22.648l-14.669-0.08
			L189.304,154.174z"/>
		<path d="M233.569,200.196c3.761,0,5.937-2.068,6.529-6.206l4.594-31.997l9.672,32.964c1.128,3.493,3.357,5.239,6.69,5.239
			c1.987,0,3.452-0.377,4.393-1.129c0.939-0.752,1.705-2.121,2.297-4.11l9.672-32.964l4.675,31.997
			c0.645,4.138,2.847,6.206,6.609,6.206c1.88,0,3.438-0.633,4.675-1.894c1.236-1.262,1.854-2.888,1.854-4.876l-0.161-1.29
			l-7.496-44.49c-0.377-1.987-1.384-3.639-3.023-4.956c-1.64-1.316-3.506-1.975-5.602-1.975c-4.461,0-7.334,2.176-8.624,6.529
			l-9.269,30.707l-9.107-30.707c-1.398-4.353-4.272-6.529-8.624-6.529c-2.15,0-4.058,0.673-5.723,2.015
			c-1.666,1.344-2.66,2.982-2.982,4.916l-7.496,44.49c-0.108,0.269-0.161,0.699-0.161,1.29c0,1.935,0.617,3.547,1.854,4.836
			C230.049,199.552,231.635,200.196,233.569,200.196z"/>
		<path d="M61.122,228.408c0,4.173,3.383,7.556,7.557,7.556h157.647c4.174,0,7.557-3.383,7.557-7.556
			c0-4.174-3.383-7.556-7.557-7.556H68.679C64.506,220.852,61.122,224.235,61.122,228.408z"/>
		<path d="M226.327,264.605H68.679c-4.174,0-7.557,3.383-7.557,7.556s3.383,7.556,7.557,7.556h157.647
			c4.174,0,7.557-3.383,7.557-7.556S230.5,264.605,226.327,264.605z"/>
		<path d="M500.001,140.177c-7.472-7.122-17.277-10.915-27.684-10.661c-10.381,0.247-20.02,4.499-27.15,11.978l-8.011,8.428
			c-0.001,0.001-0.002,0.001-0.003,0.002l-10.637,11.171V53.868c0-13.988-11.393-25.368-25.397-25.368H25.369
			C11.381,28.5,0,39.88,0,53.868v404.237C0,472.108,11.381,483.5,25.369,483.5H401.12c14.004,0,25.397-11.392,25.397-25.395V273.537
			l1.05-1.103l-0.001,0.001l65.756-69.028c0.095-0.1,0.179-0.207,0.268-0.311l7.722-8.095
			C516.06,179.521,515.472,154.928,500.001,140.177z M411.403,458.105c0,5.67-4.613,10.283-10.283,10.283H25.369
			c-5.655,0-10.255-4.613-10.255-10.283V107.979h175.782c4.174,0,7.557-3.383,7.557-7.556s-3.383-7.556-7.557-7.556H15.114V53.868
			c0-5.654,4.6-10.256,10.255-10.256H401.12c5.67,0,10.283,4.601,10.283,10.256v38.999H224.773c-4.174,0-7.557,3.383-7.557,7.556
			s3.383,7.556,7.557,7.556h186.631v68.988L289.356,305.14h-71.63c-4.174,0-7.557,3.383-7.557,7.556s3.383,7.556,7.557,7.556h57.24
			l-1.923,2.02c-0.028,0.03-0.051,0.062-0.079,0.092c-0.11,0.12-0.216,0.244-0.32,0.371c-0.063,0.078-0.125,0.155-0.184,0.235
			c-0.082,0.11-0.16,0.223-0.236,0.339c-0.071,0.107-0.14,0.214-0.205,0.323c-0.055,0.094-0.108,0.189-0.16,0.286
			c-0.073,0.136-0.142,0.273-0.206,0.412c-0.019,0.041-0.042,0.079-0.06,0.121l-22.802,52.047c-0.572,1.333-0.994,2.689-1.297,4.05
			H97.173c-4.174,0-7.557,3.383-7.557,7.556c0,4.173,3.383,7.556,7.557,7.556h152.663c0.807,1.32,1.776,2.552,2.91,3.663
			c3.671,3.598,8.466,5.453,13.569,5.453c3.157,0,6.433-0.711,9.631-2.16c0.079-0.035,0.157-0.072,0.234-0.11l50.884-25.191
			c0.061-0.03,0.116-0.067,0.175-0.098c0.116-0.061,0.231-0.125,0.344-0.192c0.109-0.065,0.216-0.133,0.321-0.203
			c0.097-0.065,0.192-0.131,0.286-0.201c0.113-0.083,0.224-0.169,0.331-0.258c0.079-0.065,0.156-0.132,0.232-0.2
			c0.113-0.101,0.222-0.205,0.328-0.312c0.033-0.033,0.07-0.063,0.102-0.097l21.069-22.126v67.243c0,1.378-1.164,2.543-2.542,2.543
			H78.806c-1.393,0-2.57-1.165-2.57-2.543v-98.077c0-1.378,1.176-2.542,2.57-2.542h106.902c4.174,0,7.557-3.383,7.557-7.556
			s-3.383-7.556-7.557-7.556H78.806c-9.751,0-17.684,7.919-17.684,17.655v98.077c0,9.735,7.933,17.656,17.684,17.656h268.905
			c9.736,0,17.656-7.92,17.656-17.656v-83.115l46.036-48.346V458.105z M262.658,382.509l2.243-5.12l9.565,9.102l-4.861,2.407
			c-2.591,1.143-4.874,1.01-6.28-0.368C262.219,387.446,261.469,385.282,262.658,382.509z M288.887,379.351l-17.536-16.686
			l9.758-22.272l29.569,28.17L288.887,379.351z M416.624,262.011C416.623,262.012,416.623,262.012,416.624,262.011l-93.172,97.847
			l-34.255-32.634l8.679-9.115c0.102-0.099,0.197-0.203,0.293-0.308l126.12-132.45c0.019-0.02,0.037-0.04,0.057-0.06l18.543-19.473
			l34.277,32.637L416.624,262.011z M490.374,184.573l-2.794,2.929l-34.274-32.633l2.809-2.955
			c4.336-4.549,10.218-7.137,16.562-7.289c6.358-0.146,12.345,2.155,16.895,6.491C499.013,160.118,499.371,175.128,490.374,184.573z
			"/>
		<path d="M89.616,352.647c0,4.173,3.383,7.556,7.557,7.556h116.446c4.174,0,7.557-3.383,7.557-7.556
			c0-4.174-3.383-7.556-7.557-7.556H97.173C93,345.091,89.616,348.474,89.616,352.647z"/>
	</g>
</g>
<g>
</g>
<g>
</g>
<g>
</g>
<g>
</g>
<g>
</g>
<g>
</g>
<g>
</g>
<g>
</g>
<g>
</g>
<g>
</g>
<g>
</g>
<g>
</g>
<g>
</g>
<g>
</g>
<g>
</g>
</svg>
