<?xml version="1.0" encoding="iso-8859-1"?>
<!-- Generator: Adobe Illustrator 23.0.3, SVG Export Plug-In . SVG Version: 6.00 Build 0)  -->
<svg version="1.1" id="Capa_1" xmlns="http://www.w3.org/2000/svg" xmlns:xlink="http://www.w3.org/1999/xlink" x="0px" y="0px"
	 viewBox="0 0 512 512" style="enable-background:new 0 0 512 512;" xml:space="preserve">
<g>
	<g>
		<path style="fill-rule:evenodd;clip-rule:evenodd;fill:#8EBFE8;" d="M364.147,50.341l-155.295-18.22L53.557,50.341v413.44
			l155.295,20.315l155.295-20.315C364.147,382.379,364.147,228.727,364.147,50.341L364.147,50.341z"/>
	</g>
	<g>
		<path style="fill-rule:evenodd;clip-rule:evenodd;fill:#E6E6E6;" d="M364.147,463.782H53.557v15.351
			c0,13.916,11.337,25.307,25.188,25.307h260.215c13.85,0,25.188-11.391,25.188-25.307V463.782z"/>
	</g>
	<g>
		<path style="fill-rule:evenodd;clip-rule:evenodd;fill:#E6E6E6;" d="M53.557,50.341h99.323
			c12.679-0.086,22.617-0.115,28.957,10.875c5.34,9.239,15.507,15.494,27.244,15.408c11.994,0,21.532-6.686,26.987-15.408
			c6.825-10.932,15.992-10.789,28.986-10.875h99.094V32.867c0-13.916-11.337-25.307-25.188-25.307H78.745
			c-13.85,0-25.188,11.391-25.188,25.307V50.341z"/>
	</g>
	<g>
		<path style="fill-rule:evenodd;clip-rule:evenodd;fill:#519AD6;" d="M364.147,50.341h-35.668v152.246
			c6.454-1.664,13.022-2.697,19.647-3.128c6.682-0.43,10.623-0.287,15.764,0.172l0.257,0.029V50.341z"/>
	</g>
	<g>
		<path style="fill-rule:evenodd;clip-rule:evenodd;fill:#C4CCCF;" d="M328.479,32.867v13.285v4.189h35.668V32.867
			c0-13.916-11.337-25.307-25.188-25.307h-35.668C317.142,7.56,328.479,18.951,328.479,32.867L328.479,32.867z"/>
	</g>
	<g>
		<path style="fill-rule:evenodd;clip-rule:evenodd;fill:#C4CCCF;" d="M328.479,479.133c0,13.859-11.252,25.221-25.045,25.307
			h35.525c13.85,0,25.188-11.391,25.188-25.307v-15.351h-35.668v4.677V479.133z"/>
	</g>
	<g>
		<path style="fill-rule:evenodd;clip-rule:evenodd;fill:#FCD968;" d="M314.486,399.767c14.393,6.083,30.357,8.981,46.977,7.862
			c0.885-0.057,1.799-0.115,2.684-0.201c55.887-5.136,97.78-54.144,94.068-110.727c-3.398-51.935-44.064-92.478-94.068-97.04
			c-5.369-0.488-10.823-0.545-16.335-0.201c-12.994,0.861-25.273,4.103-36.439,9.239c-21.732,10.014-39.295,27.316-49.804,48.578
			c-7.254,14.662-11.137,31.218-10.738,48.606c0.029,1.492,0.114,3.013,0.2,4.534c1.057,16.011,5.654,30.931,12.965,44.044
			c2.456,4.39,5.197,8.579,8.225,12.539c-3.313,9.641-5.055,16.728-8.367,26.369c-0.2,3.816,0.171,7.03,1.028,9.698
			c4.112,12.941,19.219,12.855,29.985,7.116L314.486,399.767z"/>
	</g>
	<g>
		<path style="fill-rule:evenodd;clip-rule:evenodd;fill:#E69B56;" d="M415.55,303.301c2.827,42.954-18.077,81.948-51.403,104.128
			c55.887-5.136,97.78-54.144,94.068-110.727c-3.398-51.935-44.064-92.478-94.068-97.04l-0.257-0.029l0,0
			c-5.169-0.459-10.423-0.516-15.764-0.172c-0.114,0-0.228,0-0.314,0c-3.884,0.258-7.739,0.746-11.537,1.406
			c9.938,3.271,19.305,7.833,27.872,13.543c19.933,13.256,35.64,32.624,44.264,55.665
			C412.323,280.461,414.779,291.623,415.55,303.301L415.55,303.301z"/>
	</g>
	<g>
		<path style="fill-rule:evenodd;clip-rule:evenodd;fill:#519AD6;" d="M328.479,404.53v59.251h35.668v-56.353h-0.057l-2.285,0.201
			h-0.029h-0.029h-0.029h-0.057h-0.029h-0.057h-0.029h-0.029h-0.057C350.068,408.404,338.959,407.256,328.479,404.53L328.479,404.53
			z"/>
	</g>
	<g>
		<path style="fill-rule:evenodd;clip-rule:evenodd;" d="M103.037,170.567c3.698,0,6.063-1.704,7.094-5.117l2.456-8.317h25.195
			l2.638,8.317c1.151,3.351,3.395,5.026,6.731,5.026c2.001,0,3.698-0.61,5.093-1.828c1.455-1.401,2.183-2.892,2.183-4.477
			c0-1.584-0.243-3.046-0.728-4.387l-17.827-48.71c-2.001-5.482-5.548-8.224-10.642-8.224c-5.155,0-8.732,2.742-10.733,8.224
			l-18.1,48.619c-0.425,1.097-0.637,2.316-0.637,3.656c0,2.01,0.696,3.717,2.092,5.117
			C99.247,169.865,100.975,170.567,103.037,170.567z M125.23,118.201l8.095,25.681l-16.554-0.092L125.23,118.201z"/>
		<path style="fill-rule:evenodd;clip-rule:evenodd;" d="M175.725,119.075h143.53c4.174,0,7.556-3.384,7.556-7.56
			c0-4.176-3.383-7.56-7.556-7.56h-143.53c-4.174,0-7.557,3.384-7.557,7.56C168.169,115.691,171.552,119.075,175.725,119.075z"/>
		<path style="fill-rule:evenodd;clip-rule:evenodd;" d="M209.08,32.366h-0.228c-4.174,0-7.557,3.384-7.557,7.56
			s3.383,7.56,7.557,7.56h0.228c4.174,0,7.557-3.384,7.557-7.56S213.254,32.366,209.08,32.366z"/>
		<path style="fill-rule:evenodd;clip-rule:evenodd;" d="M175.725,167.653h143.53c4.174,0,7.556-3.384,7.556-7.56
			s-3.383-7.56-7.556-7.56h-143.53c-4.174,0-7.557,3.384-7.557,7.56S171.552,167.653,175.725,167.653z"/>
		<path style="fill-rule:evenodd;clip-rule:evenodd;" d="M465.756,296.206c-1.956-29.818-15.348-57.087-37.713-76.783
			c-16.158-14.231-35.602-23.274-56.34-26.463V32.868C371.703,14.744,357.015,0,338.96,0H78.745C60.689,0,46,14.744,46,32.868
			V227.12c0,4.176,3.383,7.56,7.557,7.56s7.557-3.384,7.557-7.56V57.902h91.817c13.474-0.085,18.539,0.468,22.364,7.099
			c6.851,11.854,19.686,19.185,33.497,19.185c0.096,0,0.193-0.001,0.289-0.002c13.487,0,25.97-7.087,33.396-18.963
			c4.28-6.856,8.975-7.233,21.919-7.315l92.195-0.004v133.788c-3.078-0.05-6.171,0.02-9.277,0.225
			c-13.328,0.882-25.958,4.099-37.525,9.223H102.076c-4.174,0-7.557,3.384-7.557,7.56s3.383,7.56,7.557,7.56H285.04
			c-11.401,9.197-20.94,20.575-28.009,33.458H102.076c-4.174,0-7.557,3.384-7.557,7.56s3.383,7.56,7.557,7.56h148.065
			c-3.892,10.549-6.232,21.811-6.768,33.487H102.076c-4.174,0-7.557,3.384-7.557,7.56s3.383,7.56,7.557,7.56H243.7
			c1.021,11.616,3.807,22.876,8.234,33.458H102.076c-4.174,0-7.557,3.384-7.557,7.56s3.383,7.56,7.557,7.56h157.578
			c1.311,2.142,2.695,4.244,4.154,6.302c-1.121,3.434-2.075,6.593-3.006,9.676c-1.278,4.23-2.486,8.227-4.096,12.913
			c-0.226,0.656-0.36,1.341-0.399,2.035c-0.049,0.882-0.071,1.734-0.07,2.561H102.076c-4.174,0-7.557,3.384-7.557,7.56
			s3.383,7.56,7.557,7.56h157.948c2.001,3.287,4.52,5.528,6.875,7.034c3.938,2.517,8.795,3.767,13.973,3.767
			c5.726,0,11.842-1.53,17.536-4.566l16.513-8.766c13.362,5.145,27.342,7.586,41.669,7.304v40.822H228.014
			c-4.174,0-7.557,3.384-7.557,7.56s3.383,7.56,7.557,7.56H356.59v7.791c0,9.786-7.909,17.747-17.631,17.747H78.745
			c-9.722,0-17.631-7.961-17.631-17.747v-7.791h131.86c4.174,0,7.557-3.384,7.557-7.56s-3.383-7.56-7.557-7.56H61.114V262.154
			c0-4.176-3.383-7.56-7.557-7.56S46,257.979,46,262.154v216.978C46,497.256,60.689,512,78.745,512H338.96
			c18.055,0,32.744-14.744,32.744-32.868V414.09C428.086,405.348,469.575,354.44,465.756,296.206z M265.003,42.782l-0.703,0.004
			c-13.236,0.084-25.738,0.163-34.639,14.421c-2.229,3.565-8.697,11.858-20.636,11.858c-0.06,0-0.12,0-0.18,0
			c-8.482,0-16.312-4.445-20.463-11.627c-8.56-14.838-22.284-14.762-35.502-14.655H61.114v-9.914
			c0-9.786,7.909-17.748,17.631-17.748H338.96c9.722,0,17.631,7.961,17.631,17.748v9.914H265.003z M360.955,400.086
			c-15.058,1.011-29.697-1.437-43.529-7.283c-2.093-0.886-4.474-0.781-6.483,0.285l-19.633,10.423
			c-5.834,3.113-12.679,3.705-16.275,1.407c-1.324-0.846-2.287-2.172-2.898-3.947c-0.022-0.078-0.043-0.155-0.068-0.231
			c-0.522-1.628-0.769-3.608-0.711-5.965c1.53-4.519,2.739-8.522,3.912-12.402c1.278-4.232,2.486-8.229,4.096-12.917
			c0.823-2.395,0.392-5.043-1.147-7.054c-2.804-3.663-5.32-7.505-7.553-11.49c-0.043-0.081-0.091-0.158-0.137-0.237
			c-6.92-12.439-11.012-26.303-11.958-40.754c-3.492-53.243,36.765-99.412,89.74-102.917v-0.001
			c5.055-0.334,10.074-0.268,15.025,0.173c0.03,0.003,0.059,0.005,0.089,0.008c20.139,1.814,39.132,9.937,54.631,23.587
			c19.342,17.035,30.926,40.625,32.618,66.425C454.166,350.422,413.921,396.579,360.955,400.086z"/>
		<path style="fill-rule:evenodd;clip-rule:evenodd;" d="M415.551,262.514h-69.623c-2.973,0-5.669,1.743-6.891,4.455l-23.489,52.177
			l-15.901-16.305c-2.914-2.987-7.698-3.05-10.686-0.131c-2.986,2.916-3.046,7.703-0.131,10.691l23.646,24.246
			c1.434,1.471,3.391,2.281,5.409,2.281c0.436,0,0.878-0.038,1.315-0.116c2.462-0.435,4.549-2.06,5.576-4.34l26.037-57.838h64.739
			c4.174,0,7.556-3.384,7.556-7.56S419.724,262.514,415.551,262.514z"/>
		<path style="fill-rule:evenodd;clip-rule:evenodd;" d="M392.562,318.393l8.339-9.182c1.513-1.693,2.456-3.701,2.456-5.997
			c0-2.267-0.8-4.275-2.456-5.825c-1.599-1.636-3.598-2.468-5.883-2.468c-2.627,0-4.798,1.148-6.425,3.214l-6.454,8.091
			l-6.283-8.063c-1.656-2.095-3.827-3.242-6.454-3.242c-1.142,0-2.256,0.201-3.313,0.66c-0.942,0.402-1.799,0.976-2.57,1.664
			l-0.057,0.029l-0.029,0.029c-1.599,1.636-2.37,3.644-2.37,5.911c0,2.324,0.942,4.333,2.484,6.026l8.31,9.125l-10.823,11.908
			c-1.371,1.463-1.913,3.357-1.913,5.366c0,2.324,0.828,4.361,2.456,5.997c1.628,1.635,3.655,2.468,5.969,2.468
			c2.77,0,5.026-1.693,6.739-3.73l7.853-9.899l8.025,9.899c1.713,2.037,3.941,3.73,6.711,3.73c2.313,0,4.341-0.832,5.968-2.468
			c1.628-1.636,2.456-3.673,2.456-5.997c0-2.008-0.628-3.845-1.97-5.337L392.562,318.393z"/>
	</g>
</g>
<g>
</g>
<g>
</g>
<g>
</g>
<g>
</g>
<g>
</g>
<g>
</g>
<g>
</g>
<g>
</g>
<g>
</g>
<g>
</g>
<g>
</g>
<g>
</g>
<g>
</g>
<g>
</g>
<g>
</g>
</svg>
