<?xml version="1.0" encoding="iso-8859-1"?>
<!-- Generator: Adobe Illustrator 23.0.3, SVG Export Plug-In . SVG Version: 6.00 Build 0)  -->
<svg version="1.1" id="Capa_1" xmlns="http://www.w3.org/2000/svg" xmlns:xlink="http://www.w3.org/1999/xlink" x="0px" y="0px"
	 viewBox="0 0 512 512" style="enable-background:new 0 0 512 512;" xml:space="preserve">
<g>
	<g>
		<path style="fill-rule:evenodd;clip-rule:evenodd;fill:#8EBFE8;" d="M354.129,50.301L198.056,32.074L41.983,50.301v413.524
			l156.073,20.353l156.073-20.353C354.129,382.413,354.129,228.745,354.129,50.301L354.129,50.301z"/>
	</g>
	<g>
		<path style="fill-rule:evenodd;clip-rule:evenodd;fill:#E6E6E6;" d="M354.129,463.825H41.983v15.364
			c0,13.918,11.395,25.314,25.313,25.314h261.521c13.918,0,25.313-11.395,25.313-25.314V463.825z"/>
	</g>
	<g>
		<path style="fill-rule:evenodd;clip-rule:evenodd;fill:#E6E6E6;" d="M41.983,50.301h99.807
			c12.756-0.085,22.734-0.142,29.111,10.857c5.357,9.241,15.59,15.506,27.382,15.421c12.047,0,21.656-6.69,27.127-15.421
			c6.86-10.914,16.044-10.772,29.111-10.857h99.608v-17.49c0-13.918-11.395-25.314-25.313-25.314H67.296
			c-13.918,0-25.313,11.395-25.313,25.314V50.301z"/>
	</g>
	<g>
		<path style="fill-rule:evenodd;clip-rule:evenodd;fill:#C4CCCF;" d="M318.272,32.811v13.295v4.195h35.858v-17.49
			c0-13.918-11.395-25.314-25.313-25.314h-35.829C306.905,7.497,318.272,18.893,318.272,32.811L318.272,32.811z"/>
	</g>
	<g>
		<path style="fill-rule:evenodd;clip-rule:evenodd;fill:#C4CCCF;" d="M318.272,479.189c0,13.862-11.31,25.229-25.171,25.314h35.716
			c13.918,0,25.313-11.395,25.313-25.314v-15.364h-35.858v4.677V479.189z"/>
	</g>
	<g>
		<polygon style="fill-rule:evenodd;clip-rule:evenodd;fill:#519AD6;" points="318.272,404.58 318.272,463.825 354.129,463.825 
			354.129,407.471 354.129,199.661 354.129,50.301 318.272,50.301 318.272,202.58 		"/>
	</g>
	<g>
		<path style="fill-rule:evenodd;clip-rule:evenodd;fill:#546E7A;" d="M245.337,371.811l-3.118,19.588
			c-2.211,14.485,12.472,23.925,24.973,13.805l14.967-13.011l-10.46-24.066L245.337,371.811z"/>
	</g>
	<g>
		<polygon style="fill-rule:evenodd;clip-rule:evenodd;fill:#FFD54F;" points="319.094,360.104 296.19,328.157 252.962,323.536 
			245.337,371.811 282.159,392.192 		"/>
	</g>
	<g>
		<polygon style="fill-rule:evenodd;clip-rule:evenodd;fill:#E69B56;" points="291.598,344.91 268.128,387.43 282.159,392.192 
			319.094,360.104 		"/>
	</g>
	<g>
		<polygon style="fill-rule:evenodd;clip-rule:evenodd;fill:#8BC34A;" points="380.633,92.68 260.106,310.61 252.962,323.536 
			319.094,360.104 359.94,286.26 458.5,108.044 458.5,108.015 436.305,72.752 392.368,71.448 		"/>
	</g>
	<g>
		<polygon style="fill-rule:evenodd;clip-rule:evenodd;fill:#689F38;" points="291.598,344.91 319.094,360.104 359.94,286.26 
			458.5,108.044 458.5,108.015 431.004,92.821 431.004,92.85 332.445,271.066 		"/>
	</g>
	<g>
		<path style="fill-rule:evenodd;clip-rule:evenodd;fill:#F0417B;" d="M450.535,44.348c-18.17-10.063-41.272-3.402-51.335,14.769
			l-6.831,12.331l66.131,36.567l6.803-12.303C475.281,77.713,468.903,54.525,450.535,44.348L450.535,44.348z"/>
	</g>
	<g>
		<path style="fill-rule:evenodd;clip-rule:evenodd;fill:#A3316E;" d="M435.143,39.756c7.88,10.743,9.723,25.229,4.167,37.786
			c-0.454,0.992-0.935,1.984-1.502,2.976l-6.803,12.303l27.496,15.194l6.803-12.303c9.978-18,3.6-41.188-14.768-51.364
			C445.659,41.655,440.387,40.153,435.143,39.756L435.143,39.756z"/>
	</g>
	<g>
		<path d="M475.762,65.05c-3.32-11.703-10.988-21.385-21.595-27.261c-10.54-5.838-22.763-7.206-34.414-3.849
			c-11.646,3.352-21.274,11.004-27.111,21.543l-6.832,12.331l0,0.001c-0.001,0.001-0.002,0.003-0.003,0.004l-24.179,43.724V32.811
			C361.627,14.719,346.909,0,328.816,0H67.296C49.204,0,34.485,14.719,34.485,32.811V227.1c0,4.141,3.356,7.497,7.497,7.497
			s7.497-3.356,7.497-7.497V57.798h92.36c13.625-0.089,18.72,0.472,22.575,7.121c6.862,11.837,19.73,19.159,33.584,19.158
			c0.095,0,0.19,0,0.285-0.001c13.534,0,26.05-7.079,33.475-18.927c4.328-6.885,9.061-7.264,22.109-7.345l92.765-0.004v80.859
			L285.3,249.565H79.91c-4.141,0-7.497,3.356-7.497,7.497c0,4.141,3.356,7.497,7.497,7.497h197.098l-18.592,33.621H79.91
			c-4.141,0-7.497,3.356-7.497,7.497c0,4.141,3.356,7.497,7.497,7.497h170.214l-3.723,6.732c-0.022,0.04-0.039,0.083-0.06,0.123
			c-0.069,0.131-0.134,0.264-0.196,0.401c-0.042,0.092-0.083,0.185-0.121,0.279c-0.052,0.128-0.1,0.258-0.146,0.391
			c-0.038,0.11-0.073,0.22-0.105,0.331c-0.035,0.119-0.067,0.24-0.096,0.362c-0.031,0.129-0.058,0.259-0.082,0.389
			c-0.011,0.062-0.029,0.122-0.039,0.185l-3.868,24.401H79.91c-4.146,0-7.499,3.353-7.499,7.499c0,4.136,3.353,7.499,7.499,7.499
			h159.407l-4.513,28.497c-0.263,1.73-0.34,3.443-0.261,5.119H79.91c-4.141,0-7.497,3.356-7.497,7.497s3.356,7.497,7.497,7.497
			h160.914c1.384,1.438,2.964,2.702,4.743,3.722c3.313,1.894,6.933,2.827,10.623,2.827c5.386,0,10.911-1.994,15.722-5.892
			c0.069-0.06,0.129-0.109,0.198-0.169l51.906-45.101c0.101-0.088,0.191-0.184,0.287-0.276c0.057-0.055,0.115-0.107,0.17-0.163
			c0.222-0.228,0.429-0.466,0.617-0.715c0,0,0-0.001,0-0.001c0.196-0.261,0.368-0.533,0.526-0.812
			c0.013-0.022,0.029-0.041,0.041-0.063l20.977-37.933v130.529H217.332c-4.141,0-7.497,3.356-7.497,7.497s3.356,7.497,7.497,7.497
			h129.301v7.866c0,9.824-7.992,17.816-17.816,17.816H67.296c-9.824,0-17.816-7.992-17.816-17.816v-7.866h132.618
			c4.141,0,7.497-3.356,7.497-7.497s-3.356-7.497-7.497-7.497H49.48V262.165c0-4.141-3.356-7.497-7.497-7.497
			s-7.497,3.356-7.497,7.497v217.024c0,18.092,14.719,32.811,32.811,32.811h261.52c18.092,0,32.811-14.719,32.811-32.811V298.684
			l103.33-186.853c0.034-0.057,0.074-0.107,0.107-0.165l6.796-12.317C477.674,88.86,479.06,76.679,475.762,65.05z M423.902,48.35
			c7.801-2.244,15.969-1.337,23,2.557c7.086,3.926,12.213,10.402,14.434,18.236c2.209,7.79,1.29,15.935-2.597,22.948l-3.165,5.737
			l-53.009-29.312l3.195-5.768C409.658,55.71,416.1,50.596,423.902,48.35z M254.473,42.804l-0.698,0.004
			c-13.261,0.083-25.786,0.162-34.717,14.37c-2.242,3.579-8.757,11.904-20.828,11.904c-0.059,0-0.119,0-0.178,0
			c-8.574,0-16.479-4.464-20.664-11.684c-8.567-14.776-22.33-14.692-35.598-14.594H49.48v-9.993c0-9.824,7.992-17.816,17.816-17.816
			h261.52c9.824,0,17.816,7.992,17.816,17.816v9.993H254.473z M262.379,399.448c-3.244,2.589-6.646,3.194-9.344,1.637
			c-2.678-1.528-3.978-4.811-3.412-8.511l1.43-9.029l18.099,10.018L262.379,399.448z M281.202,383.094l-27.653-15.307l0.954-6.021
			l2.371-14.997l1.819-11.495l47.389,26.204L281.202,383.094z M396.097,205.358l-79.936,144.556l-53.008-29.311l97.438-176.198
			c0.074-0.126,0.145-0.253,0.212-0.383l34.499-62.385l53.008,29.311L396.097,205.358z"/>
		<path d="M198.283,32.372h-0.228c-4.141,0-7.497,3.356-7.497,7.497s3.356,7.497,7.497,7.497h0.228c4.141,0,7.497-3.356,7.497-7.497
			S202.424,32.372,198.283,32.372z"/>
		<path d="M72.412,159.862c0,4.141,3.356,7.497,7.497,7.497h218.264c4.141,0,7.497-3.356,7.497-7.497
			c0-4.141-3.356-7.497-7.497-7.497H79.91C75.769,152.364,72.412,155.721,72.412,159.862z"/>
		<path d="M298.174,118.745c4.141,0,7.497-3.356,7.497-7.497s-3.356-7.497-7.497-7.497H124.101c-4.141,0-7.497,3.356-7.497,7.497
			s3.356,7.497,7.497,7.497H298.174z"/>
		<path d="M79.91,215.945h218.264c4.141,0,7.497-3.356,7.497-7.497c0-4.141-3.356-7.497-7.497-7.497H79.91
			c-4.141,0-7.497,3.356-7.497,7.497C72.412,212.589,75.769,215.945,79.91,215.945z"/>
	</g>
</g>
<g>
</g>
<g>
</g>
<g>
</g>
<g>
</g>
<g>
</g>
<g>
</g>
<g>
</g>
<g>
</g>
<g>
</g>
<g>
</g>
<g>
</g>
<g>
</g>
<g>
</g>
<g>
</g>
<g>
</g>
</svg>
