<?xml version="1.0" encoding="iso-8859-1"?>
<!-- Generator: Adobe Illustrator 23.0.3, SVG Export Plug-In . SVG Version: 6.00 Build 0)  -->
<svg version="1.1" id="Capa_1" xmlns="http://www.w3.org/2000/svg" xmlns:xlink="http://www.w3.org/1999/xlink" x="0px" y="0px"
	 viewBox="0 0 512 512" style="enable-background:new 0 0 512 512;" xml:space="preserve">
<g>
	<g>
		<path style="fill-rule:evenodd;clip-rule:evenodd;fill:#8BC34A;" d="M389.604,374.539V24.363c0-9.239-7.562-16.806-16.795-16.806
			h-79.584c-9.233,0-15.322,7.68-16.795,16.806l-29.115,179.226l29.115,179.254c1.473,9.126,7.562,16.806,16.795,16.806h41.463
			l-0.85-8.219c-1.189-18.45,6.316-28.964,28.69-22.956L389.604,374.539z"/>
	</g>
	<g>
		<path style="fill-rule:evenodd;clip-rule:evenodd;fill:#F55A8E;" d="M66.851,7.557h79.584c9.233,0,16.795,7.567,16.795,16.806
			l62.959,185.602l-62.959,172.877c0,9.239-7.562,16.806-16.795,16.806H66.851c-9.233,0-16.795-7.567-16.795-16.806V24.363
			C50.057,15.124,57.618,7.557,66.851,7.557L66.851,7.557z"/>
	</g>
	<g>
		<path style="fill-rule:evenodd;clip-rule:evenodd;fill:#8EBFE8;" d="M180.024,7.557h79.612c9.233,0,16.795,7.567,16.795,16.806
			v358.48c0,9.239-7.562,16.806-16.795,16.806h-79.612c-9.233,0-16.795-7.567-16.795-16.806V24.363
			C163.229,15.124,170.791,7.557,180.024,7.557L180.024,7.557z"/>
	</g>
	<g>
		<rect x="50.057" y="82.319" style="fill-rule:evenodd;clip-rule:evenodd;fill:#FCD968;" width="113.173" height="51.07"/>
	</g>
	<g>
		<rect x="163.229" y="112.332" style="fill-rule:evenodd;clip-rule:evenodd;fill:#ECEFF1;" width="113.201" height="51.041"/>
	</g>
	<g>
		<rect x="276.431" y="82.319" style="fill-rule:evenodd;clip-rule:evenodd;fill:#FCD968;" width="113.173" height="51.07"/>
	</g>
	<g>
		<path style="fill-rule:evenodd;clip-rule:evenodd;fill:#689F38;" d="M365.389,24.363v57.956h24.215V24.363
			c0-9.239-7.562-16.806-16.795-16.806h-24.215C357.827,7.557,365.389,15.124,365.389,24.363L365.389,24.363z"/>
	</g>
	<g>
		<rect x="365.389" y="82.319" style="fill-rule:evenodd;clip-rule:evenodd;fill:#E69B56;" width="24.215" height="51.07"/>
	</g>
	<g>
		<path style="fill-rule:evenodd;clip-rule:evenodd;fill:#BA4583;" d="M138.873,24.363v57.956h24.357V24.363
			c0-9.239-7.562-16.806-16.795-16.806h-24.357C131.339,7.557,138.873,15.124,138.873,24.363L138.873,24.363z"/>
	</g>
	<g>
		<polygon style="fill-rule:evenodd;clip-rule:evenodd;fill:#E69B56;" points="163.229,82.319 138.873,82.319 138.873,133.389 
			163.229,133.389 163.229,112.332 		"/>
	</g>
	<g>
		<path style="fill-rule:evenodd;clip-rule:evenodd;fill:#BA4583;" d="M163.229,133.389h-24.357v249.453
			c0,9.239-7.534,16.806-16.795,16.806h24.357c9.233,0,16.795-7.567,16.795-16.806V163.373V133.389z"/>
	</g>
	<g>
		<polygon style="fill-rule:evenodd;clip-rule:evenodd;fill:#689F38;" points="365.389,133.389 365.389,369.126 389.604,374.539 
			389.604,133.389 		"/>
	</g>
	<g>
		<path style="fill-rule:evenodd;clip-rule:evenodd;fill:#519AD6;" d="M247.316,24.363v87.969h29.115V82.319V24.363
			c0-9.239-7.562-16.806-16.795-16.806h-29.115C239.754,7.557,247.316,15.124,247.316,24.363L247.316,24.363z"/>
	</g>
	<g>
		<polygon style="fill-rule:evenodd;clip-rule:evenodd;fill:#C4CCCF;" points="276.431,112.332 247.316,112.332 247.316,163.373 
			276.431,163.373 276.431,133.389 		"/>
	</g>
	<g>
		<path style="fill-rule:evenodd;clip-rule:evenodd;fill:#519AD6;" d="M276.431,163.373h-29.115v219.469
			c0,9.239-7.562,16.806-16.795,16.806h29.115c9.233,0,16.795-7.567,16.795-16.806V163.373z"/>
	</g>
	<g>
		<path style="fill-rule:evenodd;clip-rule:evenodd;fill:#C4CCCF;" d="M460.096,464.208l-36.252-40.81l7.42-6.603
			c16.823-16.664,3.823-32.082-12.461-35.737l-56.275-12.583c-22.374-6.008-29.879,4.506-28.69,22.956l6.117,59.742
			c1.699,16.636,15.492,31.345,33.986,16.579l7.42-6.575l36.252,40.81c2.691,3.032,7.364,3.287,10.394,0.595l31.465-27.972
			C462.503,471.917,462.787,467.24,460.096,464.208L460.096,464.208z"/>
	</g>
	<g>
		<path style="fill-rule:evenodd;clip-rule:evenodd;fill:#90A4AE;" d="M428.178,430.426c0,22.049-9.629,41.831-24.923,55.406
			l14.359,16.154c2.691,3.032,7.364,3.287,10.394,0.595l31.465-27.972c3.03-2.692,3.314-7.369,0.623-10.401l-31.975-35.992
			C428.149,428.952,428.178,429.689,428.178,430.426L428.178,430.426z"/>
	</g>
	<g>
		<path d="M88.007,303.705h42.624c4.174,0,7.557-3.383,7.557-7.557c0-4.174-3.383-7.557-7.557-7.557H88.007
			c-4.174,0-7.557,3.383-7.557,7.557C80.451,300.322,83.833,303.705,88.007,303.705z"/>
		<path d="M88.007,333.888h42.624c4.174,0,7.557-3.383,7.557-7.557c0-4.174-3.383-7.557-7.557-7.557H88.007
			c-4.174,0-7.557,3.383-7.557,7.557C80.451,330.505,83.833,333.888,88.007,333.888z"/>
		<path d="M241.482,288.592h-42.596c-4.174,0-7.557,3.383-7.557,7.557c0,4.174,3.383,7.557,7.557,7.557h42.596
			c4.174,0,7.557-3.383,7.557-7.557C249.039,291.975,245.656,288.592,241.482,288.592z"/>
		<path d="M241.482,318.774h-42.596c-4.174,0-7.557,3.383-7.557,7.557c0,4.174,3.383,7.557,7.557,7.557h42.596
			c4.174,0,7.557-3.383,7.557-7.557C249.039,322.157,245.656,318.774,241.482,318.774z"/>
		<path d="M312.06,303.705h42.623c4.174,0,7.557-3.383,7.557-7.557c0-4.174-3.383-7.557-7.557-7.557H312.06
			c-4.174,0-7.557,3.383-7.557,7.557C304.503,300.322,307.886,303.705,312.06,303.705z"/>
		<path d="M362.239,326.331c0-4.174-3.383-7.557-7.557-7.557H312.06c-4.174,0-7.557,3.383-7.557,7.557
			c0,4.174,3.383,7.557,7.557,7.557h42.623C358.856,333.888,362.239,330.505,362.239,326.331z"/>
		<path d="M465.746,459.189l-31.238-35.166l1.78-1.584c0.101-0.089,0.198-0.182,0.294-0.276
			c11.58-11.469,10.742-22.109,9.213-27.431c-2.911-10.129-12.62-18.194-25.344-21.051l-23.291-5.208V24.363
			C397.16,10.929,386.237,0,372.809,0h-79.584c-6.507,0-12.421,2.572-16.794,6.747C272.058,2.572,266.143,0,259.636,0h-79.612
			c-6.507,0-12.421,2.572-16.794,6.747C158.856,2.572,152.942,0,146.434,0H66.851C53.424,0,42.5,10.929,42.5,24.363v179.226
			c0,4.174,3.383,7.557,7.557,7.557s7.557-3.383,7.557-7.557v-62.643h98.06v241.896c0,5.099-4.144,9.249-9.239,9.249H66.851
			c-5.093,0-9.238-4.149-9.238-9.249V238.22c0-4.174-3.383-7.557-7.557-7.557s-7.557,3.383-7.557,7.557v144.622
			c0,13.433,10.924,24.363,24.351,24.363h79.584c6.507,0,12.422-2.572,16.795-6.747c4.373,4.175,10.287,6.747,16.794,6.747h79.612
			c6.507,0,12.422-2.572,16.795-6.747c4.373,4.175,10.287,6.747,16.794,6.747h34.633l4.581,44.734
			c1.305,12.784,8.335,23.643,17.908,27.665c5.104,2.145,15.572,4.224,28.31-5.947c0.102-0.08,0.2-0.164,0.297-0.25l1.771-1.569
			l31.237,35.164c2.646,2.983,6.303,4.749,10.296,4.974c0.289,0.016,0.576,0.024,0.863,0.024c3.661,0,7.151-1.322,9.905-3.769
			c0.001,0,0.002-0.001,0.003-0.002l31.464-27.971C470.643,474.794,471.206,465.344,465.746,459.189z M155.673,125.832h-98.06
			V89.876h98.06V125.832z M155.673,74.762h-98.06V24.363c0-5.099,4.144-9.249,9.238-9.249h79.584c5.094,0,9.239,4.149,9.239,9.249
			V74.762z M283.987,89.876h98.06v35.957h-98.06V89.876z M293.225,15.114h79.584c5.094,0,9.239,4.149,9.239,9.249v50.399h-98.06
			V24.363C283.987,19.263,288.132,15.114,293.225,15.114z M170.786,24.363c0-5.099,4.144-9.249,9.238-9.249h79.612
			c5.094,0,9.239,4.149,9.239,9.249v80.412h-98.088V24.363z M170.786,119.888h98.088v35.928h-98.088V119.888z M326.298,391.915
			c0.004,0.059,0.009,0.117,0.015,0.176h-33.088c-5.093,0-9.238-4.149-9.238-9.249V270.019c0-4.174-3.383-7.557-7.557-7.557
			c-4.174,0-7.557,3.383-7.557,7.557v112.824c0,5.099-4.144,9.249-9.239,9.249h-79.612c-5.093,0-9.238-4.149-9.238-9.249V170.93
			h98.088v60.148c0,4.174,3.383,7.557,7.557,7.557c4.174,0,7.557-3.383,7.557-7.557v-90.133h98.06v224.148l-17.718-3.962
			c-12.609-3.356-22.422-2.252-29.168,3.276C328.457,369.902,325.475,379.157,326.298,391.915z M423.125,496.81l-36.113-40.654
			c-1.494-1.68-3.568-2.537-5.653-2.537c-1.782,0-3.57,0.626-5.008,1.901l-7.268,6.439c-3.476,2.744-8.48,5.556-12.883,3.709
			c-4.409-1.852-7.997-8.129-8.726-15.267l-5.261-51.379c-0.008-0.1-0.019-0.2-0.031-0.299l-0.811-7.917
			c-0.455-7.333,0.74-12.554,3.368-14.707c2.713-2.222,8.333-2.341,15.829-0.327c0.103,0.027,0.206,0.053,0.31,0.076l26.873,6.009
			c0.16,0.04,0.32,0.078,0.484,0.108l28.911,6.464c6.993,1.571,12.8,5.879,14.122,10.478c1.321,4.595-2.056,9.245-5.187,12.382
			l-7.262,6.462c-3.115,2.773-3.396,7.546-0.626,10.665l36.123,40.664L423.125,496.81z"/>
	</g>
</g>
<g>
</g>
<g>
</g>
<g>
</g>
<g>
</g>
<g>
</g>
<g>
</g>
<g>
</g>
<g>
</g>
<g>
</g>
<g>
</g>
<g>
</g>
<g>
</g>
<g>
</g>
<g>
</g>
<g>
</g>
</svg>
