<?xml version="1.0" encoding="iso-8859-1"?>
<!-- Generator: Adobe Illustrator 23.0.3, SVG Export Plug-In . SVG Version: 6.00 Build 0)  -->
<svg version="1.1" id="Capa_1" xmlns="http://www.w3.org/2000/svg" xmlns:xlink="http://www.w3.org/1999/xlink" x="0px" y="0px"
	 viewBox="0 0 512 512" style="enable-background:new 0 0 512 512;" xml:space="preserve">
<g>
	<g>
		<path style="fill-rule:evenodd;clip-rule:evenodd;fill:#8EBFE8;" d="M411.944,50.339L256,32.119l-155.944,18.22v413.445
			L256,484.099l155.944-20.315C411.944,382.381,411.944,228.727,411.944,50.339L411.944,50.339z"/>
	</g>
	<g>
		<path style="fill-rule:evenodd;clip-rule:evenodd;fill:#E6E6E6;" d="M411.944,463.784H100.056v15.351
			c0,13.916,11.385,25.308,25.293,25.308h261.302c13.908,0,25.293-11.391,25.293-25.308V463.784z"/>
	</g>
	<g>
		<path style="fill-rule:evenodd;clip-rule:evenodd;fill:#E6E6E6;" d="M100.056,50.339h99.737
			c12.732-0.086,22.712-0.115,29.078,10.875c5.363,9.239,15.571,15.495,27.358,15.408c12.044,0,21.622-6.686,27.099-15.408
			c6.854-10.932,16.059-10.789,29.107-10.875h99.508V32.865c0-13.916-11.385-25.308-25.293-25.308H125.349
			c-13.908,0-25.293,11.391-25.293,25.308V50.339z"/>
	</g>
	<g>
		<path style="fill-rule:evenodd;clip-rule:evenodd;fill:#C4CCCF;" d="M376.126,32.865V46.15v4.189h35.817V32.865
			c0-13.916-11.385-25.308-25.293-25.308h-35.817C364.742,7.557,376.126,18.948,376.126,32.865L376.126,32.865z"/>
	</g>
	<g>
		<path style="fill-rule:evenodd;clip-rule:evenodd;fill:#C4CCCF;" d="M376.126,479.135c0,13.859-11.299,25.222-25.149,25.308
			h35.674c13.908,0,25.293-11.391,25.293-25.308v-15.351h-35.817v4.677V479.135z"/>
	</g>
	<g>
		<polygon style="fill-rule:evenodd;clip-rule:evenodd;fill:#519AD6;" points="376.126,404.532 376.126,463.784 411.944,463.784 
			411.944,407.43 411.944,199.66 411.944,50.339 376.126,50.339 376.126,202.587 		"/>
	</g>
	<g>
		<path style="fill-rule:evenodd;clip-rule:evenodd;fill:#F55A8E;" d="M225.23,107.066c43.158,1.435,76.997,37.617,75.563,80.801
			c-1.434,43.212-37.595,77.042-80.753,75.607c-12.56-0.402-24.318-3.759-34.641-9.383l-15.457,6.313
			c-10.266,4.189-24.605,1.779-21.995-14.863c3.183-6.944,5.018-12.109,8.202-19.053c-7.857-12.683-12.216-27.775-11.671-43.815
			C145.91,139.49,182.072,105.631,225.23,107.066L225.23,107.066z"/>
	</g>
	<g>
		<path style="fill-rule:evenodd;clip-rule:evenodd;fill:#BA4583;" d="M208.54,108.3c37.538,6.8,65.383,40.286,64.092,79.567
			c-0.631,19.253-8.173,36.642-20.16,49.869c7.399-3.96,15.514-6.8,24.117-8.235c3.384-0.574,6.825-0.918,10.324-1.033
			c0.315,0,0.631,0,0.946-0.029c7.743-11.65,12.446-25.537,12.933-40.573c1.434-43.184-32.405-79.366-75.563-80.801
			C219.523,106.865,213.931,107.296,208.54,108.3L208.54,108.3z"/>
	</g>
	<g>
		<path style="fill-rule:evenodd;clip-rule:evenodd;fill:#8BC34A;" d="M286.913,228.469c-43.158,1.435-76.997,37.617-75.534,80.801
			c1.434,43.212,37.595,77.042,80.753,75.608c12.532-0.402,24.289-3.759,34.613-9.383l15.485,6.341
			c10.238,4.161,24.605,1.779,21.995-14.892c-3.183-6.944-5.018-12.109-8.23-19.053c7.886-12.683,12.216-27.775,11.7-43.815
			C366.262,260.892,330.1,227.034,286.913,228.469L286.913,228.469z"/>
	</g>
	<g>
		<path style="fill-rule:evenodd;clip-rule:evenodd;fill:#689F38;" d="M276.59,229.502c39.172,3.099,70.573,35.207,71.921,75.407
			c0.459,13.716-2.438,26.312-8.288,37.732c-2.925,5.767-4.072,4.361-1.549,10.215c2.179,5.05,3.843,9.411,6.366,14.921
			c1.061,6.686-0.631,11.104-3.699,13.687l0.889,0.373c10.238,4.161,24.605,1.779,21.995-14.892
			c-3.183-6.944-5.018-12.109-8.23-19.053c7.886-12.683,12.216-27.775,11.7-43.815c-1.434-43.184-37.595-77.042-80.782-75.607
			C283.415,228.583,279.974,228.928,276.59,229.502L276.59,229.502z"/>
	</g>
	<g>
		<path d="M256.229,32.367H256c-4.173,0-7.556,3.383-7.556,7.557s3.383,7.557,7.556,7.557h0.229c4.173,0,7.556-3.383,7.556-7.557
			S260.403,32.367,256.229,32.367z"/>
		<path d="M419.5,50.339c0-0.344-0.031-0.681-0.076-1.013c0.023-5.49,0.048-10.979,0.076-16.462C419.5,14.743,404.764,0,386.651,0
			H125.349C107.236,0,92.5,14.743,92.5,32.865V227.12c0,4.174,3.383,7.557,7.556,7.557s7.556-3.383,7.556-7.557V57.896h92.232
			c13.562-0.089,18.645,0.469,22.492,7.112c6.875,11.846,19.752,19.173,33.606,19.172c0.095,0,0.191,0,0.287-0.001
			c13.526,0,26.049-7.082,33.502-18.951c4.305-6.868,9.027-7.245,22.045-7.327l92.501-0.004
			c-0.357,91.148-0.205,183.2-0.055,272.471c0.069,41.262,0.139,83.708,0.159,125.86H275.242c-4.173,0-7.556,3.383-7.556,7.557
			c0,4.174,3.383,7.557,7.556,7.557h129.144c0,2.598,0.002,5.2,0.002,7.794c0,9.788-7.957,17.751-17.736,17.751H125.349
			c-9.78,0-17.736-7.963-17.736-17.751v-7.794h132.443c4.173,0,7.556-3.383,7.556-7.557c0-4.174-3.383-7.557-7.556-7.557H107.613
			V262.155c0-4.174-3.383-7.557-7.556-7.557s-7.556,3.383-7.556,7.557v216.981c0,18.122,14.736,32.865,32.849,32.865h261.302
			c18.113,0,32.849-14.743,32.849-32.865c0-5.088-0.001-10.188-0.003-15.289c0-0.021,0.003-0.041,0.003-0.061
			c0-0.021-0.003-0.041-0.003-0.062c-0.015-44.619-0.09-89.665-0.163-133.379c-0.153-91.375-0.31-185.668,0.081-278.929
			C419.465,51.063,419.5,50.705,419.5,50.339z M312.386,42.782l-0.705,0.004c-13.278,0.084-25.82,0.163-34.751,14.409
			c-2.241,3.569-8.744,11.87-20.756,11.87c-0.06,0-0.119,0-0.179,0c-8.535,0-16.412-4.45-20.585-11.64
			c-8.588-14.826-22.356-14.746-35.617-14.643h-92.181v-9.918c0-9.788,7.957-17.751,17.736-17.751h261.302
			c9.78,0,17.736,7.963,17.736,17.713c-0.017,3.316-0.031,6.637-0.046,9.956H312.386z"/>
		<path d="M236.087,211.166l5.761,5.188c1.097,0.932,2.469,1.4,4.115,1.4c4.004,0,6.008-2.005,6.008-6.012
			c0-1.701-0.493-2.964-1.481-3.788l-5.514-4.94c2.304-3.898,3.799-7.027,4.486-9.388c0.685-2.36,1.028-5.462,1.028-9.305
			c0-9.058-2.716-16.483-8.148-22.276c-5.432-5.792-12.345-8.687-20.74-8.687c-8.615,0-15.611,2.855-20.987,8.564
			c-5.378,5.711-8.065,13.094-8.065,22.152s2.743,16.47,8.23,22.234c5.486,5.765,12.399,8.647,20.74,8.647
			c1.481,0,2.88-0.082,4.197-0.247c1.317-0.165,2.441-0.358,3.375-0.577C230.846,213.636,233.178,212.648,236.087,211.166z
			 M219.626,195.766l6.667,6.341c-1.702,0.879-3.183,1.317-4.445,1.317c-4.609,0-8.327-1.811-11.152-5.434
			c-2.827-3.624-4.239-8.263-4.239-13.918c0-5.6,1.412-10.115,4.239-13.547c2.825-3.43,6.432-5.147,10.823-5.147
			c4.554,0,8.202,1.73,10.946,5.188c2.743,3.459,4.115,8.017,4.115,13.671c0,2.745-0.123,4.652-0.37,5.723
			c-0.247,1.07-0.864,2.375-1.852,3.911l-7.161-6.093c-1.098-0.933-2.551-1.4-4.362-1.4c-3.292,0-4.938,1.51-4.938,4.529
			C217.898,193.049,218.474,194.668,219.626,195.766z"/>
		<path d="M225.481,99.513c-22.887-0.757-44.711,7.445-61.438,23.107c-16.727,15.661-26.358,36.9-27.118,59.797
			c-0.531,15.629,3.173,30.944,10.739,44.544c-0.939,2.16-1.776,4.18-2.595,6.156c-1.263,3.048-2.457,5.927-3.991,9.274
			c-0.288,0.629-0.489,1.295-0.596,1.979c-1.898,12.107,3.409,18.34,6.742,20.978c6.325,5.006,16.363,5.812,25.574,2.052
			l12.228-4.993c8.467,4.16,17.436,6.83,26.758,7.992c-5.645,12.085-8.421,25.407-7.956,39.122
			c0.76,22.913,10.391,44.155,27.119,59.812c16.012,14.989,36.694,23.145,58.51,23.145c0.971,0,1.944-0.016,2.919-0.049
			c12.222-0.391,23.891-3.288,34.74-8.618l12.271,5.025c9.212,3.743,19.247,2.927,25.567-2.082c3.33-2.639,8.634-8.874,6.739-20.981
			c-0.107-0.684-0.308-1.351-0.597-1.981c-1.498-3.268-2.668-6.085-3.908-9.067c-0.849-2.043-1.717-4.131-2.697-6.37
			c7.552-13.547,11.263-28.854,10.758-44.532c-0.76-22.904-10.392-44.142-27.122-59.802c-13.355-12.5-29.958-20.242-47.762-22.472
			c4.868-10.439,7.604-21.798,7.981-33.433C309.915,140.832,272.742,101.084,225.481,99.513z M220.281,255.922
			c-11.088-0.355-21.608-3.204-31.268-8.466c-1.993-1.087-4.37-1.217-6.471-0.36l-15.455,6.311
			c-3.987,1.627-8.494,1.664-10.485,0.089c-1.488-1.177-1.525-3.871-1.314-5.842c1.432-3.173,2.605-6.003,3.742-8.748
			c1.262-3.046,2.455-5.923,3.987-9.266c1.055-2.301,0.888-4.978-0.446-7.13c-7.372-11.9-11.018-25.586-10.543-39.584
			c0.627-18.87,8.561-36.367,22.343-49.27c13.78-12.903,31.76-19.651,50.608-19.036c38.933,1.294,69.555,34.04,68.261,73.003
			c-0.384,11.845-3.729,23.337-9.693,33.473c-21.697,1.495-41.718,10.981-56.653,26.957c-2.347,2.51-4.505,5.148-6.511,7.873
			C220.349,255.924,220.315,255.923,220.281,255.922z M360.143,304.319c0.452,14.051-3.201,27.739-10.564,39.581
			c-1.344,2.162-1.51,4.854-0.441,7.164c1.58,3.417,2.801,6.354,4.093,9.464c1.113,2.678,2.26,5.437,3.653,8.526
			c0.21,1.974,0.174,4.673-1.317,5.854c-1.992,1.579-6.504,1.547-10.473-0.066l-15.485-6.341c-2.102-0.861-4.482-0.73-6.478,0.356
			c-9.662,5.263-20.173,8.112-31.249,8.467c-18.867,0.632-36.832-6.129-50.609-19.026c-13.781-12.898-21.715-30.399-22.342-49.284
			c-0.502-14.814,3.57-29.073,11.575-41.196c0.09-0.128,0.176-0.259,0.258-0.393c2.126-3.173,4.509-6.206,7.169-9.051
			c12.89-13.788,30.375-21.726,49.232-22.353c0.177-0.006,0.353,0,0.53-0.004c0.149,0.003,0.297,0.002,0.445-0.004
			c18.509-0.359,36.114,6.366,49.659,19.045C351.582,267.959,359.517,285.457,360.143,304.319z"/>
		<path d="M280.41,285.099l-14.98,40.07c-0.351,0.904-0.527,1.909-0.527,3.013c0,1.657,0.576,3.064,1.731,4.218
			c1.154,1.155,2.584,1.733,4.29,1.733c3.06,0,5.018-1.406,5.872-4.219l2.032-6.854h20.851l2.183,6.854
			c0.953,2.763,2.81,4.143,5.571,4.143c1.656,0,3.06-0.502,4.215-1.506c1.204-1.155,1.806-2.385,1.806-3.692
			c0-1.304-0.201-2.51-0.602-3.615L298.1,285.099c-1.656-4.519-4.592-6.78-8.807-6.78
			C285.027,278.319,282.066,280.579,280.41,285.099z M295.992,312.139l-13.7-0.075l7-21.09L295.992,312.139z"/>
	</g>
</g>
<g>
</g>
<g>
</g>
<g>
</g>
<g>
</g>
<g>
</g>
<g>
</g>
<g>
</g>
<g>
</g>
<g>
</g>
<g>
</g>
<g>
</g>
<g>
</g>
<g>
</g>
<g>
</g>
<g>
</g>
</svg>
