<?xml version="1.0" encoding="iso-8859-1"?>
<!-- Generator: Adobe Illustrator 23.0.3, SVG Export Plug-In . SVG Version: 6.00 Build 0)  -->
<svg version="1.1" id="Capa_1" xmlns="http://www.w3.org/2000/svg" xmlns:xlink="http://www.w3.org/1999/xlink" x="0px" y="0px"
	 viewBox="0 0 512 512" style="enable-background:new 0 0 512 512;" xml:space="preserve">
<g>
	<g>
		<path style="fill-rule:evenodd;clip-rule:evenodd;fill:#C4CCCF;" d="M421.966,142.693H239.412H48.252
			c-10.603,0-19.267,8.664-19.267,19.267v244.086L235.109,430.5l206.153-24.454V161.96
			C441.261,151.357,432.597,142.693,421.966,142.693L421.966,142.693z"/>
	</g>
	<g>
		<path style="fill-rule:evenodd;clip-rule:evenodd;fill:#ECEFF1;" d="M179.046,406.045h-9.605H28.984h-7.752
			c-7.496,0-13.652,6.156-13.652,13.681v21.519c0,7.524,6.128,13.681,13.652,13.681h427.782c7.496,0,13.652-6.156,13.652-13.681
			v-21.519c0-7.524-6.156-13.681-13.652-13.681h-7.752H300.805H291.2v14.222c0,5.558-4.56,10.118-10.118,10.118h-91.918
			c-5.586,0-10.118-4.56-10.118-10.118V406.045z"/>
	</g>
	<g>
		<path style="fill-rule:evenodd;clip-rule:evenodd;fill:#90A4AE;" d="M179.046,406.045v14.222c0,5.558,4.532,10.118,10.118,10.118
			h91.918c5.558,0,10.118-4.56,10.118-10.118v-14.222H179.046z"/>
	</g>
	<g>
		<path style="fill-rule:evenodd;clip-rule:evenodd;fill:#8EBFE8;" d="M230.976,177.436H65.98c-2.736,0-4.988,2.252-4.988,4.988
			v183.919c0,2.736,2.252,4.959,4.988,4.959h338.286c2.736,0,4.988-2.223,4.988-4.959V182.424c0-2.736-2.252-4.988-4.988-4.988
			H230.976z"/>
	</g>
	<g>
		<path style="fill-rule:evenodd;clip-rule:evenodd;fill:#519AD6;" d="M384.201,177.436v193.866h20.065
			c2.736,0,4.988-2.223,4.988-4.959V182.424c0-2.736-2.252-4.988-4.988-4.988H384.201z"/>
	</g>
	<g>
		<path style="fill-rule:evenodd;clip-rule:evenodd;fill:#90A4AE;" d="M409.254,182.424v183.919c0,2.736-2.252,4.959-4.988,4.959
			h-20.065v34.743h57.06V161.96c0-10.603-8.664-19.267-19.296-19.267h-37.765v34.743h20.065
			C407.002,177.436,409.254,179.688,409.254,182.424L409.254,182.424z"/>
	</g>
	<g>
		<path style="fill-rule:evenodd;clip-rule:evenodd;fill:#C4CCCF;" d="M441.261,406.045h-28.53c2.907,0,5.586,0.912,7.809,2.48
			c3.534,2.451,5.871,6.584,5.871,11.201v21.519c0,7.496-6.099,13.595-13.567,13.681h36.169c7.496,0,13.652-6.156,13.652-13.681
			v-21.519c0-7.524-6.156-13.681-13.652-13.681H441.261z"/>
	</g>
	<g>
		<path style="fill-rule:evenodd;clip-rule:evenodd;fill:#546E7A;" d="M269.738,196.133h37.109h50.733h81.914
			c0.342,0,0.684,0,1.055-0.028c11.002-0.542,19.809-9.719,19.809-20.863v-69.543L352.022,73.235l-103.176,31.751v70.256
			c0,11.173,8.864,20.35,19.923,20.863C269.083,196.133,269.396,196.133,269.738,196.133L269.738,196.133z"/>
	</g>
	<g>
		<path style="fill-rule:evenodd;clip-rule:evenodd;fill:#7C8C94;" d="M354.616,57.075c-5.415,0-10.802,1.226-20.692,3.648
			L213.761,88.797c-6.612,1.568-9.263,6.071-8.95,10.546c-0.314,4.475,2.337,8.978,8.95,10.546l120.163,28.074
			c9.89,2.423,15.277,3.648,20.692,3.648c5.387,0,10.802-1.226,20.664-3.648l120.163-28.074c6.641-1.568,9.263-6.071,8.95-10.546
			c0.314-4.475-2.309-8.978-8.95-10.546L375.28,60.723C365.418,58.3,360.003,57.075,354.616,57.075L354.616,57.075z"/>
	</g>
	<g>
		<path style="fill-rule:evenodd;clip-rule:evenodd;fill:#546E7A;" d="M397.34,65.882c17.386,11.087,28.103,26.278,28.103,43.037
			c0,1.596-0.114,3.192-0.314,4.76c-0.57,4.703-1.995,9.263-4.161,13.595l27.875-6.498l46.6-10.888
			c0.57-0.143,1.14-0.314,1.653-0.485c5.415-1.853,7.581-5.985,7.296-10.061c0.314-4.475-2.309-8.978-8.95-10.546L397.34,65.882z"/>
	</g>
	<g>
		<path style="fill-rule:evenodd;clip-rule:evenodd;fill:#37474F;" d="M248.846,141.097l68.547,15.961l16.531,3.848
			c19.752,4.902,21.604,4.902,41.356,0l16.987-3.734l15.305-3.335c16.73-3.648,17.016-1.169,17.016,16.673v25.623h14.906
			c0.342,0,0.684,0,1.055-0.028c11.002-0.542,19.809-9.719,19.809-20.863v-33.432v-23.314c-3.392,0.884-6.897,1.796-10.517,2.793
			l-74.56,16.303c-19.752,4.874-21.604,4.874-41.356,0l-85.077-19.808V141.097z"/>
	</g>
	<g>
		<path style="fill-rule:evenodd;clip-rule:evenodd;fill:#FFD54F;" d="M486.494,196.361c-9.206,0-16.702,7.61-16.702,16.93v26.563
			c0,9.32,7.496,16.93,16.702,16.93c9.178,0,16.673-7.61,16.673-16.93v-26.563C503.167,203.971,495.671,196.361,486.494,196.361
			L486.494,196.361z"/>
	</g>
	<g>
		<path style="fill-rule:evenodd;clip-rule:evenodd;fill:#C4CCCF;" d="M213.846,283.461l-10.004-31.266h-22.431
			c-6.983,0-12.712,5.729-12.712,12.712v35.997c0,6.983,5.729,12.712,12.712,12.712h22.431L213.846,283.461z"/>
	</g>
	<g>
		<path style="fill-rule:evenodd;clip-rule:evenodd;fill:#ECEFF1;" d="M203.842,252.195v30.696v30.724l24.454,13.652
			c11.287,6.726,27.675,5.13,27.675-13.681v-30.696v-30.667c0-18.811-16.388-20.407-27.675-13.681L203.842,252.195z"/>
	</g>
	<g>
		<path style="fill-rule:evenodd;clip-rule:evenodd;fill:#C4CCCF;" d="M229.836,237.688c3.62,2.651,6.042,7.325,6.042,14.536v30.667
			v30.696c0,7.211-2.423,11.885-6.042,14.536c11.201,5.7,26.136,3.42,26.136-14.536v-30.696v-30.667
			C255.972,234.268,241.037,231.988,229.836,237.688L229.836,237.688z"/>
	</g>
	<g>
		<path d="M417.662,422.925h-0.199c-4.186,0-7.58,3.391-7.58,7.575s3.393,7.575,7.58,7.575h0.199c4.186,0,7.58-3.391,7.58-7.575
			S421.848,422.925,417.662,422.925z"/>
		<path d="M384.4,422.925h-0.199c-4.186,0-7.58,3.391-7.58,7.575s3.393,7.575,7.58,7.575h0.199c4.186,0,7.58-3.391,7.58-7.575
			S388.586,422.925,384.4,422.925z"/>
		<path d="M351.167,423.095h-0.2c-4.186,0-7.58,3.391-7.58,7.575c0,4.184,3.393,7.575,7.58,7.575h0.2c4.186,0,7.58-3.391,7.58-7.575
			C358.747,426.486,355.354,423.095,351.167,423.095z"/>
		<path d="M290.568,251.009c-3.678-1.993-8.28-0.631-10.276,3.047c-1.996,3.677-0.632,8.275,3.048,10.271
			c5.278,2.862,8.69,10.367,8.69,19.12c0,8.754-3.411,16.259-8.69,19.121c-3.679,1.995-5.044,6.594-3.048,10.271
			c1.373,2.53,3.979,3.965,6.669,3.965c1.221,0,2.459-0.296,3.607-0.918c10.251-5.559,16.62-17.988,16.62-32.439
			C307.187,268.997,300.819,256.568,290.568,251.009z"/>
		<path d="M314.195,231.827c-3.68-1.995-8.281-0.63-10.276,3.047c-1.996,3.678-0.631,8.276,3.049,10.271
			c11.005,5.966,18.116,21.006,18.116,38.316c0,17.31-7.111,32.35-18.116,38.316c-3.68,1.995-5.044,6.593-3.049,10.271
			c1.373,2.53,3.979,3.965,6.669,3.965c1.221,0,2.459-0.296,3.607-0.918c16.067-8.71,26.048-28.495,26.048-51.634
			C340.242,260.322,330.262,240.537,314.195,231.827z"/>
		<path d="M494.073,190.007v-72.019l3.112-0.727c9.407-2.221,15.163-9.222,14.798-17.918c0.366-8.695-5.391-15.697-14.815-17.921
			L377.089,53.367c-9.759-2.398-16.065-3.867-22.473-3.867c-6.405,0-12.419,1.397-22.418,3.847l-120.187,28.08
			c-10.647,2.524-15.061,10.72-14.79,17.915c-0.271,7.196,4.144,15.392,14.814,17.922l29.231,6.829v11.025H48.251
			c-14.803,0-26.847,12.04-26.847,26.842v236.51h-0.173C9.525,398.471,0,408.006,0,419.726v21.519
			c0,11.72,9.525,21.255,21.232,21.255h427.753c11.723,0,21.261-9.535,21.261-21.255v-21.519c0-11.72-9.538-21.255-21.261-21.255
			h-0.144V202.121c11.105-3.879,19.096-14.46,19.096-26.88v-51.017c0-0.044-0.006-0.086-0.007-0.129l10.984-2.566v68.475
			c-9.687,3.191-16.702,12.319-16.702,23.059v27.02c0,13.386,10.893,24.276,24.282,24.276c13.373,0,24.253-10.89,24.253-24.276
			v-27.02C510.747,202.326,503.744,193.201,494.073,190.007z M212.372,99.871c0.024-0.352,0.024-0.707,0-1.059
			c-0.032-0.463-0.131-1.87,3.114-2.639l120.242-28.092c9.735-2.385,14.464-3.431,18.888-3.431c4.434,0,9.15,1.045,18.938,3.45
			l120.146,28.07c3.262,0.77,3.167,2.132,3.131,2.644c-0.024,0.351-0.024,0.705,0,1.057c0.036,0.513,0.131,1.875-3.114,2.641
			l-8.643,2.019c-0.165,0.031-0.326,0.072-0.487,0.114l-111.117,25.96c-9.704,2.385-14.42,3.43-18.854,3.43
			c-4.424,0-9.152-1.046-18.967-3.45L215.51,102.518C212.241,101.743,212.34,100.334,212.372,99.871z M455.087,419.726v21.519
			c0,3.367-2.737,6.106-6.102,6.106H21.232c-3.348,0-6.073-2.739-6.073-6.106v-21.519c0-3.31,2.781-6.106,6.073-6.106h150.234v6.647
			c0,9.756,7.94,17.693,17.698,17.693h91.918c9.758,0,17.698-7.937,17.698-17.693v-6.647h150.205
			C452.35,413.62,455.087,416.359,455.087,419.726z M283.62,413.62v6.647c0,1.379-1.162,2.544-2.539,2.544h-91.918
			c-1.376,0-2.539-1.165-2.539-2.544v-6.647H283.62z M452.778,175.241c0,7.343-5.959,13.317-13.284,13.317h-64.1
			c-4.186,0-7.58,3.391-7.58,7.575s3.393,7.575,7.58,7.575h26.28v160.02H68.571V185.01h149.465c4.186,0,7.58-3.391,7.58-7.575
			s-3.393-7.575-7.58-7.575H65.98c-6.93,0-12.568,5.635-12.568,12.563v183.92c0,6.911,5.638,12.534,12.568,12.534h338.286
			c6.929,0,12.567-5.622,12.567-12.534V203.708h16.848v194.763H291.2H179.046H36.564V161.96c0-6.446,5.243-11.692,11.687-11.692
			h193.015v24.973c0,15.236,11.926,27.724,27.148,28.43c4.333,0.203,8.819,0.269,13.341,0.269c4.297,0,8.627-0.06,12.885-0.118
			c4.245-0.059,8.254-0.115,12.206-0.115h32.977c4.186,0,7.58-3.391,7.58-7.575s-3.393-7.575-7.58-7.575h-32.977
			c-4.057,0-8.306,0.058-12.416,0.115c-8.512,0.117-17.316,0.24-25.311-0.135c-7.118-0.33-12.695-6.17-12.695-13.296v-29.534
			c0.402-0.924,0.627-1.942,0.627-3.014s-0.225-2.09-0.627-3.014v-12.045l75.693,17.684c10.078,2.469,16.092,3.866,22.497,3.866
			c6.408,0,12.714-1.469,22.389-3.847l75.772-17.703V175.241z M495.587,240.082c0,5.032-4.079,9.127-9.094,9.127
			c-5.03,0-9.122-4.095-9.122-9.127v-27.02c0-5.032,4.092-9.127,9.122-9.127c5.015,0,9.094,4.095,9.094,9.127V240.082z"/>
		<path d="M252.415,230.258c-7.756-4.402-18.697-3.724-27.902,1.719l-22.645,12.642h-20.456c-11.189,0-20.291,9.101-20.291,20.287
			v35.997c0,11.186,9.103,20.287,20.291,20.287h20.456l22.645,12.642c5.162,3.053,10.869,4.607,16.255,4.607
			c4.218,0,8.241-0.953,11.647-2.887c4.159-2.361,11.136-8.355,11.136-21.965v-61.364
			C263.551,238.613,256.574,232.62,252.415,230.258z M176.279,300.904v-35.997c0-2.784,2.35-5.137,5.132-5.137h14.851v46.271
			h-14.851C178.63,306.041,176.279,303.688,176.279,300.904z M248.392,313.587c0,4.528-1.165,7.486-3.464,8.791
			c-3.028,1.718-8.27,1.054-12.75-1.617c-0.061-0.037-0.123-0.072-0.186-0.108l-20.571-11.484v-52.53l20.571-11.484
			c0.063-0.035,0.124-0.07,0.186-0.108c4.482-2.669,9.724-3.334,12.75-1.617c2.298,1.306,3.464,4.263,3.464,8.791V313.587z"/>
	</g>
</g>
<g>
</g>
<g>
</g>
<g>
</g>
<g>
</g>
<g>
</g>
<g>
</g>
<g>
</g>
<g>
</g>
<g>
</g>
<g>
</g>
<g>
</g>
<g>
</g>
<g>
</g>
<g>
</g>
<g>
</g>
</svg>
