<?xml version="1.0" encoding="iso-8859-1"?>
<!-- Generator: Adobe Illustrator 23.0.3, SVG Export Plug-In . SVG Version: 6.00 Build 0)  -->
<svg version="1.1" id="Capa_1" xmlns="http://www.w3.org/2000/svg" xmlns:xlink="http://www.w3.org/1999/xlink" x="0px" y="0px"
	 viewBox="0 0 512 512" style="enable-background:new 0 0 512 512;" xml:space="preserve">
<g>
	<g>
		<path style="fill-rule:evenodd;clip-rule:evenodd;fill:#ECEFF1;" d="M420.845,357.011H121.537h-15.943
			c-42.92,0-51.828,65.686-52.537,81.739v2.95c0,0.028,0,0.028,0,0.028c0.709,15.826,12.766,31.141,36.566,31.141h70.579h248.672
			h12.453c20.907,0,37.502-17.102,37.502-37.977V319.006C458.802,339.909,441.724,357.011,420.845,357.011L420.845,357.011z"/>
	</g>
	<g>
		<path style="fill-rule:evenodd;clip-rule:evenodd;fill:#FCD968;" d="M121.537,407.013l32.141-180.694L121.537,7.96
			c-30.495,0-65.615-3.687-68.48,39.905V438.75c0.709-16.053,13.021-31.737,36.566-31.737H121.537z"/>
	</g>
	<g>
		<path style="fill-rule:evenodd;clip-rule:evenodd;fill:#F55A8E;" d="M121.537,7.96v399.054h299.309
			c20.879,0,37.956-17.074,37.984-37.977l0.113-323.497c0.028-20.903-17.077-37.977-37.984-37.977L121.537,7.96z"/>
	</g>
	<g>
		<path style="fill-rule:evenodd;clip-rule:evenodd;fill:#BA4583;" d="M421.328,7.563v399.451
			c20.68-0.255,37.474-17.244,37.502-37.977l0.113-323.497C458.972,24.778,442.065,7.761,421.328,7.563L421.328,7.563z"/>
	</g>
	<g>
		<path style="fill-rule:evenodd;clip-rule:evenodd;fill:#C4CCCF;" d="M89.737,434.78h331.222c19.914,0,36.368-15.542,37.871-35.084
			v-30.659c-0.028,20.733-16.822,37.721-37.502,37.977c-0.17,0-0.34,0-0.482,0H121.537H89.623
			c-23.545,0-35.857,15.684-36.566,31.737v2.95c0,0.028,0,0.028,0,0.028c0.199,4.283,1.22,8.537,3.092,12.451
			C61.142,443.288,72.404,434.78,89.737,434.78L89.737,434.78z"/>
	</g>
	<g>
		<path style="fill-rule:evenodd;clip-rule:evenodd;fill:#FCD968;" d="M367.003,81.417H190.527c-6.298,0-11.432,5.162-11.432,11.458
			v19.428v0.482v45.521c0,6.296,5.135,11.458,11.432,11.458h48.055h51.913h76.508c6.298,0,11.432-5.162,11.432-11.458v-45.578v-0.34
			V92.876C378.436,86.579,373.301,81.417,367.003,81.417L367.003,81.417z"/>
	</g>
	<g>
		<path style="fill-rule:evenodd;clip-rule:evenodd;fill:#8EBFE8;" d="M245.164,504.834c-6.468,0-11.773-4.907-11.773-10.891
			v-80.662h-15.829c-37.729-1.872-38.58-31.68-23.006-51.704l53.842-69.175c17.418-21.186,45.559-21.186,60.735,0l53.842,69.175
			c15.574,20.024,14.751,49.832-23.006,51.704H324.14v80.662c0,5.984-5.305,10.891-11.773,10.891H245.164z"/>
	</g>
	<g>
		<path style="fill-rule:evenodd;clip-rule:evenodd;fill:#519AD6;" d="M291.63,472.87v31.964h20.737
			c6.468,0,11.773-4.907,11.773-10.891V472.87v-38.09v-21.498h15.829c9.645-0.482,16.85-2.779,22.013-6.268
			c15.092-10.154,12.595-30.518,0.993-45.436l-53.842-69.175c-10.241-14.266-26.325-18.917-41.077-13.982
			c1.106,1.22,2.156,2.524,3.177,3.914l53.814,69.175c15.602,20.024,17.163,41.664-20.567,41.664
			c-7.234,0-12.851,4.198-12.851,10.749v5.928v24.93V472.87z"/>
	</g>
	<g>
		<path style="fill-rule:evenodd;clip-rule:evenodd;fill:#E69B56;" d="M344.054,81.417v88.348h22.95
			c6.298,0,11.432-5.162,11.432-11.458v-45.578v-0.34V92.876c0-6.296-5.135-11.458-11.432-11.458H344.054z"/>
	</g>
	<g>
		<path d="M367.003,73.855H190.527c-10.471,0-18.989,8.533-18.989,19.021v65.431c0,10.488,8.519,19.021,18.989,19.021h69.729
			c4.174,0,7.556-3.386,7.556-7.563s-3.383-7.563-7.556-7.563h-69.729c-2.1,0-3.875-1.784-3.875-3.896V92.876
			c0-2.112,1.775-3.896,3.875-3.896h176.476c2.101,0,3.876,1.784,3.876,3.896v65.431c0,2.112-1.775,3.896-3.876,3.896h-68.877
			c-4.174,0-7.556,3.386-7.556,7.563s3.383,7.563,7.556,7.563h68.877c10.471,0,18.989-8.533,18.989-19.021V92.876
			C385.992,82.388,377.474,73.855,367.003,73.855z"/>
		<path d="M453.188,13.408C444.561,4.761,433.115,0,420.949,0L121.535,0.397c-2.174,0-4.371-0.02-6.578-0.038
			C99.836,0.225,84.204,0.092,71.21,5.682c-15.674,6.741-24.319,20.766-25.694,41.687c-0.011,0.165-0.017,0.33-0.017,0.496V438.75
			v2.978c0,0.113,0.002,0.226,0.008,0.339c0.828,18.478,14.987,38.366,44.115,38.366h135.814v13.113
			c0,10.176,8.671,18.454,19.33,18.454h67.203c10.658,0,19.33-8.278,19.33-18.454v-13.113h90.029
			c24.846,0,45.059-20.429,45.059-45.539v-65.854l0.113-323.49C466.517,33.442,461.789,22.027,453.188,13.408z M225.437,465.308
			H89.623c-20.528,0-28.447-12.762-29.009-23.76v-2.619c0.61-12.148,9.795-24.353,29.009-24.353h31.914h72.221
			c5.523,3.046,12.978,5.364,23.033,5.863c0.124,0.006,0.249,0.009,0.374,0.009h8.272V465.308z M323.743,405.322
			c-4.174,0-7.556,3.386-7.556,7.563v80.661c0,1.773-1.97,3.329-4.217,3.329h-67.203c-2.246,0-4.216-1.556-4.216-3.329v-80.661
			c0-4.177-3.383-7.563-7.557-7.563h-15.637c-8.642-0.453-19.686-2.822-23.649-11.472c-3.464-7.561-0.947-18.561,6.412-28.021
			l53.777-69.093c7.109-8.608,16.655-13.406,26.22-13.041c8.83,0.293,16.812,4.81,22.476,12.718
			c0.059,0.081,0.119,0.162,0.181,0.241l53.84,69.173c7.355,9.456,9.869,20.455,6.404,28.018
			c-3.964,8.653-15.002,11.023-23.639,11.477H323.743z M451.274,434.893c0,16.77-13.434,30.414-29.946,30.414h-90.029v-44.86h8.272
			c0.125,0,0.25-0.003,0.374-0.009c10.05-0.499,17.501-2.816,23.022-5.863h57.878c11.683,0,22.355-4.436,30.428-11.711V434.893z
			 M451.274,369.026c-0.023,16.776-13.673,30.424-30.428,30.424h-43.805c5.458-12.734,2.25-29.094-8.502-42.918l-53.754-69.062
			c-8.339-11.565-20.782-18.45-34.164-18.895c-14.356-0.487-28.333,6.312-38.455,18.624c-0.043,0.052-0.085,0.105-0.126,0.157
			l-53.843,69.177c-10.753,13.826-13.965,30.185-8.511,42.916h-50.59V242.145c0-4.177-3.383-7.563-7.557-7.563
			s-7.557,3.386-7.557,7.563V399.45H89.623c-12.302,0-21.924,3.611-29.009,9.188V48.12c2.151-31.2,21.685-32.885,53.366-32.642
			v192.008c0,4.177,3.383,7.563,7.557,7.563s7.557-3.386,7.557-7.563V15.512l291.865-0.387c8.115,0,15.763,3.186,21.535,8.971
			c5.745,5.758,8.904,13.37,8.893,21.44L451.274,369.026z"/>
	</g>
</g>
<g>
</g>
<g>
</g>
<g>
</g>
<g>
</g>
<g>
</g>
<g>
</g>
<g>
</g>
<g>
</g>
<g>
</g>
<g>
</g>
<g>
</g>
<g>
</g>
<g>
</g>
<g>
</g>
<g>
</g>
</svg>
