<?xml version="1.0" encoding="iso-8859-1"?>
<!-- Generator: Adobe Illustrator 23.0.3, SVG Export Plug-In . SVG Version: 6.00 Build 0)  -->
<svg version="1.1" id="Capa_1" xmlns="http://www.w3.org/2000/svg" xmlns:xlink="http://www.w3.org/1999/xlink" x="0px" y="0px"
	 viewBox="0 0 512 512" style="enable-background:new 0 0 512 512;" xml:space="preserve">
<g>
	<g>
		<path style="fill-rule:evenodd;clip-rule:evenodd;fill:#8EBFE8;" d="M181.284,432.902c91.877,0,166.804-74.959,166.804-166.841
			S273.161,99.248,181.284,99.248c-91.905,0-166.832,74.931-166.832,166.813S89.379,432.902,181.284,432.902L181.284,432.902z"/>
	</g>
	<g>
		<path style="fill-rule:evenodd;clip-rule:evenodd;fill:#8BC34A;" d="M115.646,329.121c-46.331,16.277-53.094-34.042-85.142,8.447
			c22.843,48.102,68.08,83.547,122.212,92.892C187.093,397.794,160.686,313.293,115.646,329.121L115.646,329.121z"/>
	</g>
	<g>
		<path style="fill-rule:evenodd;clip-rule:evenodd;fill:#8BC34A;" d="M310.372,371.722c0,0-52.982-6.792-33.198-58.429
			c19.756-51.638-19.868-71.17-62.439-82.003c-33.198-8.447-39.288-56.072-27.754-76.194c16.024-27.952,61.934-39.065,111.661-7.577
			c30.532,30.225,49.446,72.181,49.446,118.543C348.088,306.164,333.945,342.956,310.372,371.722L310.372,371.722z"/>
	</g>
	<g>
		<path style="fill-rule:evenodd;clip-rule:evenodd;fill:#8BC34A;" d="M97.742,208.866c36.65-7.437,42.459-80.404-6.903-83.013
			c-45.966,29.72-76.386,81.414-76.386,140.208c0,5.108,0.225,10.131,0.674,15.098C71.532,286.716,19.616,224.723,97.742,208.866
			L97.742,208.866z"/>
	</g>
	<g>
		<path style="fill-rule:evenodd;clip-rule:evenodd;fill:#519AD6;" d="M147.273,102.728c27.866,2.863,53.684,12.601,75.769,27.503
			c20.907-4.659,47.65-0.421,75.6,17.287c-30.139-29.832-71.616-48.27-117.358-48.27C169.61,99.248,158.245,100.455,147.273,102.728
			L147.273,102.728z"/>
	</g>
	<g>
		<path style="fill-rule:evenodd;clip-rule:evenodd;fill:#689F38;" d="M223.041,130.231c44.451,29.944,73.692,80.768,73.692,138.412
			c0,29.271-7.549,56.802-20.794,80.712c9.064,19.112,34.433,22.367,34.433,22.367c23.573-28.766,37.716-65.558,37.716-105.661
			c0-46.362-18.914-88.318-49.446-118.543C270.692,129.81,243.948,125.572,223.041,130.231L223.041,130.231z"/>
	</g>
	<g>
		<path style="fill-rule:evenodd;clip-rule:evenodd;fill:#519AD6;" d="M310.372,371.722c0,0-25.369-3.255-34.433-22.367
			c-23.18,41.844-63.786,72.658-112.026,82.649c5.697,0.589,11.478,0.898,17.371,0.898
			C233.312,432.902,279.784,409.075,310.372,371.722L310.372,371.722z"/>
	</g>
	<g>
		<path style="fill-rule:evenodd;clip-rule:evenodd;fill:#C4CCCF;" d="M430.115,359.991l-67.49,21.722v55.37
			c0,37.129,30.364,67.494,67.49,67.494c37.099,0,67.462-30.365,67.462-67.494v-55.37L430.115,359.991z"/>
	</g>
	<g>
		<path style="fill-rule:evenodd;clip-rule:evenodd;fill:#ECEFF1;" d="M430.115,381.713l19.756-23.377l-19.756-39.57h-36.734
			c-16.922,0-30.757,13.836-30.757,30.758v32.189H430.115z"/>
	</g>
	<g>
		<path style="fill-rule:evenodd;clip-rule:evenodd;fill:#ECEFF1;" d="M430.115,318.765v62.948h67.462v-32.189
			c0-16.923-13.835-30.758-30.757-30.758H430.115z"/>
	</g>
	<g>
		<path style="fill-rule:evenodd;clip-rule:evenodd;fill:#C4CCCF;" d="M468.308,398.271h29.269v-48.747
			c0-16.923-13.835-30.758-30.757-30.758h-29.269c16.922,0,30.757,13.836,30.757,30.758v39.318V398.271z"/>
	</g>
	<g>
		<path style="fill-rule:evenodd;clip-rule:evenodd;fill:#90A4AE;" d="M497.577,381.713h-29.269v55.37
			c0,32.105-22.703,59.159-52.842,65.894c4.715,1.038,9.625,1.6,14.649,1.6c37.099,0,67.462-30.365,67.462-67.494V381.713z"/>
	</g>
	<g>
		<path style="fill-rule:evenodd;clip-rule:evenodd;fill:#546E7A;" d="M83.402,155.152h39.428h53.88h87.022
			c0.365,0,0.73-0.028,1.094-0.028c11.702-0.589,21.075-10.328,21.075-22.171V59.06L170.817,24.598L61.205,58.331v74.622
			c0,11.871,9.429,21.637,21.159,22.171C82.701,155.124,83.065,155.152,83.402,155.152L83.402,155.152z"/>
	</g>
	<g>
		<path style="fill-rule:evenodd;clip-rule:evenodd;fill:#7C8C94;" d="M173.567,7.423c-5.753,0-11.478,1.291-21.973,3.901
			L23.938,41.128c-7.016,1.656-9.822,6.455-9.485,11.198c-0.337,4.743,2.47,9.542,9.485,11.198l127.657,29.804
			c10.495,2.61,16.22,3.901,21.973,3.901c5.725,0,11.478-1.291,21.945-3.901l127.657-29.804c7.044-1.656,9.85-6.455,9.513-11.198
			c0.337-4.743-2.47-9.542-9.513-11.198L195.512,11.323C185.045,8.714,179.292,7.423,173.567,7.423L173.567,7.423z"/>
	</g>
	<g>
		<path style="fill-rule:evenodd;clip-rule:evenodd;fill:#546E7A;" d="M218.972,16.796c18.437,11.759,29.83,27.896,29.83,45.716
			c0,1.684-0.112,3.368-0.309,5.023c-0.617,4.995-2.133,9.851-4.434,14.453l29.606-6.904l49.502-11.562
			c0.617-0.14,1.179-0.309,1.74-0.505c5.753-1.964,8.082-6.371,7.773-10.692c0.337-4.743-2.47-9.542-9.513-11.198L218.972,16.796z"
			/>
	</g>
	<g>
		<path style="fill-rule:evenodd;clip-rule:evenodd;fill:#37474F;" d="M61.233,96.694l72.794,16.951l17.567,4.069
			c20.963,5.192,22.955,5.192,43.918,0l18.044-3.929l16.248-3.564c17.792-3.901,18.1-1.235,18.1,17.708v27.222h15.827
			c0.365,0,0.73-0.028,1.094-0.028c11.702-0.589,21.075-10.328,21.075-22.171V97.424V72.672c-3.592,0.926-7.324,1.908-11.197,2.947
			l-79.193,17.344c-20.963,5.192-22.955,5.192-43.918,0L61.233,71.914V96.694z"/>
	</g>
	<g>
		<path style="fill-rule:evenodd;clip-rule:evenodd;fill:#FFD54F;" d="M316.574,155.404c-9.738,0-17.736,8.082-17.736,17.961v28.232
			c0,9.879,7.998,17.961,17.736,17.961c9.766,0,17.736-8.082,17.736-17.961v-28.232C334.309,163.487,326.34,155.404,316.574,155.404
			L316.574,155.404z"/>
	</g>
	<path d="M466.821,311.343h-29.284v-23.476c0-19.119-15.553-34.673-34.671-34.673h-47.824c-1.384-19.035-5.846-37.498-13.311-55.059
		v-24.994c0-11.29-7.475-20.866-17.735-24.04V70.951l0.871-0.203c9.707-2.281,15.64-9.48,15.248-18.423
		c0.391-8.943-5.542-16.142-15.259-18.426L197.253,4.107C186.053,1.315,180.058,0,173.567,0c-6.837,0-13.469,1.56-23.711,4.106
		L22.232,33.903c-9.687,2.286-15.606,9.485-15.214,18.422c-0.392,8.937,5.528,16.136,15.231,18.426l31.561,7.369v54.833
		c0,4.187,0.87,8.17,2.431,11.784C24.467,177.434,7.03,220.288,7.03,266.061c0,5.186,0.241,10.315,0.687,15.387
		c0.01,0.254,0.032,0.504,0.067,0.752c1.885,20.433,7.311,39.852,15.66,57.642c0.188,0.585,0.451,1.147,0.784,1.677
		c23.978,49.712,70.877,86.37,126.895,96.186c0.264,0.058,0.53,0.104,0.798,0.132c9.55,1.628,19.358,2.487,29.365,2.487
		c17.976,0,35.697-2.732,52.675-8.121c3.907-1.241,6.069-5.414,4.829-9.321c-1.24-3.908-5.412-6.069-9.321-4.83
		c-15.523,4.927-31.733,7.427-48.183,7.427c-4.95,0-9.845-0.239-14.681-0.683c5.687-9.499,8.899-21.21,9.221-34.147
		c0.414-16.671-3.999-33.839-12.109-47.1c-12.353-20.197-31.241-28.211-50.53-21.433c-17.914,6.294-28.478,1.254-38.694-3.62
		c-7.085-3.38-14.403-6.872-23.004-5.587c-6.346,0.951-12.476,4.444-18.83,10.782c-4.305-11.064-7.403-22.724-9.144-34.818
		c24.644-0.851,28.31-17.427,31.307-31.02c3.71-16.83,7.547-34.233,44.404-41.713c10.365-2.111,19.217-8.421,25.601-18.249
		c6.501-10.007,9.702-22.92,9.02-35.317h42.319c-3.525,13.888-2.258,31.489,3.868,45.917c6.638,15.632,18.311,26.283,32.902,29.999
		c3.42,0.855,7.018,1.853,11.001,3.051c0.712,0.214,1.432,0.315,2.139,0.315c3.191,0,6.139-2.074,7.106-5.288
		c1.179-3.926-1.046-8.065-4.972-9.246c-4.208-1.265-8.026-2.323-11.643-3.227c-12.77-3.252-19.484-13.436-22.868-21.406
		c-5.934-13.976-5.658-30.227-2.011-40.115h72.046c10.615,0,19.938-5.626,25.161-14.054c2.93,2.688,5.752,5.496,8.479,8.39
		c-3.711,4.385-5.956,10.049-5.956,16.23v28.681c0,13.873,11.286,25.159,25.158,25.159c6.713,0,12.815-2.648,17.331-6.948
		c4.484,14.829,6.761,30.241,6.761,46.027c0,35.747-12.103,69.938-33.337,97.465c-6.176-1.568-17.904-5.711-23.66-15.41
		c-4.794-8.078-4.647-18.901,0.437-32.171c13.191-34.473,3.745-60.562-28.078-77.538c-3.616-1.928-8.113-0.561-10.042,3.055
		c-1.93,3.617-0.562,8.113,3.055,10.043c25.173,13.428,31.711,31.667,21.202,59.132c-6.809,17.772-6.566,32.965,0.722,45.16
		c6.533,10.93,17.355,16.858,25.866,19.996c-10.53,11.125-22.722,20.822-36.345,28.641c-3.556,2.041-4.783,6.577-2.743,10.133
		c1.372,2.391,3.872,3.729,6.444,3.729c1.253,0,2.523-0.318,3.688-0.987c18.438-10.582,34.488-24.302,47.642-40.253
		c0.436-0.421,0.821-0.896,1.145-1.417c24.293-30.093,38.373-67.914,38.827-107.599h47.377c10.932,0,19.826,8.895,19.826,19.828
		v23.476h-29.312c-21.052,0-38.179,17.127-38.179,38.18v87.56c0,41.309,33.606,74.917,74.913,74.917
		C471.407,512,505,478.392,505,437.083v-87.56C505,328.47,487.873,311.343,466.821,311.343z M53.689,327.592
		c4.099-0.614,8.651,1.556,14.41,4.304c11.104,5.297,26.31,12.553,50.008,4.228c16.946-5.957,27.914,6.949,32.943,15.172
		c12.267,20.058,14.444,53.125-0.94,71.114c-48.4-9.635-88.975-41.248-110.834-83.966C44.815,331.779,49.554,328.211,53.689,327.592
		z M112.376,189.804c-2.906,4.473-8.06,10.149-16.11,11.788c-46.317,9.4-51.881,34.637-55.943,53.065
		c-1.482,6.721-2.761,12.526-5.736,15.666c-0.945,0.997-3.508,3.69-12.512,3.757c-0.132-2.657-0.201-5.331-0.201-8.02
		c0-41.188,15.434-79.794,43.607-109.515c4.62,3.517,10.314,5.71,16.545,5.993c4.597,0.209,9.353,0.278,14.145,0.278
		c4.565,0,9.164-0.062,13.685-0.123c3.143-0.043,6.162-0.082,9.128-0.103C119.718,172.128,117.359,182.135,112.376,189.804z
		 M278.48,132.953c0,8.147-6.616,14.777-14.747,14.777h-76.615c-0.005,0-0.01,0-0.015,0h-61.809c-0.009,0-0.018,0-0.027,0h-2.437
		c-4.303,0-8.813,0.06-13.173,0.119c-9.055,0.124-18.417,0.248-26.956-0.14c-7.875-0.359-14.045-6.839-14.045-14.756V81.586
		l81.201,18.958c10.242,2.546,16.874,4.106,23.711,4.106c6.49,0,12.486-1.315,23.685-4.107l81.227-18.964V132.953z M193.824,86.098
		c-0.036,0.009-0.072,0.017-0.108,0.027c-10.033,2.501-15.292,3.681-20.149,3.681c-4.848,0-10.119-1.18-20.182-3.683
		c-0.035-0.009-0.069-0.016-0.104-0.025L62.968,65.012c-0.103-0.025-0.204-0.052-0.308-0.072l-37.017-8.642
		c-2.63-0.62-3.904-1.78-3.786-3.447c0.025-0.35,0.025-0.701,0-1.051c-0.118-1.667,1.156-2.826,3.769-3.443l127.657-29.804
		c0.035-0.009,0.069-0.016,0.104-0.025c10.063-2.503,15.335-3.682,20.182-3.682c4.857,0,10.116,1.179,20.149,3.68
		c0.036,0.01,0.072,0.018,0.108,0.027L321.47,48.354c3.986,0.937,3.851,2.825,3.807,3.446c-0.025,0.35-0.025,0.701,0,1.051
		c0.044,0.621,0.178,2.509-3.797,3.443L193.824,86.098z M293.324,132.647V78.113l15.828-3.696v73.367
		C304.187,142.423,298.901,137.345,293.324,132.647z M326.887,199.663c0,0.03,0,0.06,0,0.09v2.069
		c0,5.687-4.626,10.314-10.313,10.314c-5.687,0-10.314-4.627-10.314-10.314v-28.681c0-3.859,2.134-7.226,5.281-8.994
		c0.081-0.044,0.164-0.086,0.244-0.133c1.433-0.755,3.061-1.188,4.789-1.188c5.687,0,10.313,4.627,10.313,10.314V199.663z
		 M370.047,349.523c0-12.867,10.468-23.335,23.334-23.335h29.312v48.103h-52.646V349.523z M490.155,437.083
		c0,33.124-26.934,60.072-60.041,60.072c-33.121,0-60.068-26.948-60.068-60.072v-47.947h120.109V437.083z M490.155,374.291h-52.618
		v-48.103h29.284c12.866,0,23.334,10.468,23.334,23.335V374.291z"/>
</g>
<g>
</g>
<g>
</g>
<g>
</g>
<g>
</g>
<g>
</g>
<g>
</g>
<g>
</g>
<g>
</g>
<g>
</g>
<g>
</g>
<g>
</g>
<g>
</g>
<g>
</g>
<g>
</g>
<g>
</g>
</svg>
